<svg id="Warstwa_1" data-name="Warstwa 1" xmlns="http://www.w3.org/2000/svg" viewBox="0 0 32 32"><defs><style>.cls-1{fill:#fff;}</style></defs><title>Obszar roboczy 14</title><path class="cls-1" d="M15.32,8.48A3.33,3.33,0,0,0,13.6,8h-.17A3.41,3.41,0,0,0,10,11.43V27.86a1,1,0,0,0,1,1h5a1,1,0,0,0,1-1V11.43A3.4,3.4,0,0,0,15.32,8.48ZM15,26.87H12V11.43A1.45,1.45,0,0,1,13.43,10h.17A1.44,1.44,0,0,1,15,11.43Z"/><path class="cls-1" d="M13.5,2a3.49,3.49,0,0,0-1.81,6.47A3.41,3.41,0,0,0,13.5,9a3.53,3.53,0,0,0,1.82-.51A3.49,3.49,0,0,0,13.5,2Zm0,2A1.51,1.51,0,1,1,12,5.5,1.52,1.52,0,0,1,13.5,4Z"/><path class="cls-1" d="M7.49,11.72a3.39,3.39,0,0,0-4.19.07A3.56,3.56,0,0,0,1.94,14.6V27.87a1,1,0,0,0,.31.73,1,1,0,0,0,.72.3H3l5-.07a1,1,0,0,0,1-1V14.6A3.55,3.55,0,0,0,7.49,11.72Zm-.6,15.07L4,26.83V14.6a1.48,1.48,0,0,1,1.44-1.52A1.49,1.49,0,0,1,6.89,14.6Z"/><path class="cls-1" d="M5.34,5.23A3.62,3.62,0,0,0,1.7,8.82a3.54,3.54,0,0,0,1.6,3,3.68,3.68,0,0,0,4.19-.07A3.57,3.57,0,0,0,9,8.82,3.62,3.62,0,0,0,5.34,5.23Zm0,2a1.6,1.6,0,1,1,0,3.2,1.6,1.6,0,1,1,0-3.2Z"/><path class="cls-1" d="M21.48,5.51a3.45,3.45,0,1,0,0,6.9,3.52,3.52,0,0,0,2-.64A3.42,3.42,0,0,0,25,9,3.48,3.48,0,0,0,21.48,5.51Zm0,2A1.47,1.47,0,1,1,20,9,1.51,1.51,0,0,1,21.48,7.49Z"/><path class="cls-1" d="M20.14,22.4v.87a.7.7,0,0,0,.27.57v-2A.7.7,0,0,0,20.14,22.4Zm0,0v.87a.7.7,0,0,0,.27.57v-2A.7.7,0,0,0,20.14,22.4Zm0,0v.87a.7.7,0,0,0,.27.57v-2A.7.7,0,0,0,20.14,22.4Zm3.37-10.63a3.56,3.56,0,0,0-5.28,3.07v13A1.09,1.09,0,0,0,19.32,29h4.6a1.68,1.68,0,0,1-.43-.45,2.1,2.1,0,0,1-.35-1.18v-.55H20.41V25.1a2.18,2.18,0,0,1-.58-.27A1.83,1.83,0,0,1,19,23.27V22.4a1.84,1.84,0,0,1,.83-1.56,2.18,2.18,0,0,1,.58-.27V14.84a1.38,1.38,0,0,1,2.76,0V18a2.23,2.23,0,0,1,.32-.82,1.88,1.88,0,0,1,1.57-.82h.29V14.84A3.5,3.5,0,0,0,23.51,11.77Zm1.55,5.7a.72.72,0,0,0-.62.32.91.91,0,0,0-.16.54v3.3H23.17V24h1.11v3.28a.89.89,0,0,0,.16.54.72.72,0,0,0,.62.32h.24a1.13,1.13,0,0,0,0-.32V17.47ZM20.14,22.4v.87a.7.7,0,0,0,.27.57v-2A.7.7,0,0,0,20.14,22.4Zm0,0v.87a.7.7,0,0,0,.27.57v-2A.7.7,0,0,0,20.14,22.4Z"/><path class="cls-1" d="M30.86,22.4v.87a.74.74,0,0,1-.32.62A1,1,0,0,1,30,24H26.7v3.28a1,1,0,0,1-.16.54.72.72,0,0,1-.62.32h-.86a.72.72,0,0,1-.62-.32.89.89,0,0,1-.16-.54V24H21a1,1,0,0,1-.54-.15.12.12,0,0,1-.05-.05.7.7,0,0,1-.27-.57V22.4a.7.7,0,0,1,.27-.57l.05,0a.93.93,0,0,1,.54-.16h3.28v-3.3a.91.91,0,0,1,.16-.54.72.72,0,0,1,.62-.32h.86a.72.72,0,0,1,.62.32,1,1,0,0,1,.16.54v3.3H30a.93.93,0,0,1,.54.16A.69.69,0,0,1,30.86,22.4Z"/><path class="cls-1" d="M30.3,22.14a.52.52,0,0,0-.3-.08H26.27V18.33a.54.54,0,0,0-.09-.31.29.29,0,0,0-.26-.13h-.86a.29.29,0,0,0-.26.13.54.54,0,0,0-.09.31v3.73H21a.52.52,0,0,0-.3.08.29.29,0,0,0-.13.26v.87a.28.28,0,0,0,.13.26.53.53,0,0,0,.3.09h3.71v3.7a.54.54,0,0,0,.09.31.29.29,0,0,0,.26.13h.86a.29.29,0,0,0,.26-.13.54.54,0,0,0,.09-.31v-3.7H30a.53.53,0,0,0,.3-.09.28.28,0,0,0,.13-.26V22.4A.29.29,0,0,0,30.3,22.14Z"/><path class="cls-1" d="M30.54,21.79a.93.93,0,0,0-.54-.16H26.7v-3.3a1,1,0,0,0-.16-.54.72.72,0,0,0-.62-.32h-.86a.72.72,0,0,0-.62.32.91.91,0,0,0-.16.54v3.3H21a.93.93,0,0,0-.54.16l-.05,0a.7.7,0,0,0-.27.57v.87a.7.7,0,0,0,.27.57.12.12,0,0,0,.05.05A1,1,0,0,0,21,24h3.28v3.28a.89.89,0,0,0,.16.54.72.72,0,0,0,.62.32h.86a.72.72,0,0,0,.62-.32,1,1,0,0,0,.16-.54V24H30a1,1,0,0,0,.54-.15.74.74,0,0,0,.32-.62V22.4A.69.69,0,0,0,30.54,21.79Zm-4.71,5.54h-.69V23.19H21v-.69h4.14V18.32h.69v4.16l4.16,0v.69H25.84Z"/></svg>