<?xml version="1.0" encoding="utf-8"?>
<!-- Generator: Adobe Illustrator 21.0.0, SVG Export Plug-In . SVG Version: 6.00 Build 0)  -->
<svg version="1.1" id="Warstwa_1" xmlns="http://www.w3.org/2000/svg" xmlns:xlink="http://www.w3.org/1999/xlink" x="0px" y="0px"
	 viewBox="0 0 32 32" style="enable-background:new 0 0 32 32;" xml:space="preserve">
<title>Obszar roboczy 1</title>
<g>
	<path d="M18.1,2.9H14c-3.7,0-7.2,1.4-9.8,4C1.5,9.5,0.1,13,0.1,16.7V28c0,0.6,0.5,1.1,1.1,1.1h29.8c0.6,0,1.1-0.5,1.1-1.1V16.7
		C32,9.1,25.8,2.9,18.1,2.9z M23.1,6.2c0.5,0.2,0.9,0.5,1.3,0.7v15.2h-1.3V6.2z M10.6,5.5C11.7,5.2,12.8,5,14,5h4.1
		c1,0,2,0.1,2.9,0.3v12.2h-2.4v-0.6c0-1.1-0.9-2-2-2h-1c-1.1,0-2,0.9-2,2v0.6h-3V5.5z M16.9,19.7l0.1,0.5h-1.8l0.1-0.5l0.5-1.5
		c-0.3-0.1-0.5-0.3-0.6-0.6c0-0.1,0-0.1,0-0.2c0-0.5,0.4-0.9,0.9-0.9c0.5,0,0.9,0.4,0.9,0.9c0,0.1,0,0.2,0,0.2
		c-0.1,0.3-0.3,0.5-0.6,0.6L16.9,19.7z M7.2,7.2C7.6,6.9,8,6.6,8.5,6.4V22H7.2V7.2z M2.2,16.7c0-2.8,1-5.5,2.8-7.6v8.4H2.2V16.7z
		 M29.8,26.9H2.2v-7.2H5V23c0,0.6,0.5,1.1,1.1,1.1h3.5c0.6,0,1.1-0.5,1.1-1.1v-3.4h3V20c0,1.1,0.9,2,2,2h1c1.1,0,2-0.9,2-2v-0.3H21
		v3.5c0,0.6,0.5,1.1,1.1,1.1h3.5c0.6,0,1.1-0.5,1.1-1.1v-3.5h3.3V26.9z M29.8,17.5h-3.3V8.7c2,2.1,3.3,4.9,3.3,8.1V17.5z"/>
</g>
</svg>
