<svg id="Warstwa_1" data-name="Warstwa 1" xmlns="http://www.w3.org/2000/svg" viewBox="0 0 32 32"><title>Obszar roboczy 8</title><path d="M19,31H15a1,1,0,0,1-1-1V16a1,1,0,0,1,1-1h3a1,1,0,0,1,1,.93l1,14A1,1,0,0,1,19,31Zm-3-2h1.93l-.86-12H16Z"/><path d="M16.42,16.44A6.39,6.39,0,1,1,22.82,10,6.4,6.4,0,0,1,16.42,16.44Zm0-10.78A4.39,4.39,0,1,0,20.82,10,4.4,4.4,0,0,0,16.42,5.66Z"/><path d="M16.42,5.66a1,1,0,0,1-1-1V2.42a1,1,0,0,1,2,0V4.66A1,1,0,0,1,16.42,5.66Z"/><path d="M13,6.92a1,1,0,0,1-.77-.36L10.75,4.85a1,1,0,1,1,1.53-1.29l1.44,1.72A1,1,0,0,1,13,6.92Z"/><path d="M11.11,10.11l-.17,0L8.73,9.71a1,1,0,0,1,.35-2l2.21.39a1,1,0,0,1-.17,2Z"/><path d="M9.82,14.86A1,1,0,0,1,9.31,13l1.94-1.12a1,1,0,1,1,1,1.73l-1.94,1.12A1,1,0,0,1,9.82,14.86Z"/><path d="M13.81,18.22a1,1,0,0,1-.94-1.34l.77-2.1a1,1,0,1,1,1.88.68l-.77,2.1A1,1,0,0,1,13.81,18.22Z"/><path d="M19,18.22a1,1,0,0,1-.94-.66l-.77-2.1a1,1,0,1,1,1.88-.68l.77,2.1A1,1,0,0,1,19,18.22Z"/><path d="M23,14.86a1,1,0,0,1-.5-.13l-1.94-1.12a1,1,0,1,1,1-1.73L23.53,13a1,1,0,0,1-.5,1.87Z"/><path d="M21.73,10.11a1,1,0,0,1-.17-2l2.21-.39a1,1,0,0,1,.35,2l-2.21.39Z"/><path d="M19.89,6.92a1,1,0,0,1-.76-1.64l1.44-1.72a1,1,0,1,1,1.53,1.29L20.65,6.56A1,1,0,0,1,19.89,6.92Z"/><circle cx="16.42" cy="10.05" r="1.02"/><path d="M17.1,24.94H14.91a1,1,0,1,1,0-2H17.1a1,1,0,0,1,0,2Z"/><path d="M25,31.27a1,1,0,0,1-.7-.28l-6.83-6.64a1,1,0,0,1,1.39-1.43l6.83,6.64a1,1,0,0,1-.7,1.72Z"/><path d="M27.9,25.39a1,1,0,0,1-.32-.05l-9.25-3.15A1,1,0,0,1,19,20.29l9.25,3.15a1,1,0,0,1-.32,1.95Z"/><path d="M7.73,30.76A1,1,0,0,1,7.07,29l6.83-6.13a1,1,0,0,1,1.34,1.49L8.4,30.51A1,1,0,0,1,7.73,30.76Z"/><path d="M4.8,25.39a1,1,0,0,1-.32-1.95l9.25-3.15a1,1,0,0,1,.64,1.89L5.12,25.34A1,1,0,0,1,4.8,25.39Z"/><path d="M14.62,18.91H3a1,1,0,0,1,0-2H14.62a1,1,0,1,1,0,2Z"/><path d="M29.62,18.91H19a1,1,0,0,1,0-2H29.62a1,1,0,0,1,0,2Z"/></svg>