<svg id="Warstwa_1" data-name="Warstwa 1" xmlns="http://www.w3.org/2000/svg" viewBox="0 0 32 32"><title>Obszar roboczy 4</title><path d="M21.32,14.51l-.19,0a1,1,0,0,1-.8-1.17,3.18,3.18,0,0,0,.05-.58V6.48a3.51,3.51,0,0,0-3.62-3.37,3.51,3.51,0,0,0-3.62,3.37v6.27a1,1,0,0,1-2,0V6.48a5.51,5.51,0,0,1,5.62-5.37,5.51,5.51,0,0,1,5.62,5.37v6.27a5.15,5.15,0,0,1-.09.95A1,1,0,0,1,21.32,14.51Z"/><path d="M16.62,30.84a11.85,11.85,0,0,1-9.11-3.75C2.18,21.32,3,11,3,10.56a1,1,0,0,1,1.69-.64c.25.24,6.15,5.72,11.24.69A1,1,0,1,1,17.32,12C13,16.27,8,14.73,4.94,12.68c0,3.14.6,9.34,4,13.06a9.93,9.93,0,0,0,7.63,3.1,1,1,0,1,1,0,2Z"/><path d="M16.85,30.84a1,1,0,0,1-1-1V11.5a1,1,0,0,1,1.7-.71c5.07,5,10.5-.27,10.73-.5a1,1,0,0,1,1.7.6c0,.43,1.08,10.48-4,16.18A11.66,11.66,0,0,1,16.85,30.84Zm1-17.24V28.8a9.44,9.44,0,0,0,6.6-3.06c3.28-3.65,3.67-9.65,3.63-12.71C25.56,14.75,21.64,16,17.85,13.59Z"/><path d="M14.87,10a1,1,0,0,1-.39-.08L12.24,9A1,1,0,0,1,13,7.17l2.23.95A1,1,0,0,1,14.87,10Z"/><path d="M18.33,10a1,1,0,0,1-.48-1.88l2.69-1.47a1,1,0,1,1,1,1.75L18.81,9.91A1,1,0,0,1,18.33,10Z"/></svg>