<svg id="Warstwa_1" data-name="Warstwa 1" xmlns="http://www.w3.org/2000/svg" viewBox="0 0 1080 1920"><defs><style>.cls-1{opacity:0.2;}</style></defs><title>Aplikacja projekt</title><path class="cls-1" d="M473.52,1339.61c-7.51,10.78-9.71,24.82-.76,35.44,8.15,9.67,22.41,13.57,34.18,16.44,28.23,6.9,61.47,6.94,88.31-5.29,12.06-5.51,22.61-15.66,25.81-28.87,3.12-12.91-2-25.56-11.93-34-11.32-9.6-25.93-14.57-40.33-17.21s-31.1-4.61-45,.86C503.89,1310.94,484.5,1323.84,473.52,1339.61Zm116.53-12.37c8,4,17,10.41,18.19,20.09,1.26,10.3-6.4,19.46-14.69,24.4-10,6-22.27,8.42-33.7,9.87a142.71,142.71,0,0,1-37.05-.16c-15.09-2.06-53.29-8.2-41.35-31.54,5.47-10.68,16.26-19,26.65-24.51a76.36,76.36,0,0,1,15.88-6.15,6.29,6.29,0,0,0,1.24.2c5.38.18,10.61-.63,16-.9a139.53,139.53,0,0,1,17.47.31A84.88,84.88,0,0,1,590.05,1327.24Z"/><path class="cls-1" d="M593.73,1454.05c-15.54,5.4-31.46,11.78-47.92,14-.45-14.86-1.09-29.71-1.4-44.56-.14-6.73-9.94-6.62-10.38,0q-1.51,22.66-2,45.3c-18.78-.6-37.28-8.48-52.47-19.2-8.41-5.93-16.4,7.91-8.06,13.8,17.35,12.24,38.67,20.54,60,21.37h.28c0,1.84,0,3.69,0,5.54,0,11.77,0,23.55-.1,35.32,0,5.38-.11,10.77-.17,16.16-.06,5.23-1.16,11.16,2.72,15.29a6.6,6.6,0,0,0,9.2,0c4-3.85,3-10.21,3.08-15.29.06-5.39.06-10.78,0-16.16,0-11.77-.13-23.55-.24-35.32q0-3.11-.09-6.21c17.79-2.16,35-8.79,51.78-14.63C607.63,1466.09,603.48,1450.66,593.73,1454.05Z"/><path class="cls-1" d="M489.93,1508.63c4.22.71,8.42-3.9,5.78-7.94-2.08-3.19-5.47-4.29-8.85-5.68q-2.26-.94-4.57-1.77c-.7-.25-1.39-.47-2.09-.71l-.2-.07-.25-.15c-5.06-2.78-11.11,4.24-6.41,8.31a30.89,30.89,0,0,0,7.78,4.57c1.74.77,3.5,1.49,5.25,2.24-1.26-.54,2.42,1,1.92.83A3.68,3.68,0,0,0,489.93,1508.63Z"/><path class="cls-1" d="M584.25,1499.46c6.54-1.6,14.83-4.65,18.79-10.41,2-2.86-1.31-7.14-4.59-6-5.77,2-10.76,5.72-16.66,7.46C576.07,1492.21,578.45,1500.88,584.25,1499.46Z"/><path class="cls-1" d="M606.07,1622.52a92.52,92.52,0,0,0,22.92-9c6.45-3.58,15.31-8.24,18.88-15,2-3.74-1.31-8.71-5.68-7.4-7,2.11-13.11,8.08-19.43,11.71a204.67,204.67,0,0,1-20.67,10.25C596.58,1615.47,600.6,1623.88,606.07,1622.52Z"/><path class="cls-1" d="M623.92,1589.11c3.08-.84,7.23-1.25,8.91-4.29a5.17,5.17,0,0,0-1.82-6.93c-3-1.82-6.84-.09-10,.73a5.44,5.44,0,0,0,2.89,10.49Z"/><path class="cls-1" d="M774.86,1857.84a61,61,0,0,0-19.62-9.1c-7.82-2-18.37-3.92-26.22-1.4-6.25,2-5.83,10.13,0,12.3,5.09,1.89,10.93,1.26,16.26,1.87a49.55,49.55,0,0,1,13.65,3.47c8.27,3.52,15.26,9.38,21.28,16a141,141,0,0,1,15.94,22c2.52,4.12,4.88,8.34,7.23,12.57,1.37,2.45,2.73,4.92,4.07,7.39.07.12.14.24.2.37-2.24-.21-4.46-.51-6.67-.92a99,99,0,0,1-15.67-4.38c-4.86-1.76-9.42-4.16-14.11-6.33a53.41,53.41,0,0,0-12.38-4.11,4.25,4.25,0,0,0-3.62-2.72c-15.06-2.55-29.68-4.8-44-10.48a163.1,163.1,0,0,1-39.44-23.07c-25.71-20-46.09-46-65.59-71.85q-8.7-11.52-17.35-23.06-4.79-6.39-9.58-12.76c-2.06-2.74-4-5.91-6.46-8.33-.18-5.19-.43-10.37-.66-15.58a47.78,47.78,0,0,0,9.27.88c10.12-.07,20.86-4.82,25.41-14.18a5,5,0,0,0,3,2c6.75,1.49,12.74,2.84,18.37,7.17a31.34,31.34,0,0,1,6.47,6.69c2.11,3,3.22,6.46,5.78,9.15,3.31,3.5,8.55,1.8,10.41-1.94,16.17,10.3,32.55,20.24,49,30.16,14.87,9,34.07,23,50.34,9.92,7.64,2.22,15,4.06,21.85,8.7a52.88,52.88,0,0,1,9.68,8.49c3.12,3.47,5.66,7.85,9.8,10.17a4.87,4.87,0,0,0,7.25-4.15c.36-5.78-3.18-11.4-7.78-16.15,1.08-7.44-2.74-16.69-5.28-22.86a138.49,138.49,0,0,0-17.2-29.59c-10.76-14.55-23.26-27.8-34.64-41.87a90,90,0,0,0,31.17,5.36c10.27-.09,10.29-16.06,0-16a73.9,73.9,0,0,1-49.6-18.61,6.4,6.4,0,0,0-.72-2.07c-1.49-2.72-3.77-4.75-5.58-7.23-1.52-2.06-3-4.1-4.58-6.16a43.17,43.17,0,0,0,3.79-5.68l5.79,3.88c2.93,2,5.33,3.82,8.94,4.19,4.18.42,7-5.06,4.8-8.38-1.92-2.94-4.86-4.23-7.86-5.86-2.51-1.36-5-2.74-7.49-4.11a46.27,46.27,0,0,0,.51-22.9c-2.83-11.77-12.79-22.31-24.62-25.26,1.59-1.92,3.13-3.87,4.61-5.87,4.55-6.16-5.21-13.19-10.41-8-7.14,7.1-13.68,14.73-21,21.64a263.62,263.62,0,0,1-23.73,19.9c-8.1,6-16.54,11.47-25.16,16.68-1.3.78-2.63,1.54-4,2.28a.1.1,0,0,1,0,0c-16.8-22.14-47.48-43.63-75.85-30.26a43.67,43.67,0,0,0-23.23,27.53c-1.82.39-3.55.82-5.1,1.27a69.62,69.62,0,0,0-30,18.37,90.09,90.09,0,0,0-18.16,28.34c-17.25,5.28-33.33,14-50.73,19.12a186,186,0,0,1-40.69,7.17,6.7,6.7,0,0,0-5.66-5.82,115,115,0,0,1-62.6-36.28c-6.85-7.69-18.11,3.64-11.29,11.3a129.51,129.51,0,0,0,59.25,37.72c.09.16.16.31.26.47,4.92,7.18,10.76,13.41,15,21.12a67.07,67.07,0,0,1,4.92,11.46c1,3.1,1.59,6.5,3.15,9.34l-7.84,4.55c-1.47.86-2.95,1.74-4.42,2.62a87,87,0,0,0-17.95-24.81c-7.36-7.15-16.61-14.48-26.88-16.6-4.56-.93-9.44,5.15-5.05,8.68,7.43,6,15.63,10.61,22.35,17.49a80.66,80.66,0,0,1,15.23,22.56c-2.37,1.37-4.74,2.71-7.15,4a38.92,38.92,0,0,1-11.3,4.15h0a28.23,28.23,0,0,0-8.05-20.73c-5.15-5.36-13.81-10.73-21.19-7.29-3.42,1.6-3.65,6.71-1.17,9.13,3.64,3.57,9.19,3.89,13,7.47A23,23,0,0,1,313,1780a4.79,4.79,0,0,0-1.16-.38c-11-2.09-22.79,2.34-32.12,8.2-8.07,5.07-20.73,15.24-20.06,25.92a4.88,4.88,0,0,0,7.25,4.16c3.94-2.22,6.39-6.29,9.32-9.63a52.94,52.94,0,0,1,10.16-9c6.87-4.64,14.21-6.48,21.85-8.7l.91.71c-9.24,6.88-17.08,15.36-24.77,24.08-8.06,9.14-19.92,24.66-11.86,37.18a6.24,6.24,0,0,0,11.54-3.12c.19-5.73.29-9.92,3.31-15s7-9.41,10.89-13.8c7.63-8.61,15.54-17.19,24.28-24.7a35.51,35.51,0,0,0,13.86-2.93c-1.2,1.27-2.38,2.57-3.5,3.92a93.19,93.19,0,0,0-7.88,10.85c-2.26,3.66-5,9.36-4.61,13.7.29,3.17,4,6.54,7.2,4.13s5.24-6,7.42-9.26c2.31-3.47,4.35-7,7-10.29a79.28,79.28,0,0,1,18.61-16.58c4.18-2.7,3.46-7.82.69-10.43,15.5-9.37,31-18.77,46.22-28.51,1.86,3.74,7.1,5.45,10.41,2,2.4-2.54,3.47-5.71,5.38-8.58a31,31,0,0,1,6.87-7.27c5.48-4.22,11.33-5.61,17.88-7.06,2.61,1.65,7,1,7.94-2.67,5.11-20.75,10.25-42.77,25-59.07a57.8,57.8,0,0,1,24-16.12,50,50,0,0,1,6.79-1.82,5.85,5.85,0,0,0,4.77-.64c.88-.06,1.75-.11,2.63-.11,4.84,0,9.76,2.33,14.45,1.87a7,7,0,0,0,4-1.88c5.51-2.42,12.36-3.51,18.06-2.21,7.88,1.81,12.45,7.92,17.49,13.72a153.32,153.32,0,0,0,36.13,30.3c-.26,4.37-5.32,6.86-9.58,7.54a33.31,33.31,0,0,1-17.81-2.51,39.54,39.54,0,0,1-22.82-25.78c-1.51-5.48-7.37-6.13-11-3.73-4-.3-8.07-.22-12.07-.78-4.37-.6-8.61-2.57-13-.94-3.55,1.33-5.72,5.23-3.59,8.82,4.83,8.13,18.29,8.29,27.53,5.4a54.08,54.08,0,0,0,45.53,33.8c1.75,2.94,3.19,5.67-.1,9.25-5.26,5.72-14.55,4.36-21.16,2.56-13.7-3.73-31-9.31-39.48-21.53-1.55-2.24-4.4-3.87-7.2-2.94a114.67,114.67,0,0,0-17.21,6.85,4.69,4.69,0,0,0-2.36,4.41,5.33,5.33,0,0,0-2.13,3.19c-1.92,9.12,4,18,1.68,27.47a17.73,17.73,0,0,1-4.57,8.49,28.1,28.1,0,0,1-4.53,3.3,6.12,6.12,0,0,0-6-.22c-3.87,1.8-6,5.36-8.51,8.67l-9,12q-8,10.64-16,21.26c-9.84,13.08-19.73,26.13-30.37,38.57-20.55,24-44.11,45.84-73.15,59.08-12.14,5.54-24.65,8.39-37.48,10.7,1.75-7.85,13.18-12.63,19.5-16.07q8-4.37,16-8.86c5.1-2.9,12-5.49,15.74-10.11,3.56-4.42.22-10.07-5.35-9.2-4,.63-7.4,3.17-10.85,5.2l-9.94,5.85c-6.73,4-13.41,8-20,12.15-8.14,5.08-16.41,13.41-15.82,22.91l-1,.17a4.19,4.19,0,0,0-3.81,5,83.11,83.11,0,0,0-9.48,3.65l-12.88,5.25-14.71,6c-2.15.87-4.29,1.77-6.44,2.62l-.42.14c1.1-1.87,2.23-3.72,3.34-5.59l6.87-11.49c2.2-3.69,4.6-7.33,6.46-11.22s2.63-8.12,4-12.3c2.27-7,8.58-11,14.81-14.26,8.12-4.2,16.62-7.74,24.93-11.55q13.42-6.17,26.88-12.24l12.57-5.69c4.68-2.11,10-3.86,14.11-6.91,5.16-3.8,2.28-12.18-4.48-10.63-8.49,2-16.93,7.3-24.82,11q-12.48,5.82-25,11.61c-8.35,3.83-16.71,7.64-25.05,11.5-6,2.77-11.91,5.65-17,9.87-5.93,4.89-8.7,11-10.81,18.18-1.76,6-5.21,11.41-8.61,16.72a32.24,32.24,0,0,1-5.09-4.69c-2.78-3.57-4.18-8-5.12-12.37-2.26-10.48-1.08-23.14,2.31-33.28,1.82-5.41-6.37-8.74-9.14-3.85C232.73,1858,230,1864.1,229,1872a65.54,65.54,0,0,0,1.15,21.72c1.55,7,7.6,20.7,15.94,23.75l-2,3.34c-2.35,3.85-4.93,7.7-4.65,12.39a10.7,10.7,0,0,0,.9,3.71c-2.59,3.86-4.54,8.34-6.5,12.33-3,6.13-6.08,12.24-9,18.44-4.86,10.47-11.87,24.79-6.42,36.2,2.19,4.58,9.54,3.27,10.68-1.4,1.37-5.55,1.11-11.19,2.84-16.75,1.79-5.72,4.44-11.08,6.88-16.54s4.79-10.81,7.16-16.23c1.4-3.19,2.95-6.5,4.07-9.89a16.31,16.31,0,0,0,4.35-.22,38.22,38.22,0,0,0,8.6-3.07,170.88,170.88,0,0,0-2,18.34c-.49,7.48-2.37,17.92.58,25,2.31,5.54,9.74,6.11,11.88,0,1.29-3.68.88-7.51.81-11.35q-.12-6.32,0-12.64c.19-8.06,1-16.15.93-24.21,0-.14,0-.28,0-.42l5-2.14,13.68-5.9c4.86-2.1,10.41-3.8,14.16-7.67a4.9,4.9,0,0,0,1.22-2.13c14,.72,28.66-3.27,41.49-8.32A177.05,177.05,0,0,0,392.29,1885c27.26-20.52,48.78-47.06,69.31-74q9.18-12.06,18.29-24.2L489.5,1774c2.32-3.08,5.42-6.31,7.22-9.92,3.8.4,7.43-1,10.58-3.41-1.36,11.85-1.9,23.8-2.61,35.69q-1.54,25.94-3,51.88c-1.94,33.92-4,67.83-5.83,101.75q-.78,14.48-1.55,28.93c-.51,9.56-2.39,20.1-.59,29.56,1.18,6.2,10.11,5.38,11.76,0,2.42-8,1.75-17.32,2.2-25.57L509,1958c.92-17,1.86-33.91,2.66-50.88,1.61-33.92,3.43-67.83,5.05-101.75.92-19.22,2.62-38.65,1.12-57.86a4.41,4.41,0,0,0-.48-1.64,39.87,39.87,0,0,0,1.41-15.19c-.45-5.08-1-10.67-3.3-15.31,2.73-.52,5.42-1.15,8.12-1.86,5.64,7.37,13.39,12.81,21.89,16.66a172,172,0,0,0,17.49,7.08c-.55,5.78-1.26,11.5-1.79,17.25a6.65,6.65,0,0,0-.84,4.59,11.36,11.36,0,0,0,.36,1.58c-.06,1.09-.12,2.18-.16,3.27-.35,9-.64,18-1,26.95-.64,18-1.19,35.93-1.77,53.9-1.16,35.93-2.11,71.87-3.14,107.8q-.43,15.48-.82,30.94c-.25,10.11-1.58,20.91-.27,31,.42,3.23,2.14,5.88,5.61,6.35,2.94.4,6.5-1.46,7.1-4.63,1.62-8.69,1.18-17.86,1.44-26.68.27-9.31.56-18.63.79-27.94l1.36-53.91c.91-36.26,1.84-72.52,2.51-108.79q.2-10.38.38-20.75l3.36,4.45q8.19,10.86,16.37,21.7c10.23,13.53,20.55,27,31.66,39.81,21.55,24.84,46.77,47.46,77.22,60.67,15.4,6.68,33.17,12.32,50.21,10.73a4.59,4.59,0,0,0,.66.35c14,6.34,26.33,15.18,41.61,18.72,2.82.65,5.87,1.32,9,1.82.13,8.1.17,16.21.4,24.32.25,8.68-.06,18.17,2.18,26.6,1.21,4.56,9,5.15,9.83,0,1.38-8.68.25-17.87-.38-26.6-.58-7.87-1.33-15.72-2-23.58,1,0,2-.13,3-.26,8.15-1.14,9.23-8.52,6-14.86C810.2,1898.82,796.61,1873.07,774.86,1857.84Zm-352.5-133a48.75,48.75,0,0,0-11.84,11.92q-15.18,8.23-30.12,16.83c-.88-7.07-5-14.65-8.07-20a75.65,75.65,0,0,0-6.23-9.32c14,.56,28-1.84,41.54-5.51a276.4,276.4,0,0,0,27.45-9.22c5.12-2,10.24-4,15.23-6.25-1.21,4.72-2.18,9.49-3,14.24C438.56,1716.72,429.5,1719.74,422.36,1724.86Zm187.47-8.15a5.56,5.56,0,0,0-1.05.25,26.7,26.7,0,0,0-.72-6.15,29,29,0,0,0,4.27-1.89,21.52,21.52,0,0,0,2.75-1.78c-.17,2.58-.47,5.15-.88,7.71a9.44,9.44,0,0,0-.13,1.58A30,30,0,0,0,609.83,1716.71Zm105.26,57.6a80.62,80.62,0,0,1,15.22-22.56c4.87-5,10.52-8.79,16.08-12.78q3,3.73,5.92,7.54c1.72,2.25,3.41,4.54,5.05,6.86-5.88.19-11.86,4.27-15.78,8.35a28.23,28.23,0,0,0-8.05,20.73h0a39,39,0,0,1-11.3-4.14C719.83,1777,717.45,1775.68,715.09,1774.31ZM773.9,1784c-8.39-4.39-18.13-7.18-27.34-5.44a4.85,4.85,0,0,0-1.15.38,23.09,23.09,0,0,1,5.49-7.93c3.83-3.59,9.4-3.91,13-7.47l.08-.08A110.21,110.21,0,0,1,773.9,1784Zm-97.58-177.6a7.14,7.14,0,0,0,1.7.38c5.17.5,10,1.11,14.28,4.35s6.75,8.37,7.58,13.72a32,32,0,0,1-10.32,28.4c-7.74,6.75-19.8,8.71-29.13,4.21-10.08-4.86-13.66-15-15-25.35.43-.31.86-.62,1.28-.94A296.22,296.22,0,0,0,676.32,1606.42ZM620,1648.67c4.84-2.71,9.56-5.63,14.19-8.71.34,12,9.23,24,19.37,29.22a37,37,0,0,0,4.14,1.83,5.88,5.88,0,0,0-1.93,2.88,191.63,191.63,0,0,0-6.24,23.31c-1.38,7.3-3.56,15.79-1.28,23.07,1.21,3.88,6.62,4.78,8.75,1.15,3.74-6.38,4-14.55,5.3-21.7,1.37-7.63,2.75-15.24,4.44-22.8a5.74,5.74,0,0,0-.33-3.77,41.44,41.44,0,0,0,12.33-.3c-4.25,10.37-6.67,24.5-1.47,34,2.16,3.94,9.26,3.43,10.11-1.33,1-5.39-.11-11,.18-16.48a88.48,88.48,0,0,1,2.94-16.68,5,5,0,0,0-.26-3.25,42.2,42.2,0,0,0,5.39-3.16l.62,1.43a8,8,0,0,0,.71,9.82,87.15,87.15,0,0,0,16.67,14.75,5.49,5.49,0,0,0,.73,4.82c7.14,11.44,15.47,21.83,23.89,32.2-6.55,3.33-12.49,8.32-17.55,13.23a86.45,86.45,0,0,0-18,24.81c-1.47-.88-2.95-1.76-4.43-2.62-2.61-1.53-5.22-3-7.84-4.56,1.43-2.61,2-5.68,2.91-8.57a67.64,67.64,0,0,1,5.16-12.22c4.21-7.71,10.06-13.94,15-21.13,3.09-4.5-2.74-8.79-6.84-6.84-8.87,4.2-15.87,13.23-20.63,21.58-3,5.33-7.19,12.91-8.07,20q-15-8.56-30.12-16.83a48.61,48.61,0,0,0-11.85-11.92,41,41,0,0,0-8.15-4.54c.06-.21.12-.43.16-.65,4.16-23.15-.48-47.36-12.11-67.69Zm-8.92,26.1c-.5-.31-1-.63-1.47-1A148.12,148.12,0,0,1,593.56,1661a59.5,59.5,0,0,0,10-3.54A90.49,90.49,0,0,1,611.12,1674.77Zm-37.07-33.51a35.45,35.45,0,0,0-22.31-8,33,33,0,0,0-12.35,2.27,22.72,22.72,0,0,0-4.89,2.7,29.25,29.25,0,0,0-12.84-2.43c4.72-9.19,13.57-16.31,24.07-17.54,15.25-1.78,30.87,8.28,41.51,18.3a88.08,88.08,0,0,1,9.19,10.13,84,84,0,0,0-10,6.55,3.31,3.31,0,0,0-.27.26C582.23,1649.29,578.49,1644.86,574.05,1641.26Z"/><path class="cls-1" d="M751.74,1893.15c2.86,2.73,5.34,7.48,9,9.06,3.9,1.69,8-.28,8.28-4.76.35-5.33-4.86-10.49-8.68-13.64-4-3.32-9.13-7.09-14.62-6.83a5.07,5.07,0,0,0-3.54,8.54C744.78,1888.62,748.8,1890.34,751.74,1893.15Z"/><path class="cls-1" d="M808.36,1868.72c2,3.13,7.77,4,9.51,0,4.2-9.72-2.22-22.84-7.5-31.11-3.84-6-12-.8-9.34,5.46a83.08,83.08,0,0,1,4.12,13.08C806.17,1860.35,806,1865,808.36,1868.72Z"/><path class="cls-1" d="M158.7,1909.52a288.63,288.63,0,0,1-33.77,43.54c-12.65,13.59-26,26.83-36,42.58-4.78,7.52,6.64,13.69,11.71,6.84,11.21-15.13,24-28.83,36.49-42.9,12.22-13.78,24.69-28.52,31.15-46C170.43,1907.81,161.75,1904.66,158.7,1909.52Z"/><path class="cls-1" d="M886.26,1926.37l-7.09-15.16c-3-6.34-12.12-.81-9.34,5.46q3.2,7.21,6.4,14.43c2.07,4.68,3.75,10.07,6.81,14.19,3.46,4.66,10.93,2.06,9.6-4C891.51,1936.08,888.49,1931.14,886.26,1926.37Z"/><path class="cls-1" d="M373.79,1680.29a168.63,168.63,0,0,1-31.85-.48c-3.67-.4-6.75,3.4-6.78,6.78-.05,4.05,3.16,6.32,6.78,6.78a164.67,164.67,0,0,0,33.73,1c10-.76,24-1,32.09-7.53,3.49-2.82,1.63-9.58-2.73-10.34-5.26-.93-10.29.68-15.48,1.65A157.45,157.45,0,0,1,373.79,1680.29Z"/><path class="cls-1" d="M410,1662.25c5.41-.8,9.67-2.07,13-6.63,1.86-2.56,0-7-3.06-7.54-4.61-.86-8.07.58-12.58,1.22-4.27.6-8.47.25-12.46,2.06s-2.79,7,0,9.07C399,1663.52,405.15,1663,410,1662.25Z"/><path class="cls-1" d="M673.5,1643.12a8.42,8.42,0,0,0,5.77-2.39,9.21,9.21,0,0,0,2.39-5.77,8.25,8.25,0,0,0-2.39-5.76,8.16,8.16,0,0,0-11.54,0,9.07,9.07,0,0,0-2.38,5.76,8.23,8.23,0,0,0,2.38,5.77A8.51,8.51,0,0,0,673.5,1643.12Z"/><path class="cls-1" d="M379,1489c4.61-.18,9.22-.29,13.82-.71,4.36-.39,9.29-.28,13-2.73,4.39-2.86,3.23-8.73-1.37-10.51-4.13-1.6-9.16-.38-13.47.18-4.55.6-9.06,1.4-13.58,2.16C370.86,1478.52,372.42,1489.27,379,1489Z"/><path class="cls-1" d="M385.62,1426l6.46,2.06c2.29.73,4.59,1.66,7,1.54,5.23-.24,6.37-6.37,2.51-9.26-1.9-1.42-4.45-1.92-6.7-2.59l-6.49-1.94C381.88,1413.87,379.16,1424,385.62,1426Z"/><path class="cls-1" d="M395.5,1365.82c2.06,2.15,4.81,5.51,7.85,6,2.53.38,6.09-1.11,5.7-4.34a8.39,8.39,0,0,0-2.19-5c-1.12-1.32-2.24-2.64-3.44-3.89-2.3-2.37-4.73-4.61-7.14-6.86-4.76-4.46-11.39,2.28-7.12,7.12C391.25,1361.19,393.32,1363.55,395.5,1365.82Z"/><path class="cls-1" d="M419.36,1313.08c1.43,1.58,3.09,3.49,5.07,4.32s4.52,1,6.17-.8,1.73-4,.8-6.17c-.84-2-2.74-3.64-4.32-5.07l-4.43-4c-2-1.81-5.35-2.12-7.3,0a5.28,5.28,0,0,0,0,7.3C416.69,1310.13,418,1311.6,419.36,1313.08Z"/><path class="cls-1" d="M666.32,1487.58c2.68,1.8,5.33,3.67,8.14,5.24s6.44,3.69,9.7,2.37a4.55,4.55,0,0,0,3-5.35c-.51-3.42-4.12-5.48-6.86-7.07s-5.74-3-8.65-4.37C665.53,1475.44,660.59,1483.75,666.32,1487.58Z"/><path class="cls-1" d="M673,1444.41l11.08.22c4,.08,6.87.1,10.13-2.42,1.78-1.38,1.77-5,0-6.42-3.26-2.52-6.14-2.5-10.13-2.42l-11.08.22C666,1433.73,666,1444.27,673,1444.41Z"/><path class="cls-1" d="M678,1394.12c2-1.2,4-2.37,6-3.6a32.7,32.7,0,0,0,3-2.21,8.6,8.6,0,0,0,2.79-3.85c1.34-3.19-2-6-4.73-6.21-2.47-.2-5.14,1.33-7.2,2.61l-5.61,3.49a5.66,5.66,0,1,0,5.71,9.77Z"/><path class="cls-1" d="M681.64,1325.47c4.82-2,10.71-3.78,14.7-7.26,3-2.63.72-8.68-3.43-8.27-5.75.57-11.46,3.93-16.7,6.24-2.66,1.17-3.28,5-1.93,7.36C675.9,1326.31,679,1326.6,681.64,1325.47Z"/><path class="cls-1" d="M7.16,1693.14l22.67-19c6.64-5.56,15.45-11,19.8-18.7s2.08-16.45.76-24.53c-1.23-7.5-2.57-15-4.22-22.38-6.4-28.74-18-57.1-42.83-74.55-8.44-5.91-16.43,7.93-8.06,13.79,20.78,14.58,29.74,39.81,35.16,63.56.73,3.2,1.4,6.42,2,9.64a5,5,0,0,0-6.08,1.71,20.68,20.68,0,0,1-24.32,6.48c-6-2.35-10.4,7.91-4.43,10.52,12.64,5.53,27.56,3,36.92-7.34,1,4.85,3.22,12.06.73,16-2,3.19-6.38,5.81-9.2,8.18L17,1664.12l-21.16,17.73C-12,1688.46-.67,1699.7,7.16,1693.14Z"/><path class="cls-1" d="M52.29,1701.33c5.36-4.5,11.13-8.59,15.28-14.31,2.47-3.41-1.68-8.9-5.65-7.35-6.55,2.56-11.77,7.18-17.09,11.66-5.73,4.82-11.22,9.91-16.61,15.1-5.18,5-10.21,10.12-15,15.45C8.73,1726.78,3,1732.32.91,1738.72c-1,3.15,2.59,5.17,5.16,4,6-2.82,10.86-9,15.56-13.62,4.94-4.8,9.94-9.55,15-14.19S47,1705.77,52.29,1701.33Z"/><path class="cls-1" d="M47.83,1726c-9.35,8.77-18.74,19.33-25.44,30.3-2.78,4.54,3.35,8.72,7.07,5.46,9.67-8.49,18.39-19.58,25.44-30.3C57.8,1727,51.46,1722.57,47.83,1726Z"/><path class="cls-1" d="M1093.75,1501.4c-18.46-13.35-43.75-3.37-56.62,13-7,8.88-11.05,20.67-14.13,31.45a49.57,49.57,0,0,0-.87,21.74,1.5,1.5,0,0,1-1.06,1.71c-13.29,3.71-23.05,16.31-29.61,28.24A250.23,250.23,0,0,0,979.23,1624c-4.21,10.34-8.14,20.57-10,31.63-4.62,26.94-1.33,54.53.2,81.6q2.45,43.55,4.9,87.1,1.4,24.75,3,49.48c.72,11.38,1.1,22.89,2.33,34.27a1.51,1.51,0,0,1-2.68,1.1q-6.63-8.4-13.25-16.8c-27.22-34.69-53.3-70.12-74.19-109.06-14.82-27.63-28-56.7-42.31-85.09a1.49,1.49,0,0,1,.44-1.87c1.78-1.33,3.47-2.9,5.18-4.28l12.41-10c7.5-6,15-12.13,22.24-18.54a1.5,1.5,0,0,1,1.68-.22c10.9,5.47,21.78,11,32.22,17.29q7.74,4.7,15.2,9.86c5.21,3.6,26.54,19.47,32.88,20.64a5,5,0,0,0,5.58-7.26c-2.74-5.71-24.5-19.5-30.17-23.33-4.82-3.25-9.72-6.38-14.72-9.34-6.22-3.69-12.55-7.21-19-10.44q-4.85-2.41-9.82-4.61c-2.44-1.07-4.75-2.56-7.32-3.32-5.47-1.62-10.64-1.72-15.23,2-2.42,2-4.81,4-7.18,6.06-4.66,4-9.23,8.16-13.8,12.3l-11,10c-1.15,1-2.33,2.07-3.49,3.12a1.51,1.51,0,0,1-2.35-.42c-22.55-43.34-48.57-84.35-87.83-115.24-16.83-13.25-35.36-24.14-55.66-31.17-19-6.6-42.77-11.5-62.52-4.69a1.51,1.51,0,0,1-2-1.45c0-1.16,0-2.3.07-3.37l.78-16q1.49-30.42,2.63-60.85c.79-20.28,1.48-40.56,2.25-60.85.74-19.66,2.45-39.74,1.39-59.43a1.5,1.5,0,0,1,.1-.59,5.32,5.32,0,0,0-.14-3.91c-3-7.36-9.09-13.94-15.06-19.13s-12.73-10.56-20.49-12.16c-4.68-1-8.18,4.47-4.72,8.11,4.75,5,10.77,8.69,15.66,13.6,4.72,4.75,8.25,10.42,12.71,15.31a1.43,1.43,0,0,1,.38,1.18c-1.9,15.56-2.2,31.44-3,47q-1.28,25.94-2.58,51.87t-2.41,51.87c-.38,8.64-.79,17.29-1.13,25.93q-.27,7-.53,14c-.08,2-.16,4-.23,6l-.12,3.09a1.5,1.5,0,0,1-.3.84,9.12,9.12,0,0,0-1,1.82,7.35,7.35,0,0,0-.58,3.47,1.51,1.51,0,0,1-.56,1.3c-.44.34-.88.68-1.33,1-1.66,1.27-3.36,2.49-5.07,3.69a191,191,0,0,1-22.54,13.52c-14.79,7.55-31,13.58-47.61,15.52a94.43,94.43,0,0,1-44.77-5.79c-13.74-5.27-24.83-14.41-34.66-25.1a1.54,1.54,0,0,1-.4-1c.41-31.34-.15-62.73-.22-94.07,0-16-.07-31.91-.18-47.87-.11-15.64,1.15-32.18-1.33-47.7a2.93,2.93,0,0,0,.19-.4c3.67-9.87,8.46-19,15.7-26.76,7.38-7.91,16.57-12.14,25.18-18.34,3.59-2.58,3-10-2.55-9.44-12.56,1.35-23.77,10.31-31.94,19.5-8.35,9.4-14.51,20.78-16,33.31a3.47,3.47,0,0,0-.19.67c-2.76,15.62-1.44,32.35-1.55,48.16q-.18,24.44-.19,48.87c-.06,27.49-.51,55-.34,82.5a1.51,1.51,0,0,1-1.92,1.46c-17.29-5.21-37.27-1.79-54.1,3.22a179.05,179.05,0,0,0-51,24.92c-31.62,22-57.07,52-77.3,84.6-6.56,10.56-12.64,21.37-18.44,32.32a1.51,1.51,0,0,1-2,.64c-2.2-1.15-4.6-2-6.75-2.92-13.38-5.64-27-12.28-38.49-21.21-.18-.14-.37-.27-.55-.39a1.67,1.67,0,0,1-.7-.91c-1.05-3.37-4.33-6-8.31-4.67-7.57,2.54-14.48,8.28-20.95,12.91-5.13,3.67-10.21,7.39-15.16,11.29a365.33,365.33,0,0,0-29.21,25.2,1.51,1.51,0,0,1-2.58-1.11,239.33,239.33,0,0,0-.87-31.71c-2.21-21.75-10.44-42.37-20.11-61.85-7-14.11-17.39-30.92-33.16-35.25a1.53,1.53,0,0,1-1.12-1.71,49.28,49.28,0,0,0-.87-21.71c-3.08-10.79-7.13-22.57-14.12-31.45-12.88-16.36-38.17-26.34-56.63-13-3.39,2.46-4.95,6.66-2.76,10.52,1.9,3.34,7.16,5.18,10.52,2.76,13-9.39,30.19-.82,38.31,11.14,4.71,7,7.56,16.08,9.86,24.11,2.35,8.21.73,15.93-1.43,24-1.18,4.46,2.32,10.21,7.42,9.74,15.54-1.45,25.52,16.13,31.58,28,8.94,17.57,16.77,36.66,18.68,56.39,2.53,26.11-.29,52.85-1.66,78.95l-4.25,81.16Q97,1851,96,1873.79c-.69,15.39-2.09,31-1,46.37a1.47,1.47,0,0,1-.31,1c-4.49,5.75-9,11.52-13.35,17.34a654.22,654.22,0,0,0-41.26,61.88c-3.2,5.41,5,10.07,8.37,4.89,23.58-35.82,51.48-69,78-102.72,26.6-33.86,52.55-68.26,73.39-106,5.23-9.48,10.23-19.15,15.11-28.91,0,.63,0,1.27.05,1.9.59,14.19,6.19,27.47,8.75,41.31a125.57,125.57,0,0,1,2.07,20.65c.15,7.2-1.13,14.62.05,21.73.64,3.85,6.81,4.57,8.46,1.11,5.17-10.85,3.94-26.09,2.79-37.77-1.31-13.27-5.38-25.79-7.72-38.85-1.57-8.79-1.17-18.1-.77-27,.26-5.79.43-16.29,6.21-19.61a4.48,4.48,0,0,0,1.84-6.51,1.51,1.51,0,0,1-.08-1.44c24.41-50.22,50.35-99.61,93.25-136.69,15.36-13.28,32.81-24.7,51.76-32.13,20-7.84,41.83-12.66,63-8l1.8,2.1a6.08,6.08,0,0,0,4.58,5.61,1.54,1.54,0,0,1,.91.65c15,23.5,45.86,35.19,72.65,36.4,32.19,1.45,65-12.5,91.17-30.31,5.2-3.54,11.63-7.07,14.68-12.7a1.49,1.49,0,0,1,1.36-.77,5.35,5.35,0,0,0,1.46-.18c20.13-5.41,40.52-1.82,59.91,4.84,17.15,5.89,33.08,15,47.55,25.87,30.59,23,54.19,54.08,73.35,86.85,18.13,31,32.86,63.8,48.71,96a1.5,1.5,0,0,1,.05,1.21c-2.08,5.25-3.3,10.86-4.74,16.31-1.94,7.38-3.76,14.8-5.62,22.21q-2.69,10.65-5.38,21.3c-.93,3.65-1.92,7.29-2.8,11-.53,2.19-1,4.4-1.47,6.61a11.17,11.17,0,0,0-.12,2.92,1.63,1.63,0,0,1-.08.58,4.57,4.57,0,0,0-.24,1.79c.72,11.07-.27,20.4-6.25,30.05a82.8,82.8,0,0,1-9.75,12.42c-3.72,4-8.54,7.54-10.4,12.8-1.25,3.55,2.64,7.14,6.08,6.08a20.08,20.08,0,0,0,7.21-4.4,1.49,1.49,0,0,1,2.41.67c5.06,15.4,10.44,30.68,16,45.92,3.2,8.76,6.32,17.55,9.64,26.27,2.66,7,5.2,17,11.38,21.81,3.8,3,11.32.44,9.2-5.35-1.33-3.61-3.37-6.87-4.78-10.45-1.58-4-2.94-8.17-4.46-12.24-3.26-8.74-6.58-17.47-9.88-26.2-6.28-16.66-12.82-33.19-19.74-49.58a1.52,1.52,0,0,1,.25-1.57,79.82,79.82,0,0,0,9.28-12.84c5.85-10.34,9.34-23.29,5.1-34.65a1.49,1.49,0,0,1,0-1.08c.7-1.77,1.18-3.72,1.73-5.49,1.11-3.61,2.09-7.26,3.12-10.89q3.12-11,6.18-22c2-7.06,4-14.1,5.92-21.16,0-.12.07-.24.1-.36a1.51,1.51,0,0,1,2.8-.28l0,0c20.06,38.5,44.74,73.7,71.31,107.94,14.71,19,29.65,37.73,44.39,56.66,14.9,19.16,30,38.38,43.4,58.66,3.41,5.18,11.58.53,8.37-4.89a622.39,622.39,0,0,0-36.47-55.49c-4.87-6.55-9.84-13-14.85-19.48a1.46,1.46,0,0,1-.05-1.78,4.51,4.51,0,0,0,.91-2.36c1.12-13.81,0-27.75-.61-41.57s-1.23-27.72-2-41.57q-2.13-40.58-4.25-81.16c-1.39-26.49-4-53.31-2.8-79.84.93-21.25,7.57-40.37,16.44-59.48,6.16-13.29,16.82-35.61,34.45-34,5.09.47,8.59-5.28,7.41-9.74-2.1-7.86-3.77-15.49-1.58-23.49,2.24-8.19,5.22-17.6,10-24.66,8.12-12,25.32-20.53,38.3-11.14,3.39,2.45,8.54.56,10.52-2.76C1098.82,1508.07,1097.1,1503.82,1093.75,1501.4ZM199.29,1768.73c-20.19,39.58-44.8,75.93-72,111-5.94,7.68-12,15.29-18,22.9a1.5,1.5,0,0,1-2.68-1.05c.58-7.29.93-14.6,1.39-21.87.92-14.51,1.86-29,2.68-43.55q2.44-43.54,4.91-87.1c.5-8.94,1.22-18,1.86-27a6.52,6.52,0,0,0,.78-.63c11.82-10.92,23.46-22,36.06-32q9-7.22,18.56-13.82c4.6-3.21,10-6,14.72-9.39a1.5,1.5,0,0,1,1.92.15c8.09,7.8,19,13.62,29,18.41,3.93,1.9,8,3.5,12,5.26,1,.44,2,.91,3,1.38a1.46,1.46,0,0,1,.78.94,6.36,6.36,0,0,0,.78,1.81,1.5,1.5,0,0,1,.09,1.49C222.89,1719.87,211.6,1744.58,199.29,1768.73Z"/><path class="cls-1" d="M1090.42,1547.78c8.35-5.86.38-19.71-8.06-13.79-24.87,17.45-36.44,45.81-42.83,74.55-1.6,7.17-2.91,14.41-4.11,21.66-1.33,8.09-3.6,16.81.31,24.54s12.8,13.27,19.38,18.78l23.42,19.62c7.83,6.56,19.19-4.68,11.29-11.29l-21.15-17.73-9.07-7.59c-2.79-2.34-7.21-5-9.2-8.18-2.49-3.94-.32-11.14.73-16,9.37,10.38,24.28,12.87,36.92,7.34,5.91-2.58,1.65-12.89-4.43-10.52a20.68,20.68,0,0,1-24.32-6.48,5,5,0,0,0-6.08-1.71c.63-3.22,1.3-6.44,2-9.64C1060.67,1587.59,1069.64,1562.36,1090.42,1547.78Z"/><path class="cls-1" d="M1073.12,1722.54c-5-5.58-10.25-10.91-15.65-16.11-5.17-5-10.44-9.88-15.92-14.52s-11-9.58-17.78-12.24c-3.94-1.54-8.14,3.92-5.65,7.35,4.14,5.71,9.92,9.81,15.28,14.31s10.52,8.9,15.63,13.54,10.09,9.39,15,14.19c4.7,4.56,9.57,10.8,15.57,13.62,2.56,1.2,6.18-.82,5.15-4C1082.76,1732.55,1077.37,1727.29,1073.12,1722.54Z"/><path class="cls-1" d="M1037.86,1726c-3.59-3.37-10,1-7.07,5.46,7.06,10.72,15.77,21.81,25.44,30.3,3.69,3.23,9.87-.89,7.08-5.46C1056.61,1745.3,1047.21,1734.74,1037.86,1726Z"/><path class="cls-1" d="M762.22,1793.79l-.38-.23c-3.85-2.38-8.19,3.15-4.86,6.29l.17.16c.68,2.58,2.77,4.12,4.8,6.18a84.09,84.09,0,0,1,7.51,8.49c4.52,6,7.23,13.09,11.62,19.14,2.51,3.49,9.58,2.87,9.09-2.46-.81-8.71-5.71-16.46-11-23.24C775.56,1803.44,769,1794.25,762.22,1793.79Z"/></svg>