<svg id="Warstwa_1" data-name="Warstwa 1" xmlns="http://www.w3.org/2000/svg" viewBox="0 0 32 32"><title>Obszar roboczy 2</title><path d="M11.71,30.58a1.07,1.07,0,0,1-.85-.42L1.31,17.75a1.07,1.07,0,0,1,0-1.32L11.18,4.19a1.07,1.07,0,0,1,.81-.4c.23,0,5.82-.1,9.7,3.69C24.05,9.79,25.25,13,25.25,17,25.25,30.42,11.85,30.58,11.71,30.58ZM3.52,17.11l8.7,11.31c2.25-.15,10.9-1.4,10.9-11.38,0-3.42-1-6.12-2.91-8a12.35,12.35,0,0,0-7.69-3.08Z"/><path d="M30.29,18.16H2.16a1.07,1.07,0,1,1,0-2.14H27.92l-2.18-2.47a1.07,1.07,0,1,1,1.6-1.42l3.75,4.25a1.07,1.07,0,0,1-.8,1.78Z"/><path d="M26.73,22.22a1.07,1.07,0,0,1-.8-1.77l3.56-4.06a1.07,1.07,0,0,1,1.61,1.41l-3.56,4.06A1.07,1.07,0,0,1,26.73,22.22Z"/><path d="M6.92,18.25a5.14,5.14,0,0,1-5.14-5.14V10.69a5.14,5.14,0,0,1,10.27,0v2.43A5.14,5.14,0,0,1,6.92,18.25Zm0-10.56a3,3,0,0,0-3,3v2.43a3,3,0,0,0,6,0V10.69A3,3,0,0,0,6.92,7.69Z"/><path d="M15.72,29.9a1.07,1.07,0,0,1-1.07-1.07c0-3.14.91-5.55,2.71-7.17a9.14,9.14,0,0,1,6.53-2.06,1.07,1.07,0,0,1-.22,2.13,7.05,7.05,0,0,0-4.89,1.54c-1.32,1.2-2,3.07-2,5.57A1.07,1.07,0,0,1,15.72,29.9Z"/></svg>