<svg id="Warstwa_1" data-name="Warstwa 1" xmlns="http://www.w3.org/2000/svg" viewBox="0 0 32 32"><title>Obszar roboczy 12</title><path d="M16.44,24.06A11.29,11.29,0,1,1,27.73,12.77,11.3,11.3,0,0,1,16.44,24.06Zm0-20.57a9.29,9.29,0,1,0,9.29,9.29A9.3,9.3,0,0,0,16.44,3.49Z"/><path d="M16.44,19.12a6.34,6.34,0,1,1,6.34-6.34A6.35,6.35,0,0,1,16.44,19.12Zm0-10.69a4.34,4.34,0,1,0,4.34,4.34A4.35,4.35,0,0,0,16.44,8.43Z"/><path d="M16,31a1,1,0,0,1-1-1V24a1,1,0,0,1,2,0v6A1,1,0,0,1,16,31Z"/><path d="M21,28H11a1,1,0,0,1,0-2H21a1,1,0,0,1,0,2Z"/></svg>