<svg id="Warstwa_1" data-name="Warstwa 1" xmlns="http://www.w3.org/2000/svg" viewBox="0 0 32 32"><defs><style>.cls-1{fill:#fff;}</style></defs><title>Obszar roboczy 10</title><path class="cls-1" d="M14.48,15.81h0a1,1,0,0,1-1-1l0-2.34-.23,0a17.14,17.14,0,0,1-3.65-.77c-2-.89-3.06-2.17-3.06-3.6V2a1,1,0,0,1,1-1H24.42a1,1,0,0,1,1,1V8c0,2.6-4.2,3.88-6.16,4.34l-.1,2.46a1,1,0,1,1-2-.08l.13-3.24a1,1,0,0,1,.81-.94C21.4,10,23.42,8.69,23.42,8V3H8.58V8c0,.57.72,1.26,1.89,1.78a20,20,0,0,0,3.12.61l1.12.17a1,1,0,0,1,.83,1l-.05,3.21A1,1,0,0,1,14.48,15.81Z"/><path class="cls-1" d="M20.22,18.95H11.78a2.45,2.45,0,1,1,0-4.89h8.43a2.45,2.45,0,1,1,0,4.89Zm-8.43-3a.55.55,0,0,0,0,1.11h8.43a.55.55,0,0,0,0-1.11Z"/><path class="cls-1" d="M20.22,21.95H11.78a2.45,2.45,0,1,1,0-4.89h8.43a2.45,2.45,0,1,1,0,4.89Zm-8.43-3a.55.55,0,0,0,0,1.11h8.43a.55.55,0,0,0,0-1.11Z"/><path class="cls-1" d="M20.22,25H11.78a2.46,2.46,0,0,1,0-4.92h8.43a2.46,2.46,0,1,1,0,4.92Zm-8.43-3a.54.54,0,1,0,0,1.08h8.43a.54.54,0,0,0,0-1.08Z"/><path class="cls-1" d="M23.39,24.3a2.68,2.68,0,0,1-2.68-2.68V16.36a2.68,2.68,0,0,1,5.35,0v5.26A2.68,2.68,0,0,1,23.39,24.3Zm0-8.62a.69.69,0,0,0-.68.68v5.26a.69.69,0,0,0,.68.68.68.68,0,0,0,.68-.68V16.36A.69.69,0,0,0,23.39,15.68Z"/><path class="cls-1" d="M24.42,7.54H7.58a1,1,0,0,1,0-2H24.42a1,1,0,0,1,0,2Z"/><path class="cls-1" d="M22.27,31H10.2a1,1,0,0,1,0-2,2.64,2.64,0,0,0,2-.77,5.56,5.56,0,0,0,1.1-3.53,1,1,0,0,1,1-1,1,1,0,0,1,1,1A8,8,0,0,1,14.16,29h4.15a8,8,0,0,1-1.16-4.39,1,1,0,0,1,2,.09,5.56,5.56,0,0,0,1.1,3.53,2.64,2.64,0,0,0,2,.77,1,1,0,0,1,0,2Z"/></svg>