<?xml version="1.0" encoding="utf-8"?>
<!-- Generator: Adobe Illustrator 23.1.0, SVG Export Plug-In . SVG Version: 6.00 Build 0)  -->
<svg version="1.1" id="Warstwa_1" xmlns="http://www.w3.org/2000/svg" xmlns:xlink="http://www.w3.org/1999/xlink" x="0px" y="0px"
	 viewBox="0 0 32 32" style="enable-background:new 0 0 32 32;" xml:space="preserve">
<style type="text/css">
	.st0{fill:#5AAA32;}
	.st1{fill:none;stroke:#5AAA32;stroke-width:1.8;stroke-linecap:round;stroke-linejoin:round;}
</style>
<title>Obszar roboczy 19</title>
<path class="st0" d="M28.1,30H3.9c-1,0-1.9-0.8-1.9-1.9V13.8c0-1,0.9-1.9,1.9-1.9c0.6,0,1.2,0.3,1.5,0.8l4.5,6.4l4.5-8.2
	c0.5-0.9,1.6-1.2,2.5-0.8c0.3,0.2,0.6,0.4,0.8,0.8l4.5,8.2l4.5-6.4c0.6-0.9,1.8-1.1,2.6-0.5c0.5,0.4,0.8,0.9,0.8,1.5v14.3
	C30,29.2,29.2,30,28.1,30z M4,28h24V14.2l-4.4,6.3c-0.6,0.8-1.8,1-2.6,0.4c-0.2-0.2-0.4-0.4-0.6-0.6L16,12.1l-4.4,8.1
	C11,21.1,9.9,21.5,9,21c-0.2-0.1-0.5-0.3-0.6-0.6L4,14.2V28z"/>
<path class="st0" d="M16.1,27.7c-1.7,0-3.1-1.4-3.1-3.1s1.4-3.1,3.1-3.1s3.1,1.4,3.1,3.1l0,0C19.2,26.3,17.8,27.7,16.1,27.7z
	 M16.1,23.3c-0.7,0-1.3,0.6-1.3,1.3s0.6,1.3,1.3,1.3c0.7,0,1.3-0.6,1.3-1.3l0,0C17.4,23.9,16.8,23.3,16.1,23.3z"/>
<circle class="st1" cx="25.2" cy="24.6" r="2.2"/>
<path class="st0" d="M7,27.7c-1.7,0-3.1-1.4-3.1-3.1c0-1.7,1.4-3.1,3.1-3.1s3.1,1.4,3.1,3.1c0,0,0,0,0,0C10.1,26.3,8.7,27.7,7,27.7z
	 M7,23.3c-0.7,0-1.3,0.6-1.3,1.3c0,0.7,0.6,1.3,1.3,1.3s1.3-0.6,1.3-1.3l0,0C8.3,23.9,7.7,23.3,7,23.3z"/>
</svg>
