<?xml version="1.0" encoding="utf-8"?>
<!-- Generator: Adobe Illustrator 23.1.0, SVG Export Plug-In . SVG Version: 6.00 Build 0)  -->
<svg version="1.1" id="Warstwa_1" xmlns="http://www.w3.org/2000/svg" xmlns:xlink="http://www.w3.org/1999/xlink" x="0px" y="0px"
	 viewBox="0 0 32 32" style="enable-background:new 0 0 32 32;" xml:space="preserve">
<style type="text/css">
	.st0{fill:#FFFFFF;}
</style>
<title>Obszar roboczy 30</title>
<path class="st0" d="M15.7,24.7c-0.1-0.1-0.3-0.3-0.4-0.3c-0.1,0-0.2,0-0.3,0l0,0c0.1,0.4,0.1,0.9,0.1,1.3c0,0.1,0,0.3,0,0.4l0,0
	c0,0,0,0.1,0,0.1v0h0.1l0.4,0.1c0.1,0,0.2,0.1,0.3,0.1l0,0l0,0v-0.2c0-0.1,0-0.2,0.1-0.4c0-0.2,0-0.5,0-0.7
	C15.8,25.1,15.8,24.9,15.7,24.7z"/>
<path class="st0" d="M15.4,23.3L15.4,23.3c-0.1-0.1-0.3-0.2-0.5-0.3l0,0l-0.2,0c0,0.1,0,0.2,0,0.3l0.1,0.5c0.2-0.1,0.4-0.2,0.6-0.3
	C15.4,23.4,15.4,23.4,15.4,23.3z"/>
<path class="st0" d="M13,22.7L13,22.7c-0.1-0.3-0.2-0.6-0.4-0.9c0,0.1-0.1,0.2-0.1,0.3c-0.1,0.4-0.1,0.7-0.1,1.1
	c0,0.3,0.1,0.7,0.2,1c0.1,0.3,0.3,0.5,0.6,0.7l0,0l0.1,0l0,0l0,0c0-0.1,0-0.1,0-0.2c0-0.3,0-0.7-0.1-1C13.2,23.4,13.1,23,13,22.7z"
	/>
<path class="st0" d="M10,21.5l0.2-0.1c0.2-0.1,0.3-0.2,0.4-0.3c0-0.1,0.1-0.1,0.1-0.2c0,0,0-0.1,0-0.1c0-0.1,0-0.2-0.1-0.4
	c-0.1-0.1-0.1-0.2-0.3-0.3c-0.2-0.1-0.4-0.2-0.6-0.3l-0.3-0.1L9.7,20l0,0c0.2,0.2,0.3,0.4,0.3,0.7C10.1,20.9,10.1,21.2,10,21.5z"/>
<path class="st0" d="M29.8,1.9c0,0-0.1-0.1-0.1-0.1c-0.1,0-0.1,0-0.1,0.1c-0.8,4.9-3,9.5-6.4,13.1c-0.4,0.4-0.9,0.4-1.3,0
	c0,0-0.1-0.1-0.1-0.1c-0.3-0.4-0.6-0.8-1-1.2c-0.4-0.4-0.8-0.7-1.2-0.9c0.2-0.2,0.4-0.4,0.7-0.5l0.2-0.1l0.2-0.1h0.1l0,0
	c0.1,0,0.2,0,0.4-0.1c0.5-0.2,0.7-0.8,0.5-1.3c-0.2-0.5-0.8-0.7-1.3-0.5l0,0c-0.1,0.1-0.3,0.1-0.4,0.2c-0.1,0.1-0.2,0.2-0.3,0.2
	l-0.2,0.2l-0.2,0.2c-0.2,0.3-0.4,0.6-0.6,0.9l-0.1,0.2l0,0l-1.2,2.1c-0.1,0.2-0.2,0.4-0.3,0.7h-0.1c0-0.7,0-1.3,0.2-2
	c0.1-0.4,0.2-0.7,0.3-1.1c-0.9-0.2-1.8-0.1-2.7,0.1c0.1,0.3,0.2,0.5,0.2,0.8c0.2,0.7,0.2,1.3,0.2,2h-0.1l-0.3-0.7l-1-1.9l0,0
	l-0.1-0.1L13,11.6c-0.1-0.1-0.2-0.3-0.3-0.4l-0.2-0.2l-0.2-0.2c-0.1-0.1-0.2-0.2-0.3-0.2c-0.1-0.1-0.3-0.2-0.4-0.2l0,0
	c-0.5-0.2-1.1,0-1.3,0.5c-0.2,0.5,0,1.1,0.5,1.3c0.1,0,0.2,0.1,0.3,0.1l0,0h0.1l0.2,0.1l0.2,0.1c0.3,0.2,0.5,0.4,0.7,0.6l0.1,0.1
	c-0.4,0.2-0.7,0.5-1,0.8c-0.4,0.4-0.7,0.8-1.1,1.2c-0.3,0.4-0.9,0.5-1.3,0.2C9.1,15.1,9,15,9,15C5.7,11.5,3.5,7.1,2.7,2.3
	c0-0.1,0-0.1-0.1-0.1c-0.1,0-0.1,0-0.1,0.1l0,0C2,4.2,0.3,11.4,2.8,18.2c0.8,2.1,1.4,4.2,1.9,6.3c0.2,0.8,1,1.2,1.8,1
	c0.1,0,0.3-0.1,0.4-0.1C7.4,25,7.8,24.3,8,23.6c0-0.1,0.1-0.1,0.1-0.1c0,0,0.1,0,0.1,0.1c1.1,2.6,6.4,4.2,8.2,6.8
	c1.8-3.1,7.5-4.4,7.6-6.8c0,0,0-0.1,0.1-0.1s0.1,0,0.1,0.1c0.3,1,0.7,1.5,1.7,1.7c0.8,0.1,1.5-0.4,1.7-1.1c0-0.1,0-0.1,0-0.2
	c0.3-2,0.9-4,1.9-5.8C32.3,11.8,30.5,4.1,29.8,1.9z M17.6,17.5c0.1-0.2,0.3-0.4,0.4-0.6c0.5-0.6,1-1.1,1.7-1.6l0,0h0
	c0.8,0.2,1.5,0.9,1.5,1.8c0,0.2,0,0.3-0.1,0.5v0.1H21c-0.4,0-0.8,0.1-1.1,0.2c-0.4,0.2-0.7,0.5-0.9,0.9v0.1h-0.1
	c-0.6-0.2-1.1-0.7-1.2-1.3l0,0V17.5z M12.1,15.2L12.1,15.2L12.1,15.2l0.3,0.2c0.4,0.3,0.7,0.6,1.1,1c0.3,0.3,0.6,0.7,0.8,1.1
	l0.2,0.3v0.1l0,0l0,0c-0.2,0.6-0.7,1-1.2,1.2l-0.1,0.1V19c0-0.6-0.8-1.1-1.1-1.3c-0.4-0.2-0.9-0.3-1.4-0.3h-0.1v-0.2
	c0,0,0-0.1,0-0.1C10.6,16.2,11.2,15.4,12.1,15.2z M11.6,23.9L11.6,23.9c0,0.1-0.1,0.3-0.1,0.4c-0.1,0.2-0.2,0.3-0.3,0.4
	c-0.2,0.1-0.3,0.2-0.5,0.2l0,0h-0.2l0,0l-0.2-0.1c-0.2-0.1-0.3-0.1-0.4-0.3c-0.1-0.1-0.2-0.2-0.3-0.4c-0.1-0.2-0.2-0.5-0.2-0.8
	c0-0.2,0-0.5,0-0.7c0-0.2,0-0.5,0-0.7c0-0.1,0-0.2,0.1-0.3l0.1-0.3c0-0.2,0-0.3,0-0.5l0,0c-0.1-0.2-0.2-0.4-0.4-0.6
	C9,20.1,8.9,20,8.8,19.9c-0.3-0.4-0.4-0.9-0.5-1.4v-0.1l0,0L8.3,18c0-0.3,0.2-0.7,0.5-0.7s0.7,0.2,0.7,0.5c0,0.3-0.2,0.5-0.3,0.6
	c0,0.1,0,0.2,0,0.3l0,0C9.3,18.9,9.4,19,9.6,19l0.4,0.1h0.2c0.2,0.1,0.4,0.1,0.6,0.2c0.3,0.1,0.5,0.3,0.6,0.6
	c0.1,0.2,0.2,0.5,0.2,0.8c0,0.2-0.1,0.3-0.2,0.5c-0.1,0.1-0.2,0.2-0.4,0.3l0,0c-0.2,0.1-0.5,0.1-0.7,0.1H10v0.1v0.2
	c0,0.1-0.1,0.2-0.1,0.3c-0.1,0.4-0.1,0.8,0,1.2l0,0c0,0.2,0.1,0.3,0.2,0.4c0.1,0.1,0.2,0.1,0.4,0.2h0.1h0.1h0.1
	c0.1,0,0.2-0.1,0.3-0.2l0,0c0.1-0.2,0.1-0.3,0.1-0.5c0-0.1,0-0.2,0-0.3l0,0c-0.1,0.2-0.4,0.3-0.7,0.1c-0.1-0.1-0.2-0.2-0.2-0.3v-0.2
	c0-0.1,0-0.3,0-0.4c0-0.1,0.1-0.2,0.2-0.3c0.3-0.2,0.6-0.3,0.9-0.1l0.1,0.1l0.1,0.1c0.1,0.1,0.1,0.3,0.1,0.4
	C11.9,22.9,11.8,23.5,11.6,23.9L11.6,23.9z M14.1,25.1L14.1,25.1c0,0.1,0,0.3-0.1,0.4c-0.1,0.2-0.2,0.3-0.3,0.4
	c-0.1,0.1-0.2,0.1-0.3,0.1h-0.1h-0.2l0,0c-0.1,0-0.3-0.1-0.4-0.2c-0.2-0.1-0.4-0.3-0.5-0.5c-0.1-0.2-0.2-0.4-0.3-0.6
	c-0.1-0.4-0.2-0.8-0.1-1.2c0-0.4,0-0.8,0.1-1.2l0,0c0-0.2,0.1-0.4,0.2-0.6c0-0.1,0.1-0.1,0.2-0.2l-0.5-1l0.3,0.2
	c0.1,0.1,0.3,0.2,0.4,0.3l0.1,0.1l0.3,0.3l0.3,0.3l0.1,0.2l0,0l0,0l0.1,0.1l0,0v0l0,0l0,0c0.2,0.3,0.3,0.6,0.4,0.9
	c0.2,0.4,0.3,0.8,0.4,1.1C14.1,24.2,14.1,24.6,14.1,25.1L14.1,25.1z M16.6,26.1c0,0.1,0,0.3-0.1,0.4c0,0.1,0,0.2-0.1,0.2
	c0,0,0,0.1-0.1,0.1c0,0-0.1,0.1-0.1,0.1c-0.1,0.1-0.2,0.2-0.4,0.2h-0.2h-0.2c-0.2,0-0.3-0.1-0.4-0.1l0,0L14.8,27l-0.2-0.1h-0.1
	c-0.1,0-0.1-0.1-0.2-0.2c0-0.1-0.1-0.1-0.1-0.2c0,0,0,0,0-0.1l0,0v-0.1v-0.1v-0.1c0,0,0-0.1,0-0.1v-0.2c0-0.1,0-0.1,0-0.2l0,0
	c0-0.3,0.1-0.5,0.1-0.8c0-0.3,0-0.5-0.1-0.8c0-0.3-0.1-0.5-0.2-0.8c0-0.1,0-0.3,0-0.4c-0.1-0.1-0.1-0.2-0.2-0.4c0-0.1,0-0.3,0.1-0.4
	c0,0,0.1-0.1,0.1-0.1l0,0h0.4h0.2c0.2,0,0.3,0.1,0.4,0.1c0.2,0,0.3,0.1,0.4,0.2c0.2,0.1,0.3,0.2,0.4,0.3c0.1,0.1,0.1,0.2,0.2,0.3
	c0,0.1,0,0.3,0,0.4c0,0.1-0.1,0.2-0.2,0.3l-0.1,0.1l0,0c0.1,0.1,0.3,0.2,0.4,0.4c0.2,0.3,0.3,0.6,0.3,0.9
	C16.6,25.5,16.6,25.8,16.6,26.1L16.6,26.1z M18,26.4c-0.2,0.3-0.4,0.5-0.6,0.8l0,0.1c-0.1,0.1-0.2,0.1-0.3,0.1l0,0
	c-0.2,0-0.4-0.2-0.4-0.4c0,0,0,0,0-0.1l0.1-0.5l0-0.5c0-0.3,0-0.7,0-1c0-0.3,0-0.7,0-1c0-0.1,0-0.3-0.1-0.5l0,0c0-0.1,0-0.1,0-0.2
	c0-0.1,0-0.1-0.1-0.2l0,0c-0.1-0.1,0-0.3,0.2-0.4c0.1-0.1,0.3,0,0.4,0.1l0,0c0,0.1,0.1,0.2,0.1,0.3c0,0.1,0,0.2,0.1,0.2l0,0
	c0,0.2,0.1,0.4,0.1,0.5c0,0.4,0.1,0.7,0.1,1.1c0,0.3,0,0.5,0,0.8v-0.1l0.2-0.5c0.1-0.2,0.3-0.3,0.5-0.2c0.2,0.1,0.3,0.3,0.2,0.5l0,0
	L18.3,26C18.2,26.1,18.1,26.3,18,26.4L18,26.4z M19.5,24.6v0.3c0,0.1,0,0.3-0.1,0.4v0.2l0,0c0,0.1-0.1,0.3-0.1,0.4V26
	c0,0.2-0.2,0.3-0.4,0.3h-0.1c-0.2-0.1-0.4-0.3-0.3-0.5v0l0.1-0.2c0-0.1,0.1-0.2,0.1-0.3v-0.2c0-0.1,0.1-0.2,0.1-0.3l0,0v-0.3v-0.4
	V24c0,0,0-0.1,0-0.1s0-0.1,0-0.2l0,0c0-0.3,0-0.7-0.1-1c0-0.2-0.1-0.3-0.1-0.5c-0.1-0.2-0.1-0.3-0.2-0.4l0,0c-0.1-0.1,0-0.3,0.1-0.4
	c0.1-0.1,0.3,0,0.3,0.1c0.2,0.3,0.4,0.7,0.5,1.1c0.1,0.4,0.2,0.7,0.2,1.1c0,0.1,0,0.1,0,0.2s0,0.1,0,0.1L19.5,24.6L19.5,24.6z
	 M24,18.9c-0.1,0.1-0.2,0.3-0.2,0.5l0,0c-0.1,0.3-0.1,0.5-0.1,0.8l0,0v0.1c0,0.1,0,0.2,0,0.3s0,0.2,0,0.3c0,0.1-0.1,0.2-0.1,0.3
	c0,0.1-0.1,0.2-0.2,0.3c-0.1,0.1-0.2,0.2-0.3,0.2c-0.2,0.1-0.4,0.1-0.7,0c-0.1,0-0.1-0.1-0.1-0.2c0,0,0-0.1,0.1-0.1l0,0
	c0.1,0,0.2-0.1,0.3-0.2c0.1-0.1,0.1-0.2,0.1-0.3c0-0.1,0-0.1,0-0.2l0,0v-0.2v-0.5c0-0.1,0-0.3,0-0.5l-0.3,0.2
	c-0.2,0.1-0.4,0.3-0.5,0.6c-0.1,0.1-0.1,0.2-0.1,0.3l0,0c0,0,0,0.1,0,0.1V21c0,0.1,0,0.1,0,0.2l0,0c0,0.3,0,0.6,0.1,0.8
	c0.1,0.3,0.2,0.7,0.2,1c0,0.6,0,1.3-0.1,1.9c0,0.2-0.2,0.3-0.3,0.2c-0.1,0-0.2-0.1-0.2-0.2l0,0c-0.1-0.3-0.2-0.6-0.3-0.9
	c-0.1-0.3-0.3-0.6-0.4-0.9L20.6,23c0,0.1,0,0.3,0,0.4c0,0.3,0,0.7,0,1c0,0.2,0,0.4-0.1,0.5c0,0.1,0,0.2-0.1,0.3l0,0l0,0v0.1l0,0
	l0,0.1c0,0.1-0.1,0.2-0.2,0.2h-0.1H20c-0.2-0.1-0.3-0.3-0.2-0.5l0,0v-0.1v-0.1l0,0c0-0.1,0-0.1,0-0.2l0,0c0-0.1,0-0.3,0.1-0.5
	c0-0.3,0-0.6,0-0.9c0-0.3-0.1-0.6-0.1-1l-0.1-0.3v-0.2l-0.1-0.5c-0.1-0.2,0.1-0.4,0.2-0.5c0.2,0,0.3,0,0.4,0.2l0,0
	c0.2,0.3,0.3,0.5,0.5,0.8c0.2,0.3,0.4,0.6,0.6,0.9c0.1,0.1,0.1,0.3,0.2,0.5c0-0.1,0-0.2,0-0.3c0-0.3-0.1-0.6-0.2-0.9
	c-0.1-0.3-0.1-0.7-0.1-1c0-0.1,0-0.2,0-0.3v-0.1c0-0.1,0-0.1,0-0.2c0-0.2,0.1-0.4,0.2-0.5c0.2-0.3,0.4-0.6,0.7-0.8l0.5-0.4l0.2-0.2
	l0.2-0.1c-0.1-0.1-0.1-0.2-0.1-0.3c0-0.4,0.3-0.7,0.6-0.7s0.7,0.3,0.7,0.6c0,0.2-0.1,0.5-0.3,0.6L24,18.9z"/>
</svg>
