<svg id="Warstwa_1" data-name="Warstwa 1" xmlns="http://www.w3.org/2000/svg" viewBox="0 0 32 32"><defs><style>.cls-1{fill:#fff;}</style></defs><title>Obszar roboczy 13</title><path class="cls-1" d="M19,28.89a.63.63,0,0,1-.22-.1l.14-.38A1.93,1.93,0,0,0,19,28.89Z"/><path class="cls-1" d="M22.33,25.3l-.55,1.47L21,29l-.26.67A.92.92,0,0,1,20.6,29a1.47,1.47,0,0,1,.07-.19l1-2Z"/><path class="cls-1" d="M20.76,23.65a0,0,0,0,0,0,0s0,0,0,0Z"/><path class="cls-1" d="M20.53,24.1m-.26-1.31a1,1,0,0,0-.46.51l-1.58,4.19v.37a1,1,0,0,0,.54.93.63.63,0,0,0,.22.1,1.93,1.93,0,0,1-.08-.48h0a1.22,1.22,0,0,1,0-.19,3.13,3.13,0,0,1,.3-1.32l1.21-2.53V22.72Zm2.93.78,0,0L23,23.48l-1.41-.54a4.83,4.83,0,0,0,1.23,1.32l-.49,1a0,0,0,0,1,0,0v0l-.7,1.47-1,2a1.47,1.47,0,0,0-.07.19.92.92,0,0,0,.11.67h0a1,1,0,0,0,.39.35.92.92,0,0,0,.39.09h.07a.41.41,0,0,0,0-.09L22,29l.82-2.18.36-1v0l.4-1h0A.93.93,0,0,0,23.2,23.57Z"/><path class="cls-1" d="M15.32,8.48A3.33,3.33,0,0,0,13.6,8h-.17A3.41,3.41,0,0,0,10,11.43V27.86a1,1,0,0,0,1,1h5a1,1,0,0,0,1-1V11.43A3.4,3.4,0,0,0,15.32,8.48ZM15,26.87H12V11.43A1.45,1.45,0,0,1,13.43,10h.17A1.44,1.44,0,0,1,15,11.43Z"/><path class="cls-1" d="M13.5,2a3.49,3.49,0,0,0-1.81,6.47A3.41,3.41,0,0,0,13.5,9a3.53,3.53,0,0,0,1.82-.51A3.49,3.49,0,0,0,13.5,2Zm0,2A1.51,1.51,0,1,1,12,5.5,1.52,1.52,0,0,1,13.5,4Z"/><path class="cls-1" d="M7.49,11.72a3.39,3.39,0,0,0-4.19.07A3.56,3.56,0,0,0,1.94,14.6V27.87a1,1,0,0,0,.31.73,1,1,0,0,0,.72.3H3l5-.07a1,1,0,0,0,1-1V14.6A3.55,3.55,0,0,0,7.49,11.72Zm-.6,15.07L4,26.83V14.6a1.48,1.48,0,0,1,1.44-1.52A1.49,1.49,0,0,1,6.89,14.6Z"/><path class="cls-1" d="M5.34,5.23A3.62,3.62,0,0,0,1.7,8.82a3.54,3.54,0,0,0,1.6,3,3.68,3.68,0,0,0,4.19-.07A3.57,3.57,0,0,0,9,8.82,3.62,3.62,0,0,0,5.34,5.23Zm0,2a1.6,1.6,0,1,1,0,3.2,1.6,1.6,0,1,1,0-3.2Z"/><path class="cls-1" d="M21.48,5.51a3.45,3.45,0,1,0,0,6.9,3.52,3.52,0,0,0,2-.64A3.42,3.42,0,0,0,25,9,3.48,3.48,0,0,0,21.48,5.51Zm0,2A1.47,1.47,0,1,1,20,9,1.51,1.51,0,0,1,21.48,7.49Z"/><path class="cls-1" d="M23.16,15.92v2.49A3.15,3.15,0,0,1,25.34,17V15.17A4.93,4.93,0,0,0,23.16,15.92Zm.34-4.19a3.56,3.56,0,0,0-5.28,3.07v13a1,1,0,0,0,.54.93.63.63,0,0,0,.22.1,1.93,1.93,0,0,1-.08-.48h0a1.22,1.22,0,0,1,0-.19,3.13,3.13,0,0,1,.3-1.32l1.21-4.17a7,7,0,0,1-.7-2.49,6.13,6.13,0,0,1,.7-2.85V14.8a1.38,1.38,0,0,1,2.75-.13,5.83,5.83,0,0,1,2.11-.6A3.51,3.51,0,0,0,23.5,11.73ZM23.16,22v4.75H21.62l-1,2a1.47,1.47,0,0,0-.07.19h2L24,26.05l.48-1h0a4.07,4.07,0,0,0,.87.17V23.36A3.21,3.21,0,0,1,23.16,22Z"/><path class="cls-1" d="M26.52,25a1,1,0,0,1,0,.17,3.67,3.67,0,0,1-.66,0,5.22,5.22,0,0,1-1.37-.2h0l-.48,1L22.61,29l-.29.6a.9.9,0,0,1-.76.51h-.07A.92.92,0,0,1,21.1,30a1,1,0,0,1-.39-.35h0A.92.92,0,0,1,20.6,29a1.47,1.47,0,0,1,.07-.19l1-2,.7-1.47v0a0,0,0,0,0,0,0l.49-1a4.83,4.83,0,0,1-1.23-1.32l-.13-.2a2.53,2.53,0,0,1,.69-.44.2.2,0,0,1,.08,0,2.91,2.91,0,0,1,.92-.24,3.21,3.21,0,0,0,2.18,1.38,2.07,2.07,0,0,0,.5.05H26a2.62,2.62,0,0,1,.37.88.12.12,0,0,1,0,.08A2.36,2.36,0,0,1,26.52,25Z"/><path class="cls-1" d="M20.27,22.79c0,.1.09.19.14.29v-.36Zm5.58-7.61a4.08,4.08,0,0,0-.5,0,4.93,4.93,0,0,0-2.18.75,5,5,0,0,0-2.36,4.27,5.09,5.09,0,0,0,.67,2.51l.13.2a4.83,4.83,0,0,0,1.23,1.32l-.49,1a6.07,6.07,0,0,0,.82.48h0a7.16,7.16,0,0,0,.81.32l.48-1h0a5.22,5.22,0,0,0,1.37.2,3.67,3.67,0,0,0,.66,0,5,5,0,0,0-.66-10Zm.59,9.22a2.88,2.88,0,0,1-.59.05,4.07,4.07,0,0,1-.5,0,2.27,2.27,0,0,1-.53-.11h0a3.8,3.8,0,0,1-1.58-.79s0,0-.06,0a4.08,4.08,0,0,1-1-1.18,4.21,4.21,0,0,1,1-5.32,4.19,4.19,0,0,1,2.68-1,4.21,4.21,0,0,1,.59,8.39Zm-5.7-.76s0,0,0,0A0,0,0,0,0,20.74,23.64Z"/><path class="cls-1" d="M25.85,16.1a4.11,4.11,0,0,0-2.68,1,4.11,4.11,0,0,0,0,6.28l.11.09a4,4,0,0,0,1.55.77,3,3,0,0,0,.52.1,4.07,4.07,0,0,0,.5,0,3.56,3.56,0,0,0,.57,0,4.13,4.13,0,0,0-.57-8.22Zm.2,7.34h-.2a2.07,2.07,0,0,1-.5-.05A3.21,3.21,0,0,1,23.17,22h0a3.2,3.2,0,0,1,0-3.56,3.15,3.15,0,0,1,2.18-1.39,2.07,2.07,0,0,1,.5,0,3.22,3.22,0,0,1,.2,6.43Z"/><path class="cls-1" d="M25.85,15.18a4.08,4.08,0,0,0-.5,0,4.93,4.93,0,0,0-2.18.75,5,5,0,0,0-2.36,4.27,5.09,5.09,0,0,0,.67,2.51l.13.2a4.83,4.83,0,0,0,1.23,1.32,2.44,2.44,0,0,0,.33.23,3.31,3.31,0,0,0,.41.23,4,4,0,0,0,.89.35h0a5.22,5.22,0,0,0,1.37.2,3.67,3.67,0,0,0,.66,0,5,5,0,0,0-.66-10Zm0,8.27a2.07,2.07,0,0,1-.5-.05A3.21,3.21,0,0,1,23.17,22h0a3.2,3.2,0,0,1,0-3.56,3.15,3.15,0,0,1,2.18-1.39,2.07,2.07,0,0,1,.5,0,3.22,3.22,0,0,1,.2,6.43Z"/><path class="cls-1" d="M24.83,24.23s0,.06,0,.08h0a.6.6,0,0,1-.06.19l-.27.57h0l-.48,1L22.61,29l-.29.6a.9.9,0,0,1-.76.51h-.07A.92.92,0,0,1,21.1,30a1,1,0,0,1-.39-.35h0A.92.92,0,0,1,20.6,29a1.47,1.47,0,0,1,.07-.19l1-2,.7-1.47,0,0,.49-1,.26-.55a.61.61,0,0,1,.07-.1h0s0,0,0,0a.06.06,0,0,1,0-.05l.05-.06a.91.91,0,0,1,1-.18A.92.92,0,0,1,24.83,24.23Z"/></svg>