<?xml version="1.0" encoding="utf-8"?>
<!-- Generator: Adobe Illustrator 23.1.0, SVG Export Plug-In . SVG Version: 6.00 Build 0)  -->
<svg version="1.1" id="Warstwa_1" xmlns="http://www.w3.org/2000/svg" xmlns:xlink="http://www.w3.org/1999/xlink" x="0px" y="0px"
	 viewBox="0 0 1080 467.5" style="enable-background:new 0 0 1080 467.5;" xml:space="preserve">
<g>
	<g>
		<path d="M352.6,474.4c3.2-16.2,6.2-31.9,12.2-47.5c5.9-15.4,13.6-30.1,22.3-44.1c8.6-13.8,18.5-26.4,28-39.6
			c8.3-11.5,15.7-25.5,8.4-39.3c-1.5-2.8-6.5-0.8-5.2,2.2c6.3,15.2-6.6,30.2-15.2,41.4c-9.6,12.5-18.5,25.4-26.4,39.1
			c-7.7,13.3-14.4,27.2-19.5,41.7c-5,14.3-9.6,30.1-9.8,45.3C347.3,476.6,352,477.4,352.6,474.4L352.6,474.4z"/>
	</g>
</g>
<g>
	<g>
		<path d="M420.2,329.1c-1-12.1-7-26.7-16.4-34.6c-5.4-4.6-12-6.8-18.4-9.6c-5.6-2.5-15.3-7.1-15-14.6c0.4-10.5,15.5-5.9,20.8-2.7
			c3.1,1.9,5.5,4.2,8,6.8c2,2.1,4,4,7.2,3.9c3.1-0.1,5.8-1.4,9-1.2c3.2,0.2,6.5,1.1,9.3,2.6c5.8,3,10,8.2,11.4,14.6
			c1.1,4.8,8.5,2.8,7.4-2c-2.6-10.8-11.8-19.5-22.7-21.7c-2.4-0.5-4.9-0.7-7.4-0.6c-3,0.2-6.3,2.1-8.8,0.1c-2.3-1.8-4-4.2-6.4-6
			c-2.7-2-5.6-3.6-8.7-4.9c-5.8-2.4-12.4-3.4-18.3-0.7c-5.2,2.4-8.6,7.5-8.2,13.3c0.9,13.3,15.2,18.7,25.7,22.9
			c8.1,3.2,14.2,7.8,18.5,15.5c3.6,6.5,5.1,13.8,8.4,20.4C416.6,332.6,420.4,331.6,420.2,329.1L420.2,329.1z"/>
	</g>
</g>
<g>
	<g>
		<path d="M407.3,275c2.5-17.6-12.4-31.5-11.5-48.7c0.2-4.8,2.3-11.5,7.5-5.9c2.6,2.7,4.3,6.3,5.6,9.8c2.9,8.2,4,17.2,5.1,25.8
			c0.6,4.6,7.9,4.8,7.4,0c-1.2-10.7-2.7-22.1-7.3-32c-3-6.5-11.5-17.8-19.8-12.2c-7.9,5.4-6.7,18.6-4.5,26.5
			c3.4,12.4,10.6,23.1,11.7,36.1C401.9,277.2,406.9,278.5,407.3,275L407.3,275z"/>
	</g>
</g>
<g>
	<g>
		<path d="M420.1,250.7c1.3-7.7,0.8-15.7,2.6-23.4c1.6-6.7,5.2-15.6,12.4-18.1c9.2-3.2,4.9,16.8,3.8,20.7
			c-2.1,7.5-4.6,14.6-5.3,22.4c-0.5,5.1,7.5,5.1,8,0c0.9-11.3,6.6-21.7,7-33.1c0.3-8.6-2.3-19.5-13.1-18c-8.8,1.2-14.8,9.6-18,17.3
			c-4,9.9-4.6,21.8-2.3,32.2C415.9,253,419.7,253.1,420.1,250.7L420.1,250.7z"/>
	</g>
</g>
<g>
	<g>
		<path d="M440.8,252.7c6-10.3,13.5-22.9,25.7-26.9c3.6-1.2,7-0.7,6.7,3.9c-0.2,2.9-2.5,6-4.1,8.3c-4.6,6.5-10,12.3-15,18.5
			c-2.1,2.6-0.8,6.3,2.7,6.5c5,0.3,9.9-0.4,14.8-1.3c4.1-0.7,8.8-1.5,12.7,0.6c2,1.1,4,3.5,1.2,5.4c-1.5,1-4.7,1-6.5,1.3
			c-5.6,1-11.1,2-16.7,2.9c-2.5,0.4-3.4,3.6-2.3,5.6c4.7,8.6,10.7,20.3,5.3,29.9c-4,7.2-12.5,11.3-18,17.3c-3.4,3.8,2.2,9.5,5.6,5.6
			c6.9-7.7,17.1-12.6,20.7-22.8c4.1-11.5-1.8-23.8-7-33.9c-0.8,1.9-1.5,3.8-2.3,5.6c4.3-0.7,8.7-1.5,13-2.2
			c3.8-0.6,7.9-0.9,11.5-2.3c5.5-2.2,7.7-7.9,5.1-13.3c-2.4-5-7.5-7.4-12.7-8.2c-8-1.1-15.9,3.8-23.6,2.1c0.6,2.1,1.1,4.3,1.7,6.4
			c4.2-4.3,8-9.1,11.8-13.8c2.9-3.8,6.1-7.5,8.1-11.9c3.2-7.2,2.1-16.7-6.9-18.6c-8.3-1.7-16.4,4.4-22.1,9.6
			c-6.6,6-12.8,14.5-15,23.2C434.4,253.6,439.1,255.7,440.8,252.7L440.8,252.7z"/>
	</g>
</g>
<g>
	<g>
		<path d="M401.8,481.2c0.9-7.7,0.9-15.2,2.6-22.7c1.5-6.9,3.7-13.7,6.2-20.4c5.3-14.1,12.5-27.3,19.2-40.7
			c12.6-25,25.7-54.1,20.6-82.8c-0.7-4-7.6-3.2-7.2,1c1.4,15.3-0.3,29.7-5.1,44.3c-4.8,14.6-11.7,28.2-18.6,41.9
			c-6.4,12.6-12.7,25.3-17.3,38.7c-4.4,12.7-8.5,28.1-6,41.6C396.7,485.5,401.5,484.2,401.8,481.2L401.8,481.2z"/>
	</g>
</g>
<g>
	<g>
		<path d="M544.6,196.2c6.8,0.7,13.1,2.9,15.6,10.1c2.2,6.3-1.1,13.5-6.2,17.3c-2.5,1.9-6.2,3.6-9.4,2.6c-3.9-1.2-6.6-6.2-7.9-9.7
			c-2.9-7.9-0.5-15.4,7.5-18.6c3.2-1.3,3.2-6.9-0.9-6.6c-26.5,1.8-14.8,53.1,11,40.9c9.6-4.6,16-16,13.3-26.5
			c-2.4-9.2-13.8-18.9-23.7-14.9C541,192,541.4,195.9,544.6,196.2L544.6,196.2z"/>
	</g>
</g>
<g>
	<g>
		<path d="M587.7,205c-8.2,6.4-9.3,19.7-2.6,27.6c6.9,8.1,20.5,8.6,28.1,1.4c7.7-7.3,7.9-20.8,0.4-28.3c-7.3-7.3-22.1-8.4-28,1.1
			c-1.7,2.8,1.6,5.3,4.1,4.1c5.8-2.8,13.2-5.1,18.5,0.1c4.8,4.7,4.7,13.5-0.4,17.9c-5,4.3-13.8,3.8-17.8-1.7
			c-3.9-5.4-2.4-13,2.3-17.3C595.8,206.7,591,202.3,587.7,205L587.7,205z"/>
	</g>
</g>
<g>
	<g>
		<path d="M547.4,221.2c4.4,0,4.4-6.8,0-6.8C543,214.4,543,221.2,547.4,221.2L547.4,221.2z"/>
	</g>
</g>
<g>
	<g>
		<path d="M597.9,220.1c-0.4,0-0.8,0-1.1,0c-1.6,0.1-3.1,1.3-3,3s1.3,2.9,3,3c0.4,0,0.8,0,1.1,0c1.6,0.1,3.1-1.4,3.1-3.1
			C600.9,221.5,599.6,220,597.9,220.1L597.9,220.1z"/>
	</g>
</g>
<g>
	<g>
		<path d="M561.9,217c-8.9,14.4-18.6,39-4,53.4c4.9,4.8,12.9,6.3,17.5,0.4c4.3-5.5,1.4-14.4,6.5-19.1c-1.9-0.5-3.8-1-5.6-1.5
			c3.3,8,14.1,14,20.6,5.4c8.8-11.4-11.3-18.1-8.9-28.6c0.7-2.9-2.6-4.6-4.7-2.8c-4.8,4.1-2,10.9,1.3,15c2.2,2.7,6.7,5.6,7.4,9.2
			c0.5,2.5-1.1,4.7-3.8,4.6c-2.6-0.1-4.5-2.4-5.4-4.6c-1-2.4-3.6-3.3-5.6-1.5c-3.7,3.3-4.4,8-5.1,12.7c-0.3,2-0.4,4.8-1.7,6.5
			c-2.8,3.9-7.2-0.3-8.9-3c-8.6-13.6,0.6-31,5.4-44.1C567.9,216.1,563.5,214.5,561.9,217L561.9,217z"/>
	</g>
</g>
<g>
	<g>
		<path d="M555,238c-16.1-4.2-33.4,1.6-44.3,14c-2,2.3-1.1,5.4,1.7,6.4c3.6,1.4,7.2,2.8,10.8,4.2c0-2.5,0-5,0-7.5
			c-7.2,2.2-24.1,7.6-22.6,17.6c0.6,3.9,4.1,6.5,7.7,7.4c5.7,1.4,10.5-2.7,16.1-2.5c-1.1-2-2.3-3.9-3.4-5.9
			c-3.4,5.3-7.1,16.3-2,21.8c5.2,5.6,17.1-2.5,21.8-5.6c-1.9-1.1-3.7-2.1-5.6-3.2c-0.5,5,2.3,10.2,7.2,12c2.7,1,5.6,0.9,8.2-0.1
			c2.6-1,3.5-3.3,5.6-4.6c0.4-0.3,0.5-0.6,0.1-0.8c0.8,0.6,1.5,1.1,2.3,1.7c1.3,0.9,2.5,1.8,3.9,2.4c2.5,1.2,5.4,1.9,8.2,1.4
			c5.7-1.1,8.9-6,8.1-11.5c-1.9,1.5-3.8,2.9-5.7,4.4c5.9,3.7,16.3,9.3,23.3,5.2c5.6-3.3,4.9-11.3-1.1-13.5c0.3,2.4,0.6,4.7,0.9,7.1
			c2.6-1.2,6.6,1.1,9.1,1.9c2.9,0.9,5.9,1.6,8.9,0.5c8-3,5.8-12.1,2.4-17.7c-1.5,1.9-3,3.8-4.4,5.8c6,1,13.8,1.4,17.7-4.2
			c4.7-6.7-0.6-13.9-5.7-18.4c-1.9,1.9-3.8,3.8-5.6,5.6c8.5,6.9,18.3-5,12.6-13.3c-7.2-10.5-26.2-9.6-37-7.5c-5,1-2.9,8.7,2.1,7.7
			c6.6-1.3,13.5-1.3,20.1,0.3c2.2,0.5,4.5,1.1,6.4,2.4c0.7,0.5,2.6,1.8,2.5,3c-0.1,0.9-1.5,1.5-1,1.9c-3.9-3.2-9.5,2.2-5.6,5.6
			c2.1,1.9,7.1,5.9,4.2,8.8c-1.7,1.8-6.5,1-8.6,0.6c-3.2-0.5-6.4,2.6-4.4,5.8c1.2,2,4,6.4,0.2,6.5c-1.8,0.1-4.2-1.3-5.9-1.8
			c-4.1-1.3-7.8-1.8-11.8,0c-3.4,1.5-1.8,6.1,0.9,7.1c-2.5-0.9-5.4-0.8-8.1-1.8c-2.9-1-5.6-2.5-8.2-4.1c-3.2-2-6.2,1.3-5.7,4.4
			c0.7,5-8.6-0.9-9.4-1.5c-2.1-1.5-4.3-2.8-7-2.2c-2.4,0.5-3.4,2.4-4.9,4.1c-3.1,3.5-7.8,2.5-7.4-2.9c0.2-2.8-3.3-4.7-5.6-3.2
			c-2.2,1.4-4.4,2.7-6.7,3.8c-1.8,0.8-5.2,2.8-7.2,2.3c0.8,0.6,1.5,1.2,2.3,1.8c-2.9-3.7,0.3-10.5,2.4-13.7c1.6-2.6-0.5-5.9-3.4-5.9
			c-2.6,0-5,0.5-7.5,1.3c-1.5,0.5-3.4,1.4-5,1.5c-1.7,0.1-2.6,0.1-2.3-1.5c0.5-2.2,5-3.9,6.8-4.9c2.9-1.5,5.9-2.6,9-3.6
			c3.9-1.2,3.5-6.2,0-7.5c-3.6-1.4-7.2-2.7-10.8-4.1c0.6,2.1,1.1,4.3,1.7,6.4c9.3-10.4,23.2-15,37-12.8
			C557.5,245.4,559.5,239.1,555,238L555,238z"/>
	</g>
</g>
<g>
	<g>
		<path d="M526.2,242.3c-1.6-6.6-3.2-13.5-5.8-19.8c-1.6-3.8-6.9-0.9-6.2,2.6c1.3,6.3,3.9,12.7,6.1,18.8
			C521.6,247.6,527.1,246.2,526.2,242.3L526.2,242.3z"/>
	</g>
</g>
<g>
	<g>
		<path d="M517.5,232.3c-15.6,6.5-11.8-26.7-10.7-33.5c-1.2,0.9-2.3,1.8-3.5,2.6c3.8,0.4,5.6,3.3,6.9,6.5s6.3,3,6.3-0.9
			c0.1-7.3-6.5-12.1-13.3-12.8c-1.4-0.1-3.2,1.2-3.5,2.6c-1.6,10.4-3.3,23.2,0.8,33.2c3,7.3,11.8,13.1,19.2,7.9
			C522.5,236.1,521,230.9,517.5,232.3L517.5,232.3z"/>
	</g>
</g>
<g>
	<g>
		<path d="M630.1,247.6c2.7-8.4,4.5-19.8,2-28.4c-0.9-3-5-2.2-5.2,0.7c-0.7,8.8-0.8,17.5-2.1,26.3
			C624.3,249.6,629,251.1,630.1,247.6L630.1,247.6z"/>
	</g>
</g>
<g>
	<g>
		<path d="M628,231.3c-2.1,5.5,5.3,9.1,9.8,8.7c8.4-0.8,9.6-12.9,11.2-19.2c1.3-5,2.8-10.1,3.8-15.2c0.7-3.5,0.4-7.2-2.3-9.8
			c-6.1-5.8-14.8-1.3-19.4,4c-2.3,2.6,0.8,7.5,4,5.2c2.6-1.9,11.3-9.1,11.2-1.2c0,4-2.1,8.6-3,12.5c-1,4.1-1.8,8.3-3,12.3
			c-0.7,2.3-1.3,5.1-4.2,5.1c-0.6,0-3.7-1-3.8-1.7C632.1,229.4,628.9,228.9,628,231.3L628,231.3z"/>
	</g>
</g>
<g>
	<g>
		<path d="M547.3,292.5c-0.5,4.9-4.4,27.7,6.9,24.3c1.7-0.5,2.9-1.9,4.1-3.1c2-2.1,0.9-0.5,0.9,2c0,7.2-0.6,14.4-0.4,21.5
			c0.1,4,1,8.6,4.9,10.5c3.5,1.7,7.1,0.4,9.5-2.5c3.3-4,3.6-9.6,4.3-14.5c0.9-6.9,1.7-13.8,2.4-20.7c-1.4,1.1-2.8,2.1-4.2,3.2
			c2.6,1.1,5.1,2.1,7.7,3.2c1.3,0.5,3.1-0.3,3.8-1.5c4.4-8.7,6.9-18.9,4.7-28.6c-0.8-3.4-6.2-2.7-6.1,0.8c0.2,8.7-0.4,16.5-4.4,24.4
			c1.3-0.5,2.5-1,3.8-1.5c-2.6-1.1-5.1-2.1-7.7-3.2c-2.2-0.9-4,1.3-4.2,3.2c-0.5,5-1,10.1-1.6,15.1c-0.4,3.2-0.8,6.3-1.3,9.4
			c-0.3,1.5-0.4,4.3-1.6,5.5c-2.4,2.5-2.9-0.9-3-2.9c-0.1-2.4,0-4.9,0-7.3c0-5.4,0.3-10.8,0.2-16.1c-0.2-4.9-3.4-10.8-9.1-7.9
			c-1,0.5-1.9,1.4-2.7,2.2c-0.5,0.5-1.2,1.2-1.6,1.8c-0.4,0.8,0.7-1.2,0.8-1.7c0.5-2.1-0.1-5.2-0.2-7.4c-0.1-2.8-0.3-5.6-0.5-8.3
			C552.3,289.1,547.7,289.1,547.3,292.5L547.3,292.5z"/>
	</g>
</g>
<g>
	<g>
		<path d="M624.9,262.4c4.6,6.7,9.2,13.4,13,20.6c2,3.8,3.9,7.8,5.3,11.9c0.6,1.8,1.4,3.8,1.3,5.7c-0.1,2.4-2,5.5-4.6,3.6
			c-2.1-1.5-5.9,0.5-5.5,3.2c1.2,9-2,17.4-9,23.3c1.8,0,3.5,0,5.3,0c-2.4-2.4-4.8-4.7-7.3-7.1c-2.2-2.1-6.7-0.7-6.5,2.7
			c0.6,6.6,1.4,23.6-10,21.5c-2.1-0.4-4,0.5-4.7,2.7c-2.2,7.2-6,14.3-11.7,19.4c-2.4,2.2-5.9,4.5-9.3,4.1c-3.6-0.4-6.8-3.7-5.5-7.4
			c1.6-4.5-5.4-6.3-7.1-1.9c-4.2,10.8,8.4,18.9,17.9,16.1c11.9-3.5,19.4-17.2,23-28.2c-1.6,0.9-3.1,1.8-4.7,2.7
			c6.4,1.2,12.2-1.4,16-6.7c4.6-6.4,4.2-14.7,3.6-22.1c-2.2,0.9-4.3,1.8-6.5,2.7c2.4,2.3,4.9,4.7,7.3,7c1.5,1.5,3.7,1.3,5.3,0
			c8.2-7.1,12.4-17.8,11-28.6c-1.8,1.1-3.7,2.1-5.5,3.2c3.7,2.6,8.6,1.8,11.8-1.2c4.5-4.1,4.2-10.3,2.4-15.6
			c-4.2-12.6-11.7-25.4-20.8-35.1C627.3,256.3,622.9,259.5,624.9,262.4L624.9,262.4z"/>
	</g>
</g>
<g>
	<g>
		<path d="M503.9,271.3c2.3,0,2.3-3.5,0-3.5C501.6,267.7,501.6,271.3,503.9,271.3L503.9,271.3z"/>
	</g>
</g>
<g>
	<g>
		<path d="M502.8,267.6c-3.8,4.5-6.5,9.6-9.3,14.7c-2.4,4.3-5,8.7-5.7,13.7c-1.2,8,4.3,17.5,13.3,16.3c-1.1-1.9-2.2-3.8-3.3-5.8
			c-4.4,9.6-12.4,21-5.8,31.6c4.5,7.3,15.8,8.2,20.5,0.7c-2.3-1-4.6-1.9-6.8-2.9c-1.9,10.2-3.3,23.7,7.1,30.1
			c7.2,4.5,18.2,1.1,19.7-7.8c0.8-4.7-5.8-6.7-7.3-2c-5.1,15.7,14.1,27.1,25.7,15.6c-2.1-0.9-4.3-1.8-6.4-2.7
			c-0.8,8.2,4.8,16.1,13,17.7s16-3.8,18.4-11.5c1.5-4.7-5.6-6.4-7.2-2c-3.8,10.1-17.6,6.2-16.7-4.2c0.3-3.3-4.3-4.8-6.4-2.7
			c-6.4,6.4-15.9,0.1-13.1-8.3c-2.4-0.7-4.9-1.3-7.3-2c-1.1,6.2-8.3,4.7-11.1,0.7c-3.8-5.5-2.4-12.9-1.2-19c0.8-4.1-4.5-6.6-6.8-2.9
			c-1.3,2-4.1,1.9-5.9,0.8c-2.6-1.5-3.1-4.9-3-7.7c0.3-6.4,4.7-12.1,7.2-17.8c1-2.3-0.1-6.2-3.3-5.8c-9.6,1.2-4.5-12.2-2.3-16.2
			c3.1-5.9,6.7-11.7,8.8-18.1C508.4,267.7,504.7,265.4,502.8,267.6L502.8,267.6z"/>
	</g>
</g>
<g>
	<g>
		<path d="M522.3,203.2c3-9.3,3.2-19.5,5.1-29.1c1.8-9.1,4.4-18.1,7.6-26.8c6.4-17.3,15.3-35.5,28-49.2c11.1-12,26.9-16.9,42.1-9.3
			c16.9,8.5,19.6,27,22.4,44c1.9,11.7,3.1,23.5,3.6,35.4c0.5,12-0.6,23.8-0.6,35.7c0,4.3,7,5.6,7.8,1.1c1.9-11.4,1.7-23.3,1.4-34.8
			c-0.3-11.7-1.4-23.3-3.1-34.8c-2.9-18.9-5.8-40.2-23.3-51.3c-13.6-8.6-31.6-9.1-45.2-0.3c-16.3,10.6-26.9,30.4-34.6,47.7
			c-9.9,22.2-15.8,46.5-16.1,70.9C517.2,205.5,521.4,206,522.3,203.2L522.3,203.2z"/>
	</g>
</g>
<g>
	<g>
		<path d="M550.4,159.9c10.4-2.9,20.8-2.3,29,5.5c1.4,1.3,3.5,1.3,4.9,0c8-7.6,17.2-7.6,27.3-5.6c3.7,0.7,6.5-4.5,2.7-6.5
			c-11.3-6-26.3-1.2-34.9,7.2c1.6,0,3.3,0,4.9,0c-9.3-8.7-24.6-12.6-36.1-5.8C545.4,156.3,547.2,160.8,550.4,159.9L550.4,159.9z"/>
	</g>
</g>
<g>
	<g>
		<path d="M631.7,262.6c7-2.5,13.3-7.5,19.7-11.1c7.4-4.1,15-7.9,22.8-11.2c15.3-6.6,31.3-11.6,47.7-14.8c1.3-0.2,2.3-1.4,2.6-2.6
			c4.2-14.8,12.6-27.6,24.4-37.5c1.3-1.1,1.4-3.3,0.6-4.7c-1.8-3.4-4.8-5.7-8.3-7.4c-3.3-1.6-7.9-2.7-10.4-5.5
			c-5.6-6.4,5.3-10.3,10.1-9.8c2.5,0.2,5.8,0.8,7.9,2.3c2.6,1.8,2.8,4.6-0.8,4.8c-1.5,0.1-2.6,1.4-2.2,2.9c2.2,9.1,14.1,1,13.1-6.1
			c-1.3-10.2-16.4-12.8-24.5-11.1c-9.1,1.8-16.5,12-10.7,20.8c4.5,6.9,15.3,6.2,19.1,13.2c0.2-1.6,0.4-3.1,0.6-4.7
			c-12.7,10.7-21.7,25-26.1,40.9c0.9-0.9,1.8-1.8,2.6-2.6c-16.4,3.3-32.3,8.6-47.6,15.2c-7.8,3.4-15.4,7.1-22.8,11.3
			c-6.8,3.8-15.1,7.8-20.1,13.9C627.9,260.2,629.1,263.5,631.7,262.6L631.7,262.6z"/>
	</g>
</g>
<g>
	<g>
		<path d="M741.9,151.2c3.1-3.8,14.8-22.2,20.8-17.9c3.5,2.6-0.5,8.5-2.5,10.9c-3.1,3.7-7.2,6.3-10.5,9.7c-3,3,0.8,7,4.3,5.5
			c8.7-3.8,24.3-22.2,13.9-31.5c-11.1-9.9-27.1,11.8-30.2,20.6C736.8,151,740.3,153.2,741.9,151.2L741.9,151.2z"/>
	</g>
</g>
<g>
	<g>
		<path d="M751.6,165.2c7.8,9.3,20.4,2.2,25.1-6.6c2.4-4.4,5.7-11.2,4.8-16.4c-0.7-4.5-5.8-7.6-9.8-4.8c-3.7,2.6-0.5,8.1,3.6,6.1
			c-1.7,0.8-2.1,5.2-2.7,6.9c-1,2.8-2.2,5.6-4.1,7.9c-3.2,4-9.4,6.1-13.8,2.8C752.2,159.3,749.9,163.1,751.6,165.2L751.6,165.2z"/>
	</g>
</g>
<g>
	<g>
		<path d="M761.8,167.8c-1.8,5.4,2.7,10.4,7.9,11.4c6.3,1.2,11.9-3.7,15.2-8.5c5.1-7.7,7.3-24.1-4.1-27.6c-3.3-1-5.4,3.2-3.2,5.5
			c3.7,4,5,7.6,3.4,13.1c-0.8,2.7-2.2,5.2-4.1,7.3c-2.3,2.5-8.5,5.6-8.8-0.3C767.9,165,762.9,164.3,761.8,167.8L761.8,167.8z"/>
	</g>
</g>
<g>
	<g>
		<path d="M771.5,174.4c-3.9,20.7-12.8,39.9-26.7,55.8c-7,7.9-15,14.9-24,20.6c-8.2,5.2-17.2,9.1-25.4,14.2
			c-7.6,4.7-14.9,10.5-19.4,18.4c-5.7,9.8-5.9,21.3-5.9,32.4c0,26.6,0,53.2,0,79.8c0,30.6-0.3,61.2,0.1,91.7c0.1,5,7.7,5,7.8,0
			c0.6-53.2-0.1-106.4-0.2-159.6c0-12.3-1.7-26.5,3.6-38c4.1-8.9,12.2-14.9,20.5-19.7c8.4-4.9,17.4-9,25.5-14.4
			c8.3-5.5,15.8-12.1,22.4-19.5c14.9-16.7,25.2-37.7,28.4-59.9C778.6,172,772.3,170,771.5,174.4L771.5,174.4z"/>
	</g>
</g>
<g>
	<g>
		<path d="M443.4,136.1c3.9,7.1,14.2,4.9,17.5-1.6c4.3-8.5-2.7-19.6-9.4-24.6c-6.9-5.2-17.3-5.6-21.3,3.3
			c-4.1,9.2,2.3,19.4,9.8,24.5c2.8,1.9,6.4-1.8,4.6-4.6c-2.5-3.8-6.5-7-7.6-11.6c-1.3-5.1,2.1-9.6,7.4-7.3c4.2,1.8,7.5,5.8,9.4,9.9
			c0.9,2.1,2.1,5.5,0.6,7.6c-1,1.3-3.9,2.6-5.1,0.9C446.8,129.2,441.3,132.3,443.4,136.1L443.4,136.1z"/>
	</g>
</g>
<g>
	<g>
		<path d="M459.6,125.9c8-5.4,16.3-14.9,9.9-24.8c-6-9.3-17.7-5.2-20,4.6c-0.7,3,3.4,6,5.6,3.3c1.2-1.5,2.4-4.1,3.9-5.2
			c2.9-2,5.5,1.5,5.8,4.2c0.6,5.3-5.2,10.1-8.5,13.6C454.2,123.8,457,127.7,459.6,125.9L459.6,125.9z"/>
	</g>
</g>
<g>
	<g>
		<path d="M452.3,109.6c4-4.4,8.2-9.7,7.5-16.1c-0.5-4.6-3.7-9.2-8.4-10.3c-12.2-2.8-19,15.4-18.5,24.6c2.5,0,5,0,7.6,0
			c-0.7-6.3-1.4-12.6-2.2-18.9c-0.2-1.5-1-3.4-2.8-3.7c-16.2-2.3-23.7,14.4-23,28.2c0.3,5.9,2.6,12.7,8.9,14.4
			c5.1,1.4,10.7-0.9,12-6.2c1.1-4.6-5.3-6.1-6.9-1.9c-1.5,3.8-5.5-1.5-6-2.9c-0.9-3.1-0.5-6.9,0-10c1-6.4,4.9-15.2,12.9-14.1
			c-0.9-1.2-1.9-2.5-2.8-3.7c0.7,6.3,1.5,12.6,2.2,18.9c0.6,4.7,7.9,4.9,7.6,0c-0.4-5.7,1.4-13.4,6.9-16.5c4.1-2.3,6.1,1.7,5.5,5.3
			c-0.6,3.4-3.4,6.6-5.4,9.3C445.4,108.6,450,112.1,452.3,109.6L452.3,109.6z"/>
	</g>
</g>
<g>
	<g>
		<path d="M412.8,108.7c-2.6,3.5-2.1,8.7-2.4,12.9c-0.3,5.2-0.6,10.4-0.9,15.6c-0.5,9.7-1.1,19.5-1.6,29.2c-0.5,8.5-1,17-1.8,25.5
			c-0.7,8.3-2.4,16.6-3,24.8c-0.3,4.3,5.9,4.7,7.2,1c2.5-7.6,2.8-16.3,3.5-24.2c0.8-8.8,1.3-17.6,1.7-26.3c0.5-9.3,0.9-18.7,1.4-28
			c0.3-5.5,0.6-11.1,0.8-16.6c0.2-4.5,1.3-9.8-1.1-13.9C415.9,107.1,413.8,107.4,412.8,108.7L412.8,108.7z"/>
	</g>
</g>
<g>
	<g>
		<path d="M445.3,139.2c-3.8,10.3-4.3,22.6-5.5,33.5c-1.2,11.5-2.1,23.2-2,34.8c0.1,5.1,7.7,5,7.9,0c0.5-11.3,0.9-22.6,1.9-33.9
			c1-11.1,3.9-22.5,4-33.6C451.6,136.3,446.5,135.9,445.3,139.2L445.3,139.2z"/>
	</g>
</g>
<g>
	<g>
		<path d="M473,241.9c9.9,10,24,17.2,36.9,22.4c4.1,1.6,7.1-5.4,3-7.2c-6.4-2.7-12.6-5.6-18.6-9.1s-11.4-7.7-17.3-11.3
			C473.8,234.8,470.4,239.3,473,241.9L473,241.9z"/>
	</g>
</g>
<g>
	<g>
		<path d="M448.9,329.6c19.3,19.4,19.5,48,16.4,73.5c-2,16.1-6.6,31.4-11.2,46.9c-4.3,14.4-7.8,29.2-6.6,44.3c0.4,5.3,8.7,5.3,8.2,0
			c-1.4-17,3.5-33.2,8.3-49.3c4.8-16,8.5-32.1,9.9-48.7c2-24.3,0.7-55.9-21.4-71.3C449.7,323.1,446.6,327.3,448.9,329.6L448.9,329.6
			z"/>
	</g>
</g>
<g>
	<g>
		<path d="M412.2,116.6c-11.2-6-27-5.4-39.3-4.6c-13.8,0.9-27.5,3.6-40.9,7c-27.5,6.9-54.5,16.3-83,17.2c1.2,0.7,2.3,1.3,3.5,2
			c-3.7-4.8,13.7-8.1,16.5-8.9c7-2,14-4,21-6c14.1-4,28.1-8.3,42.3-11.7c13.9-3.4,27.5-4.7,41.8-4c13.9,0.7,27.9,1.8,41.5-2
			c5.5-1.5,3.2-10.1-2.4-8.6c-11.6,3.3-23.5,2.7-35.4,2.1c-12-0.6-23.8-0.4-35.7,1.8c-24.2,4.4-47.8,12.9-71.4,19.7
			c-5.7,1.6-11.6,3-17.1,5c-3.7,1.3-7.3,3.5-8.9,7.3c-1.3,3.1-1.3,7.7,1.5,10.1c3.3,2.9,11.9,0.8,15.9,0.3
			c23.4-2.5,45.9-9.7,68.6-15.5c13-3.3,26.2-6.3,39.6-7.5c6.8-0.6,13.6-0.8,20.5-0.4c6.8,0.4,13.4,2.1,20.1,2.2
			C413.6,122.3,414.8,118,412.2,116.6L412.2,116.6z"/>
	</g>
</g>
<g>
	<g>
		<path d="M462.4,125.2c8.7,1.2,18,0.9,26.7,1.3c7.9,0.3,16.1,0.3,23.7-2.1c11.9-3.8,23.6-15,18.4-28.5c-4-10.4-19.6-13.2-25.1-2.4
			c-1.6,3.1-0.4,7.4-4.9,7.7c-4,0.3-7.8-1.8-11.9-1.5c-7,0.5-13.4,6.6-20.4,5.1c-5.3-1.1-7.3,6.3-2.2,8.1c5.3,1.8,10.3-0.1,15.2-2.2
			c2.8-1.2,5.7-2.7,8.9-2.8c3.3-0.1,6.5,1.4,9.8,1.4c4.7,0.1,9.4-1.8,11.3-6.3c1-2.3,0.4-5.5,2.5-7.3c1.7-1.4,4.7-1.6,6.6-0.5
			c5.6,3.1,3.6,11.2,0.3,15.1c-4.4,5.1-11.6,7.2-18.1,8c-7,0.9-14.2,0.3-21.2-0.1c-6.6-0.4-14-1-20.4,1.4
			C458.5,120.7,459.1,124.7,462.4,125.2L462.4,125.2z"/>
	</g>
</g>
<g>
	<g>
		<path d="M181.7,486.2c-3.4-11.7,2.2-26.6,15.4-28.9c14.1-2.5,24.5,12.6,22.1,25.3c-0.9,5,6.1,7,7.7,2.1
			c5.9-17.7-12.1-37.6-30.1-34.9c-16.5,2.4-29.4,23.5-20.4,38.7C178.1,491.2,182.6,489.4,181.7,486.2L181.7,486.2z"/>
	</g>
</g>
<g>
	<g>
		<path d="M198.9,463.5c0.6-2.4-0.6-4.8-2.7-5.9c-1.2-0.6-2.5-0.8-3.9-0.5c-1.6,0.4-2.5,1.7-3,3.1c-0.5,1.2,0.2,2.7,1.2,3.4
			c1,0.8,2.5,0.9,3.6,0.3c0.4-0.2-0.5,0.2-0.5,0.2c0.5-0.2-0.9,0.1-0.5,0.1c0.2,0,0.4,0,0.6,0c-0.3,0-0.6-0.1-1-0.1
			c0.2,0,0.4,0.1,0.6,0.1c0.5,0.1-0.3-0.1-0.4-0.2c0,0.1,0.2,0.1,0.3,0.2c0.3,0.1-0.7-0.5-0.4-0.3c0.3,0.3-0.5-0.8-0.3-0.4
			c-0.3-0.7-0.3-0.9-0.2-1.7c-0.2,0.9-0.2,1.8,0.3,2.7c0.4,0.7,1.2,1.4,2.1,1.6C196.4,466.3,198.4,465.4,198.9,463.5L198.9,463.5z"
			/>
	</g>
</g>
<g>
	<g>
		<path d="M260.5,483.1c-3.1-11.2-4.3-30.4,11.1-32.9c7.3-1.2,10.8,4.9,13,10.9c2.5,6.9,3.7,12.8,1.5,19.9c-1,3.3,3.7,6.4,6,3.5
			c6.5-7.9,2.8-19.2-0.6-27.7c-3.2-8.1-9.1-15-18.5-14.6c-7.8,0.3-15.3,5.3-18.9,12.1c-5.1,9.8-3.1,20.5,0.8,30.3
			C256.3,488,261.6,486.8,260.5,483.1L260.5,483.1z"/>
	</g>
</g>
<g>
	<g>
		<path d="M270,455.4c4.4,0,4.4-6.8,0-6.8C265.7,448.6,265.7,455.4,270,455.4L270,455.4z"/>
	</g>
</g>
<g>
	<g>
		<path d="M224.1,466.3c-1.6-4.9-5.5-9-8.2-13.4c-3-4.9-5.6-10.1-6.5-15.8c-1.4-8.9,2.5-22.8,13.2-23.9
			c13.1-1.4,11.6,20.6,13.4,28.7c2.4,11,7.6,21,14.5,29.8c3.2,4.1,8.8-1.6,5.7-5.7c-4.8-6.1-8.5-13.1-10.9-20.6
			c-2.3-7.2-2.6-14.5-4-21.9c-2.3-12.4-12.8-22.5-25.8-16.2c-10.1,5-14.9,17.2-14,28c0.5,6.5,2.9,12.8,6.1,18.5
			c3,5.3,7.2,12.3,12.5,15.5C222.1,470.4,224.8,468.5,224.1,466.3L224.1,466.3z"/>
	</g>
</g>
<g>
	<g>
		<path d="M165.5,464.4c2.3,0,2.3-3.5,0-3.5C163.2,460.8,163.2,464.4,165.5,464.4L165.5,464.4z"/>
	</g>
</g>
<g>
	<g>
		<path d="M162.2,476.8c-7-5.2-12.4-11.7-14.7-20.2c-1.3,1.7-2.5,3.3-3.8,5c3-0.1,5.9-0.3,8.9-0.4c3.2-0.2,5.6-4.4,2.8-6.8
			c-16.1-14.2-24.3-35.2-22.1-56.6c-2.6,0.4-5.3,0.7-7.9,1.1c4,13.9,14.8,23.2,25.8,31.6c11.9,9,23.1,17.2,30.2,30.6
			c2,3.9,8.6,1.2,7.2-3c-9.6-27.5-47.2-33.3-55.4-61.4c-1.3-4.6-7.5-3.3-7.9,1.1c-2.4,23.3,6.9,46.8,24.5,62.2
			c0.9-2.3,1.9-4.5,2.8-6.8c-3,0.2-5.9,0.3-8.9,0.5c-2.5,0.1-4.5,2.4-3.8,5c2.8,10.1,9.4,19.2,19.2,23.5
			C162.8,483.9,165.5,479.2,162.2,476.8L162.2,476.8z"/>
	</g>
</g>
<g>
	<g>
		<path d="M282.4,444.4c2.1-4.4,3-8.6,4-13.4c0.3-1.2,0.5-2.5,0.8-3.7c0-1.4,0.2-1.6,0.7-0.7c1.3-0.3,3.5,0.9,5,0.7
			c6.7-0.6,9.4-7.7,11.9-12.9c7.4-15,18.9-27.6,33.2-36.4c-1.9-1.5-3.9-3-5.8-4.5c-5.4,19-11.9,38-15.8,57.3
			c-3.3,16.2-3.1,34,7.4,47.7c3.1,4.1,10.1,0.1,7-4.1c-10.5-13.7-9.1-31.2-5.3-47c4.2-17.4,9.5-34.5,14.3-51.8
			c0.9-3.3-2.9-6.4-5.8-4.5c-14.4,9-26.5,21.5-34.5,36.6c-1.7,3.1-2.8,7.7-5.2,10.3c-2.8,3-6.6-0.3-10.2,1.3
			c-3.6,1.6-4.1,5.3-4.8,8.8c-0.9,5.1-1.9,9.9-1.6,15.1C277.8,445.4,281.2,446.8,282.4,444.4L282.4,444.4z"/>
	</g>
</g>
<g>
	<g>
		<path d="M485.6,151.8c-1,2.6-1.7,5.3-2.7,7.9c-0.9,2.5-2.6,5.1-2.4,7.8c0.1,2.3,3,4.7,5.2,3c2.6-2,3.6-5.1,4.6-8.2
			c0.9-3.1,1.7-6.4,1.8-9.6C492.1,148.7,486.9,148.5,485.6,151.8L485.6,151.8z"/>
	</g>
</g>
<g>
	<g>
		<path d="M508.2,148.8c0.3,2.8,0.6,5.7,0.7,8.5c0.2,2.7-0.1,5.7,0.8,8.3c1.1,3.2,5.3,3.2,6.4,0c1.8-5.1-0.3-12.6-1.9-17.6
			C513.2,144.9,507.8,145.2,508.2,148.8L508.2,148.8z"/>
	</g>
</g>
<g>
	<g>
		<path d="M467.4,147c-1.4,2.2-2.9,4.3-4.2,6.5c-1.3,2.3-2.8,4.4-2.9,7.1c-0.1,2.4,2.9,4.2,5,2.9c2.2-1.5,3.3-3.8,4.5-6.1
			c1.2-2.3,2.3-4.6,3.4-7C475.1,146.5,469.8,143.4,467.4,147L467.4,147z"/>
	</g>
</g>
<g>
	<g>
		<path d="M524.7,137.9c0.8,0.5,1.5,1.1,2.3,1.6c0.4,0.3,0.7,0.5,1.1,0.7c0.9,0.5,1.8,0.6,2.9,0.4c1.7-0.3,2.3-2.2,2-3.6
			c-0.3-1.5-1.7-2.3-2.8-3.1c-0.8-0.5-1.6-1.1-2.4-1.6c-1.4-0.9-3.6-0.3-4.3,1.1C522.7,135.2,523.3,136.9,524.7,137.9L524.7,137.9z"
			/>
	</g>
</g>
<g>
	<g>
		<path d="M539.1,115.6c0.9,0.4,1.7,0.8,2.6,1c0.9,0.3,1.8,0.7,2.8,0.6c1.3-0.1,2.4-0.7,3-2c0.5-1.2,0.3-2.6-0.7-3.6
			c-1.2-1.3-3.4-1.8-5.1-2.3c-1.7-0.5-3.4,0.4-4.1,2C537.1,112.7,537.5,114.9,539.1,115.6L539.1,115.6z"/>
	</g>
</g>
<g>
	<g>
		<path d="M461,70.6c1.1,1.6,2.2,3.3,3.4,4.8c0.5,0.6,1,1.3,1.6,1.9c1.2,1.3,2.5,1.5,4.2,1.3c1.1-0.2,2-1.3,2.3-2.3
			c0.8-2.4-1.1-4.4-2.6-6.1c-1.1-1.3-2.4-2.5-3.7-3.7C463.6,63.9,458.8,67.3,461,70.6L461,70.6z"/>
	</g>
</g>
<g>
	<g>
		<path d="M485.9,60.5c1.4,3.7,1.7,7.2,1.8,11.1c0.2,5,7.4,4.9,7.7,0c0.3-4.7-1.5-9.5-3.8-13.6C490,55.1,484.6,57.1,485.9,60.5
			L485.9,60.5z"/>
	</g>
</g>
<g>
	<g>
		<path d="M514.8,57.4c-1.1,3-5.2,10.4-0.1,11.8c4.8,1.3,5.9-6.8,6.8-9.9c0.5-1.8-0.6-3.8-2.4-4.3C517.1,54.5,515.5,55.7,514.8,57.4
			L514.8,57.4z"/>
	</g>
</g>
<g>
	<g>
		<path d="M548.8,61.1c-2.3,2.2-5,4-5.7,7.1c-0.6,2.4,1.5,4.4,3.9,3.9c0.8-0.2,1.6-0.5,2.2-1c0.3-0.2,0.5-0.4,0.8-0.6
			c-0.2,0.2-0.1,0.1,0.3-0.2c0.4-0.3,0.7-0.6,1-0.9c1-1,1.9-2,2.9-3c1.4-1.4,1.5-3.9,0-5.3C552.6,59.7,550.4,59.7,548.8,61.1
			L548.8,61.1z"/>
	</g>
</g>
<g>
	<g>
		<path d="M163.4,243.5c4.1,28.4,12.3,56.5,19.7,84.2c3.7,13.9,7.6,27.8,11.6,41.6c4,13.8,7.6,27.9,12.6,41.3c1.7,4.5,8.5,2.8,7.3-2
			c-3.5-13.9-8.2-27.6-12.2-41.4s-7.9-27.7-11.7-41.6c-7.5-27.7-13.4-56.1-22.3-83.5C167.4,238.8,163,240.2,163.4,243.5L163.4,243.5
			z"/>
	</g>
</g>
<g>
	<g>
		<path d="M184,218c2.7,19.8,8.6,39.4,13.5,58.8c4.8,19.2,9.7,38.4,14.8,57.4c10.4,38.5,21.9,76.7,35.1,114.2
			c1.7,4.8,9.4,2.7,7.7-2.1c-13.2-37.6-24.7-75.8-35.2-114.2c-5.2-19.1-10.3-38.2-15.2-57.4c-5-19.4-8.7-39.5-15.6-58.2
			C188,213.3,183.5,214.6,184,218L184,218z"/>
	</g>
</g>
<g>
	<g>
		<path d="M193.9,346.5c2.4-0.2,4.6,3.1,6.1,4.6c2.3,2.3,4.9,4.3,8.2,4.5c6.8,0.4,12.1-5.9,10.9-12.4c-0.7-3.9-6.9-2.9-6.8,0.9
			c0,2.6-2,5-4.7,3.9c-1.9-0.7-3.7-3.2-5.2-4.5c-3.3-2.8-5.9-3.6-9.7-1.8C190.4,342.9,191.4,346.8,193.9,346.5L193.9,346.5z"/>
	</g>
</g>
<g>
	<g>
		<path d="M173.1,239.5c1.5,12.5,6.2,25.1,9.6,37.2c3.5,12.4,7,24.8,10.6,37.2c7.1,25.1,13.7,50.5,21.8,75.3c1.5,4.5,8.4,2.7,7.2-2
			c-6.3-25.3-14.3-50.3-21.6-75.3c-3.6-12.4-7.3-24.8-10.9-37.1c-3.5-12.1-6.3-25.2-11.7-36.6C177,235.8,172.8,236.9,173.1,239.5
			L173.1,239.5z"/>
	</g>
</g>
<g>
	<g>
		<path d="M166.2,240.7c-8.5,1.7-16.8,3.8-25.5,4.5c-8.4,0.7-16.7,0.6-25.1-0.1c1.2,1.5,2.3,3.1,3.5,4.6c1.1-3.4,5.3-4.2,8.3-5.1
			c3.3-1,6.6-2,9.9-3c6.9-2.1,13.9-4.3,20.8-6.4c13.6-4.1,27.3-7.9,41.1-11c6.8-1.5,13.6-2.8,20.4-3.9c3.6-0.6,7.3-1.1,11-1.5
			c0,0,4.7-0.5,4.6-0.7c0.4,0.8-2.7,3.4-3,3.6c-5.1,3.9-12.5,6.4-18.5,8.7c-6.9,2.7-13.9,4.5-21,6.7c-5,1.5-2.9,8.8,2.1,7.8
			c9.3-1.9,18.4-5.4,27.1-9.1c6.7-2.9,15.8-5.7,20-12.2c3.6-5.5,1.7-12.5-5.2-13.8c-3.8-0.7-8,0.3-11.8,0.9
			c-4.8,0.6-9.5,1.4-14.2,2.3c-18.6,3.4-36.8,8.5-54.9,14.2c-9,2.9-18,5.9-26.9,9.1c-6.6,2.4-14.4,4.2-16.9,11.5
			c-0.9,2.5,1.3,4.4,3.5,4.6c17,2,36.3,1.1,52.4-5.4C171.8,245.5,170.4,239.8,166.2,240.7L166.2,240.7z"/>
	</g>
</g>
<g>
	<g>
		<path d="M168.5,222.6c-0.4-1.6-0.8-3.2-1.3-4.8c-0.3,1-0.5,2-0.8,3.1c4.6-5.3,11.2-8.1,18.2-7.6c-1.1-0.6-2.2-1.3-3.3-1.9
			c1.3,2.6,0.5,5.5,1.7,8.2c0.6,1.3,2.5,1.7,3.7,1c4.7-2.9,3.4-8.9,1.3-13c-0.6-1.2-2-1.8-3.3-1.9c-6-0.3-12.1,1.3-17,4.8
			c-2.2,1.6-4,3.4-5.5,5.7c-2,3.2-0.2,5.5,1.5,8.7C165.1,227.4,169.2,225.5,168.5,222.6L168.5,222.6z"/>
	</g>
</g>
<g>
	<g>
		<path d="M172.1,208.2c1.4-4.7-1-10.1-2-14.7c-1.4-6-2.9-12.1-4.3-18.1c-2.8-11.8-5.5-23.6-8-35.4c-0.3,1.2-0.6,2.4-0.9,3.6
			c5.2-4.4,8,9.8,8.7,12.2c1.5,5.7,2.9,11.3,4.4,17c2.9,11.3,5.8,22.6,8.8,33.9c1.2,4.7,8.5,2.7,7.3-2c-4.3-16.3-8.6-32.6-12.8-48.9
			c-1.6-6-2.6-13.5-7.8-17.6c-4.2-3.3-9.6-3.2-13.6,0.2c-1,0.9-1.2,2.4-0.9,3.6c2.5,11.8,5.2,23.6,8.2,35.3
			c1.4,5.7,2.9,11.4,4.4,17.1c1.3,4.7,2,11.2,5.7,14.7C169.9,210,171.6,209.6,172.1,208.2L172.1,208.2z"/>
	</g>
</g>
<g>
	<g>
		<path d="M489.8,389.9c0.2,7.7,0.9,15-0.3,22.6c-1.1,7-3,13.8-4.9,20.6c-2,6.8-4,13.5-5.4,20.4c-1.3,6.3-2.9,13.4-1.3,19.8
			c0.7,2.7,4.8,2.7,5.5,0c1.7-7,1.7-14.4,3.3-21.5c1.7-7.4,4-14.8,5.9-22.2c3.2-12.6,6.9-28.4,1.4-40.8
			C493,386.7,489.7,387.8,489.8,389.9L489.8,389.9z"/>
	</g>
</g>
<g>
	<g>
		<path d="M533.1,395.6c-4.2,12.6-6.4,26.1-7.6,39.3c-0.6,6.7-1,13.4-1.1,20s-0.6,13.6,0.8,20c0.9,4.2,6.5,2.7,6.9-0.9
			c0.7-6.3-0.1-12.8-0.1-19.1c0.1-6.7,0.4-13.4,0.9-20c1.1-13,3.1-25.8,4.7-38.7C537.9,393.6,533.8,393.3,533.1,395.6L533.1,395.6z"
			/>
	</g>
</g>
<g>
	<g>
		<path d="M595.2,397.9c-1,12-0.7,24-0.4,36c0.1,5.8,0.4,11.7,0.7,17.5c0.3,5.6-0.1,12,1.8,17.3c0.9,2.5,5,3,5.6,0
			c1-5.3,0.1-11-0.2-16.3c-0.3-6.2-0.6-12.3-0.9-18.5c-0.5-12-0.4-24-1.2-36C600.3,394.5,595.5,394.5,595.2,397.9L595.2,397.9z"/>
	</g>
</g>
<g>
	<g>
		<path d="M636.7,367.9c0.7,18,3.1,36,4.4,54c0.6,8.9,1.1,17.7,1.5,26.6c0.4,8.8,0.1,17.8,1.5,26.6c0.6,4.1,6.3,2.6,6.7-0.9
			c0.9-9.1-0.2-18.5-0.7-27.6c-0.5-8.9-1.1-17.7-1.9-26.6c-1.5-17.6-2.9-35.4-6.7-52.7C640.8,364.6,636.6,365.2,636.7,367.9
			L636.7,367.9z"/>
	</g>
</g>
<g>
	<g>
		<path d="M261.9,250c-4.2,3.4-2.9,12.3-2.7,17.2c0.2,6.7,1.2,13.5,2.8,20c1.2,5,2.5,11.4,6.9,14.7c3.8,2.8,8.6,2,11.8-1.3
			c3.8-3.9,4-9.6,5-14.6c0.7-3.4,1.6-7.3,5.2-8.6c2.6-1,5.5-0.7,8.1-1.9c10.4-4.9,6.5-18.8-4-20c-4.2-0.5-5.2,6.8-1,7.5
			c4.1,0.7,4.9,4.7,0.7,6c-1.4,0.5-3,0.4-4.4,0.7c-3.1,0.7-5.7,2-7.7,4.4c-2,2.3-3.2,5.3-3.9,8.2c-0.8,3.1-0.4,9.9-3,12.1
			c-3.7,3.1-5.2-6.1-5.8-8.4c-1.1-4.4-2-8.8-2.5-13.3c-0.5-4.2-0.7-8.5-0.7-12.8c0-3.8,1-6.8-1.5-9.9
			C264.4,248.9,262.8,249.2,261.9,250L261.9,250z"/>
	</g>
</g>
<g>
	<g>
		<path d="M304.3,272.7c4.2-3.8,7.5-7.6,13.7-7.6c5.2,0,10.7,3.2,12.8,8.1c2.9,6.4-3.1,6.5-7.8,7.1c-4.8,0.7-9.6,2.2-13.8,4.7
			c-8.6,5.2-11.8,14-15.7,22.7c-1.8,4-5.5,13-10.6,7.4c-3.9-4.3-1-10.9-2-15.9c-0.6-2.7-4.2-2.8-5.5-0.7c-3.8,5.8-3.4,15.9,1,21.3
			c3.7,4.5,10.3,7,15.6,3.9c6.3-3.7,8.6-12.8,11.4-19.1c3.7-8.3,8.9-13.8,17.9-15.9c6.4-1.5,14.2-0.4,17.3-7.6
			c2.5-5.9-0.3-12.7-4.6-17c-9.5-9.8-30.7-9.4-35.4,5.4C297.7,272.8,302,274.8,304.3,272.7L304.3,272.7z"/>
	</g>
</g>
<g>
	<g>
		<path d="M294.2,308.1c-2.6-1.6-9.2-4.7-7.8-8.8c1.7-4.7,8.5,1.5,10.4,2.7c3.4,2.2,6.6-2.5,4.1-5.3c-4.9-5.6-16.3-9.5-20.5-0.9
			c-4.3,8.6,4.6,15.2,11.6,17.7C295.1,314.6,296.9,309.8,294.2,308.1L294.2,308.1z"/>
	</g>
</g>
<g>
	<g>
		<path d="M300.3,298.5c-1.4-3.6-4.4-9.3-1.7-12.9c3.3-4.3,6.7,2.8,8.8,4.7c2.3,2.2,6.5,0,5.5-3.2c-2.1-7-10.9-13-17.5-8
			c-7.4,5.6-4.2,15,0.2,21.3C297.2,302.6,301.5,301.4,300.3,298.5L300.3,298.5z"/>
	</g>
</g>
<g>
	<g>
		<path d="M313.2,284.7c0-2.2,0.4-10.8,4.5-9.6c2.9,0.8,3.3,5.9,5.4,7.6c1.8,1.5,5.3,1.3,5.9-1.5c1.2-6.4-5.7-13.9-12.1-13.6
			c-3.6,0.2-6.8,2.6-8.5,5.7c-2.2,4.1-1.5,7.9-0.6,12.2C308.4,288.5,313.2,287.7,313.2,284.7L313.2,284.7z"/>
	</g>
</g>
<g>
	<g>
		<path d="M287.2,221.2c-8.2,9.5-8.7,24.7,1.6,33.1c9.2,7.4,22.9,4.2,29.4-5.1c7.2-10.2,4.3-25.8-4.9-33.8c-4-3.4-9.4-5.5-14.5-3.9
			c-5.6,1.8-10,6.8-14.2,10.6c-3.8,3.4,1.7,8.5,5.4,5.4c5.3-4.3,11.1-12.9,18.3-7.2c6.5,5.2,8.7,16.1,4.5,23.3
			c-3.9,6.6-13.3,9.7-19.5,4.3c-6.9-6.1-5.2-15.8-1.5-23.2C293.2,221.9,289.5,218.5,287.2,221.2L287.2,221.2z"/>
	</g>
</g>
<g>
	<g>
		<path d="M301.9,247.8c5.1,0,5.1-8,0-8S296.8,247.8,301.9,247.8L301.9,247.8z"/>
	</g>
</g>
<g>
	<g>
		<path d="M262.9,254.7c-2.3-9-13.7-12.7-21.9-9.8c-9,3.3-14.4,12.7-13.3,22.1c1.2,9.9,8.8,18.2,18.5,20.5c7.6,1.8,20.7-0.5,19-10.9
			c-0.4-2.7-4.7-3.1-5.9-0.8c-2.9,5.8-9.3,5.6-14.7,3c-5.3-2.6-9.1-8-9.3-14c-0.1-5.3,3.2-10.7,8.3-12.5c5.7-2,10.3,1.4,14,5.3
			C260,259.9,263.7,257.6,262.9,254.7L262.9,254.7z"/>
	</g>
</g>
<g>
	<g>
		<path d="M250.6,277.9c5.1,0,5.1-8,0-8C245.4,269.9,245.4,277.9,250.6,277.9L250.6,277.9z"/>
	</g>
</g>
<g>
	<g>
		<path d="M313.8,317.3c0.2-2.7,1.1-5.1,2.4-7.4c1.4-2.3,3.6-3.7,5.3-5.8c2.1-2.6,0.3-7.5-3.6-6.2c-7.5,2.5-11.2,12.1-11.3,19.3
			C306.4,322,313.4,321.9,313.8,317.3L313.8,317.3z"/>
	</g>
</g>
<g>
	<g>
		<path d="M246.2,372.7c-0.2,0.1-0.5,0.2-0.7,0.4c1.1,0,2.3,0,3.4,0c-8.3-3.7-15.4-12-19.7-19.9c-0.2-0.3-1.5-2.5-1.4-2.8
			c0.6-0.9,3.7,1.2,4.2,1.5c2.3,1.7,4.4,3.6,6.6,5.4c4.7,3.9,9.3,7.8,13.8,11.7c3.5,3.1,8.7-2.1,5.1-5.1c-2.7-2.4-9.2-7.7-8.8-11.7
			c0.2-1.9,0.6-0.9,2.1,0c1,0.5,2,1.1,2.9,1.7c2.2,1.3,4.3,2.6,6.5,3.9c1-1.7,2-3.5,3.1-5.2c-2-1.2-5.8-4.3-3.8-6.6
			c2.1-2.4,5.2,1.7,6.7,3.6c1.4-1.4,2.9-2.9,4.3-4.3c-5-4.2-9.6-8.9-13.9-13.8c-1.5-1.7-9-9.4-3.6-9.9c3.4-0.3,6.7,3.7,8.8,5.8
			c9.4,9.2,17.5,19.5,24.3,30.8c2.3,3.8,8.4,0.3,6-3.5c-5.1-8.3-10.8-16.1-17.3-23.4c-5.2-5.9-12.7-16.1-21.3-16.5
			c-7-0.3-12.4,6.4-8.9,13c4.6,8.6,14,15.9,21.5,21.9c3,2.5,6.9-1.3,4.3-4.3c-4-4.7-11.4-9.8-16.6-3.5c-4.6,5.5,1.6,13.1,6.3,16
			c3.4,2.1,6.1-2.9,3.1-5.2c-4.8-3.7-16.4-13.9-21.4-5.4c-4.3,7.5,5.3,17.6,10.4,22c1.7-1.7,3.4-3.4,5.1-5.1
			c-7.4-6.5-14.8-13.6-23-19.1c-5.1-3.5-15.1-2.8-14.6,5.4c0.4,6.9,7.7,15.2,12.4,19.8c3.5,3.4,12.9,12.9,17.8,7.7
			C252.7,375.1,249.5,371.1,246.2,372.7L246.2,372.7z"/>
	</g>
</g>
<g>
	<g>
		<path d="M356.6,328.8c-8.2-6.2-14.5-15.3-16.6-25.4c-0.2-1-0.7-2.5-0.4-3.4c0.4-1.4-0.1-0.8,0.4-0.6c1.9,0.7,4.7,5.1,6,6.5
			c4.2,4.6,8.3,9.1,12.4,13.7c2.5,2.8,7.6-0.1,6.4-3.7c-0.5-1.6-2.4-4.6-2.2-6.2c0.6-5.2,4.4-0.5,5.8,1c3.4,3.6,8.1-1.6,5.3-5.3
			c-0.2-0.4,0-0.9,0.4-1.3c1.9-0.2,3.1,0.5,3.7,2.1c2.4,4.2,8.8,0.5,6.5-3.8c-2.8-5.1-5.4-10.3-8.5-15.2c-2.5-4-8.3-0.5-6.3,3.7
			c2.5,5.2,5.5,10.2,8.3,15.3c2.2-1.3,4.3-2.5,6.5-3.8c-2.8-4.8-9.1-8.2-14.2-4.6c-4.4,3.1-4.8,8.7-1.6,12.8
			c1.8-1.8,3.5-3.5,5.3-5.3c-3.8-4-9.9-8-15.3-4.1c-5.8,4.3-2.7,11.2-1,16.6c2.1-1.2,4.3-2.5,6.4-3.7c-3.3-3.7-6.6-7.3-9.9-11
			c-3-3.3-6-7.6-9.7-10.2c-5.3-3.7-11-0.9-12.1,5.3c-1.1,6.5,2.2,14.4,5.4,20c3.9,6.8,9.2,12.2,15.8,16.3
			C357,336.8,359.9,331.3,356.6,328.8L356.6,328.8z"/>
	</g>
</g>
<g>
	<g>
		<path d="M246,377.4c1.5,2.4,3.4,4.6,5.2,6.9c0.3-2,0.5-4.1,0.8-6.1c-5.4,4.1-11.2,8.5-13.4,15.3c-1.9,5.8-0.9,12,3.5,16.4
			c1.3,1.2,3.2,1.5,4.7,0.6c3.7-2.1,5.7-5.3,7.9-8.8c1.1-1.7,2.1-3.8,3.9-4.8c3.5-1.9,7,1.4,10.1,2.7c3.4,1.5,7.7-2.7,4.4-5.7
			c-4.9-4.4-12.7-7.1-18.7-3.3c-5.1,3.2-6.3,10.2-11.5,13c1.6,0.2,3.2,0.4,4.7,0.6c-7-7.2,3.9-15.9,9-20c1.6-1.3,1.4-4.2,0-5.5
			c-2.1-2-4.1-3.9-6.4-5.7C247.7,371.2,244.5,374.9,246,377.4L246,377.4z"/>
	</g>
</g>
<g>
	<g>
		<path d="M353.8,334.2c1,1.6,2.2,2.8,3.9,3.8c1.4,0.7,3.8,0.7,4.9,1.5c1.7,1.2,3.1,9.4,4.2,12.2c3.2,8.1,7.5,18.8,14.4,24.4
			c3.3,2.7,7.5-0.6,5.8-4.5c-1.9-4.3-5.3-8.1-7.6-12.3c-2.5-4.4-4.6-9-6.2-13.8c-1.2-3.5-1.6-8.2-3.9-11.2c-1.1-1.4-2.5-2-4.2-2.4
			c-2.7-0.5-4.2-1-6.5-2.5C355.7,327.5,352,331.3,353.8,334.2L353.8,334.2z"/>
	</g>
</g>
<g>
	<g>
		<path d="M410.1,341c-5.4-6.6-10.1-12.6-10.3-21.6c-0.1-4.1,0.9-7.9,2.6-11.6c1.8-4,3.5-7.5,2.3-11.9c-1-3.7-6.9-3-6.7,0.9
			c0.2,5.3-3.5,9.8-4.6,14.8c-0.9,4.2-1,8.6-0.3,12.8c1.4,8,6,17.5,13.7,20.9C409.6,346.5,412.1,343.5,410.1,341L410.1,341z"/>
	</g>
</g>
<g>
	<g>
		<path d="M269.5,398.4c1.2,4.9,4.1,9.4,6.3,14c2.2,4.5,3.6,9.8,6.9,13.7c1.9,2.2,6,0.5,5.8-2.4c-0.4-5-3.3-9.9-5.5-14.4
			c-2.3-4.7-4.7-10-8.6-13.7C272.2,393.6,268.8,395.6,269.5,398.4L269.5,398.4z"/>
	</g>
</g>
<g>
	<g>
		<path d="M310.6,398.4c-5.3-7.9-8.3-15.8-10.9-25c-2.1-7.4-4-18.5-10.1-23.7c-2.4-2-6-0.1-5.3,3.1c1,4.3,3.6,8.2,5.1,12.4
			c1.6,4.6,2.8,9.2,4.3,13.8c2.6,8.1,5.7,17.1,12.1,23C308.3,404.2,312.6,401.3,310.6,398.4L310.6,398.4z"/>
	</g>
</g>
<g>
	<g>
		<path d="M224.2,237c13,1.2,21.6,13.6,34.4,14.9c3.8,0.4,5.3-5.5,1.9-7.2c-6.6-3.3-13-6.7-19.6-10.1c-5.5-2.9-12.1-5.7-18.2-3
			C219.8,232.9,221.6,236.7,224.2,237L224.2,237z"/>
	</g>
</g>
<g>
	<g>
		<path d="M286.4,237.6c-3.5-6.2-6.1-13-6.3-20.2c-0.1-3.4,0.3-6.8,1.1-10.1c0.8-3.2,2.4-6.1,2.7-9.4c0.2-3.1-3.6-4-5.6-2.3
			c-5.8,4.9-6.3,16.4-5.6,23.4c0.8,8.3,3.6,15.9,9.3,22.1C284.2,243.4,288,240.4,286.4,237.6L286.4,237.6z"/>
	</g>
</g>
<g>
	<g>
		<path d="M298.9,367.3c3.5-2.8,5-7.7,6-11.9c-2.3,0-4.5,0-6.8,0c1.9,7.5,6.3,16.1,15.5,14.9c9.5-1.2,9.3-12.3,10.1-19.6
			c-2.3,0.6-4.6,1.2-6.9,1.9c3.9,6.2,11.8,14.4,20,10.8c8.3-3.7,7.6-15.4,6.8-22.8c-2.3,0.6-4.6,1.3-6.9,1.9
			c5.5,8.8,19.5,5,18.1-5.9c-0.6-4.9-8.4-5-7.8,0c0.3,2.3-1.8,5-3.8,2.1c-1.9-2.8-7.2-2.1-6.9,1.9c0.2,3.8,1.3,10.8-1.2,14.1
			c-3.3,4.3-9.8-3-11.7-5.9c-2.2-3.2-6.5-1.7-6.9,1.9c-0.3,2.6,0,11.2-3.7,12c-4.3,0.9-6.7-6.4-7.7-9.2c-1-3-6.1-3.7-6.8,0
			c-0.8,4-2.9,7.1-4,10.9C293.1,367.5,296.8,369,298.9,367.3L298.9,367.3z"/>
	</g>
</g>
<g>
	<g>
		<path d="M333.2,252.8c2.8,1.5,5.2,1.2,8.3,0.9c1.5-0.2,4.4-0.8,5.5,0.8c1.2,1.6-0.5,4.3-1.4,5.5c-1.8,2.6,0.6,5.8,3.4,5.9
			c5.5,0.2,9.2,3,12.8,6.9c2.9,3.3,8.4-1,6.1-4.7c-4.2-6.5-11.3-9.7-18.8-10c1.1,2,2.2,3.9,3.4,5.9c3.3-4.4,3.9-11.5-0.5-15.5
			c-4.7-4.2-12.4-2.2-17.9-1.1C331.4,247.9,331,251.6,333.2,252.8L333.2,252.8z"/>
	</g>
</g>
<g>
	<g>
		<path d="M260.5,316.5c0.2-4.2-0.6-8.3-0.3-12.5c0.2-2.4-2.4-4-4.6-3.5c-1.9,0.4-3.8,1.5-5.7,1.5c-0.9,0-2.7-0.5-2.2-1.4
			c2.7-4.3-3.9-7.9-6.7-3.9c-2.7,3.8-1,8.9,2.6,11.5c4.4,3.1,10.6,1.7,14.8-1.2c-1.8-0.7-3.5-1.4-5.3-2.2c0.7,4.1,0.7,8.3,2.2,12.2
			C256.3,319.9,260.3,319.5,260.5,316.5L260.5,316.5z"/>
	</g>
</g>
<g>
	<g>
		<path d="M344.1,248.6c6.6,2.2,7.8-9.4,8.4-13.5c1.1-7.8,0.5-15.8-2.7-23.1c-2.4-5.3-7.5-12.6-13.7-7.1c-4.6,4.1-6.1,12.9-3.7,18.5
			c1.1,2.7,6,3.8,6.6,0c0.6-3.5,0-7,0.7-10.6c0.6-0.8,0.8-1.6,0.5-2.6c0.7,0.9,1.3,1.8,1.9,2.8c1.1,1.9,2,4,2.6,6.1
			c1.2,4.2,1.5,8.5,1.2,12.8c-0.1,1.8-0.5,10.9-2.3,11.9C341.4,245,342,247.9,344.1,248.6L344.1,248.6z"/>
	</g>
</g>
<g>
	<g>
		<path d="M242.2,299.1c-2.9-1.1-6.1-0.5-9.1-1.1s-5.9-1.8-8.4-3.6c-2.2-1.6-5.4-4.4-6.2-7.1c-1-1.3-0.9-2.4,0.5-3.4
			c0.6,0.1,1.1,0.3,1.7,0.4c2.1-0.1,4.8,1.2,6.8,1.6c4.8,1,6.8-6,2-7.4c-5.6-1.5-13.9-5-18.1,0.9c-3.4,4.9-0.8,11.1,2.4,15.3
			c3.3,4.5,8,7.9,13.2,9.8c4.9,1.8,12.2,3.2,16.4-0.8C245.1,302.2,244,299.9,242.2,299.1L242.2,299.1z"/>
	</g>
</g>
<g>
	<g>
		<path d="M230.4,279.5c0.4-3.4-1.8-6.6-3.2-9.7c-1.7-3.8-3.3-7.6-4.8-11.5c-2.7-7.2-3.9-15.1-6.9-22.1c-1.4-3.2-6.3-1.4-6.3,1.7
			c0.1,7.9,3.8,16.8,6.7,24c1.4,3.6,3,7.2,4.8,10.6c1.7,3.2,3.2,7.2,6.6,8.7C228.8,282.1,230.2,281.2,230.4,279.5L230.4,279.5z"/>
	</g>
</g>
<g>
	<g>
		<path d="M420.7,410.4c9.6,14.1,33.5,22.3,45,5.2c5.8-8.6,2-18.6-2.9-26.6c-4.7-7.5-12.4-16.8-21.8-18.2c-3.7-0.5-6.7,4.5-2.8,6.6
			c6.4,3.3,11.5,6.3,15.9,12.2c4.2,5.7,10,14.6,5.6,21.7c-9,14.2-26.6,2.7-36.4-3.6C421.7,406.7,419.6,408.8,420.7,410.4
			L420.7,410.4z"/>
	</g>
</g>
<g>
	<g>
		<path d="M215.3,253.6c-2.5,1-6.2,1.2-8.7,0.6c-3-0.7-5-2.6-7.6-4.2c-2.1-1.3-5.4,0.9-4.4,3.4c1.6,4.2,5.9,6.8,10.1,7.8
			c4.9,1.1,8.7,0.2,12.9-2.4C220.1,257.2,218.4,252.3,215.3,253.6L215.3,253.6z"/>
	</g>
</g>
<g>
	<g>
		<path d="M199.5,216.7c-2.5-9-2.6-18.2,1.8-26.7c-2.2-0.9-4.4-1.9-6.6-2.8c-1.8,9.2,10.5,19.8,19.2,14.1c4.2-2.8,4.1-7.4,5.3-11.8
			c1.2-4.6,4.8-0.8,7.1,1c2.8,2.3,5.7,4.7,8.5,7c2.7,2.2,8.4,0.2,6.7-3.9c-3.1-7.4-1.2-15.3,5.1-20.4c-2.3-0.9-4.5-1.9-6.8-2.8
			c0.1,8.1,5.4,15,13.3,16.8c4.9,1.2,7.1-6.4,2.1-7.6c-4.5-1.1-7.4-4.5-7.5-9.2c0-3.7-4.2-4.9-6.8-2.8c-8.8,7.1-11.1,18.9-6.8,29.1
			c2.1-1.6,4.2-3.2,6.3-4.8c-4.1-3.2-8.2-6.6-12.4-9.7c-3.1-2.4-6.8-4.2-10.7-2.4c-3.1,1.4-4.7,4.5-5.5,7.7
			c-0.4,1.7-0.1,4.4-1.1,5.8c-2.5,3.7-9.8-0.2-9.1-4.2c0.7-3.8-4.7-6.7-6.6-2.8c-5.1,10.3-6,22.1-0.7,32.5
			C195.9,221.7,200.3,219.8,199.5,216.7L199.5,216.7z"/>
	</g>
</g>
<g>
	<g>
		<path d="M258.5,184.3c2.1-9.3,3.7-16.9,11-23.8c-2-1.2-4-2.3-6-3.5c-2.5,7.8-2.9,17,5.7,21c8.4,3.9,16.8-1,23.5-6
			c2.2-1.6,2.6-4.1,0.8-6.3c-2-2.4-2.9-5.3-2.5-8.4c-2.4,0.3-4.8,0.6-7.2,0.9c2.1,5,7.2,6.8,12,8.5c6.3,2.2,11.8,5.5,16.5,10.2
			c4.9,4.9,8.6,10.7,11.4,17c3.2,7.3,3.7,15.1,6.3,22.6c1.3,3.9,7,3.2,7.2-1c0.3-7-2.3-15-4.8-21.4c-2.5-6.6-5.9-12.8-10.4-18.3
			c-4-4.9-8.9-9.3-14.4-12.4c-2.7-1.6-5.5-2.8-8.5-3.8c-2.5-0.9-6.9-1.6-8.1-4.3c-1.3-3.1-6.9-4.4-7.6,0c-0.9,6.1,0.4,11.4,4.4,16.2
			c0.3-2.1,0.5-4.2,0.8-6.3c-3.8,2.9-8.4,6.9-13.6,6.5c-7-0.6-6.1-7.7-4.6-12.7c1.1-3.5-3.5-5.9-6-3.5c-7.4,7-13.4,18.4-11.1,28.8
			C253.8,186.9,257.9,186.9,258.5,184.3L258.5,184.3z"/>
	</g>
</g>
<g>
	<g>
		<path d="M299,192.9c4-0.7,10.3,6,12.7,8.4c3.4,3.4,6.2,7.2,8.5,11.4c3.2,6,5.9,13.5,13.6,14.4c3.1,0.4,4.2-4.5,1.6-5.8
			c-4.6-2.4-6.3-6.1-8.6-10.6c-2.5-4.7-5.6-9-9.3-12.9c-4-4.1-15.9-15.9-21.1-8.3C295.1,191.4,297.2,193.3,299,192.9L299,192.9z"/>
	</g>
</g>
<g>
	<g>
		<path d="M353.7,252c2.9-0.5,5.4-2.1,8-3.3c3.4-1.5,6.9-2.5,10.5-3.2c7.1-1.3,13.9-0.7,20.9,0.9c4.8,1.1,6.8-6,2.1-7.5
			c-7.7-2.4-16.2-2.4-24.1-0.8c-6.7,1.3-16.2,4.2-20,10.4C349.8,250.4,351.8,252.4,353.7,252L353.7,252z"/>
	</g>
</g>
<g>
	<g>
		<path d="M511.2,208.7c2.1,1.9,5,1.4,6.9-0.6c0.9-0.9,1.6-2,2.3-3c1-1.3,1.9-2.4,2-4.1c0-1.5-1.6-2.8-3.1-2.4
			c-1.7,0.6-2.6,1.9-3.6,3.3c-0.4,0.6-0.8,1.2-1.2,1.8c-0.1,0.2-0.4,0.5-0.5,0.7l-0.1,0.1c-0.4,0.3,0,0.4,1.1,0.3
			c-1.1-0.9-2.7-1.1-3.8,0C510.2,206,510.1,207.8,511.2,208.7L511.2,208.7z"/>
	</g>
</g>
<g>
	<g>
		<path d="M163.9,378.5c2.6-1.7,5-3.7,7-6.1c1.9-2.3,4.4-5,4.8-8c0.4-2.3-2-5-4.4-3.4c-2.3,1.6-3.8,4.1-5.6,6.2s-3.8,4.2-5.7,6.3
			C157.6,376,160.7,380.6,163.9,378.5L163.9,378.5z"/>
	</g>
</g>
<g>
	<g>
		<path d="M146.2,346.4c6,0.2,13.4-1.5,17-6.6c1.3-1.9-0.9-4.9-3.1-4c-4.8,1.9-8.6,4.5-14,4.6C142.2,340.4,142.3,346.2,146.2,346.4
			L146.2,346.4z"/>
	</g>
</g>
<g>
	<g>
		<path d="M137.4,316c4.3,1,9.6,3.2,14.1,2.7c2.7-0.3,4.4-4,1.5-5.6c-4-2.2-9.5-2.2-14-2.9C135.2,309.6,133.5,315.1,137.4,316
			L137.4,316z"/>
	</g>
</g>
<g>
	<g>
		<path d="M132.1,273.3c3.3,0.7,6.7,1.8,10.1,1.7c3.5-0.1,3.9-4.7,0.8-5.9c-2.9-1.1-6.2-1.2-9.2-1.7c-1.6-0.2-3.3,0.4-3.7,2.1
			C129.6,271.1,130.5,272.9,132.1,273.3L132.1,273.3z"/>
	</g>
</g>
<g>
	<g>
		<path d="M371.5,201.7c3-0.5,5.8-2.1,8.4-3.6c2.5-1.4,5.6-2.7,6.9-5.4c1.1-2.2-0.2-4.4-2.7-4.6c-3-0.3-5.8,1.8-8.3,3.2
			c-2.6,1.5-5.4,3-7.4,5.3C366.4,199,368.4,202.1,371.5,201.7L371.5,201.7z"/>
	</g>
</g>
<g>
	<g>
		<path d="M360.2,181.3c2.9-2.1,5.7-4.3,8.1-6.9c2.4-2.5,4.9-5.2,5.4-8.7c0.3-2.2-2.5-3.1-4.1-2.4c-2.6,1.3-4.5,4.4-6.4,6.5
			c-2.1,2.4-4.3,4.6-6.6,6.7C354,178.9,357.4,183.4,360.2,181.3L360.2,181.3z"/>
	</g>
</g>
<g>
	<g>
		<path d="M343.5,157c3.4-3.4,7.8-8.8,7.5-13.9c-0.1-2.1-3.1-3.9-4.6-1.9c-1.4,1.8-2.2,3.9-3.3,5.9c-1.1,2-2.4,3.9-3.9,5.6
			C336.7,155.6,340.7,159.7,343.5,157L343.5,157z"/>
	</g>
</g>
<g>
	<g>
		<path d="M739.2,145.5c-2.1-5.7-3.7-10.4-1.9-16.5c1.9-6.3,6.1-8.7,10.4-13c2.5-2.5-0.2-5.8-3.1-5.4c-7.3,1.1-12.5,10-14.2,16.4
			c-1.9,6.9-1.5,15.9,3.5,21.5C735.9,151,740.3,148.5,739.2,145.5L739.2,145.5z"/>
	</g>
</g>
<g>
	<g>
		<path d="M748.2,137.4c5-6.6,8.2-15.3,16.1-19.4c4.8-2.5,7.3,0.8,10.5,4c3.1,3.1,6.2,6.3,9.1,9.7c5.8,6.7,11,13.7,15.7,21.2
			c1.4,2.2,3.6,4.3,2.3,6.9c-0.6,1.3-2.8,2.4-4,3c-4,2.3-8,3.1-12.3,1.2c-3.4-1.6-6.6,2.3-4,5.2c7,7.9,22.5,2,27.4-5.9
			c3.5-5.6-0.5-11.1-3.6-15.9c-3.9-6-8.1-11.7-12.7-17.1c-4.5-5.4-9.3-10.6-14.5-15.5c-3.8-3.6-8-6.7-13.5-5.3
			c-10,2.6-20.7,16.5-21.9,26.4C742.5,139.1,746.7,139.3,748.2,137.4L748.2,137.4z"/>
	</g>
</g>
<g>
	<g>
		<path d="M776.3,180.1c1.9,2.6,3,4.3,6.2,5.5c3.3,1.2,6.9,1.5,10.4,1c7.6-0.9,13.9-5.2,20-9.5c4.2-2.9,0.2-9.9-4-6.9
			c-8.5,6-18.7,12.3-28.9,6.2C777.8,175.2,774.7,177.9,776.3,180.1L776.3,180.1z"/>
	</g>
</g>
<g>
	<g>
		<path d="M809.3,175c2.1,2.9,4.5,5.3,7.2,7.7c2.2,2,4.5,4.8,7.7,5.2c5.5,0.8,11.7-5.8,15.6-8.9c11.3-8.9,21.4-19.1,30.2-30.4
			c3.1-4,7.9-8.7,5.3-14.2c-1.4-3-4.4-5.7-6.6-8.2c-2.7-3.2-5.5-6.3-8.2-9.5c-10.6-12.1-21.4-24.1-32.3-36
			c-3.3-3.6-6.6-7.1-9.9-10.6c-2.7-2.9-5.7-7.3-9-9.4c-5.3-3.4-12.8,3-15.8,7c-3.1,4.1,3.8,8.1,6.9,4c1.9-2.5,4.5-3.6,7.5-4
			c-1.3-0.3-2.6-0.7-3.9-1c20.9,22,41.3,44.4,60.8,67.5c0.7,0.9,2.9,2.5,2.9,3.6c0,0.9-2.2,3.1-2.7,3.7c-2,2.7-4.1,5.3-6.3,7.9
			c-4.3,5-8.8,9.8-13.6,14.3c-5.1,4.9-10.6,9.5-16.3,13.7c-0.8,0.6-3,2.8-3.8,2.7c0,0-2.8-2.7-3-2.8c-2.8-2.4-5.3-4.6-8.5-6.4
			C811,169.5,807.4,172.4,809.3,175L809.3,175z"/>
	</g>
</g>
<g>
	<g>
		<path d="M797,68.3c-0.6,6.5-2.1,12.5-7.1,17.1c-5.5,5.2-12.3,4.9-19.3,6.1c-12.2,2.1-23.4,9.8-29.1,20.8c-2.2,4.2,3.6,7.4,6.2,3.6
			c4.1-5.9,9.5-11,16.1-14.1c7.2-3.3,15.1-2.5,22.4-5.3c10.8-4.2,19.8-17.3,16-29C801.3,64.6,797.3,65.3,797,68.3L797,68.3z"/>
	</g>
</g>
<g>
	<g>
		<path d="M789.2,107.4c4.3,8,10.8,15.2,16.5,22.3c6,7.5,11.9,15.2,18.2,22.5c2.8,3.3,8.7-1.2,6-4.6c-5.7-7.4-11.7-14.5-17.6-21.7
			c-5.9-7.3-11.9-15.5-19.1-21.6C791.1,102.4,787.8,104.7,789.2,107.4L789.2,107.4z"/>
	</g>
</g>
<g>
	<g>
		<path d="M803.5,96.2c1.1,4.4,4.2,8.2,6.7,11.9c2.6,3.9,5.4,7.6,8.2,11.3c2.6,3.5,5.3,7,8,10.5c2.7,3.5,5.3,8.2,9.3,10.2
			c2.5,1.3,5.5-0.8,4.7-3.6c-1.1-4.2-4.7-7.4-7.3-10.7c-3.1-3.9-6.1-7.8-9.1-11.8c-2.8-3.7-5.6-7.5-8.5-11.2
			c-2.6-3.3-4.9-7.1-8.4-9.4C805.2,92.1,803,94.2,803.5,96.2L803.5,96.2z"/>
	</g>
</g>
<g>
	<g>
		<path d="M759.7,90.3c-10.9,1.4-21.7,3.4-32.5,5c-3.8,0.6-9.6,1.7-12.7-1.4c-4.3-4.3,0.1-9.7,5.2-9.2c4.3,0.4,5-6.3,1-7.4
			c-7.5-2-14.2,0.5-21.5,2.3c-4.1,1-9.6,2-13-1.3c-2.7-2.7-2.6-6.2,1.3-7.6c3-1.1,6.4-0.9,9.6-1.2c3.4-0.3,6.8-0.9,10.1-1.7
			c7.1-1.8,13.9-4.9,19.9-9.1c4-2.8,0.5-8.9-3.9-6.6c-2.6,1.4-5.3-0.4-5.9-3c-0.3,1.2-0.7,2.5-1,3.7c5.4-4.2,13.8-3.9,20.3-4.4
			c7.6-0.5,15.3-0.8,22.8,0.4c12.3,2,25.1,8.5,29.8,20.8c1.8,4.8,9.5,2.7,7.7-2.1c-5.6-14.6-19.5-23.4-34.5-26
			c-9.1-1.5-18.4-1.2-27.6-0.4c-7.9,0.7-16.4,0.9-23.1,5.7c-1.5,1.1-2.1,2.5-1.8,4.3c1.6,7.7,10.4,11.3,17.2,7.6
			c-1.3-2.2-2.6-4.4-3.9-6.6c-8.5,6-18.1,9.5-28.5,10.3c-6.9,0.5-15.7,1.4-17.8,9.4c-1.7,6.7,3.6,13.6,9.8,15.6
			c11,3.5,21.1-5.4,31.9-2.8c0.3-2.5,0.7-4.9,1-7.4c-13.3-1-20.2,17-8.2,24.1c6,3.6,13.3,2.3,19.8,1.2c9.8-1.6,19.7-3.4,29.4-5.4
			C764.5,96.4,763.7,89.8,759.7,90.3L759.7,90.3z"/>
	</g>
</g>
<g>
	<g>
		<path d="M678.7,301.7c17.8,7.9,38.8,8.6,58,6.6c19.7-2,38.6-7.5,56.8-15.1c18.1-7.7,35.3-17.3,52-27.8c13-8.2,31.9-19.2,34-36.2
			c1.1-8.8-4.9-15.6-13.5-16.8c-9.7-1.4-16.8,4.7-23.8,10.3c1.9,0.2,3.9,0.5,5.8,0.7c-6.3-11-23.1-12.8-31.3-2.9
			c-3.1,3.8,2.3,9.2,5.4,5.4c5.1-6.2,15.4-5.8,19.6,1.3c1.3,2.2,4,2.2,5.8,0.7c5.1-4.1,12.8-9.7,19.6-7.1c9.2,3.5,2.1,14.7-2,19.6
			c-9.8,11.4-24.5,19-37.3,26.5c-28,16.5-58.4,30.1-91,33.9c-19.1,2.2-37.2-0.2-56-3.8C678,296.5,675.8,300.5,678.7,301.7
			L678.7,301.7z"/>
	</g>
</g>
<g>
	<g>
		<path d="M817.7,221.1c-9.9,5.2-18.7,12.1-28.7,17.2c-10.2,5.2-20.8,9.3-31.7,12.8c-4.8,1.5-2.8,9.1,2.1,7.7
			c11.3-3.3,22.3-7.9,32.7-13.4c10-5.3,21.2-11.5,28.8-20C822.9,223,820.4,219.7,817.7,221.1L817.7,221.1z"/>
	</g>
</g>
<g>
	<g>
		<path d="M818.3,250.3c10.8-5.9,23-13.2,30.6-23.1c1.8-2.4-1.7-5.8-4.1-4.1c-4.9,3.4-9.1,7.8-13.8,11.5c-5,3.8-10.1,7.7-15.4,11.1
			C812.6,247.5,815.2,251.9,818.3,250.3L818.3,250.3z"/>
	</g>
</g>
<g>
	<g>
		<path d="M799.1,234.6c4.3-8.4-0.8-17.8-6.5-24.2c-3.1-3.4-6.8-6.3-10.2-9.4c-3.8-3.4-6.4-7.5-9.9-11.1c-2.5-2.6-6.6,0.1-5.8,3.4
			c1.7,7.3,9.5,12.5,14.9,17.1c7.5,6.3,12.7,12.7,12.5,22.8C794,235.8,797.9,237,799.1,234.6L799.1,234.6z"/>
	</g>
</g>
<g>
	<g>
		<path d="M688.1,227.8c-0.6-6.8-1.8-13.1-0.6-19.9c0.6-3.4,1.7-6.8,3.1-9.9c1.2-2.6,2.9-4.5,2.7-7.4c-0.1-1.6-1.6-3.2-3.4-2.6
			c-6.3,2.3-8.5,12.9-9.5,18.8c-1.1,7.2-1,15.7,2.7,22.2C684.5,231.2,688.3,230.4,688.1,227.8L688.1,227.8z"/>
	</g>
</g>
<g>
	<g>
		<path d="M688,195.3c-3.4-22.6-30.5-36-49.8-42.6c0.3,2.4,0.6,4.9,1,7.3c25.7-19.6,59.1-20.9,85.8-2.5c4.5,3.1,8.8-4.2,4.3-7.3
			c-28.9-20-66.2-17.9-94.1,2.9c-2.8,2.1-2.5,6.1,1,7.3c9.8,3.5,18.9,8.1,27.5,13.9c8.6,5.9,14.6,13.9,19.3,23.1
			C684.5,200.4,688.5,198.1,688,195.3L688,195.3z"/>
	</g>
</g>
<g>
	<g>
		<path d="M710.5,305.3c-5.3,16.3,13.9,32.1,29.2,28.5c13.8-3.3,24.6-21.6,17.3-34.8c-1.9-3.5-7.3-1.1-6.3,2.7
			c2.4,9.8-0.8,21.4-11.7,24.7c-5.7,1.7-11.8-0.2-16.2-4.1c-4.9-4.4-6.7-10-7.2-16.3C715.3,303.1,711.4,302.4,710.5,305.3
			L710.5,305.3z"/>
	</g>
</g>
<g>
	<g>
		<path d="M775.7,296.9c-0.7,17.1,21.6,27.4,35.6,20.4c14.1-7,18.1-28.5,7-39.8c-2.8-2.8-8.3,1-5.7,4.4c6.5,8.6,6,22.3-4.1,28.2
			c-11.5,6.8-23.6-3.4-27.1-14C780.4,293,775.9,293.5,775.7,296.9L775.7,296.9z"/>
	</g>
</g>
<g>
	<g>
		<path d="M742.2,315.1c5.1,0,5.1-7.9,0-7.9C737.1,307.2,737.1,315.1,742.2,315.1L742.2,315.1z"/>
	</g>
</g>
<g>
	<g>
		<path d="M809.7,293.4c0-0.8,0-1.8-0.3-2.5c-0.3-0.8-0.6-1.4-1.3-1.9c-0.6-0.5-1.4-0.8-2.2-0.8c-0.6,0-1.2,0.2-1.8,0.5
			c-0.8,0.4-1.3,1.3-1.6,2.1c-0.3,0.8-0.2,1.7-0.3,2.5c-0.1,1.9,1.8,3.8,3.7,3.7C807.9,297.1,809.8,295.5,809.7,293.4L809.7,293.4z"
			/>
	</g>
</g>
<g>
	<g>
		<path d="M778.7,340.3c2.1,0.5,4.1,0.8,6.3-0.2c1.8-0.8,3.2-2.6,4-4.5c1.6-3.6-2.9-6.2-5.2-3.1c-0.5,0.6-1.4,0.9-2.1,1.3
			c-1,0.6-2.2,1-3.1,1.9c0.4-0.2,0.8-0.5,1.3-0.7c-0.1,0.1-0.3,0.1-0.4,0.1C776.6,335.4,775.6,339.5,778.7,340.3L778.7,340.3z"/>
	</g>
</g>
<g>
	<g>
		<path d="M769.8,364.1c1.5-3.2,3-6.4,4.4-9.7c-2.2,0-4.4,0-6.7,0c1.5,4.8,5.8,7.7,10.9,7.2c5.6-0.5,9.5-5.1,11.8-9.8
			c-2,0.3-4,0.5-6,0.8c1.6,1.9,3.2,3.8,4.9,5.7c3.4,3.8,8.7-1.7,5.5-5.5c-1.6-1.9-3.3-3.7-5-5.6c-1.5-1.7-5-1.4-6,0.8
			c-1,2.2-7.1,10.8-9.4,4.6c-1.2-3.3-5.4-3.2-6.7,0c-1.2,3-2.2,6.1-3.3,9.2C763.1,364.9,768.3,367.2,769.8,364.1L769.8,364.1z"/>
	</g>
</g>
<g>
	<g>
		<path d="M776.7,372.9c2,0.8,4.2,0.9,6.3,0.2c2.4-0.8,5.3-2.3,5.2-5.2c0-1.4-1-3.1-2.6-3.4c-1.2-0.2-2.3-0.2-3.3,0.5
			c-0.3,0.2-0.6,0.4-0.9,0.6c-0.4,0.3-0.2,0.1-0.4,0.2c-0.3,0.1-0.5,0.2-0.8,0.2c-0.1,0-0.9,0.1-0.4,0.1c-1.1,0.1-1.2,0.1-2.1,0
			c-1.7-0.2-3.2,1.5-3.4,3C774,370.9,775,372.2,776.7,372.9L776.7,372.9z"/>
	</g>
</g>
<g>
	<g>
		<path d="M816.1,283.8c3.3,17.6,4.4,36.1,1.4,53.9c-2.3,13.8-6.5,27.9-15.4,38.9c-9.5,11.7-23.4,16.7-38,12.3
			c-16-4.8-27.2-18.1-36.1-31.5c-5.1-7.6-9.8-15.6-13.1-24.1c-1.5-4-2.7-8.1-3.5-12.3c-0.8-4.7-0.4-9.5-1.4-14.1
			c-0.7-3.4-5.2-2.7-6.3,0c-3.1,7.8-0.1,18.5,2.5,26.2c3,8.8,7.5,17.1,12.4,24.9c9.5,15,21.1,29.8,38,36.8c15.3,6.4,32,4.5,44.7-6.3
			c11.6-9.8,18.3-24.9,21.7-39.5c5.1-21.9,5-45-1.5-66.6C820.5,278.8,815.4,280.3,816.1,283.8L816.1,283.8z"/>
	</g>
</g>
<g>
	<g>
		<path d="M833.2,268c-2,14.3,11.2,25.2,19.7,34.9c4.6,5.3,9.6,11.9,9.7,19.3c0.2,7.7-5.4,14-8.2,20.7c-2.5,6-3.8,13-0.7,19
			c3.1,5.9,10.5,8.3,12.8,14.6c2.1,5.9,0.4,12.8,0.1,18.8c-0.3,6,0.3,11.9,3.5,17c2.8,4.3,9.7,0.3,6.9-4c-6.6-10.3,1-23.9-3.3-35.1
			c-2.4-6.1-7.7-8.4-11.7-13.1c-5.5-6.6-0.1-15,3.2-21.2c3.1-5.7,5.6-11.6,5.1-18.3c-0.5-6.4-3.5-12.3-7.3-17.5
			c-4-5.5-9-10-13.5-15.1c-5.6-6.2-8.6-12-10.5-20.1C838.4,265.2,833.6,264.9,833.2,268L833.2,268z"/>
	</g>
</g>
<g>
	<g>
		<path d="M818.9,332.3c2.7,6.5,9.4,12,8.7,19.5c-0.6,6.5-5.6,11.8-6.5,18.3c-0.8,6.2,2,11,5.6,15.8c2.3,3.1,4.5,6.1,4.8,10.2
			c0.2,4.1-1.2,8.1-1.8,12.2c-0.6,4.6,5.9,4.5,7.3,1c3-7.1,3.5-15.9-0.3-22.8c-3.9-7-10-10.8-6.8-19.6c2.5-6.9,6.3-12.9,4.5-20.6
			c-1.6-6.7-6.4-13.2-12.4-16.4C820.6,329.1,818.2,330.4,818.9,332.3L818.9,332.3z"/>
	</g>
</g>
<g>
	<g>
		<path d="M704.4,302.7c-6.8,9.2-8.7,22.6-7.6,33.8c1.2,12.3,6,23,13.6,32.5c4.8,5.9,9.1,11.5,8.1,19.6c-0.9,7.1-4.5,13.5-6.6,20.3
			c-3,9.5-3.4,22.4,5.9,28.6c3.5,2.3,7.2-2.8,4.4-5.7c-8.7-9.1-2.7-21.3,1-31.3c4.2-11.7,4.1-21.9-3.6-32
			c-7.2-9.4-13.3-17.9-15.2-29.9c-2-12,1.1-22.5,5.2-33.6C710.9,301.6,706.2,300.3,704.4,302.7L704.4,302.7z"/>
	</g>
</g>
<g>
	<g>
		<path d="M738.6,379.6c2.8,6.4-1.8,13.1-3.4,19.2c-1.7,6.6-0.3,12.5,1.7,18.9c2.2,7.3,2.8,13.7,0.1,21c-2.6,6.9-7.5,12.6-10.2,19.5
			c-1.1,2.8,2.7,4.3,4.6,2.7c11.5-10.2,17.6-27.8,13.2-42.6c-1.2-4.2-3.2-8.6-3.1-13.1c0-3.9,1.5-7.5,2.7-11.1
			c2.1-6.2,3.5-12.5-0.9-18C741,373.1,737.4,376.8,738.6,379.6L738.6,379.6z"/>
	</g>
</g>
<g>
	<g>
		<path d="M777.8,420.4c4.4,6,10.6,10.2,14.8,16.4c2.1,3.1,3.9,6.3,5.4,9.7c1.5,3.4,2.1,7.4,4.3,10.4c1.4,1.9,5.5,2.3,5.9-0.8
			c1.1-7.8-4.6-17-8.9-23.2c-4.5-6.4-10.7-14.1-18.5-16.3C778.8,416,776.5,418.5,777.8,420.4L777.8,420.4z"/>
	</g>
</g>
<g>
	<g>
		<path d="M680.4,399.2c12.5-8.4,8.3-27.4,5.5-39.5c-2-8.8-4.4-17.5-5.6-26.4c-1.3-9.6,0-17.8,2.4-27.1c0.9-3.5-4.1-5.9-6-2.5
			c-7.7,13.8-3.6,32.1-0.2,46.6c3.5,14.7,10.4,31.9,0.2,45.3C675.2,397.7,678.3,400.7,680.4,399.2L680.4,399.2z"/>
	</g>
</g>
<g>
	<g>
		<path d="M832.7,406.2c-4.4,9.3-2.4,20.9,1.9,29.9c2.4,4.9,5.8,8.9,9.7,12.5c1.8,1.6,3.7,3.2,5.3,5c2,2.3,2.7,4.8,4,7.5
			c1.2,2.6,5.9,2,6.3-0.8c1.6-9.9-9.7-15.5-15-22.1c-7.4-9.2-7.5-19.4-6.9-30.5C838.3,404.8,834,403.6,832.7,406.2L832.7,406.2z"/>
	</g>
</g>
<g>
	<g>
		<path d="M872.2,411.2c3.3,7.6,7.3,14.4,9.1,22.6c1.9,8.4,0.7,15.8,0.6,24.2c-0.1,4.1,5.6,4.6,6.9,0.9c2.9-8.2,1.6-18.8-0.3-27.1
			c-1.9-8.5-5.5-17.9-12.1-23.9C874.1,405.7,871,408.4,872.2,411.2L872.2,411.2z"/>
	</g>
</g>
<g>
	<g>
		<path d="M861.7,356.3c13.6,6.9,31.1-1.3,41.2-11c11.9-11.3,18-27.5,22.3-43c2.7-9.6,4.9-19.4,6.5-29.2c1.2-7.3,4.4-17.5,1.5-24.6
			c-1.5-3.7-5.2-6.2-5.2-10.5c0-3.7,2.1-7.5,5.4-9.2c3.6-1.9,8.1-1,11.3,1.2c1.7,1.1,3.1,2.7,4,4.5c1.1,2.2,1.1,7.8-2.6,5.3
			c-2.7-1.9-6.6,1.9-4.6,4.6c3.4,4.8,10,4.7,13.6,0c4.2-5.4,1.5-13.2-2.8-17.7c-8.9-9.4-25.1-8.1-30.4,4.3c-2.7,6.3-1.4,12,2.3,17.4
			c2.9,4.2,2.3,7.7,1.7,12.5c-0.7,5.2-1.5,10.5-2.5,15.6c-3.2,17-7.1,35.1-15.6,50.3c-4.6,8.2-10.8,15.5-19.1,20.1
			c-8.3,4.7-16.5,5-25.9,4.6C860.6,351.6,859.6,355.2,861.7,356.3L861.7,356.3z"/>
	</g>
</g>
<g>
	<g>
		<path d="M944,222.4c4.5-3.2,9-6.1,14.4-7.6c4.5-1.2,12.3-2.8,16.2,0.8c3.6,3.4,0.4,9.1-3,11.3c-5.4,3.4-12.1,1.9-18,2.1
			c-4,0.1-5.2,6.4-1,7.3c8,1.6,18.2,1.3,24.8-4.1c5-4.2,8.2-11.8,5.2-18c-3.3-7.2-11.9-8.5-19-7.7c-8.6,0.9-17.4,4.8-23,11.5
			C938.7,220.2,941.2,224.5,944,222.4L944,222.4z"/>
	</g>
</g>
<g>
	<g>
		<path d="M974.2,230.9c3.1,6.2-0.3,15.8-6.8,18.2c-7.8,2.9-13-3-17.2-8.5c-1.7-2.2-5.7-0.3-5.5,2.3c0.6,11.9,16.7,17.8,26.4,13.2
			c5-2.3,8.6-6.9,10.1-12.1c1.8-5.9,0.6-10.6-2.6-15.6C976.8,225.7,972.8,228,974.2,230.9L974.2,230.9z"/>
	</g>
</g>
<g>
	<g>
		<path d="M973.1,250.9c2,5.2-2.3,13.2-8.2,13.1c-6.8-0.1-8.1-7.8-7-12.9c0.7-3.1-3.4-6.3-5.8-3.4c-7.5,9.1,1.5,23.7,12.4,24
			c5.6,0.2,10.4-3,13.2-7.7c1.4-2.3,2.2-4.8,2.4-7.5c0.1-3.2-0.9-4.9-2.4-7.5C976.1,246.8,972.1,248.3,973.1,250.9L973.1,250.9z"/>
	</g>
</g>
<g>
	<g>
		<path d="M956.5,266.7c1.9,28-3.4,55.5-19.1,79.1c-6.9,10.3-15.5,19.5-25.2,27.2c-5,4-10.5,7.5-16.1,10.5c-5.5,3-11.5,4.9-16.9,7.9
			c-3.9,2.2-1.1,7.8,2.9,6.9c6.3-1.3,12.5-4.8,18.1-7.9c5.7-3.2,11.2-6.9,16.4-10.9c10.7-8.4,20.1-18.4,27.6-29.8
			c16-24.2,23.5-55.2,18.7-83.9C962.3,262.2,956.3,263,956.5,266.7L956.5,266.7z"/>
	</g>
</g>
<g>
	<g>
		<path d="M943.1,220.2c1.1-19-2.8-38.7-9.6-56.5c-6.3-16.6-17.7-33-18-51.3c-0.1-7,1.6-14.3,5.5-20.2c3-4.7,12.2-13.3,18.5-9.4
			c3.2,2,4.3,9,5.3,12.3c1.6,5.3,2.9,10.6,3.4,16.1c0.8,9.9-0.4,20-0.3,29.9c0.3,22.9,3.7,45.6,7,68.2c0.7,5.1,8.4,2.9,7.7-2.1
			c-3.5-23.5-6.9-47.2-6.9-71c0-10.9,1.2-21.7-0.8-32.5c-0.9-5.1-2.5-10.1-4.1-15.1c-1.4-4-2.5-8.6-5.9-11.4
			c-5.9-4.9-14.9-2.6-20.8,1.1c-6.3,4-10.7,10.3-13.3,17.2c-6.7,17.5-0.1,35.3,7.3,51.4c5.2,11.3,10.3,22.5,13.6,34.5
			c3.5,12.7,5,25.6,6,38.6C938.1,223.6,942.9,223.7,943.1,220.2L943.1,220.2z"/>
	</g>
</g>
<g>
	<g>
		<path d="M968.5,266.5c-0.2,9,1.8,18.3,2.8,27.2c0.9,8.5,1.7,16.9,2.4,25.4c1.3,17.6,1.8,35.3,1.6,53c0.9-1.2,1.8-2.4,2.8-3.6
			c-5.3,1.3-13-61.1-14.2-67c-0.7-3.5-6.4-2.7-6.3,0.8c0.4,15.5,3.8,31.2,6.8,46.3c1.6,7.9,2.8,30,15.7,27c1.6-0.4,2.7-2,2.8-3.6
			c0.2-18-0.4-36-1.8-54c-0.7-8.5-1.6-17-2.7-25.4c-1.2-8.9-2-18.5-5.1-26.9C972.2,263.4,968.5,263.7,968.5,266.5L968.5,266.5z"/>
	</g>
</g>
<g>
	<g>
		<path d="M963.4,176.6c1.5-11.3,9.1-20.3,13.6-30.4c4.6-10.3,6.1-21.6,6.2-32.8c0-6-0.3-12-0.8-17.9c-0.3-3.9,0.1-9.2-3-12.1
			c-2.6-2.4-6.6-2.5-9.6-0.8c-3.9,2.2-5.2,6.5-6,10.7c2.4,0.3,4.7,0.6,7.1,1c-3.3-30.6-15.1-59.5-34.9-83.2
			c-1.8-2.2-6.1-1.1-6.6,1.8c-2.4,13.2-4.9,26.4-7.4,39.6c1.9-0.8,3.8-1.5,5.7-2.3c-6.4-4.5-8-13.2-13.8-18.3
			c-5-4.4-11.5-6.4-17.5-3c-1.4,0.8-2.4,2.8-1.8,4.4c3,7.8,3.2,16.3-0.3,24c-2.9,6.6-8.9,11.5-11,18.4c-1.1,3.5-0.8,6.9,0.2,10.3
			c0.4,1.2,1.3,2.9,1.4,4.2c0.2,3.6-1.2,1.8-3.4,1.3c-2.7-0.6-5.3,0.3-6.6,2.7c-1.8,3.4,0.4,7.7,1.4,11
			c5.7,18.4,11.8,36.6,18.2,54.7c2.3,6.5,4.4,13.7,11.1,16.8c5.6,2.6,13.8,0.4,18.4,4.8c3.6,3.5,9.1-2,5.5-5.5
			c-4.9-4.8-11-4.2-17.2-5.3c-8.8-1.6-10.4-12.8-12.9-20c-3.2-9.1-6.3-18.2-9.3-27.3c-1.4-4.3-2.8-8.5-4.1-12.8
			c-0.8-2.4-1.5-4.9-2.3-7.3c-0.5-1.7-2.1-4.6-1.6-6.4c-0.6,0.8-1.2,1.5-1.8,2.3c-0.1,0.1,3.4,1.4,4,1.4c1.4,0.1,2.9-0.3,4.2-1
			c2.3-1.4,3.7-4,4.1-6.6c0.7-3.8-1.4-6.8-2.1-10.3c-0.8-3.9,1-7,3.1-10.1c4.2-6.3,8.5-11.8,10.1-19.5c1.5-7.3,0.9-14.8-1.7-21.7
			c-0.6,1.5-1.2,2.9-1.8,4.4c6-3.3,11.1,4.9,13.5,9.1c2.7,4.7,5.5,9,10,12.2c1.9,1.4,5.2,0,5.7-2.3c2.5-13.2,5-26.4,7.6-39.6
			c-2.2,0.6-4.4,1.2-6.6,1.8c18.1,22,30,49.2,33.3,77.6c0.4,3.7,6.3,5.4,7.1,1c0.2-1,0.5-5.1,1.7-5.6c3.3-1.4,2.7,3.5,2.8,5.1
			c0.4,4.5,0.7,9,0.8,13.5c0.3,8.6,0,17.2-2.1,25.5c-3.7,15-16,27.2-16.3,43.1C957.7,180.4,963,180.1,963.4,176.6L963.4,176.6z"/>
	</g>
</g>
<g>
	<g>
		<path d="M875.1,180.6c-1.3,1.5-2.6,3.1-3.8,4.6c-1.3,1.7-2.7,3.2-3,5.3c-0.3,2.3,2.5,3,4.1,2.3c1.7-0.7,2.8-2.8,3.9-4.3
			c1.1-1.5,2.1-3.1,3.2-4.6C881.3,181.4,877.2,178.1,875.1,180.6L875.1,180.6z"/>
	</g>
</g>
<g>
	<g>
		<path d="M888.2,190.8c-1.1,1.5-2.3,3-3.4,4.5c-1.2,1.6-2.4,3-2.7,5c-0.3,2.3,2.4,3,4.1,2.3c1.7-0.7,2.8-2.8,3.9-4.3
			c1.1-1.5,2.2-3,3.4-4.5c1-1.3,0.2-3.4-1.1-4.2C890.8,188.8,889.2,189.5,888.2,190.8L888.2,190.8z"/>
	</g>
</g>
<g>
	<g>
		<path d="M910.1,195.7c-0.8,2.9-2.3,6.4-1.9,9.4c0.3,1.9,3.2,2.6,4.3,1.1c1.9-2.4,2.3-6.2,3-9C916.6,193.7,911.1,192.1,910.1,195.7
			L910.1,195.7z"/>
	</g>
</g>
<g>
	<g>
		<path d="M980.6,181.2c0.8,2.4,3,3.9,5.5,3.9c1.1,0,2.3-0.3,3.2-0.9c0.2-0.1,0.4-0.3,0.6-0.4c0.5-0.6,0.6-0.8,0.3-0.5
			c-0.2,0.3,0.4-0.5,0.4-0.6c0.3-0.5,0.5-1,0.7-1.6c0.2-1.2-0.2-2.4-1.4-2.9c-1.1-0.5-2.5-0.1-3.1,1c-0.2,0.4,0.2-0.1-0.1,0.1
			s0.5-0.3-0.1,0c0.5-0.1,0.9-0.2,1.4-0.4c-0.4,0-0.8,0.1-1.1,0.2c-0.2,0.1-1,0.5-0.4,0.2c-0.1,0-0.9,0.3-0.1,0.1
			c-0.1,0-0.7,0-0.3,0s-0.2-0.1-0.3-0.1c-0.5-0.1,0.2,0.1,0,0c-0.3-0.2,0.5,0.3,0,0c0.1,0.1,0.1,0.2,0.2,0.2c-0.2-0.3-0.1-0.2,0,0.1
			c-0.5-1.5-2-2.4-3.5-2C981.1,178,980.1,179.7,980.6,181.2L980.6,181.2z"/>
	</g>
</g>
<g>
	<g>
		<path d="M997,159.6c0.7,0,1.4,0,2.2,0c0.5,0,0.9,0,1.4-0.1c0.4-0.1,0.7-0.2,1-0.4c-0.3,0.1-0.2,0.1,0.1,0c2.5-0.7,2.5-4.5,0-5.1
			c-0.3-0.1-0.4-0.1-0.1,0c-0.3-0.2-0.7-0.3-1-0.4c-0.5-0.1-1-0.1-1.4-0.1c-0.7,0-1.4,0-2.2,0c-1.6,0-3.2,1.4-3.1,3.1
			C994,158.2,995.3,159.6,997,159.6L997,159.6z"/>
	</g>
</g>
<g>
	<g>
		<path d="M1003.7,128.7c1.8,0.9,3.8,1.1,5.7,0.5c2-0.6,4.4-2.4,4.3-4.7c-0.1-1.5-1.7-3.3-3.4-2.6c-1.3,0.6-1.8,1.5-2.8,1.9
			c0.2-0.1-0.5,0.1-0.5,0.1c-0.5,0-0.6,0-1.2-0.3C1003,122.5,1000.9,127.3,1003.7,128.7L1003.7,128.7z"/>
	</g>
</g>
<g>
	<g>
		<path d="M1004.3,98.7c2.2-1.2,4.7-2.4,6.6-4.1c1.7-1.5-0.1-4.6-2.2-3.9c-2.4,0.8-4.6,2.5-6.8,3.8
			C999.3,96.2,1001.6,100.2,1004.3,98.7L1004.3,98.7z"/>
	</g>
</g>
<g>
	<g>
		<path d="M1000.1,72.4c2.2-1.5,4.3-2.9,6.4-4.6c2.2-1.7-0.6-5.2-2.9-3.8c-2.1,1.2-4,2.6-6,4c-1.1,0.8-1.6,2.2-0.9,3.5
			C997.3,72.6,999,73.2,1000.1,72.4L1000.1,72.4z"/>
	</g>
</g>
<g>
	<g>
		<path d="M984.9,52.4c1.1-1.1,2.1-2.1,3.2-3.2c1.1-1.1,2.4-2.1,3.1-3.5c1.2-2.3-1.2-4.6-3.4-3.4c-1.3,0.7-2.4,2.1-3.5,3.1
			c-1.1,1.1-2.1,2.1-3.2,3.2C978.6,51,982.5,54.9,984.9,52.4L984.9,52.4z"/>
	</g>
</g>
<g>
	<g>
		<path d="M979.2,27.8c2-2.8,4.7-5.6,6-8.7c0.4-1-0.3-2.3-1.1-2.8c-1-0.6-2.1-0.3-3,0.4c-1.4,1.1-2.3,2.8-3.4,4.1
			c-1.1,1.4-2.2,2.8-3.2,4.2c-0.9,1.2-0.2,3.1,1,3.7C976.9,29.6,978.4,29,979.2,27.8L979.2,27.8z"/>
	</g>
</g>
<g>
	<g>
		<path d="M853,75.1c1.7,0,3.8,0.4,5.3-0.5c1.6-0.9,1.6-3.4,0-4.3c-1.5-0.8-3.6-0.5-5.3-0.5c-1.4,0-2.7,1.2-2.6,2.6
			C850.4,73.9,851.5,75.1,853,75.1L853,75.1z"/>
	</g>
</g>
<g>
	<g>
		<path d="M862.1,51.5c1.3,0.4,2.6,0.9,3.9,1.3c1.6,0.5,2.9,0.8,4.4-0.3c0.6-0.5,0.7-1.4,0.6-2.1c-0.4-1.7-2.1-2.1-3.5-2.7
			c-1.3-0.5-2.6-0.9-3.9-1.3c-1.4-0.5-2.9,0.5-3.3,1.9C859.9,49.7,860.8,51.1,862.1,51.5L862.1,51.5z"/>
	</g>
</g>
<g>
	<g>
		<path d="M871.2,26.3c1.5,1.4,2.9,3.1,4.7,4.2c2.1,1.4,4.8-1.4,3.4-3.4c-1.1-1.7-2.8-3.2-4.2-4.7c-1-1-2.9-1.1-3.9,0
			S870.1,25.3,871.2,26.3L871.2,26.3z"/>
	</g>
</g>
<g>
	<g>
		<path d="M860.5,180c0.8-0.7,1.5-1.4,2.3-2.2c0.9-0.9,1.9-1.8,2.3-3c0.6-1.8-1.3-3.6-3.1-3.1c-1.2,0.4-2.1,1.4-3,2.3
			c-0.7,0.8-1.4,1.5-2.2,2.3c-0.9,1-1.1,2.7,0,3.7C857.9,181,859.5,181,860.5,180L860.5,180z"/>
	</g>
</g>
<g>
	<g>
		<path d="M732.4,452c4,7.2,4.5,14.4,5.2,22.5c0.3,3.5,5.7,4.8,6.6,0.9c2.1-9.2-1.4-18.9-6.6-26.4
			C735.4,445.8,730.5,448.6,732.4,452L732.4,452z"/>
	</g>
</g>
<g>
	<g>
		<path d="M884,455.3c1,7.1-2.8,12-7.1,17.1c-1.6,2-0.2,5.7,2.8,4.7c9.2-3.2,12.5-14.8,9.9-23.4C888.5,450.1,883.5,451.7,884,455.3
			L884,455.3z"/>
	</g>
</g>
</svg>
