<svg id="Warstwa_1" data-name="Warstwa 1" xmlns="http://www.w3.org/2000/svg" viewBox="0 0 32 32"><title>Obszar roboczy 7</title><path d="M19,30.92H8.78a2.47,2.47,0,0,1-2.47-2.47c0-1.64,1.38-2.47,4.1-2.47h5.7a1,1,0,0,1,0,2h-5.7c-1.36,0-2.1.24-2.1.47a.48.48,0,0,0,.47.47H19a1,1,0,0,1,0,2Z"/><path d="M14.23,28H6.1A2.47,2.47,0,0,1,6.1,23h6.23a1,1,0,0,1,0,2H6.1a.47.47,0,0,0,0,.94h8.14a1,1,0,1,1,0,2Z"/><path d="M12.33,25H6.1a2.47,2.47,0,0,1,0-4.94H9.94a1,1,0,1,1,0,2H6.1a.47.47,0,0,0,0,.94h6.23a1,1,0,0,1,0,2Z"/><path d="M10.08,22.09H7.39a2.47,2.47,0,0,1,0-4.94h2a1,1,0,0,1,0,2h-2a.47.47,0,0,0,0,.94h2.69a1,1,0,0,1,0,2Z"/><path d="M25.15,19.93a1,1,0,0,1-.59-.19l-1.77-1.29A1,1,0,1,1,24,16.83l1.77,1.29a1,1,0,0,1-.59,1.81Z"/><path d="M22.25,30.92H18.72a1,1,0,0,1,.07-2h3.45a4.88,4.88,0,0,0,2.67-9A1,1,0,0,1,26,18.29a6.88,6.88,0,0,1-3.77,12.63Z"/><path d="M16.12,25.87a7.51,7.51,0,0,1-5.06-2,6.86,6.86,0,0,1-2.24-4.81c0-.15,0-.3,0-.45A7,7,0,0,1,10,15l.85-1.28.07-.1s3.69-4.43,1-7.11a1,1,0,0,1,.88-1.69A4.74,4.74,0,0,1,16.09,6.9l.15.24a10.09,10.09,0,0,0-.42-4.71,1,1,0,0,1,1.55-1.14c2.38,1.83,3.56,5,3.8,7.89a3.67,3.67,0,0,0,.17-2.52c0-.13-.06-.25-.09-.37a1,1,0,0,1,1.93-.51l.33,1c.24.74.48,1.47.69,2.21A17.13,17.13,0,0,1,22.81,21.9c-.9,2.31-3.33,3.82-6.36,4Zm-3.64-11-.81,1.23a5,5,0,0,0-.86,2.58q0,.16,0,.32a4.87,4.87,0,0,0,1.6,3.41,5.5,5.5,0,0,0,3.94,1.43c1.76-.08,3.89-.83,4.6-2.73L21,21A15.2,15.2,0,0,0,22.6,10.88a21.89,21.89,0,0,1-2.29,3.5,1,1,0,0,1-1.67-1.08c.77-1.45.86-4.75-.3-7.47a18.7,18.7,0,0,1-1.59,6.88,1,1,0,0,1-1.88-.66,7.46,7.46,0,0,0,0-2.83A10.35,10.35,0,0,1,12.49,14.88Z"/><path d="M18.49,24A7.89,7.89,0,0,1,17,23.91a5.92,5.92,0,0,1-3.85-2.26,4.62,4.62,0,0,1,1.19-6.4,3.88,3.88,0,0,1,5.4,1,3.32,3.32,0,0,1-.85,4.6,2.84,2.84,0,0,1-4-.73,2.48,2.48,0,0,1-.23-2.38,2.61,2.61,0,0,0,.11,2.78,4,4,0,0,0,2.56,1.42,4.75,4.75,0,0,0,3.41-.52A1,1,0,0,1,22,23.08,6.17,6.17,0,0,1,18.49,24Zm-1.94-7.48a1,1,0,0,1,.2,1.75.48.48,0,0,0-.12.66.84.84,0,0,0,1.17.22,1.31,1.31,0,0,0,.34-1.82,1.87,1.87,0,0,0-1.21-.79A2,2,0,0,0,16.55,16.57Z"/></svg>