<svg id="Warstwa_1" data-name="Warstwa 1" xmlns="http://www.w3.org/2000/svg" viewBox="0 0 32 32"><title>Obszar roboczy 3</title><path d="M8.47,20.08a1,1,0,0,1-1-1V6.9a2.76,2.76,0,0,1,2.76-2.76c1.83,0,2.76,1.58,2.76,4.7v6.82a1,1,0,0,1-2,0V8.84c0-1.31-.2-2.7-.76-2.7a.76.76,0,0,0-.76.76V19.08A1,1,0,0,1,8.47,20.08Z"/><path d="M12,14.42a1,1,0,0,1-1-1V3.68a2.76,2.76,0,0,1,5.51,0v9.44a1,1,0,0,1-2,0V3.68a.76.76,0,0,0-1.51,0v9.74A1,1,0,0,1,12,14.42Z"/><path d="M15.5,16.68a1,1,0,0,1-1-1v-12a2.76,2.76,0,1,1,5.51,0v11.8a1,1,0,1,1-2,0V3.68a.77.77,0,0,0-.76-.76.76.76,0,0,0-.76.76v12A1,1,0,0,1,15.5,16.68Z"/><path d="M22.53,17.34a1,1,0,0,1-1-1V5.23a.77.77,0,0,0-.76-.76.76.76,0,0,0-.76.76v8.19a1,1,0,1,1-2,0V5.23a2.76,2.76,0,1,1,5.51,0V16.34A1,1,0,0,1,22.53,17.34Z"/><path d="M21.5,27.76a1,1,0,0,1-.81-1.58L25,20.05v-5.9a.76.76,0,1,0-1.51,0v4.19a1,1,0,0,1-2,0V14.15a2.76,2.76,0,1,1,5.51,0v6.22a1,1,0,0,1-.18.58l-4.54,6.39A1,1,0,0,1,21.5,27.76Z"/><path d="M15.5,31a8,8,0,0,1-8-8V19.08c0-.09,0-.19,0-.28a1,1,0,0,1,1-1,1,1,0,0,1,1,1V23a6,6,0,0,0,11.06,3.3,1,1,0,0,1,1.67,1.1A8,8,0,0,1,15.5,31Z"/><path d="M8.13,20H2.87a1,1,0,0,1,0-2H8.13a1,1,0,0,1,0,2Z"/><path d="M8.13,25H2.87a1,1,0,0,1,0-2H8.13a1,1,0,0,1,0,2Z"/><path d="M8.13,15.11H2.87a1,1,0,0,1,0-2H8.13a1,1,0,0,1,0,2Z"/><path d="M8.13,10H2.87a1,1,0,0,1,0-2H8.13a1,1,0,0,1,0,2Z"/><path d="M26.31,20a1,1,0,0,1,0-2l2.82,0h0a1,1,0,0,1,0,2l-2.82,0Z"/><path d="M29.13,25H23.87a1,1,0,0,1,0-2h5.27a1,1,0,0,1,0,2Z"/><path d="M29.13,15.11H26.31a1,1,0,0,1,0-2h2.82a1,1,0,0,1,0,2Z"/><path d="M29.13,10H23.87a1,1,0,0,1,0-2h5.27a1,1,0,0,1,0,2Z"/><circle cx="15.64" cy="23" r="1"/><path d="M15.64,26.64a6.06,6.06,0,0,1-5-3.18,1,1,0,0,1,0-.93,6.06,6.06,0,0,1,5-3.18,6.07,6.07,0,0,1,5,3.18,1,1,0,0,1,0,.93A6.07,6.07,0,0,1,15.64,26.64ZM12.69,23a3.78,3.78,0,0,0,2.95,1.64A3.78,3.78,0,0,0,18.59,23a3.78,3.78,0,0,0-2.95-1.64A3.78,3.78,0,0,0,12.69,23Z"/></svg>