<svg id="Warstwa_1" data-name="Warstwa 1" xmlns="http://www.w3.org/2000/svg" viewBox="0 0 1080 1920"><defs><style>.cls-1{opacity:0.2;}</style></defs><title>Aplikacja projekt</title><g class="cls-1"><path d="M1049.71,1698.92c0-6.94,8.64-11.34,14.09-13.66,8.58-3.65,18.23-5.1,26.5-9.29,5.69-2.88,2.91-11.93-3.2-11.82s-12.37,2.49-18.08,4.73c-5.56,2.18-11.31,4.48-16.35,7.72-8.16,5.26-15,13.35-11.62,23.5,1.54,4.59,8.67,4,8.66-1.18Z"/></g><g class="cls-1"><path d="M1034.82,1664.49c.57,4.78.52,10.36,2.21,14.86,2.12,5.62,9.66,4.55,10.26-1.39.49-4.78-1-10.18-1.66-14.93-.85-6.07-11.55-4.7-10.81,1.46Z"/></g><g class="cls-1"><path d="M7.14,1600.5c6.48,0,6.5-10.07,0-10.07s-6.49,10.07,0,10.07Z"/></g><path class="cls-1" d="M504.86,1655.35c8.13,5.53,25,6.44,31.77-1.85,2.54-3.11,1-8.11-3.39-8.17s-8.49,1.8-12.84,2.09-8.72-.66-13.06-1.22C502.06,1645.52,501.3,1652.93,504.86,1655.35Z"/><path class="cls-1" d="M548.41,1648.62c-4.93,6.45-7.57,14.91-11.85,21.88-3.75,6.1-8.44,13.83-16,15.54-7.36,1.67-12-4.64-15.41-10.17-4.4-7.1-8.64-14.12-13.4-21a4.51,4.51,0,0,0-7.78,4.55c7,15.31,16.75,42.5,38.26,38.65,9.78-1.75,16.73-9.21,22.09-17.06,5.82-8.53,12.81-19.28,13.75-29.78C558.6,1645.49,551.15,1645.05,548.41,1648.62Z"/><path class="cls-1" d="M5.25,1835.23A140.66,140.66,0,0,1,19,1831.05c4.5-1.17,9.19-1.85,13.38-3.92,5-2.49,2-9.25-2.62-9.67-9.44-.85-20,4.78-28.28,8.85C-3.4,1828.72,0,1837.17,5.25,1835.23Z"/><path class="cls-1" d="M386.06,1281.42a7.17,7.17,0,0,0,0,10.12,7.5,7.5,0,0,0,5.07,2.09h3a7.38,7.38,0,0,0,5.06-2.09,7.17,7.17,0,0,0,0-10.12,7.44,7.44,0,0,0-5.06-2.1h-3A7.39,7.39,0,0,0,386.06,1281.42Z"/><path class="cls-1" d="M700.68,1738.67c-1.53-3.58-6.73-4.31-9.79-2.57-3.7,2.11-4.08,6.26-2.57,9.8a266.51,266.51,0,0,1,19.42,71.58c.48,3.86,2.94,7.11,7.15,7.15,3.5,0,7.64-3.32,7.16-7.15A290.56,290.56,0,0,0,700.68,1738.67Z"/><path class="cls-1" d="M394.08,1746.44c3.7.85,7.84-1.11,8.8-5l1.49-6c.9-3.63-1.17-7.93-5-8.8s-7.84,1.11-8.8,5q-.75,3-1.49,6C388.18,1741.27,390.24,1745.57,394.08,1746.44Z"/><path class="cls-1" d="M830.59,1909.32c-9.61-1.17-20.71,2.57-29.82,5.29-6.28,1.87-3.66,11.13,2.69,9.77,4.8-1,9.63-1.79,14.49-2.43,4.66-.62,9.57-.64,14.09-2C838.32,1918.19,836.4,1910,830.59,1909.32Z"/><path class="cls-1" d="M950.47,1884.77c-10-1-20.57,6-28.26,11.71-6,4.41-.88,13.85,5.93,10.15a100.7,100.7,0,0,1,12.63-5.79c4.37-1.65,8.73-2.74,12.58-5.47C958.08,1892,956.2,1885.33,950.47,1884.77Z"/><path class="cls-1" d="M1006.63,1776.31c3.87-6.33,9.9-8.66,17.09-8.76,20.14-.28,40.29.68,60.43.65,9.55,0,9.43-14.24,0-14.75-12.52-.69-25.15-.49-37.68-.35-10.54.13-22.6-.74-32.9,2.49.38-4.8-.45-9.69-.43-14.65,0-9.32,7.43-10.46,15.18-11.67,9.69-1.51,19.3-3.49,29-4.78s20.32-.42,29.52-4.17c3.45-1.4,5.48-7,1.18-9-10.55-4.88-22.47-2.47-33.58-.88a280.76,280.76,0,0,0-29,5.52c-2.47-3.42-1.69-8.47,1.51-11.38a14.39,14.39,0,0,1,8-3.29,23.24,23.24,0,0,1,4.49-.07,13.28,13.28,0,0,1,1.68.17,5,5,0,0,0,1.27,1.2,5.1,5.1,0,0,0,3.55,1c2.4-.31,5.19-1.6,5.68-4.33,2.14-12-12.17-11.81-22.59-8.59-.08-2.73-.2-5.47-.38-8.19-.16-2.5-.45-5-.68-7.48-.18-2-1.13-5.32-.52-7.22.82-2.56,4.18-3.19,6.5-4q5-1.83,10-3.58c7.15-2.51,14.2-5.29,21.43-7.57,5.3-1.66,16.93-2.51,19.45-8.22a5.59,5.59,0,0,0-.83-6.4c-5.31-6.07-18.31.06-24.38,2.19-8.65,3-17,6.64-25.53,10.05-7.33,2.95-16.56,5.4-18.55,14.23-1.22,5.4.32,11.7,1,17.11.59,4.88,1.41,9.75,2.34,14.58-6.26,6.22-7.83,15.82-3.8,23.11-6.07,2.67-11.15,6.91-13,13.83q-.17.66-.3,1.32a6.89,6.89,0,0,0-4.49-2.48c-6.3-.78-13.79,1.78-20.25,3.42.7-.53,1.31-.94,1.59-1.11,4-2.38,9-4.26,11.16-8.63a5.71,5.71,0,0,0-6.36-8.27c-3.51.81-7,3.23-10.08,5.09a26.49,26.49,0,0,0-8.7,7.63,17.18,17.18,0,0,0-3,8.9,39.22,39.22,0,0,0-6.09,2.38c-7.53,3.78-13.14,12.72-10.93,20.55-1.36.5-2.71,1-4.05,1.55-8.7,3.54-12.06,9.77-12.93,18.83-1,10.53-1.44,21.08-1.76,31.65a140.3,140.3,0,0,0-20.46,12.85,112,112,0,0,0-17.43,16.13,84.69,84.69,0,0,0-9.56,12.81,86.4,86.4,0,0,0-9.85.88,80.41,80.41,0,0,0-13.49,3.12c-.15-1.91-.33-3.81-.46-5.61,2.87-1.11,5.61-2.25,7.86-4.51,3.06-3.08.7-8.09-3.43-8.28a14.72,14.72,0,0,0-4.82.65c-.07-2.9-.17-5.79-.24-8.69q-.23-10.79-.32-21.58c6.58.36,14.36,1.46,20.35-.63a5.81,5.81,0,0,0,0-11.1c-6-2.09-13.82-1-20.4-.63,0-1.6,0-3.21,0-4.81,0-8,.18-16,.36-24l.51-.07c6.2-1.25,13.4.16,19.18-2.32,3.78-1.63,3.1-7.3,0-9.13-5.36-3.16-13.28-1.49-19.44.34q.12-5.16.19-10.32l.08,0c10.32.93,22.79,3,32.85-.09a5.11,5.11,0,0,0,0-9.77c-10.05-3.11-22.52-1-32.84-.09,0-6.89-.07-13.77-.34-20.64q9.6.42,19.18,1.17c4.53.35,9.06.77,13.58,1.21,2,.19,4,.51,6.06.72-.57,16.59-.69,33.18-1,49.77-.17,8.89-.31,17.77-.55,26.65q-.18,6.9-.42,13.81c-.16,4.55-.72,9.11.37,13.57,1.61,6.57,10.65,5.83,12.6,0,1.44-4.3,1.12-9.07,1.28-13.57s.3-9.21.43-13.81c.23-8.88.42-17.76.43-26.65,0-17.28-.3-34.52-1.64-51.76a6.4,6.4,0,0,0-.77-10.37c-3.95-2.53-8.34-2.62-12.9-3.07q-7.26-.71-14.55-1.15-13.59-.87-27.21-1c-9.39-.13-18.83-.15-28.21.39-7,.41-14.38.85-18,7.92-1.6,3.15-1.73,6.79-2,10.24-.41,4.94-.78,9.89-1.14,14.84q-1,14.35-1.84,28.72c-1.05,18.82-1.84,37.66-2.22,56.51q-.33,15.87-.37,31.75c0,8.24-.55,17,.16,25.4-13.15,2.11-26.47,6-37.67,12.63,7.53-55.76,11.39-112.87-6.54-167a7.9,7.9,0,0,0-.79-1.68c-5.87-25.51-16.5-50.22-32.42-71.07a145.22,145.22,0,0,0-27.82-27.94,66.94,66.94,0,0,0-14.18-8.12c-3-1.33-8.36-2.83-8.87-6.34-.36-2.51-2.54-4.25-5-4.91a125.14,125.14,0,0,0-41.62-36.59c.15-1.59.22-3.19.23-4.79,30.08-4.5,60-12,86.08-28,8.43-5.17,17.62-11.25,22.32-20.27,4.48-8.63,4.8-19.52-1.67-27.26-6.26-7.5-16.82-10.17-25.78-12.93s-18.41-5.35-27.79-5c-3.59-2-8.66-1.95-12.62-2.31-6.15-.57-12.29-.79-18.47-1-5.41-.15-10.82-.26-16.24-.26s-11.65-.22-17.19,1.12a17.11,17.11,0,0,0-7.12-9.51c-1.92-8.45-5-16.76-7.32-25.1l-.86-3.14a24.33,24.33,0,0,0,15.6-6.07c7.63-6.54,10.06-16.86,11.81-26.3a7.43,7.43,0,0,0-5.28-8.56,93.73,93.73,0,0,0-16.28-35.87A90.23,90.23,0,0,0,585.49,1338c-4.65-3.9-10.11-8.58-16-10.6a5.85,5.85,0,0,0-3.67-2.54c-6.95-1.75-15.07.76-21.64,3A108,108,0,0,0,523.27,1338a175.81,175.81,0,0,0-18.82,13.77c-6.47,5.28-12.31,10.64-15.5,18.56-3.08,7.63-3.87,16.12-5.76,24.1a238,238,0,0,1-7.31,24.7c-.07.18-.14.35-.2.53-.66-1.84-1.34-3.65-2-5.38a195.57,195.57,0,0,0-9.28-21.51c-6-12-13.75-28-27.7-32.17-12.24-3.69-26.25,3.26-26.7,17a32.08,32.08,0,0,0,6.07,18.92,35.11,35.11,0,0,0,4.76,5.46c-6.66-1.79-13.9-2.55-19.36.41-7.34,4-10.35,13.15-8.76,21,1.89,9.36,9.47,16.13,16.74,21.62a97.44,97.44,0,0,0,19.77,11.61,10.44,10.44,0,0,0,2.62,9.22c3.2,3.56,8.15,5.78,13.3,6.77a13,13,0,0,0-.61,1.72,16.89,16.89,0,0,0-.32,7.74c-9.4,0-18.67-.78-28.17-1.67-9.95-.93-22.14-1.45-30,5.81-6.67-2.33-13.59-4.67-20.27-4.93a16.94,16.94,0,0,0-2.69.14,397,397,0,0,0,8-70.7c.61-27.58-.54-55.23-1.19-82.81a42.1,42.1,0,0,0,17-2c15.8-5.41,28-18.42,33.38-34.14,5.46-16,1.76-33.41-8.6-46.58-10.07-12.78-26.09-21.06-42.53-20.32-16.16.72-30.92,9.25-41.37,21.33-26.76,30.92-22.67,71.64-15.52,109.07,4.64,24.3,8.39,48.43,10,73.15.79,12.3,1.26,24.63,1.58,37,.3,11.54.1,23.19,1.15,34.71-5.62,3.63-11,8.53-12.09,15-1.5,8.75,3.93,15.65,11.44,21-.55,4.69.07,9.48.21,14.2q.24,8.38.11,16.78c-.17,10.33-2,21.22-.63,31.49-5.58,3.81-10.52,8.28-13.57,14.91-4.13,9-5.14,20.09-4,30.2a7,7,0,0,0-.71.94c-1.88,2.91-3.64,5.89-5.31,8.92a1.09,1.09,0,0,0-.13-.17,32.23,32.23,0,0,0-16.81-10.66c-8.91-2.35-12.71,11.45-3.8,13.8a19.38,19.38,0,0,1,10.49,7,5.87,5.87,0,0,0,4.24,2l-.42,1a7.57,7.57,0,0,0-3.32-1c-22-1.39-42.68,13.65-48.84,34.63-2.6,8.85,11.2,12.64,13.8,3.8,4.28-14.59,18.24-24.31,33.2-24.17q-.84,2.52-1.62,5.08c-12.57,2.77-19.8,14.67-22.94,26.33a87.19,87.19,0,0,0-.42,42.94c6.32,25.51,26.87,47.51,53.42,51.61a8.65,8.65,0,0,0,5.72-1q0,11.93,0,23.84a6.93,6.93,0,0,0-3.38-2.06c-32.26-9.3-57.23-36.69-64-69.48-1.87-9-15.67-5.2-13.8,3.8,7.79,37.57,37.24,68.88,74,79.48a6.4,6.4,0,0,0,7.25-2.33c0,3.13.09,6.27.14,9.4l-1.32-.18a233.78,233.78,0,0,0-25.19-2.25,252.36,252.36,0,0,0-37.89,1.76l1.86-9.09c4.76-2.34,5.54-11.26-1.15-13.71-20.38-7.43-33.69-28.54-32.79-50,.38-9.21-13.93-9.19-14.32,0-1,24.84,13.1,48.1,34.48,59.79q-1.22,5.89-2.42,11.8a8.32,8.32,0,0,0,0,3.26,326.32,326.32,0,0,0-47.79,11.9q-2.65.87-5.3,1.8c1.95-6.87,2.39-14.56,3.61-21.36.78-4.36,1.71-8.72,2.39-13.1a32.83,32.83,0,0,0,.72-6.51,7.43,7.43,0,0,0,1-2,6.67,6.67,0,0,0-1.72-6.51,37.11,37.11,0,0,0-13.64-7.92,7.32,7.32,0,0,0,.79-5.9c-10.81-32.83-51.36-48.23-79.93-27.36a5.52,5.52,0,0,0-2.22,6.05A75.27,75.27,0,0,0,64.13,1765c-7.87-.4-7.56,11.26,0,12.07a65.34,65.34,0,0,1,32.49,13.36,63.67,63.67,0,0,1,11.93,12.17c3,4,4.79,8.6,7.19,12.87-2.42,2.15-4.89,4.23-7.44,6.23-4.52,3.57-10.14,6.16-13.52,10.88-3.68,5.14,2.39,10.17,7.27,9.46,5.85-.85,11.78-6.6,16.12-10.37a71.41,71.41,0,0,0,8.43-8.78,26.06,26.06,0,0,0,7.9-2,61.24,61.24,0,0,1,18.19-4.22,67.24,67.24,0,0,1,18.62,1.19c5.23,1.11,10,3.33,15,5l-.75,1.93a120.58,120.58,0,0,0-4.22,13.58c-2.34,8.92-5.51,19.53-3.6,28.72,0,.17.1.32.15.47-1.66.66-3.31,1.32-4.95,2-4.46,1.85-10.06,3.74-15,6.25-8.24-8.7-19.22-15.8-29.47-21.38a147.89,147.89,0,0,0-38.58-14.46,160,160,0,0,0-24.16-3.41c.93-3.15,1.06-6.56,1.42-10,.63-5.92,1.26-11.84,1.79-17.77.82-9,5.08-23.21-4.2-29.2a17.12,17.12,0,0,0-8.65-2.59c0-1.16,0-2.36,0-3.58q0-6.69,0-13.38L56,1744.72c0-3.83.29-7.91-1.45-11.45a11.52,11.52,0,0,0-2.11-3l0,0c3.37-8.62,4.17-18.7,5-27.87.88-9.57,1.32-19.17,1.42-28.79,0-3.28-3-6.67-6.42-6.42-1.07.08-2.14.15-3.22.21,1-6.52,1.38-13.17,1.74-19.68.29-5.19.46-10.4.51-15.6,0-3.89.5-8.22-.46-12-2.07-8.14-9.95-8.61-17-8.66a10.43,10.43,0,0,0,1.21-3.73c.11-.86,2.42-3,3-3.76a42.65,42.65,0,0,0,4-5.72A41.56,41.56,0,0,0,47,1584.82a42.94,42.94,0,0,0-4.2-27.61,41.26,41.26,0,0,0-19.12-17.46C16,1536.27,4.56,1534-3,1539.08c-3.33,2.25-3,7.67,1.15,8.8,6.63,1.79,13.31,1.5,19.62,4.76a27.28,27.28,0,0,1,13.59,14.91,29,29,0,0,1-.27,20.22c-2.9,7.39-9.36,11.71-10.42,19.94a5.44,5.44,0,0,0,1,3.87c-6.86.31-13.66,1-20.57,1.66-6.07.58-6.24,9.22,0,9.57,7.92.45,15.79,1.33,23.73,1.68,3.95.17,7.91.26,11.86.43.37,0,.73,0,1.1,0,0,1.43.09,3.17.09,3.25,0,4-.24,8-.52,11.93-.36-2.68-3-5.15-6-4.22-8.89,2.79-18.41,4-27.32.75-5.87-2.18-9.82,7.26-4.27,10.11,12,6.15,25.84,6.28,36.22-2.91a4.13,4.13,0,0,0,1.22-1.87c-.65,8.61-1.58,17.21-2.06,25.82-4.28,0-8.56,0-12.81-.19-4.86-.17-9.71-.49-14.56-.85s-9.69-1.37-13.49,2.57a5.51,5.51,0,0,0-.85,6.56c2.91,4.67,7.33,4.87,12.41,5.28s10.33.6,15.52.64c6.6,0,13.14-.25,19.67-.74a7.24,7.24,0,0,0,1.68-.14l3.31-.28q0,10.39-.69,20.78c-.12,2-.3,4-.48,5.94-5.6-3.76-12.81-5.76-19.18-7.15a91.29,91.29,0,0,0-24.57-1.87c-4.82.25-6.58,8.22-1.21,9a177.14,177.14,0,0,1,22.53,4.72c7.07,2,14.2,5.2,21.49,6.09-.16,2.45-.26,4.9-.24,7.32-3.52-1.1-7.26-1.78-10.35-2.63-9.06-2.49-18.37-5.83-27.82-6.16-5.08-.17-6.75,6.91-2.54,9.39,6.78,4,14.7,6,22.17,8.25,4,1.23,8,2.46,12.05,3.66,1.36.4,3.91.57,4.91,1.46l.17.13c-5.7,5-9.68,12.23-13.57,18.92-8-3.09-18-3.13-26.23-4.58-6.27-1.11-9,8-2.67,9.71,5,1.35,9.9,3,14.89,4.34,4.76,1.3,9.89,3.2,14.87,2.8a6,6,0,0,0,4.07-2,5.39,5.39,0,0,0,1.55-1.41c2.21-2.92,4.65-5.87,7-8.91,0,1.81,0,3.63,0,5.44,0,4.42-.86,10.09-.18,15.05l-3.32.74c-12,2.48-24.35,4.34-36.13,7.68-9.19,2.62-5.16,15.39,3.85,14,9.16-1.43,18.24-4,27.27-6.09l13.61-3.14c1.9-.44,7.65-2.59,9.64-1.21.64.45.32.08,0,2.1-.35,2.26-.34,4.63-.5,6.91-.34,4.61-.7,9.22-1,13.83s-.55,9.21-.82,13.82a42.56,42.56,0,0,0-.07,8.66,173.58,173.58,0,0,0-56.81,10.06c-6.27,2.2-3.81,11.49,2.76,10,27.71-6.27,57.64-8.53,85.5-2.08A133.92,133.92,0,0,1,120.19,1867c9.64,5.28,17.48,11.88,25.42,19-3.41,2.1-6.48,5-9.54,7.38-4.79,3.73-9.53,7.48-14.45,11q-7,5.05-14.29,9.72c-5,3.18-12.12,6-15.79,10.6-4.27,5.39-.31,12.25,6.5,11.18,5.87-.91,11.75-6,16.61-9.26q7.95-5.31,15.59-11.08c4.82-3.64,9.66-7.34,14.22-11.31,4.06-3.54,8.51-7.17,11.2-11.87a7.5,7.5,0,0,0,5.82-3.11c5.24-1.68,10.51-4.36,15.24-6.16q11.42-4.34,23.06-8.07a328.49,328.49,0,0,1,45.52-11.35,249.91,249.91,0,0,1,46.1-3.64,219,219,0,0,1,23.17,1.56,93.81,93.81,0,0,1,11.64,1.8,7.32,7.32,0,0,0,1.91,1c-2.75,2.89-5.29,6-7.88,8.89-5.11,5.64-10.14,11.35-15.32,16.94-9.55,10.3-19,21.76-29.87,30.61-2.47,2-1.48,6.17,1,7.62,7.59,4.46,14.63-1.78,19.75-7,5.8-5.87,11.4-12,16.92-18.1s11-12.35,16.25-18.71l1.81-2.16a17.93,17.93,0,0,1,5.57-1.25c3.24,0,2.23-.11,1.84,2s-2.81,5.05-3.83,7l-3.27,6.13c-4.83,9-10,18-14.31,27.29-3.66,8,7.35,14.85,12,7,4.2-7.13,7.74-14.66,11.51-22,3.61-7,8.31-14.28,10.78-21.84a16.4,16.4,0,0,0,.59-2.52q1.65,22.15,4.06,44.26c.43,3.87,3,7.11,7.16,7.15,3.55,0,7.58-3.31,7.16-7.15q-3.53-32.08-5.4-64.3c1.91,4.23,7.41,6.77,11.25,2.29A219.9,219.9,0,0,0,416.29,1797c3.09-8.7-10.73-12.44-13.81-3.81a200.75,200.75,0,0,1-36.75,63.32,7.67,7.67,0,0,0-1.42,2.44q-.69-12.56-1.14-25.13a7.64,7.64,0,0,0,2.26-1.41,91.74,91.74,0,0,0,28-47.52c2.08-9-11.72-12.79-13.8-3.8a78.2,78.2,0,0,1-17,33.67,1270.45,1270.45,0,0,1,4.39-133.6c.78-9.17-13.53-9.12-14.32,0a1272,1272,0,0,0-1.55,197.23,12.67,12.67,0,0,0-6-7.3,13.78,13.78,0,0,0-4.44-1.63,34.72,34.72,0,0,0,2.8-5.84,4.43,4.43,0,0,0-.94-4.52,7.45,7.45,0,0,0-.95-3.11,13.08,13.08,0,0,0-4-4.39q-1.38-82.3,3.07-164.54c.5-9.21-13.81-9.18-14.31,0q-2.86,52.77-3.32,105.62a5,5,0,0,0-2-.75c-20.58-3.18-36.64-18.59-42.54-38.34a71.53,71.53,0,0,1-1.66-33.25c1-5.13,2.49-11.32,5.72-15.84a160,160,0,0,0-2.28,27.51c0,9.2,14.35,9.22,14.31,0a147,147,0,0,1,23.45-80.19,6.26,6.26,0,0,0,.82-5.66c.36-8.21-.68-16.35,2.14-24.33,3.17-8.92,11.14-12.24,18.81-16.62,7.83-4.46,15.05-10.46,24.59-7.35a17.13,17.13,0,0,1,9.65,8c1.41,2.51,1.75,5.31,2.41,8-11.23-4.15-25.47-2.34-32.5,6.64-3.89,5,.8,11.75,6.82,8.84,4.79-2.32,9.82-3.82,15.17-3,6,.91,9.11,4.42,13.63,8a7.23,7.23,0,0,0,2.3,1.2c1.5,4,3,7.9,2.88,12.38a19,19,0,0,1-.16,2c-3.88-3.12-9.76-4.37-14.33-4.64-7.08-.43-12.4,1.78-17.41,6.47-3.67,3.42.13,9.85,4.9,8.41a32.67,32.67,0,0,1,11.59-1.22c3.51.36,6.18,2.45,9.3,3.53-4.63,6.75,6.09,14.87,11.62,8.77a33.37,33.37,0,0,0,7.71-17.19,36.39,36.39,0,0,0,25.09-3c8.26-4.09,1-16.44-7.22-12.36a21.54,21.54,0,0,1-16.83.78,8,8,0,0,0-1.83-.38,25.11,25.11,0,0,0-5.62-10.31,8.74,8.74,0,0,0-.34-1.23,20.12,20.12,0,0,0-4.47-7.13,5.85,5.85,0,0,0,2.17-2.19,14,14,0,0,0,1.7-8.58,7.2,7.2,0,0,0,3.77-1.78A73.38,73.38,0,0,1,429.58,1591a125.53,125.53,0,0,0,8,19.12,121.72,121.72,0,0,0,14.19,22,71.47,71.47,0,0,0-1,11.85c-.24,6.29-.17,12.61.15,18.9a212.31,212.31,0,0,0,5,36.63,222.62,222.62,0,0,0,11.22,35.19q3.6,8.73,7.93,17.15c1.32,2.55,2.68,5.06,4.1,7.55a43.89,43.89,0,0,0,2.61,4.45c.62.82,2.77,2,3,2.6a7.56,7.56,0,0,0,1.11,1.91c-.81,7.93,4.82,16.55,11.42,21.32a161.24,161.24,0,0,0-19.7,6.9c-23.92,10.14-45.16,27.47-57.18,50.81a91.28,91.28,0,0,0-10.52,42.15c.11,14.48,3.9,31,15.45,40.67,5.62,4.71,12.47-2.33,8-8-14.38-18-12.71-43.8-3.63-63.82,9.55-21.06,26.93-36.6,47.66-46.31,19.33-9.06,44.07-14.84,65.3-10.37,22.44,4.72,38.84,25.1,46.81,45.71a76.55,76.55,0,0,1,5.17,36.32c-1.46,12.67-7,23.85-14.31,34.13-4.93,6.93,5.8,14.74,11.59,8.93,19.21-19.28,23.19-50.55,16-75.92S583,1800.05,558,1790a75.4,75.4,0,0,0-28-5.09,24.69,24.69,0,0,0,2.82-4,21.61,21.61,0,0,0,2.45-6.84,4.71,4.71,0,0,0,2-.92,56.83,56.83,0,0,0,10.35-10.61q.95-1.24,1.92-2.58a17.12,17.12,0,0,0-1,10.64c2.13,9.55,11.17,15.64,20.37,17.07,7.43,1.15,15.14-.51,22.58-.19-4.5,7.19-6.32,15.46-.86,23.61,4,6,11.1,8.27,18,6.53,7.1-1.8,12.52-7.15,19.74-8.72a31.17,31.17,0,0,1,21.2,2.89,8.28,8.28,0,0,0-.12,1.15c-.48,19.6,1.25,38.53-3.68,57.76s-10.5,38.17-15.77,57.24c-2.46,8.89,11.35,12.68,13.8,3.8,5.44-19.67,11.35-39.29,16.24-59.11,4.15-16.77,3.6-33.41,3.62-50.35,6.85,6.33,13.45,13.4,18.29,21.28a7.06,7.06,0,0,0,2.83,2.68,257,257,0,0,1-12.89,85.19c-2.91,8.76,10.91,12.52,13.8,3.81,20.22-61,17.25-128.1-7.24-187.38a7.34,7.34,0,0,0,1.42-3.92c.89-12.41,15.73-19.27,25.58-11.29,3,2.45,7.16,2.9,10.12,0,2.55-2.49,3-7.69,0-10.12a34.09,34.09,0,0,0-12-6.32c.65-1.62,1.29-3.24,1.94-4.85a7.17,7.17,0,0,0-.72-5.52,7.26,7.26,0,0,0-4.28-3.28c-4.13-1-7.31,1.26-8.8,5l-3,7.5a3.2,3.2,0,0,0-.19.69,28.93,28.93,0,0,0-5.69,1.93,27.29,27.29,0,0,0-3.11,1.69,53.19,53.19,0,0,0-16.6-26.9c-6.93-6-17.1,4.08-10.12,10.12a40.37,40.37,0,0,1,13.32,22.25,6.21,6.21,0,0,0,3.66,4.63,32.85,32.85,0,0,0-3.88,10.28c-.29,0-.58.07-.88.13-18.47,3.78-35.06-10.36-50.9-17.42a105.24,105.24,0,0,0-32-8.66,115.45,115.45,0,0,0,11.36-37,138.19,138.19,0,0,0,1.37-24.13c-.26-7.23.05-17.37-5.07-23.06a155,155,0,0,0,14.78-19.86,117,117,0,0,0,12.84-26.49,109.26,109.26,0,0,1,33.82,31.14,7.35,7.35,0,0,0,2.83,2.46c3.24,8.53,14.22,11.06,21.57,15.06,10.91,5.92,20.38,16,28.16,25.54,16.91,20.64,27.55,46,33.25,71.88a7.09,7.09,0,0,0,1.34,2.9c19.39,61.65,10,127.34.63,190-.58,3.85,1,7.64,5,8.8,3.37,1,8.23-1.18,8.8-5q1.53-10.14,3-20.37c9.13-2.6,17.91-6.33,27.12-8.71a147.9,147.9,0,0,1,29.65-4.65c19.67-1,37.58,2.84,56.14,8.53.19,4.71.32,9.41.6,14.11.35,5.71.14,11.43,5.27,14.91a5.2,5.2,0,0,0,6.25-.8c4.31-4.42,2.64-10.37,1.83-15.91-.71-4.91-1.6-9.79-2.4-14.69,16.11-10.26,31.48-21.42,49-29.35a101.78,101.78,0,0,1,26.61-8.17,69.82,69.82,0,0,1,13.4-.67c1.77.07,3.56.36,5.34.6,4.66,10.73,9.19,21.43,14.32,32s9.87,22.47,17.46,31.67c4.39,5.31,12.35-.49,10.92-6.36-2-8.29-6.21-16.31-10.41-24.06l.21-.1a53.55,53.55,0,0,1,27.73-5.09c8.13.65,19.86,4.18,24.49-5.2,1.8-3.64-.29-9.42-5.13-8.94-4.12.4-7.79,1.12-12,.61a70.19,70.19,0,0,0-14.11-.84,57.57,57.57,0,0,0-26.86,9c-4.54-8.68-9.38-17.11-14.25-25.58a6,6,0,0,0-.71-7.47c-3.76-4.07-9.21-4.45-14.45-4.94a69.41,69.41,0,0,0-15.38.36,113.22,113.22,0,0,0-30.58,8.72c-4.89,2.1-9.81,4.45-14.67,7-4.81-3.21-12.34-4.33-17.73-5.09.72-.89,1.46-1.77,2.23-2.62a117.9,117.9,0,0,1,14.4-13.32,134.26,134.26,0,0,1,35.88-19.75,277,277,0,0,1,45-12.17c13.76-2.67,27.67-4.79,41.72-5a108.84,108.84,0,0,1,44.85,9.12c8.51,3.63,15.36-7.22,7.38-12.63-23.1-15.66-54.68-14-81.71-9.54A22.48,22.48,0,0,1,1006.63,1776.31Zm-849.16,25.08a77,77,0,0,0-20.81,3.34c-2.23.69-6.38,1.6-8.77,3-.6-1.24-1.16-2.49-1.81-3.71a73.27,73.27,0,0,0-18.43-22.27,6,6,0,0,0,2.36-.72c13.57-7.2,30.82-7.21,43.81,1.22A40.3,40.3,0,0,1,167.23,1797a42.21,42.21,0,0,1,2,4.87A86.53,86.53,0,0,0,157.47,1801.39Zm340.82-419.61A31.8,31.8,0,0,1,509,1363.54a135.34,135.34,0,0,1,16.35-12,111.64,111.64,0,0,1,17.51-9.63,75.88,75.88,0,0,1,9.36-3.19c2.91-.78,7.1-2.27,10.13-1.49a6.49,6.49,0,0,0,2.78.14c4,3.37,8.59,6,12.42,9.61a89.73,89.73,0,0,1,12.18,14.2,88.1,88.1,0,0,1,14.45,34.32,5.57,5.57,0,0,0,2.62,4c-.84,4.1-2,8.21-4.37,11.57s-7.15,6.44-11.26,4a7.32,7.32,0,0,0-1.2-.58c-.54-2-1.09-4.1-1.61-6.15-4.33-17-7.78-34.3-12.89-51.09-1.39-4.58-9.18-4-8.72,1.18,1.56,17.64,5.61,35,9.75,52.18q3,12.3,6.24,24.51c-1.55-2.4-4.31-3.94-7.3-2.72-16.73,6.85-31.62,24.44-50.85,23.86-8-.24-15.21-4.07-21.68-8.48a108.09,108.09,0,0,1-10.23-8c-2.94-2.58-5.64-5.49-9.05-7.44,1-2.46,2-4.93,2.93-7.42C491.9,1410.82,495.07,1396.45,498.29,1381.78Zm-73.66-7.7c3.15-2.85,8.52-1.56,11.63.47,4.66,3,7.73,8.09,10.53,12.75a188,188,0,0,1,9,16.81,194.07,194.07,0,0,1,7.57,18.65c1.67,4.78,2.79,9.92,5.21,14.37l-.12.24c-3.42-2-7.38-3.09-11.62-4-1.72-.36-14.1-3.18-9.86-6.9,4.09-3.59.93-11.43-4.58-11-2.17.16-4.61-.89-6-.9a6.49,6.49,0,0,0,6.13-4.66c1.62-5.66-1.79-9.92-6.39-12.79s-8.33-5.35-10.91-10.3C423.47,1383.42,421.25,1377.15,424.63,1374.08Zm16.68,85.05,0-.06c4.23-1.9,2.33-8.61-1.52-10.23-11.69-4.93-25.85-12.06-33.09-22.94-2.24-3.35-4.34-10.34.3-13,2.75-1.59,7.05.39,9.79,1.18,2.52.73,5.05,1.55,7.61,2.19.05.34.1.68.18,1,1.13,4.74,4.58,7.93,8.78,9.65a17.31,17.31,0,0,0,6.42,13.7c6.68,5.31,15.44,5.47,22.75,9.35a45.21,45.21,0,0,0-3.41,11.15,32.36,32.36,0,0,0-4.58,2c-2.44-.53-4.91-1-7.32-1.63a23.81,23.81,0,0,1-4.65-1.65ZM322.15,1289.32c4.48-23.58,22.55-50.6,49.15-50.43,26,.16,44.92,28.83,33.7,52.45-5.87,12.35-18.43,22.62-32.62,22.08-4.77-.18-12.27-2.22-13.34-7.77-.62-3.17,2-9,5.79-7.87,8.94,2.72,12.82-11.38,3.85-14a16.78,16.78,0,0,0-13.44,1.69c3.52-10.74,16.55-16.25,27.93-11.49,3.59,1.51,7.83-1.62,8.8-5,1.18-4.11-1.45-7.31-5-8.8a34.49,34.49,0,0,0-34.78,5.31c-9.83,8.13-13.51,21.07-11.34,33.34a5.87,5.87,0,0,0,3.6,4.74,19.67,19.67,0,0,0,1.16,8.13,22.94,22.94,0,0,0,9.91,11.75c0,.16,0,.31,0,.47.61,28.24,1.83,56.55,1.32,84.8a380,380,0,0,1-10.5,82.39,60.82,60.82,0,0,0-10.51,3.25c1-15.12.44-30.51.15-45.58-.35-18.12-1.39-36.28-3.49-54.29-2.05-17.64-5.6-35-8.55-52.49C321,1324.83,318.86,1306.62,322.15,1289.32Zm9.08,220.25a56.41,56.41,0,0,1,25.54-9.46,5.57,5.57,0,0,0,4.69-7.16c1.41-2.36,5.48-1.21,8.23-.31,4.38,1.43,8.73,2.95,13.1,4.4,8.28,2.75,16.62,5.35,25,7.6,16.46,4.38,35.12,8.63,52.09,4.85,5.68-1.27,4-9.37-1.32-9.71-10.87-.69-21.6-.7-32.36-2.66a252.33,252.33,0,0,1-26-6.37,27.75,27.75,0,0,1,3.57-.27c5.26,0,10.42.92,15.61,1.64a163.32,163.32,0,0,0,32.84,1.43,4.69,4.69,0,0,0,.7.63c14.58,11,32.1,20.34,50,24.34a80.94,80.94,0,0,0,26.09,1.83c8.1-.87,19.53-2.85,25.24-9.2,4.86-5.41,0-12.72-6.75-11.59-3.73.62-7.15,2.79-10.8,3.87a52.74,52.74,0,0,1-11,2,71,71,0,0,1-22.9-2.15c-15-3.83-28.23-11.39-42.22-17.55a4.79,4.79,0,0,0-2.82-3.28c-2.33-1.1-2.8-3.46-1.7-5.79,1.26-2.66,4.13-3.94,7-4.67a27.12,27.12,0,0,0,7.39,7.53,22.63,22.63,0,0,0,13.26,4c4.66.07,6.89-6.91,2.46-9.09a100,100,0,0,1-9.09-5.1,47.38,47.38,0,0,1-6.53-4.85c.65-6.74,4.16-12.6,7.06-18.62.34-.71.67-1.43,1-2.14,4.67,6.11,11.84,11.5,17.55,15.6,8,5.72,17,9.73,26.87,10.61,10.32.92,20.28-2.81,29.23-7.61,4.85-2.6,9.54-5.5,14.23-8.36,5.25-3.18,10.89-6.15,15.56-10.14a5.52,5.52,0,0,0,1.94-3.83c2,7.54,3.8,15.28,6.61,22.47a8,8,0,0,0,.74,1.43c-2,1.05-4,2.16-6,3.12-5.69,2.73-11.69,5.2-17.09,8.48-4.73,2.87-1.37,9,3.51,8.34,6.48-.91,12.86-3.43,18.84-6,2.56-1.1,5.17-2.14,7.63-3.39a16.93,16.93,0,0,1-.63,4.4c-1.52,6.56,8.11,11.38,11.37,4.79a17.55,17.55,0,0,0,1.63-6.1c5.64-.13,11.31.54,17,.8,5.12.23,10.25.54,15.36.92,5.77.43,11.54.94,17.3,1.49,2,.19,4.5.77,7,1.08a7,7,0,0,0,3.78,1.36,113.17,113.17,0,0,1,23.15,4.24c6.65,1.91,14.38,3.71,20.3,7.42,16.15,10.13-9,26.58-17.13,31.31-28.26,16.46-61.22,22.88-93.32,26.77-71.33,8.63-144.65,9.12-215.11-6.26-18.75-4.09-38.47-8.52-55.06-18.54-3.48-2.11-7.89-4.87-9.36-8.9C323,1514.9,328.2,1511.66,331.23,1509.57Zm224.24,66.52c-1.48.79-3,1.51-4.47,2.2a9.75,9.75,0,0,0,1.58-6.07,6.76,6.76,0,0,0-.31-1.61q6.48-.36,13-.83A64.29,64.29,0,0,1,555.47,1576.09Zm-17.82-3c-2.94.2-4.68,1.78-5.77,4.4-1.85,4.48-3.42,9.26-5.8,13.5-.39.69-1.13,2.5-2,2.76-1.05.31-.08.15-.63-.08-1.6-.65-3.32-4.62-4.05-6-2.14-3.92-3.19-8.51-6.28-11.87a18.28,18.28,0,0,0-4.88-3.53c-.45-.23-.88-.42-1.26-.58q16.93.13,33.87-.56A5,5,0,0,1,537.65,1573.06Zm-40.36,6.06c.33.31.66.59,1,.85a30.5,30.5,0,0,1-6-2.36,36.73,36.73,0,0,1-8.76-6.51q5.38.24,10.79.39A10.19,10.19,0,0,0,497.29,1579.12Zm-27.87-8.8a26.14,26.14,0,0,0,1.15,2.8,68,68,0,0,0-9.25,9.77c-.64.76-1.36,1.55-2.1,2.36-2.37-5.27-4.05-10.86-6.14-16.25Q461.24,1569.78,469.42,1570.32Zm2,21.58a74.59,74.59,0,0,0,6.46-9.13,44.63,44.63,0,0,0,10.17,6.92c-1.56,3.93-2.91,7.9-4.22,12a98.73,98.73,0,0,0-3.44,11.41,65.73,65.73,0,0,1-7-6,53.75,53.75,0,0,1-7-8.66C468.17,1596.34,469.75,1594,471.44,1591.9Zm23.68,13.85c1.14-4.1,2.26-8.16,3.13-12.31a41.66,41.66,0,0,0,10,1.25c0,.16-.07.32-.08.5-.59,6.63-.1,13.21.3,19.83.19,3.22.18,6.6.46,9.92l-.76-.09a58,58,0,0,1-17.61-5.58C492.86,1615.17,493.86,1610.25,495.12,1605.75Zm26.1,7.38c-.26-2.47-.53-4.94-.88-7.38,3.64,1.29,7.66.85,11.5-2.25a22.64,22.64,0,0,0,5.82-7.57c-.37,8.54,0,18.53,3.47,26.1a61.82,61.82,0,0,1-18.81,3.52A120.78,120.78,0,0,0,521.22,1613.13Zm30.6,3.26c-.26-3.06-.85-6.1-1.37-9.28q-1.17-7.18-2.66-14.32a70.73,70.73,0,0,0,13.06-4.79,41,41,0,0,0,4.56,9.16c1.16,1.69,2.41,3.35,3.73,4.92-3,2.69-6.17,5.26-9.25,7.9C557.26,1612.23,554.62,1614.43,551.82,1616.39Zm26.29-23.31c-.73-.86-1.48-1.73-2.18-2.71a94,94,0,0,1-5.13-7.92c1.43-.92,2.83-1.91,4.18-3l1.38,2.15c1.64,2.57,3.2,4.61,6.18,5.71h0C581.17,1589.33,579.68,1591.24,578.11,1593.08Zm10-16.15a31.76,31.76,0,0,0-2.11-2.77l-2.88-3.48a15.77,15.77,0,0,0,.88-1.74,7.49,7.49,0,0,0,.25-.76l6.48-.64C589.87,1570.66,589.22,1573.84,588.16,1576.93Zm-250.47,13.15c-.77.49-1.55,1-2.34,1.45,1.34-8,1-16.78,1.21-24.52q.17-7.89,0-15.79c-.06-2.68,0-5.52-.11-8.34,4.31,2,8.55,3.66,12.06,5a9.64,9.64,0,0,0-.13,1.11q-.76,18.21-1.52,36.41A52.17,52.17,0,0,0,337.69,1590.08Zm47.69,6.71a35.1,35.1,0,0,0-11-10.18,30.48,30.48,0,0,0-13.09-3.74q.63-15.07,1.27-30.16c15.74,4.81,32.16,8,48.27,10.71q7,1.18,14,2.2a97.53,97.53,0,0,0,1.34,11.5A87.1,87.1,0,0,0,385.38,1596.79ZM498.1,1767.12c2.83-1.52,5.06-3.63,8-5.33,2.76-1.61,5.8-2.67,8.95-1.6,5.9,2,9.26,9.09,6.06,14.6-3,5.22-9.87,7.68-15.35,5S499.36,1772.17,498.1,1767.12Zm54.76-12.34c.14-.28.27-.55.4-.83l.25.09C553.29,1754.28,553.07,1754.53,552.86,1754.78Zm68.51-12.67c13.91,7.55,28.39,14.19,44.34,12.11a249.62,249.62,0,0,1,17.43,67.55c-2.69-3-5.5-5.83-8.33-8.57C667.33,1806,659.2,1799,649.06,1796c-13.07-3.89-26.3-2-38,4.78-3,1.75-8.58,5.79-9.41,0-.81-5.65,5.61-10.62,9.22-14,5.94-5.5-1.13-14-7.51-11.72-6.64-2.33-13.65-2-20.61-1.49-6,.43-14.79,1.67-19-3.75s3.48-8.83,7.95-9.25c5.41-.51,11.15.26,16.76,1.12a6.12,6.12,0,0,0,7,1l1.22.16c3.87.46,7.12-3.62,7.16-7.16,0-4.17-3.22-6.61-7-7.13a23.49,23.49,0,0,0-12.87-7.35c-8.07-1.77-16.14,1.06-24.13-.27-5-.84-9.85-4.63-4.94-9.32s14.26-4.05,20.38-3.88C592.13,1728.25,606.77,1734.2,621.37,1742.11Zm-27.44-137.62c-4.44,6.63-9.56,12.82-14.57,19-5.16,6.37-11.78,12.23-16,19.24-2.45,4,2.56,9.45,6.68,6.67a65.46,65.46,0,0,0,10.7-9.48c.15,1.09.34,2.19.49,3.31.48,3.42.76,6.87.93,10.32a127.83,127.83,0,0,1-.82,22.47c-1.67,12.93-5.5,25.2-10,37.3a78.27,78.27,0,0,0-11.45,1.08c-8.1,1.38-15.77,5.67-19.45,13.3a17.91,17.91,0,0,0,3.13,20.38c-1.93,2.57-3.51,5.48-5.34,8-1.33,1.84-2.68,3.69-4,5.53a24.9,24.9,0,0,0-11.17-13c-9.85-5.4-24.08-2.28-31.38,6.32-.11-.2-.23-.39-.34-.58-1.4-2.51-2.75-5-4-7.59q-4.1-8-7.5-16.42a220.26,220.26,0,0,1-10.57-33.58,228.4,228.4,0,0,1-5.31-33.89q-.69-9-.62-18c0-.64,0-1.28,0-1.94a44.62,44.62,0,0,0,5,3c4.15,2.17,10.13-2.53,7-7-8.46-11.9-18.95-21.7-26.17-34.58-6.53-11.64-10.76-24.39-13.8-37.36,1.62.21,3.24.4,4.86.59.88,8,4,16,7.08,23.24a88,88,0,0,0,12.58,21.8c9.8,12.07,24.84,21.78,40,25.47s32.85,3.08,47.52-2.52c13.6-5.2,25.44-15.9,35.84-25.87,6.22-6,12-12.82,16-20.47,3.51-6.68,7.17-15.5,6-23.33,1.85-.22,3.71-.46,5.57-.7-.38,1.48-.77,3-1.18,4.4a7.57,7.57,0,0,0-1.63,5.43A115.64,115.64,0,0,1,593.93,1604.49ZM827.8,1800.18c-6-.38-12.09-.85-18.08-.82a6,6,0,0,0-1,.09c.22-5.23.44-10.46.69-15.69.1-2,.21-4,.31-6,5.55,1.43,11.11,2.8,16.63,4.32,4.48,1.24,9.13,3.39,13.8,3.63,0,2.91,0,5.81-.08,8.71l0,6.51C836,1800.36,831.66,1800.43,827.8,1800.18Zm12.55-28.74c-3.67-1.39-7.88-2-11.27-2.67a84.49,84.49,0,0,0-18.76-1.63q.51-8.88,1.11-17.77c8.66.67,18.25,2.14,26.61-.2a5.08,5.08,0,0,0,3.19-2.55C840.76,1754.88,840.51,1763.17,840.35,1771.44Zm-26.7-51.54a3.37,3.37,0,0,1,.38-1.9c1.07-.79,4.87-.21,5.93-.2,8,0,16,0,24,.19-1.1,7.92-1.87,15.92-2.41,24a5.12,5.12,0,0,0-3.49-3.2c-8.11-2.27-17.38-1-25.84-.26l.45-6.23C813,1728.15,813.51,1724,813.65,1719.9Zm-1.73,157.81c-1.61.12-3.25.26-4.89.41.26-5.66,0-11.41.11-17,.13-8.6.23-17.2.43-25.8q.3-12.66.76-25.33a88.4,88.4,0,0,0,18.52,3.86c4.13.47,8.82,1.06,13.21.66q0,9.35.18,18.69.16,9.93.44,19.87c.12,4.42-.18,9.17.46,13.65a27.37,27.37,0,0,0-8.65,10.53,2.52,2.52,0,0,0-.12.29A163.87,163.87,0,0,0,811.92,1877.71Zm63.78,9.42a121.42,121.42,0,0,0-29.42-8.14c8.71-6.63,20.49-9.08,31.36-9.26a4.89,4.89,0,0,0,4.82.1,70.8,70.8,0,0,1,12.33,1.85A142.68,142.68,0,0,0,875.7,1887.13Zm92.19-136.59a5.16,5.16,0,0,0,5-1c4-.79,8-1.55,12-2.33,5.15-1,10.92-1.46,15.49-4.15a7.75,7.75,0,0,0,.84-.58c.11,4.37.72,8.83,1,13.17A6.78,6.78,0,0,0,1000,1754c-8.56-3.57-21-.34-29.79,1.21-4.87.86-9.74,1.91-14.54,3.19C955.57,1754,963.25,1751.61,967.89,1750.54Zm-30.61,58c1-6.56,1.82-13.11,2.46-19.71.29-3-.09-8.46,1.78-11s6.63-3.06,9.35-3.83a182.85,182.85,0,0,1,24.93-5.35c7.37-1,15.58-.38,22.74-2.63a29.73,29.73,0,0,0-4.31,7.75,28.44,28.44,0,0,0-.76,18.68C974.42,1796.08,955.19,1800.89,937.28,1808.54Z"/><path class="cls-1" d="M400.23,1707.62c.56-1.61.18-3.48-.1-5.12-.2-1.17-.44-2.34-.66-3.52-.52-2.8-4.06-4.65-6.69-3.8s-4.81,3.82-3.8,6.7c.88,2.49,1.56,6,3.61,7.75A4.64,4.64,0,0,0,400.23,1707.62Z"/><path class="cls-1" d="M918.85,1778.65a14.7,14.7,0,0,0,3.11-2.35,22,22,0,0,1,2-2,4.77,4.77,0,0,0,.38-6.29,4.86,4.86,0,0,0-6.18-1.23l-1.08.52-.46.13a13.59,13.59,0,0,0-3.29,1.78c-2.36,1.58-3.61,4.88-2,7.45C912.92,1779.06,916.31,1780.34,918.85,1778.65Z"/><path class="cls-1" d="M576.82,1514.59a56.45,56.45,0,0,0,8.4-5.41c3.69-3.07-.26-9.81-4.75-8.15a55.86,55.86,0,0,0-8.89,4.6,5.19,5.19,0,0,0,5.24,9Z"/><path class="cls-1" d="M169,1673.29a86.4,86.4,0,0,1,16.44,1.58c5.21,1,10.41,3,15.76,2.77,5.66-.19,6.81-6.88,2.7-10-4.75-3.56-11.07-4.3-16.81-5a101.23,101.23,0,0,0-18.09-.46C162,1662.62,161.85,1673.25,169,1673.29Z"/><path class="cls-1" d="M210.79,1597.21c3,3.18,6.35,7.88,10.83,8.8a5.27,5.27,0,0,0,6.39-6.39c-.92-4.49-5.61-7.79-8.8-10.83L209,1579c-5.25-5-13,2.71-8,8Z"/><path class="cls-1" d="M244.34,1525.57c2.42,2.78,4.87,6.22,8.33,7.71,4,1.71,9.24-1.13,7.81-6-1.18-4-4.28-7-7-9.94l-8-8.78c-5.27-5.78-13.6,2.71-8.54,8.53Z"/><path class="cls-1" d="M270.11,1477.94c1.19.78,2.35,1.63,3.58,2.35a18.08,18.08,0,0,0,1.83.88,13.69,13.69,0,0,0,1.69.7,7,7,0,0,0,3.12,0,5,5,0,0,0,3-2.3,5.4,5.4,0,0,0,.51-3.86c-.87-3.59-5.1-5.69-7.94-7.61a5.76,5.76,0,0,0-7.83,2A5.86,5.86,0,0,0,270.11,1477.94Z"/><path class="cls-1" d="M755.38,1571.38c2.92-2.71,5.89-5.37,8.73-8.16s6.07-5.55,8.12-9.11c2.95-5.14-3-11-8.09-8.09-3.57,2-6.25,5.21-9.11,8.12s-5.47,5.8-8.18,8.71C741.55,1568.55,749.68,1576.68,755.38,1571.38Z"/><path class="cls-1" d="M790.8,1605.39c4.77-2,16.21-4.75,14.22-12-1-3.52-5.28-4.21-8.37-3.68s-6.29,2.26-9.23,3.42c-3.18,1.25-5.41,4.25-4.43,7.8C783.82,1604,787.61,1606.7,790.8,1605.39Z"/><path class="cls-1" d="M803,1645.08a6.46,6.46,0,0,0,4.41,7.77c5.72,1.83,15.22.65,17.13-6.14,1-3.66-1.81-6.81-5.36-7-2.57-.17-3.63.85-5.61,1.34l-.23,0a9.61,9.61,0,0,1-1.2,0c.64.13.58.12-.18,0a10.11,10.11,0,0,1-1.19-.35A6.36,6.36,0,0,0,803,1645.08Z"/><path class="cls-1" d="M733,1423c6.64-5.68,14.94-14.66,15-24a4.93,4.93,0,0,0-8.33-3.45c-2.89,2.93-4.52,6.82-6.8,10.2A54.73,54.73,0,0,1,725,1415C719.64,1420.05,727.53,1427.68,733,1423Z"/><path class="cls-1" d="M690,1409.89c2.69-4.89,6.52-10.08,7.48-15.65.77-4.44-4-7.55-7.58-4.41-4.24,3.75-6.62,9.66-9.35,14.53C677.05,1410.52,686.54,1416.06,690,1409.89Z"/><path class="cls-1" d="M663.41,1378.92a5.32,5.32,0,0,0,7.81-1.5,66.43,66.43,0,0,0,3.33-6.37c.89-2,.74-4.24-1.14-5.7a4.43,4.43,0,0,0-5.79.35,62.54,62.54,0,0,0-4.75,5.28C660.84,1373.42,660.72,1376.84,663.41,1378.92Z"/></svg>