<svg id="Warstwa_1" data-name="Warstwa 1" xmlns="http://www.w3.org/2000/svg" viewBox="0 0 32 32"><title>Obszar roboczy 11</title><path d="M13.45,30.68A11.36,11.36,0,0,1,1.92,19.54,11.36,11.36,0,0,1,13.45,8.4,11.35,11.35,0,0,1,25,19.54,11.35,11.35,0,0,1,13.45,30.68Zm0-20.28a9.35,9.35,0,0,0-9.53,9.14,9.35,9.35,0,0,0,9.53,9.14A9.35,9.35,0,0,0,23,19.54,9.35,9.35,0,0,0,13.45,10.4Z"/><path d="M13.45,25.62a6.19,6.19,0,0,1-6.28-6.08,6.19,6.19,0,0,1,6.28-6.08,6.19,6.19,0,0,1,6.28,6.08A6.19,6.19,0,0,1,13.45,25.62Zm0-10.17a4.19,4.19,0,0,0-4.28,4.08,4.19,4.19,0,0,0,4.28,4.08,4.19,4.19,0,0,0,4.28-4.08A4.19,4.19,0,0,0,13.45,15.45Z"/><path d="M22.7,13.83A1,1,0,0,1,22,12.11l6.23-6V4H25.42l-6,5.77A1,1,0,1,1,18,8.29l6.28-6A1,1,0,0,1,25,2h4.22a1,1,0,0,1,1,1V6.53a1,1,0,0,1-.31.72l-6.54,6.29A1,1,0,0,1,22.7,13.83Z"/></svg>