<svg id="Warstwa_1" data-name="Warstwa 1" xmlns="http://www.w3.org/2000/svg" viewBox="0 0 32 32"><title>Obszar roboczy 9</title><path d="M16,26.56c-9,0-16-3.42-16-7.78S7,11,16,11s16,3.42,16,7.78S25,26.56,16,26.56Zm0-13.63c-8.31,0-14.1,3.08-14.1,5.85S7.71,24.63,16,24.63s14.1-3.08,14.1-5.85S24.33,12.93,16,12.93Z"/><path d="M16,29.86a1,1,0,0,1,0-1.93c8.32,0,14.11-3.08,14.11-5.85V19.42a1,1,0,1,1,1.93,0v2.67C32,26.44,25,29.86,16,29.86Z"/><path d="M16,29.86c-9,0-16-3.42-16-7.78v-3.3a1,1,0,1,1,1.92,0v3.3c0,2.77,5.79,5.85,14.1,5.85a1,1,0,0,1,0,1.93Z"/><path d="M18.35,12.92h-4.7a1,1,0,0,1-1-1V9.65a3.35,3.35,0,0,1,6.7,0v2.27A1,1,0,0,1,18.35,12.92Zm-3.7-2h2.7V9.65a1.35,1.35,0,0,0-2.7,0Z"/><path d="M16,8a3,3,0,1,1,3-3A3,3,0,0,1,16,8Zm0-4a1,1,0,1,0,1,1A1,1,0,0,0,16,4Z"/><path d="M23.5,8.06A2.53,2.53,0,1,1,26,5.53,2.52,2.52,0,0,1,23.5,8.06ZM23.5,5a.53.53,0,1,0,.5.53A.52.52,0,0,0,23.5,5Z"/><path d="M26,14l-.23,0-5-1.18a1,1,0,0,1-.77-1v-1.5a3.32,3.32,0,0,1,.84-2.47,3.85,3.85,0,0,1,2.89-.83c2,0,3.27,1.18,3.27,2.94l0,3.06a1,1,0,0,1-1,1Zm-4-3,3,.71L25,10c0-.24,0-.92-1.17-.92h-.1c-.57,0-1.22,0-1.47.24A1.6,1.6,0,0,0,22,10.36Z"/><path d="M8.5,8.06A2.53,2.53,0,1,1,11,5.53,2.52,2.52,0,0,1,8.5,8.06ZM8.5,5a.53.53,0,1,0,.5.53A.52.52,0,0,0,8.5,5Z"/><path d="M6,14a1,1,0,0,1-1-1l0-3c0-1.8,1.32-2.94,3.28-3a3.84,3.84,0,0,1,2.87.83A3.32,3.32,0,0,1,12,10.36v1.5a1,1,0,0,1-.77,1L6.28,14Zm2.33-5h-.2C7,9.06,7,9.74,7,10l0,1.78,3-.71v-.71a1.6,1.6,0,0,0-.26-1.05A2.29,2.29,0,0,0,8.37,9.06Z"/></svg>