<svg id="Warstwa_1" data-name="Warstwa 1" xmlns="http://www.w3.org/2000/svg" viewBox="0 0 32 32"><defs><style>.cls-1{fill:#fff;}</style></defs><title>Obszar roboczy 16</title><path class="cls-1" d="M10.64,30.44H2a1,1,0,0,1-1-1v-7.3a1,1,0,0,1,1-1h8.59a1,1,0,0,1,1,1v7.3A1,1,0,0,1,10.64,30.44ZM3,28.44H9.64v-5.3H3Z"/><path class="cls-1" d="M20.29,30.44H10.64a1,1,0,0,1-1-1V15.87a1,1,0,0,1,1-1h9.66a1,1,0,0,1,1,1V29.44A1,1,0,0,1,20.29,30.44Zm-8.66-2h7.66V16.87H11.64Z"/><path class="cls-1" d="M30,30.44H20.29a1,1,0,0,1-1-1V19a1,1,0,0,1,1-1H30a1,1,0,0,1,1,1V29.44A1,1,0,0,1,30,30.44Zm-8.66-2H29V20H21.29Z"/><path class="cls-1" d="M18.8,13.82a1,1,0,0,1-.46-.12l-3-1.58-3,1.58a1,1,0,0,1-1.45-1.05l.58-3.36L9,6.91a1,1,0,0,1,.55-1.71l3.37-.49,1.51-3.05a1,1,0,0,1,1.79,0l1.51,3.05,3.37.49a1,1,0,0,1,.55,1.71L19.21,9.29l.58,3.36a1,1,0,0,1-1,1.17ZM15.32,10a1,1,0,0,1,.46.12l1.69.89-.32-1.88a1,1,0,0,1,.29-.88L18.8,6.9l-1.88-.27a1,1,0,0,1-.75-.55l-.84-1.71-.84,1.71a1,1,0,0,1-.75.55l-1.88.27,1.36,1.33a1,1,0,0,1,.29.88L13.17,11l1.69-.89A1,1,0,0,1,15.32,10Z"/></svg>