<svg id="Warstwa_1" data-name="Warstwa 1" xmlns="http://www.w3.org/2000/svg" viewBox="0 0 1080 1920"><defs><style>.cls-1{opacity:0.2;}</style></defs><title>Aplikacja projekt</title><path class="cls-1" d="M458.84,1506.8c14.53-4.19,25.23-18.09,33.34-30.08,9.12-13.47,16.14-28.46,26.59-41,9.23-11.09,22.14-21.13,37.22-21.18,12.77,0,24.61,9.25,25.53,22.28.67,9.46,14,9.44,14.69,0,1-12.7-7.74-24.32-18.21-30.61-11.15-6.7-24.78-7.47-37-3.18-28.55,10.07-41.63,37.84-56.37,61.91a129.75,129.75,0,0,1-13.56,18.79c-5.09,5.71-11.13,10.17-16.91,15.13C450.53,1502,454.46,1508.07,458.84,1506.8Z"/><path class="cls-1" d="M607.37,1471.07a24.5,24.5,0,0,0,2.12,2.32c.67.66,1.32,1.34,2,2a11.19,11.19,0,0,0,4.4,2.29c3.5,1.14,7.71-2.67,6.31-6.31a12.48,12.48,0,0,0-2.13-4.11c-.69-.77-1.55-1.44-2.31-2.14-1.66-1.53-3.62-2.61-5-3.83-2.05-1.76-5.31-2.16-7.3,0a5.26,5.26,0,0,0,0,7.29C606.3,1469.48,606.49,1470,607.37,1471.07Z"/><path class="cls-1" d="M651.58,1540.48c.83,5,1.43,9.47,4.82,13.48,2.26,2.67,6.15.85,7.16-1.9,1.71-4.62.54-9.14-.34-13.82-.93-4.92-1.91-9.8-3.07-14.67-1.4-5.86-11.47-4.77-10.75,1.45C650,1530.2,650.74,1535.33,651.58,1540.48Z"/><path class="cls-1" d="M199.43,1522.18c6.28,9.07,12.77,20.12,21.9,26.56,5.48,3.87,10.54-3.39,8.3-8.3s-6.15-9.15-9.49-13.38-6.83-8.73-10.11-13.2c-6.55-8.92-12.94-17.95-19-27.22-4-6.19-13.57-.71-9.94,5.8C186.8,1502.62,192.8,1512.6,199.43,1522.18Z"/><path class="cls-1" d="M225.79,1448.72c3.11,6.71,6,13.5,8.94,20.31,2.84,6.65,4.86,15.07,10.06,20.28,3.94,3.94,10.31.87,10.57-4.37.36-7.39-4.18-15.12-7-21.75-3-7.07-6.32-14-9.73-20.91a386.32,386.32,0,0,0-23.2-39.86c-3.88-5.92-12.83-.74-9.51,5.56C213,1421.32,219.44,1435,225.79,1448.72Z"/><path class="cls-1" d="M304.64,1461.54c2.41,3.22,8.09,3.4,9.2-1.2,2.28-9.49-3.69-20-8.1-28.12-3.57-6.58-12.55-.79-9.77,5.71C299.13,1445.36,299.77,1455.05,304.64,1461.54Z"/><path class="cls-1" d="M493,1285.17c-.11,3.22-.94,6.27,0,9.45a6.21,6.21,0,0,0,11.2,1.46c4.17-6.86.36-17.1-2.52-23.81-2.44-5.67-11.29-1.57-9.77,4.13A29.81,29.81,0,0,1,493,1285.17Z"/><path class="cls-1" d="M767.43,1509.4c-6.34,8.17-10.85,17.41-15.62,26.55-2.88,5.54,4.72,12.39,9.14,7,6.93-8.38,13.09-17.74,15-28.61C776.8,1510,770.92,1504.91,767.43,1509.4Z"/><path class="cls-1" d="M34.06,1822.7a21.27,21.27,0,0,0-2.89,2.48l-4.1,3.9a5.82,5.82,0,0,0,0,8.17,5.88,5.88,0,0,0,8.18,0l4-4a15.14,15.14,0,0,0,2.54-2.83,5.66,5.66,0,0,0-7.77-7.77Z"/><path class="cls-1" d="M544.27,1696.46a5.12,5.12,0,0,0-6.55-4.26c-12.13,2.8-26,9.23-25.19,24,.79,13.68,15.36,23.72,28.34,22.92,12.32-.76,25.55-9.49,25.46-23C566.26,1704.13,555.52,1694.37,544.27,1696.46Zm8.3,22.26c-2,5.56-9.66,8.12-15,7.45s-13.33-5.85-12.22-12.22c.83-4.77,6.62-7.81,11.5-9.83.68,3.5,4.1,6.76,8.24,5.7C549.78,1708.61,554.13,1714.36,552.57,1718.72Z"/><path class="cls-1" d="M845.62,1351.7c2.17-3.16,4.37-6.3,6.5-9.49s4.5-6.29,5.67-9.89c1.66-5.06-4.81-7.85-8.31-4.84-2.79,2.42-4.81,6.12-6.85,9.19s-4.17,6.42-6.25,9.63C832.61,1352.13,841.76,1357.32,845.62,1351.7Z"/><path class="cls-1" d="M828.93,1461c8.3-7,16.65-14,24.83-21.16s15.69-14.88,23.34-22.63c4.72-4.78-2.2-11.24-7.21-7.21-8.52,6.85-17,13.54-25,21s-15.69,15-23.5,22.48C816.41,1458.24,823.78,1465.31,828.93,1461Z"/><path class="cls-1" d="M796.19,1554.14A139,139,0,0,0,819.75,1537q5.31-4.8,10.38-9.87c3.36-3.35,7.55-7.08,9.56-11.42,2.2-4.78-2.46-10.57-7.58-7.57-4,2.32-7,6.19-10.26,9.44s-6.77,6.74-10.28,10q-10.5,9.68-20.91,19.41C786.85,1550.54,791.74,1556.75,796.19,1554.14Z"/><path class="cls-1" d="M801.7,1457.71a5,5,0,0,0,6-3.41,32,32,0,0,0,1.56-7.3,4.29,4.29,0,0,0-3.13-4.1,4.42,4.42,0,0,0-4.8,1.95,32.54,32.54,0,0,0-3,6.85C797.39,1454.09,799.3,1457.16,801.7,1457.71Z"/><path class="cls-1" d="M639.21,1335.19c1.76-2.13,3.52-4.25,5.26-6.38a34.36,34.36,0,0,0,4.54-7.47,4.82,4.82,0,0,0-.73-5.65c-1.34-1.33-4-2-5.64-.72a34.31,34.31,0,0,0-6.4,5.62c-1.73,2.14-3.44,4.3-5.16,6.46-1.94,2.43-2.37,5.77,0,8.14C633.11,1337.22,637.23,1337.59,639.21,1335.19Z"/><path class="cls-1" d="M588.27,1301.49a5.37,5.37,0,0,0,7.19-1.89,51.41,51.41,0,0,0,3.67-6.19,5,5,0,0,0-1.26-6.34,4.88,4.88,0,0,0-6.45.39,61.05,61.05,0,0,0-5,6.84A5.3,5.3,0,0,0,588.27,1301.49Z"/><path class="cls-1" d="M921.54,1501.53c1.94-2.46,3.86-4.94,5.73-7.46s4-4.77,4.87-7.71c1.44-4.66-4-8.39-8-6.15-2.53,1.41-4.32,4-6.21,6.09s-3.61,4.15-5.37,6.26c-2.2,2.63-2.58,6.4,0,9C914.77,1503.73,919.41,1504.24,921.54,1501.53Z"/><path class="cls-1" d="M272.23,1374.53c1.06,1.92,1.95,4.11,4.09,5.06,3,1.32,6.94.47,7.81-3.18a7.12,7.12,0,0,0-.47-4.87c-.39-.88-.79-1.76-1.19-2.63-.74-1.66-1.53-3.29-2.31-4.92-1.36-2.83-5.62-3.79-8.17-2.15a6.11,6.11,0,0,0-2.15,8.17C270.63,1371.52,271.41,1373,272.23,1374.53Z"/><path class="cls-1" d="M153.63,1406.08c4.27.84,8.75-3.66,6-7.86-1.25-1.92-3.45-3.46-4.66-5.08a13.38,13.38,0,0,1-2.5-5.67c-1.67-7.32-13-4.22-11.28,3.11C142.62,1396.4,147.17,1404.81,153.63,1406.08Z"/><path class="cls-1" d="M1093.8,1740.82c-1.6-5.38-6.4-8.88-10.63-12.28a121.32,121.32,0,0,0-13.47-9.48c-6.36-3.82-13.58-7.57-21-9.32a63.07,63.07,0,0,0,1-8.64,127.4,127.4,0,0,0,.65-17.47c-.46-11-2.76-23-9.37-32.08a45.45,45.45,0,0,0-22.44-16.65,27.61,27.61,0,0,0-15.37-.87c-8.94-2.32-20.48,3.26-26.73,9.8a55.13,55.13,0,0,0-10.31,16.23c-2.83,6.51-5.7,13.62-6.23,20.73-.49,6.57,9.54,9.19,12.47,3.38,4.47-8.88,5.75-18.72,11.65-27a24.23,24.23,0,0,1,9.39-8.21l.74-.33a5.45,5.45,0,0,0,3.61-.56c.17-.09.35-.16.52-.23,1.42.23,2.29,1.33,2,3.89-.53,4.86-3.47,9.54-5.86,13.67a102.07,102.07,0,0,1-9.23,13.52,104.12,104.12,0,0,1-14.42,14.44c-5.91,1.44-11,4.68-14,10.82s3.35,14,9.85,9.85a123.55,123.55,0,0,0,10.2-7.32c6-.85,13.67,1.17,18,2.27,10.76,2.74,19.87,8.53,24.7,18.46-11,6.73-20.8,17.71-23.43,30.31a49.48,49.48,0,0,0-28,67.09c-8.44,9.6-24.84,10.76-35.11,17.8a42,42,0,0,0-15,18.3,39.49,39.49,0,0,0-1.49,4.14c-.26.28-.52.55-.81.81l-.09.08a1.08,1.08,0,0,0-.18.11,12.76,12.76,0,0,1-1.14.64c-.08,0-.66.21-.83.25a11.17,11.17,0,0,0-6.22,3.9,3.74,3.74,0,0,0-.56,2.76c-9.15-15.38-22-28.84-35.8-39.43-9.4-7.22-19.39-13.69-28.41-21.41a89.58,89.58,0,0,1-11.63-11.82c-2.88-3.59-5-7.64-7.28-11.61q5.73-7.39,10.93-15.17A229.67,229.67,0,0,0,855,1735.56a215.05,215.05,0,0,0,15.32-58.4c6.59-.27,14.53-5.4,19.14-8.68,10.28-7.33,19.88-16.45,25.39-28a50.39,50.39,0,0,0,3.68-34.3c-2.18-8.5-8.86-21.58-18.53-23.43l-.27-.87c-4-12.45-9.43-27.51-23.27-31.79-7.57-2.34-17.7-.17-22.64,5.83a30.44,30.44,0,0,0-13.7-1.19,49.57,49.57,0,0,0-19,6.07c-11.35,6.38-20.11,17-21,30.21a4.53,4.53,0,0,0,.09,1.18H773.8c-1.46-3-3.82-5.82-5.58-8.39q-5.16-7.55-10.76-14.78a296.57,296.57,0,0,0-23.75-27.44l-.56-.55a5.58,5.58,0,0,0,4-2.14c4.4-5.23,6.7-11.42,9-17.82,2-5.77,3.75-11.95,3.17-18.12a21.25,21.25,0,0,0-5.06-12.13c2.64-5,5.06-10.17,7.4-15.35,9.08-1.29,22-6.51,25.5-15.66,1.83-4.78-3.43-8.27-7.54-7.54-3.79.68-7.12,3.55-10.37,5.69.16-.39.33-.78.5-1.18q2.24-5.24,4.4-10.49a5,5,0,0,0,2.63-.21c3.16-1.18,6.27-2.41,9.37-3.75,3.26-1.42,6.67-2.82,8.43-6.11s.47-8.69-3.79-9.32c-3.65-.54-6.49.46-9.57,2.11a71.63,71.63,0,0,0,4.28-12.26,5,5,0,0,0,1.09-.25c6.62-2.26,15.44-4.55,19.69-10.44,2.57-3.58-.85-9.32-5.16-9-3.75.29-6.88,2.2-10.13,4-2.95,1.63-5.88,3.26-8.9,4.75a5.22,5.22,0,0,0-.66.39,4.51,4.51,0,0,0-1,0l-.92-1.17c-2.26-2.88-4.55-5.74-6.83-8.62-4.53-5.72-14.33,1.81-10.16,7.84,2.09,3,4.15,6.06,6.27,9.06a50.07,50.07,0,0,0,3.2,4.22c-1.25,2.92-2.32,5.93-3.41,8.83-2.27-2.68-4.72-5.24-7.07-7.72-4.64-4.89-12.66,1.39-9.28,7.16,3.07,5.26,6.29,10.79,10.36,15.39-1,2.5-2.06,5-3.1,7.49a26.89,26.89,0,0,0-5-4.45c-2.6-1.83-6.56-.71-8.35,1.67s-1.92,6.29.51,8.49a18.84,18.84,0,0,1,2.25,2.39c.06.11.74,1.12.73,1.1.3.5.58,1,.83,1.55l0,0c0,.13.11.32.21.61s1.26,3,.88,2.11a8.26,8.26,0,0,0,1.26,2.12q-2.41,5.57-4.79,11.15a5.9,5.9,0,0,0-.81.63,26.59,26.59,0,0,0-4.65,6.09c-2.48-1.26-5.06-2.39-7.61-3.46a149.13,149.13,0,0,0-21.11-7.26c8.51-2.53,19.27-6.73,23.24-14.39,2.3-4.45-1.48-8.89-6.18-8-4.49.82-8.47,4-12.37,6.23-.83.47-1.67.92-2.51,1.38.09-.27.17-.55.27-.82q2.14-6.33,4.4-12.64c7.3-1.17,15.79-3.68,20.39-9.16,3.64-4.33.15-10.15-5.35-9.2-3.4.59-6.7,2.51-9.81,4.1a47,47,0,0,0,2.12-8.54,2.48,2.48,0,0,0,.17-.32,38.2,38.2,0,0,1,6.6-2.47,69.49,69.49,0,0,0,8.08-2.8c2.21-.94,3.13-4.11,2.54-6.25a5.68,5.68,0,0,0-5.33-4.06c-5.14-.25-9.75,1.73-14,4.45a106.29,106.29,0,0,0-6.41-9.69,5.51,5.51,0,0,0-6.8-2.23c-2.27,1-4.14,3.86-3.15,6.42,2,5.18,3.79,11.18,7.33,15.62a54.12,54.12,0,0,0-3.73,7.51c-.58-.78-1.15-1.55-1.66-2.31-2.17-3.24-4.21-6.56-6.17-9.93-3.71-6.39-13.06-.76-9.83,5.75,1.84,3.69,3.78,7.33,5.85,10.9,1.87,3.2,3.66,6.84,6.69,9-1.39,3.82-2.74,7.65-4,11.52-.12.33-.22.67-.33,1-2.39-3.89-5.09-7.38-6.35-9.21-3.11-4.51-11.64-1.89-9.49,4a142.32,142.32,0,0,0,6,14.57c1.17,2.36,2.66,5.27,4.78,6.9l0,.15c-.75-.06-1.51-.1-2.26-.13-7-.27-15.35,2.84-19.29,8.59-10.69-16.07-24-30.41-34.8-46.58-8-12-12.56-25.09-18.2-38.28-5.55-13-13.88-24.93-27.08-31-25.81-11.8-56.48-2.54-78.56,13.08a119.11,119.11,0,0,0-31.75,33.43c-7.71,12.18-15.54,28.12-14.82,42.86a5,5,0,0,0,.42,1.76,75,75,0,0,1-5.73,8.44,157.47,157.47,0,0,1-14.55,15.35c-2.44,2.27-4.92,4.49-7.42,6.69-5.41-9.3-11.7-18.2-17.18-27.43q-9.89-16.66-18.87-33.83a730.82,730.82,0,0,1-32.25-70.35c-2.06-5.19-10.12-7.81-13.14-1.72-29.63,59.67-31.47,131.48-5.92,192.94-11.63,2-22.88,8-27.84,19.18a5.53,5.53,0,0,0-.47,2.27,14.64,14.64,0,0,0-4.62,2.79,23.41,23.41,0,0,0-15.76-9.63,20.85,20.85,0,0,0-21.25,10.5,25.09,25.09,0,0,0-8-6.9c-11-6-25.93-1.5-30.44,9.68a55.87,55.87,0,0,0-8.43,25.61,6,6,0,0,0-2.47,2.65C203,1653.87,207.94,1719,243,1768.47c1,1.34,1.93,2.71,2.94,4.07a5.88,5.88,0,0,0-1.95,2.56c-10.9,27.78-37.53,42.72-59.54,60.71a240.51,240.51,0,0,0-48.56,53.33,59.81,59.81,0,0,0-5-12.76,52.59,52.59,0,0,0-18.15-19.8c-5.47-3.48-19.46-5.77-20-13.56-.36-5.1,2.86-10.45,4.68-15a37,37,0,0,0,2.82-13.41c0-10.71-6.78-18.15-17.26-19.71-3.52-.53-7.33-.35-9.71-3.38-2.23-2.84-3.48-6.55-4.93-9.81-3.14-7.06-7.61-13.59-15.76-15a60.57,60.57,0,0,0-6.29-.73,13.47,13.47,0,0,0,.19-4.2c-.41-5.56-3.64-10.07-8-13.34-4.14-3.12-8.91-4.91-13.77-6.55-3.5-1.18-9.44-2.85-10.82-6.79a7.49,7.49,0,0,0-3-3.94c2.06-12.44,8.84-24.44,21.17-29.14,12.5-4.77,26.78-.58,35.59,9.17,3.9,4.31,11.14,1.91,12.64-3.34,2.47-8.63,4.94-17.27,7.31-25.93,2.18-7.9,4.65-15.86,5.06-24.11.7-14.06-8.29-31-24.16-31a20.7,20.7,0,0,0-9.1,2.07,5.62,5.62,0,0,0-2.59-.6c-13.56-.07-26.65,6.3-36.86,14.91A69.29,69.29,0,0,0,7,1658c-3.42,5.18-7.78,12.79-7,19.22.54,4.56,6.4,8.52,10.14,4.2s5.47-10.19,8.45-15A56.06,56.06,0,0,1,29,1654.23a58.8,58.8,0,0,1,17.26-10.42,35.78,35.78,0,0,0-2,6.77c-2.31,11.8.32,25,6.26,35.74a45.72,45.72,0,0,0-24.39,3.26C9.15,1697-2.93,1715.81,0,1734.44a6.15,6.15,0,0,0,.46,1.5,8.64,8.64,0,0,0,0,2.88c1.61,10.19,11.55,14.67,20.4,17.29,3.37,1,7.35,1.89,10,4.45,3,2.93.39,8,1.79,11.8,1.72,4.7,5.89,7.24,10.69,7.89,3.1.42,7-.53,9.29,2,4.22,4.78,5.11,12,8.83,17.25a20.69,20.69,0,0,0,9.39,7.55,31.1,31.1,0,0,0,7.25,1.64c1.93.26,5.36.26,6.74,1.84,4.58,5.23-3.62,17.8-5.21,22.72-3.41,10.51-1.16,21,8.19,27.44,7.07,4.88,15.73,6.33,22.22,12.26a43.3,43.3,0,0,1,13.13,23.68,40.28,40.28,0,0,1,.42,12.73c-.1.82-.23,1.62-.38,2.41-.23.47-.47.94-.69,1.41a8.08,8.08,0,0,0-.61,5.21,18.63,18.63,0,0,0,0,5.58c.52,3.17,4.69,4.36,7.17,2.91a12.87,12.87,0,0,0,3.31-2.83,7.66,7.66,0,0,0,3.3-3.17c8.72-14.84,17.62-29.4,28.71-42.63a251.64,251.64,0,0,1,35.75-34.77c20.84-16.64,47.5-33.1,54.39-60.25a89.15,89.15,0,0,0,15.82,14.63,5.2,5.2,0,0,0,1.19,1.46c.06,11.82.17,23.61.4,35.41-3.39,1.88-6.67,3.94-9.78,5.75-7.27,4.24-14.38,8.78-21.32,13.55-13.58,9.33-26.47,19.82-39.26,30.19-10.64,8.63-21.78,19.19-23.09,33.65-1.08,11.92,5.17,24.21,17.5,26.81,6.19,1.31,8.24-7,2.57-9.29-8.59-3.44-8.88-16.45-5.38-23.37,5.65-11.17,17.88-19,27.51-26.38,11-8.47,22.5-16.27,34.14-23.75,5.74-3.68,11.58-7.21,17.53-10.52q.18,5.49.4,11c.41,9.83.84,19.65,2.23,29.4.72,5.12,1.51,11.14,3.54,16.4l-.09.11a57.6,57.6,0,0,0-4.65,10c-1.19,3.33-3,7.16-2.51,10.73.57,4.66,6,8,9.87,4.09,2.76-2.84,3.83-7,5-10.71.39-1.24.7-2.46,1-3.67,2.87.8,6.8-.92,7.22-4,1.2-8.9-3.53-18.06-4.81-26.9-1.36-9.36-1.63-18.88-2.12-28.32q-.4-7.79-.93-15.56a45.72,45.72,0,0,0,4.83-3.3c5.46-4.31-.23-11.85-5.9-11.22-.74-9.47-1.56-18.94-2.39-28.42,8.34.38,16.69.86,25,1.25-1.13,7.65,5.26,16.66,12.44,19.67,7,2.94,14.78,2.63,22.22,2.46,7.23-.16,16.2,1,23.05-1.72,8-3.12,10.33-11.06,10.87-19.54H378q51.5.09,103,.23,103,.29,206,.14h51.41l0,9.22a6.87,6.87,0,0,0,5,6.52,121.5,121.5,0,0,0,21.9,2.93c6.62.24,13.4-.06,18.15-5.29,3.27-3.62,4.25-8.41,4.74-13.15q3.17-.08,6.33-.23a7.61,7.61,0,0,0,7.56,5.87c-1,11.22-1.2,22.59-2.06,33.78-.58,7.51-1.33,15-2.12,22.48-.82,7.75-2.38,15.57-2.52,23.36a6.51,6.51,0,0,0,3.28,5.94,60.67,60.67,0,0,1,.34,6.89c0,4.32-.69,8.55.07,12.83,1.17,6.57,9.66,4.8,11.64,0,3-7.25,1.2-17.35-.79-25.42,1.73-7,2.22-14.49,3-21.64.64-6.09,1.12-12.19,1.5-18.3,12.79,14.27,28.22,26.22,41.89,39.6,6.75,6.61,13.46,14,16.94,22.94a36.7,36.7,0,0,1,2.63,13.11c0,5.09-1.69,9.43-2.86,14.3-1.48,6.18,6.34,11.38,11,6.42,7.9-8.38,8-21.79,5.38-32.35-2.77-11.3-9.47-21.08-17.24-29.55-8.09-8.81-17.44-16.51-26.35-24.47-9.77-8.75-19.6-17.67-30.68-24.75.45-11.06.5-22.29-1.21-33.13.3-.34.6-.68.89-1,3,7.11,8.15,13.52,13.31,18.84,8.45,8.71,18.46,15.71,28.1,23,10,7.62,19.47,16,27.17,26,8.26,10.75,13.8,22.74,19,35.18a8.41,8.41,0,0,0,6.78,5.27c2.29,9.21,7.12,21.36,15.78,21.37,2.92,0,4.66-2.3,5-5,.54-4.63-3.84-8.51-6.16-12.19a41,41,0,0,1-5.34-13.36,5.24,5.24,0,0,0-1.55-2.82,100,100,0,0,0-8.33-19.8,8.92,8.92,0,0,0,6.5,1.8,14.71,14.71,0,0,0,2.33,6.51,4.53,4.53,0,0,0,8.17-1.07c1.23-3.65.71-7.6,1.66-11.34a39,39,0,0,1,3.67-9.49c3.66-6.55,9.31-10.69,16.09-13.65,8-3.52,16.54-5.93,23.71-10.41a18.74,18.74,0,0,0,.92,2.56c2.55,5.77,9.85,11.37,16.22,8.11,2.51-1.3,3.66-5.26,2-7.62-1.81-2.58-4.7-3.56-6.22-6.07-.89-1.48-1.95-4.3-1.18-6a5.64,5.64,0,0,0-.1-5.36,7.1,7.1,0,0,0-.85-2.77,35.94,35.94,0,0,1,22.5-52.63,6.82,6.82,0,0,0,4.87-5.47c5,5.56,11.23,10.48,18,10.79,5.12.23,6.7-6,3.87-9.34s-7.22-5.15-10.62-7.64a48.11,48.11,0,0,1-7-6.39c3.88-5.45,9.82-9.72,15-14.09.08.05.15.11.23.15,3,1.49,6.12,3.32,9.37,4a4.82,4.82,0,0,0,5.3-2.15,4.74,4.74,0,0,0-.73-5.69,41.42,41.42,0,0,0-8.7-5.16l-.26-.11a6.08,6.08,0,0,0-.49-1.07,42.1,42.1,0,0,0,2.86-3.5c1.15-1.46,2.46-2.74,3.68-4.14,7.32,4.48,15.52,7.51,22.87,12.06a95,95,0,0,1,11,7.85c4,3.33,7.38,7.7,12.45,9.32C1090.47,1750.46,1095.19,1745.52,1093.8,1740.82ZM67.32,1685.27c-5.49-8.5-10.06-18.7-8.79-29.11.62-5,4-14.93,10.73-13.53,10.19,2.09,8,17.19,6.34,24.13-2.1,8.69-4.49,17.33-6.83,26l-1.17-.67A7.06,7.06,0,0,0,67.32,1685.27Zm-22,80.76c-.07,0-.12,0-.14.09S45.31,1766,45.35,1766Zm807.76-80.57q-.84,4.68-1.89,9.3a4,4,0,0,0-1-.34c-16.65-3.68-33.88-3.92-50.88-3.83-17.2.1-34.4,0-51.6-.21-34.07-.41-68.14-.28-102.22-.26-9.59,0-19.18.26-28.77.46-9.09.2-19.58-.91-28.33,2A53,53,0,0,0,563.91,1674a54.48,54.48,0,0,0-11.69-2.85q83.61,0,167.22-.07c22.59-.06,45.19-.08,67.78-.22s45.42.19,68-1.38Q854.51,1677.49,853.11,1685.46Zm-317.77-11.68c-9.8-2.31-22.52,2.64-30.72,7.35-5.85,3.37-13.94,9.24-17.89,16.13-7.79-1.19-15.9-1-23.73-1H387l-102,0c-9.33,0-18.67,0-28,0-5,0-10,.11-15,.16-4.29,0-8.85-.34-13,.75a154.82,154.82,0,0,1-2-29.17,5.71,5.71,0,0,0,2,.38c10.34.18,20.57,1.19,30.9,1.35s20.61,0,30.9,0c20.27.05,40.54.44,60.81.77,40.87.66,81.74.44,122.61.44q33.93,0,67.85,0A15,15,0,0,0,535.34,1673.78Zm368-43c-3,8.18-8.76,15.13-15.17,20.89a90.7,90.7,0,0,1-10.3,7.9c-1.92,1.28-3.83,2.67-5.84,3.82-.24.14-.49.26-.74.38.21-4.48.28-9,.18-13.46a.49.49,0,0,1,0-.12c13.43,1,24.51-9.56,29.7-21.45a45.76,45.76,0,0,0,3.65-16.91A35,35,0,0,1,903.38,1630.79Zm-75.19-57.74c8-4.2,16.17-3.84,24.71-3.22,2.44,1.67,6.5.78,8.29-1.73,3.45-4.81,9.29-6.33,14.08-2.18,7,6,9.4,17.73,11.66,26.21,2.56,9.57,4.45,20.63.28,30-3.36,7.6-9.15,11.39-16.63,13.81q-.55-5.31-1.41-10.6c-1-6.11-1.47-16.37-5.92-21.86a6.91,6.91,0,0,0-6.25-9.47c-10-.56-19.88-1.49-29.9-1.65-5.66-.1-11.32-.15-17-.18C814.33,1584.28,820.12,1577.28,828.19,1573.05Zm-80.57,10.37c2.1,2.89,4.13,5.82,6.14,8.78H681.94c1.9-6,2.35-12.39,3.13-18.67,1-8.1,1.75-16.23,1.95-24.39,0-.7,0-1.4,0-2.11a5.27,5.27,0,0,0,3.44-.79c3.08-1.87,5.5-4.1,9.17-4.84a16.2,16.2,0,0,1,9.43,1c8.31,3.41,14.58,11.51,20.31,18.09C735.83,1567.85,741.87,1575.52,747.62,1583.42Zm-22-88.55c-.14.26-.27.52-.4.78a6.45,6.45,0,0,0-.78,3.37,9.17,9.17,0,0,1-1.46.39c-5.24.89-12.1-.33-17.2-1.55a35.81,35.81,0,0,1-11.78-5.11,42.51,42.51,0,0,0,3.36-8.23,133.51,133.51,0,0,1,23.56,8.17C722.5,1493.41,724.1,1494.11,725.65,1494.87Zm-40.77-11.82c-.22-.37-.42-.75-.62-1.13l.85,0C685,1482.32,685,1482.69,684.88,1483.05Zm-9.52,5.45c2.8,8.87,10.21,15.82,18.79,19.73A63.72,63.72,0,0,0,714,1513.3c6.44.69,13.77,1.36,18.76-3.54a6.77,6.77,0,0,0,1.67-2.83c0,.16,0,.31,0,.48-1.12,8.82-6.67,16.43-8.38,25a6.52,6.52,0,0,0,0,2.33c-5.9-4.47-12.57-7.78-20.13-8.43-6.2-.53-14.3,1.22-19.29,5.73a109.12,109.12,0,0,0-6.8-31,107.75,107.75,0,0,0-5.06-11A4.36,4.36,0,0,0,675.36,1488.5Zm-217.51-7.32c8.84-9.18,18.88-21.16,19.91-34.42a4.35,4.35,0,0,0-1.42-3.81c2.88-7.65,5.63-15.29,9.93-22.49a107.07,107.07,0,0,1,24.14-27.77c17.58-14.45,43.76-25.65,66.5-18,11.89,4,18.3,14.35,23.09,25.29,5.3,12.11,9.6,24.31,16.76,35.52,13.93,21.83,33.52,39.78,45.6,62.82,7.63,14.56,10.32,30.88,10.21,47.19a220.55,220.55,0,0,1-1.84,25.28c-.89,7.19-2.58,14.22-2.25,21.38H644.8c1.48-5,1.37-10.41,1.16-15.73a138.26,138.26,0,0,0-10.25-47A142.94,142.94,0,0,0,610,1488.3c-5.3-5.92-11.37-10.78-17.24-16.09-6.45-5.84-7.25-13.77-10.64-21.39-6-13.5-19.13-26.18-34.94-24.41-14.7,1.65-23.2,14-29.35,26.2-3.11,6.18-5.89,12.56-9.71,18.35-4.61,7-10.65,13-16.92,18.52-12.44,11-26.35,20.28-37.9,32.26-11.91,12.34-21.32,27.66-21.73,45.23-.21,8.87,1.79,17.89,6.27,25.27H425.42c0-.1-.06-.2-.1-.3a53.91,53.91,0,0,1-3.35-29c1.78-10,6.87-18.27,11.8-27,2.26-4-2.53-9.66-6.68-6.68-18.75,13.48-21.5,42.5-13,63H399.94a5.37,5.37,0,0,0,2.37-3.32c.92-4.18-.88-6.79-2.09-10.61a32.94,32.94,0,0,1-1.46-10.53c.07-7.64,2-15.22,4.6-22.37,5.13-14.31,14.23-26.19,25-36.66C438.06,1499.4,448.52,1490.87,457.85,1481.18ZM504.69,1497c5.11,5.49,9.41,11.41,11.48,18.81s2.57,16.89-2.19,23.3-13.18,3.63-17.89-1.26c-6.63-6.89-6.84-17-10.07-25.48C492.39,1507.42,498.76,1502.46,504.69,1497Zm-28.56,23.23c.75,10.62,5.08,22,12.92,28.67,9.26,7.91,23.13,10.29,32.7,1.48,17.58-16.2,9.24-48.81-7.86-62.73a86.2,86.2,0,0,0,7.53-9.92c6.15-9.51,9.4-21,16.62-29.84,7.46-9.1,17.76-7.78,24.94,1.08,4.06,5,5.82,10.77,7.69,16.8A39.42,39.42,0,0,0,582,1484.12c.59.52,1.17,1.05,1.75,1.58-10.38,9.22-17,22.93-22.15,35.6-4.6,11.27-6.57,27,7.8,31.91,11.39,3.93,23.4-2.52,31.49-10.29A73.12,73.12,0,0,0,612,1528.79c1-1.6,2-3.23,3-4.91a127.52,127.52,0,0,1,7.14,16.25,6.56,6.56,0,0,0-1.52.29c-7.17,2.28-12.21,9.59-18.55,13.61a87,87,0,0,1-19.16,9c-14.37,4.82-29.37,7.28-44.38,9-16.4,1.9-34.32,4.74-49.09-4.55-13.25-8.34-19.31-21.76-27.43-34.4A159,159,0,0,1,476.13,1520.26Zm130.14-10.57c-1.94,2.63-3.29,5.76-4.9,8.56a76.92,76.92,0,0,1-6.76,10.19c-4.31,5.31-11.75,12.58-19.33,11.66-11.92-1.43,11.55-39.27,16-47.38A130.43,130.43,0,0,1,606.27,1509.69ZM572,1582.09c-.6,3.38-1.4,6.71-.86,10.13H542.43a27.66,27.66,0,0,0,.26-5.62c3.72-.47,7.41-1,11-1.46C559.87,1584.33,566,1583.37,572,1582.09Zm-117.18-40.55a70.86,70.86,0,0,0,10,19.2l-.06.06c-6.45,7.63-13.11,19.12-12.77,29.75-4.82-6.25-7.1-14.52-7-22.26C445.12,1558.4,449.14,1549.38,454.86,1541.54Zm12.16,40a74.88,74.88,0,0,1,5.59-11.41l.14.15A56.17,56.17,0,0,0,491,1583.23a41,41,0,0,0-3.25,9h-24.1C465,1588.75,465.72,1585.05,467,1581.58Zm35.76,5.39a64.46,64.46,0,0,0,7.28,1.07,126.53,126.53,0,0,0,21.22-.21,25.76,25.76,0,0,0,.29,4.4H501.05C501.55,1590.46,502.13,1588.7,502.78,1587Zm68.67,22.81c-2.27,4.39-4.66,8.32-8.91,11.3a24,24,0,0,1-15.69,4.5,24.9,24.9,0,0,1-14.14-6.23c-3.18-2.83-4.83-6.15-6.52-9.58Zm10.93-17.56c2.06-3.66,2.19-8.57,1.53-13.15q4.74-1.42,9.36-3.26c1.9-.77,3.79-1.57,5.65-2.42l3,8.36a93.15,93.15,0,0,0,4,10.47Zm35.77,0c-.86-8.25-5.14-16.63-8.64-24.44,1.16-.72,2.31-1.46,3.43-2.25,4.23-3,10-6.86,13.26-11.68.06.29.14.58.2.87a115.54,115.54,0,0,1,2.87,21.76c.12,3.08.46,6.54,0,9.6-.22,1.42-1.12,2.71-1.39,4a1.7,1.7,0,0,0,0,.22,5.79,5.79,0,0,0-5.17,1.88Zm9.42-.94Zm-278,1c-1.16-8.21-4.34-16.26-9.41-22a20.91,20.91,0,0,0-8.05-5.66,34.13,34.13,0,0,1,21.29-7.9h.16c6.1,12.6,13.54,24.79,23.41,34.53a4.5,4.5,0,0,0,1.42,1h-3.83Q362.08,1592.25,349.58,1592.33Zm-70.18,16.53q9.36.2,18.73.39a31.69,31.69,0,0,1-5,8c-4.11,4.57-10.83,4.84-13.21-1.5a6.43,6.43,0,0,0-2.12-2.76C278.35,1611.59,278.89,1610.22,279.4,1608.86Zm38-16.32c0-.15.05-.31.07-.47a71.29,71.29,0,0,0,1-10.7,6.88,6.88,0,0,0,2-.6c1.9-.89,3.37-2.69,5.69-2.48,2.95.28,4.89,3.35,6.06,5.71a37.43,37.43,0,0,1,3,8.42Zm16.73,17.07c-1.75,3.74-4.71,6.93-8.76,8.08-5.26,1.48-11.31-2.65-11.39-8.2Q324,1609.59,334.09,1609.61Zm49.72-23.6c-4.75-9.06-9.95-17.84-14.74-26.84,5.09,1.42,10.09,3.14,15.23,4.27a54.57,54.57,0,0,0,0,9.13c.58,6.44,2.2,16.32,8.44,19.68H381.44A4.45,4.45,0,0,0,383.81,1586Zm-35.47-178.88a220.78,220.78,0,0,1,10.82-35.36q12,28.92,26.42,56.8,9.12,17.61,19.16,34.72c5.9,10,11.72,20.54,18.71,30-4.32,3.93-8.55,8-12.49,12.3a105.06,105.06,0,0,0-23.82,42.54l-.15.54a78.08,78.08,0,0,0-15.07-4.63,79.53,79.53,0,0,0-11-1.7,227.52,227.52,0,0,1-12.62-135.16Zm-62.49,175.35c-.49-6.42,4.75-13.69,11.83-11.66,9.35,2.67,7,13.89,5.54,21.1l-.15.75q-9.82.12-19.64.36a43.17,43.17,0,0,0,.21-6.13A4.58,4.58,0,0,0,285.85,1582.48Zm-28-9.62c4.45-.67,8,2.85,9.86,6.51,2.2,4.27,2.53,9.09,1.8,14-8.6.1-17.23,0-25.73,1.17a75.12,75.12,0,0,1,2-10.72,6.16,6.16,0,0,0,5.48-4.87A7.79,7.79,0,0,1,257.9,1572.86Zm6.49,35.7c-.89,1.81-1.82,3.53-2.73,5.11-2.1,3.68-6.73,9.89-11.83,7.83-4.26-1.71-5.25-8.9-5.81-12.75-.06-.41-.1-.83-.15-1.25A182.18,182.18,0,0,0,264.39,1608.56Zm-29.73,15c4.44,8.69,12.52,14.62,23.7,10.71a26.69,26.69,0,0,0,11.05-7.74c4.55,7.85,17.68,11.13,26.26,6.72a30.13,30.13,0,0,0,10.72-9.61,20.83,20.83,0,0,0,16.73,8.09c12.47-.06,22.72-10.46,25.7-22v0c3.59,0,7.19,0,10.78,0,40.21.21,80.41.07,120.61.07h33c.45,7,4.78,13.69,9.48,18.58a37.69,37.69,0,0,0,22.73,11.39c16.42,1.84,36.25-9.45,40-26.34a6.88,6.88,0,0,0-.15-3.62l136.17,0h66.78c11.3,0,22.6,0,33.89-.14,9.88-.16,19.64-.82,29.46-1.41-.43,5.13,1.44,11.26,2.06,15.49,1,7,1.71,14,2,21q.27,5.93.17,11.86c-20.15-1.43-40.46-1.09-60.64-1.33s-40.54-.16-60.81-.25c-40.87-.16-81.74-.07-122.61-.08-81.71,0-163.52-1.16-245.22.17-22.59.37-45.19.86-67.78,1-11.63.06-23.26.05-34.89.06s-23.23,1.18-34.89,1.38a6.07,6.07,0,0,0-1.39.18A156.49,156.49,0,0,1,234.66,1623.53ZM361.74,1782v.15l.06,4.78q-13.91,0-27.8.18-4.81.06-9.62.21c1.83-5.65,24-4.66,27.38-4.83,3.18-.16,6.36-.34,9.54-.49Zm-3.91,27.76c-6.18.7-12.56.59-18.79.9-6.75.33-19.25.22-19.19-8,2.38.07,4.77.12,7.15.15,11.61.15,23.22.21,34.82.24C361.79,1806.72,361.87,1809.29,357.83,1809.75ZM597,1786.52c-68.67,0-137.33.27-206,.38H376.32c0-1-.05-1.91-.05-2.79,0-7.39-.92-15.2-9.68-16.6-7.47-1.19-15.88.28-23.42.58-8.26.32-17.7-.18-24.94,4.49-5.14,3.33-8.81,9.2-8.74,15.27-10.11.44-20.22,1-30.34,1.36-4.49-5-9.36-9.65-13.75-14.76a166.26,166.26,0,0,1-14.14-19.13,158.46,158.46,0,0,1-9.42-17.07c9.54,1.47,19.57,1,29.16,1l32,.18c21.33.12,42.67,0,64,0l64,0h32c8.6,0,18,1,26.7,0,4.38,8.3,12.57,14.6,21,18.29,9.17,4,24.73,7.6,33.64,1.21.2-.14.36-.3.54-.45l.28,0c15.71-.59,30.71-10.16,41.71-21.7,8.9,2.32,18.78,1.62,27.89,1.86,9.91.26,19.83.32,29.75.41,20.16.19,40.32.47,60.49.5l59.5.07c20,0,40.66.39,60.49-2.21,8.34-1.09,8.36-11.91,0-13-19.5-2.56-39.86-2.23-59.5-2.21l-60.49.07c-19.84,0-39.67.3-59.5.49-9.92.09-19.84.14-29.75.4-6.94.18-14.36-.19-21.47.57a6.58,6.58,0,0,0-1.78-3.22c-2.36-2.42-7.47-2.93-9.76,0a78.22,78.22,0,0,1-18.09,17.07c-6.31,4.18-13.33,7.25-20,10.73a6.83,6.83,0,0,0-3.46-1.17c-4.44-.3-8.8,1.16-13.3.93a36.31,36.31,0,0,1-11.76-2.66c-7.57-3.07-12.7-8.59-17.66-14.7a5.21,5.21,0,0,0-3.87-3.53c-10-2.15-21.35-.8-31.58-.79H431l-64,0c-21.33,0-42.67-.08-64,0l-32,.18c-10.33,0-21.16-.53-31.35,1.38a4.18,4.18,0,0,0-1.86.88,155.67,155.67,0,0,1-5.9-18c-.15-.57-.29-1.15-.43-1.72,6.86,1.23,14.91.22,21.54.29,8.33.09,16.67.05,25,.05l51,0,102,0h28c9.06,0,18.48.41,27.5-1a5.06,5.06,0,0,0,4.73.13c3.77-1.89,6.38-5.88,9.52-8.64a52.19,52.19,0,0,1,10.77-7.32,46.84,46.84,0,0,1,11.51-4c4.57-1,9.29-.45,13.81-1.53a6.13,6.13,0,0,0,4.09-3c2,.1,4.09,0,5.86.14a42.81,42.81,0,0,1,11.93,2.93,37,37,0,0,1,18.14,15.12c2.55,4.17,7.15,4.32,10.46,2.41h0c7.87,3,17.16,2.15,25.47,2.33,8.6.19,17.2.46,25.8.54,17.19.18,34.4.05,51.6,0,34.07-.07,68.15-.71,102.22-.52,18.86.1,38,.38,56.5-3.51a211.84,211.84,0,0,1-25,56.71,191.51,191.51,0,0,1-13.18,18.55c-2.17,2.69-4.81,5.32-7.37,8l-.36-.05c-4.47-.36-9-.57-13.47-.68.25-3.29.5-6.58.77-9.87.33-4.1-3.63-7.12-7.32-7.32-11.36-.62-22.7-1.42-34.06-1.85h-.11a5.4,5.4,0,0,0-9,2.21c-1.55,5.41-1.48,11.28-1.39,17H700Zm154.66,0c0-1.21,0-2.43,0-3.66,7.86.33,15.72.53,23.58.73l-.15,2.69C767.26,1786.4,759.42,1786.58,751.66,1786.57Zm11.76,21.67a97.13,97.13,0,0,1-11.57-1.2l0-3.56c7.45.08,15,.25,22.45.29a10.89,10.89,0,0,1-.84,2.73C772,1809.56,766.31,1808.36,763.42,1808.24ZM997.67,1695c-2.11-.55-4.39-1.07-6.76-1.5a126.51,126.51,0,0,0,9.15-11c6.46-8.79,15.8-22.23,14.36-34.23.6.21,1.19.44,1.74.68a30.9,30.9,0,0,1,14.77,14c4.13,7.92,5,17.23,4.8,26-.07,4.68-.47,9.34-1,14a52.81,52.81,0,0,0-.53,5.94,30.32,30.32,0,0,0-6.6,5.39l-.27.28C1021.38,1704.33,1008.8,1697.84,997.67,1695Z"/><path class="cls-1" d="M569.85,1846.15c-3.9-2.92-7.87-5.75-11.83-8.61-3.66-2.63-7.1-5.52-11.23-7.27a4.38,4.38,0,0,0-5.25-1.72c-9.1,3.78-17,11.64-24.93,17.45-4.06,3-8.14,6-12.27,8.83s-9.5,5.44-12.66,9.37c-1.63,2-2.43,4.81-.93,7.21,2.95,4.7,7.29,8.15,11.46,11.73l13.59,11.67q6.42,5.51,12.9,10.94c3.7,3.12,7.22,6.8,11.49,9,2,2.08,5.87,2.87,8.45.74,8.46-7,15.88-14.86,23.61-22.6,3.74-3.74,7.51-7.42,11.17-11.24,3.24-3.37,6.42-6.17,7.65-10.41,1.83-1.6,2.75-4.28,1.12-6.39C586.26,1857.21,577.57,1851.94,569.85,1846.15Zm3.36,25.34c-3.89,4.06-7.62,8.25-11.43,12.37-5.18,5.6-10.37,11.1-15.28,16.87-2.48-2.29-5.35-4.29-7.83-6.35q-6.88-5.75-13.83-11.42c-5.55-4.53-11.18-10-17.28-14.47,1.13-.83,2.24-1.66,3.34-2.43q6.58-4.59,13-9.41c5.47-4.12,12-8.37,17.26-13.38,5.77,5.51,13.53,9.74,19.9,14,5.08,3.44,10.18,7.39,15.59,10.6C575.54,1869,574.42,1870.23,573.21,1871.49Z"/><path class="cls-1" d="M551.55,1862.83a8.74,8.74,0,0,0-6.49-3,8.85,8.85,0,0,0-8.62,8.62,8.64,8.64,0,0,0,8.62,8.62l2.29-.31a6.47,6.47,0,0,0,2.94-1.54,6.31,6.31,0,0,0,1.48-1.34,6,6,0,0,0,.71-.87,3.71,3.71,0,0,0,1-1.66,5.59,5.59,0,0,0,.65-2.9,9,9,0,0,0-1-3.8A6.21,6.21,0,0,0,551.55,1862.83Z"/></svg>