<svg id="Warstwa_1" data-name="Warstwa 1" xmlns="http://www.w3.org/2000/svg" viewBox="0 0 32 32"><title>Obszar roboczy 6</title><path d="M15.34,29.69a4.14,4.14,0,0,1-2.2-.65,1,1,0,0,1-.25-.73L12,28.19A8.9,8.9,0,0,1,9.2,27.6L9,27.52a8.27,8.27,0,0,1-1.9-1.08c-1-.84-1.44-4-1.44-4.49a1,1,0,0,1,1-1h0a1,1,0,0,1,1,1,9.5,9.5,0,0,0,.76,3,7.19,7.19,0,0,0,1.41.76l.16.08a7.56,7.56,0,0,0,2.14.42c1.55.17,3.49.37,4.16,2.16a1,1,0,0,1-.46,1.23A1.16,1.16,0,0,1,15.34,29.69Z"/><path d="M25.11,25.52a1,1,0,0,1-.86-1.5,5.62,5.62,0,0,0,0-3.42A10.68,10.68,0,0,0,22.65,18l-5.78-7.55a.5.5,0,0,0-.4-.2h-.36a1.24,1.24,0,0,0-1,.48L9.57,18a10.73,10.73,0,0,0-1.63,2.6A5.62,5.62,0,0,0,8,24a1,1,0,0,1-1.73,1,7.39,7.39,0,0,1-.18-5.12A12.41,12.41,0,0,1,8,16.78l5.56-7.26a3.26,3.26,0,0,1,2.57-1.27h.36a2.52,2.52,0,0,1,2,1l5.78,7.55a12.4,12.4,0,0,1,1.92,3.12A7.39,7.39,0,0,1,26,25,1,1,0,0,1,25.11,25.52Z"/><path d="M9.44,13a1,1,0,0,1-.75-1.66L12.45,7A1,1,0,0,1,14,8.28L10.2,12.61A1,1,0,0,1,9.44,13Z"/><path d="M8.65,31.15a2.22,2.22,0,0,1-.48-.05,9.69,9.69,0,0,1-6.06-3.8c-1.4-2.07-1.67-5.67-1.21-8A17.61,17.61,0,0,1,3.7,13,71,71,0,0,1,9.45,5.72l2.67-2.67a5.65,5.65,0,0,1,4-1.67h0a5.65,5.65,0,0,1,4,1.73l2.5,2.57A71.17,71.17,0,0,1,28.53,13a17.61,17.61,0,0,1,2.79,6.27c.46,2.34.19,5.95-1.21,8a9.69,9.69,0,0,1-6.06,3.8,3.68,3.68,0,0,1-2.76-.87c-.39-.26-1-.65-1.2-.57a3.26,3.26,0,0,1-2.38-.29l-.09,0a1,1,0,0,1-.79.39H15.4a1,1,0,0,1-.79-.39l-.09,0a3.25,3.25,0,0,1-2.38.29c-.21-.07-.81.32-1.2.57A4.34,4.34,0,0,1,8.65,31.15Zm7.5-27.77a3.67,3.67,0,0,0-2.61,1.08L10.92,7.08a69.36,69.36,0,0,0-5.55,7,15.7,15.7,0,0,0-2.5,5.55c-.38,1.93-.14,5,.9,6.51a7.72,7.72,0,0,0,4.83,3c.25.06.82-.32,1.24-.59a3.38,3.38,0,0,1,2.93-.79,1.67,1.67,0,0,0,1-.23,2.1,2.1,0,0,1,1.8-.18,1.42,1.42,0,0,1,.47.37h.24c.85-1.2,2.48-1.37,3.82-1.51a7.54,7.54,0,0,0,2.14-.42l.16-.07a6.7,6.7,0,0,0,1.46-.81,4.73,4.73,0,0,0,.61-2,1,1,0,0,1,1-1h0a1,1,0,0,1,1,1c0,.7-.4,2.8-1.34,3.57a8.28,8.28,0,0,1-1.9,1.08L23,27.6a6,6,0,0,1-1.51.43,10.07,10.07,0,0,1,.87.52c.42.27,1,.65,1.24.59a7.72,7.72,0,0,0,4.83-3c1-1.54,1.28-4.58.9-6.51a15.71,15.71,0,0,0-2.5-5.55A69.44,69.44,0,0,0,21.26,7L18.8,4.5a3.67,3.67,0,0,0-2.63-1.12Z"/><path d="M18.78,19.33a5.63,5.63,0,0,1-1.38-.16,1.73,1.73,0,0,1-1-.84,1.2,1.2,0,0,1-.08-1,1,1,0,0,1,1.85-.05,4.49,4.49,0,0,0,3.75-1.14,1,1,0,1,1,1.58,1.23A6.17,6.17,0,0,1,18.78,19.33Z"/><path d="M17.42,18.76a1,1,0,0,1-.76-1.65,21.22,21.22,0,0,1,3.59-3.37,1,1,0,1,1,1.19,1.61,19.22,19.22,0,0,0-3.25,3A1,1,0,0,1,17.42,18.76Z"/><path d="M13.36,19.33a6.17,6.17,0,0,1-4.7-2,1,1,0,0,1,1.58-1.23A4.5,4.5,0,0,0,14,17.28a1,1,0,0,1,1.85.05,1.2,1.2,0,0,1-.08,1,1.72,1.72,0,0,1-1,.84A5.62,5.62,0,0,1,13.36,19.33Z"/><path d="M14.72,18.76a1,1,0,0,1-.76-.35,19.2,19.2,0,0,0-3.25-3,1,1,0,1,1,1.19-1.61,21.25,21.25,0,0,1,3.59,3.37,1,1,0,0,1-.76,1.65Z"/><path d="M22.78,13a1,1,0,0,1-.76-.34L18.27,8.28A1,1,0,1,1,19.78,7l3.76,4.33A1,1,0,0,1,22.78,13Z"/></svg>