<svg id="Warstwa_1" data-name="Warstwa 1" xmlns="http://www.w3.org/2000/svg" viewBox="0 0 32 32"><defs><style>.cls-1{fill:#fff;}</style></defs><title>Obszar roboczy 15</title><path class="cls-1" d="M7,31H3a1,1,0,0,1-1-1V17a1,1,0,0,1,1-1H7a1,1,0,0,1,1,1V30A1,1,0,0,1,7,31ZM4,29H6V18H4Z"/><path class="cls-1" d="M14,31H10a1,1,0,0,1-1-1V19.69a1,1,0,0,1,1-1h4a1,1,0,0,1,1,1V30A1,1,0,0,1,14,31Zm-3-2h2V20.69H11Z"/><path class="cls-1" d="M22,31H17a1,1,0,0,1-1-1V8.46a1,1,0,0,1,1-1h5a1,1,0,0,1,1,1V30A1,1,0,0,1,22,31Zm-4-2h3V9.46H18Z"/><path class="cls-1" d="M29,31H25a1,1,0,0,1-1-1L23.9,3.36a1,1,0,0,1,.92-1L29,2A1,1,0,0,1,30,3l0,27A1,1,0,0,1,29,31Zm-3-2h2L28,4.12l-2.13.17Z"/><path class="cls-1" d="M3,24.92a1,1,0,0,1-.83-1.55L9.44,12.45A1,1,0,0,1,11,12.29l8.91,8.92,8.05-9.84a1,1,0,0,1,1.55,1.27l-8.75,10.7a1,1,0,0,1-.72.37,1,1,0,0,1-.76-.29l-8.83-8.83L3.82,24.48A1,1,0,0,1,3,24.92Z"/></svg>