<svg id="Warstwa_1" data-name="Warstwa 1" xmlns="http://www.w3.org/2000/svg" viewBox="0 0 32 32"><title>Obszar roboczy 1</title><path d="M29.45,30.93H5.61a1,1,0,0,1-.71-.29l-.23-.23a10.66,10.66,0,0,1,0-15.07L14.5,5.51a1,1,0,0,1,1.41,0l2.65,2.65a1,1,0,0,1,.17,1.19l-2.89,5.18a6.45,6.45,0,0,1,1.58-.19,6.38,6.38,0,0,1,4.6,2,8,8,0,0,1,7.45-5.17,1,1,0,0,1,1,1V26h0v3.89A1,1,0,0,1,29.45,30.93ZM6,28.93H28.46V13.23a6,6,0,0,0-4.95,5.85,1,1,0,0,1-2,.3,4.19,4.19,0,0,0-.39-.87,4.35,4.35,0,0,0-7.5,0l-.6,1.71a1,1,0,0,1-1.93-.48,6.4,6.4,0,0,1,.72-2.13,1,1,0,0,1,.07-.15L16.61,9,15.2,7.63,6.09,16.75A8.66,8.66,0,0,0,6,28.93ZM29.47,26h0Z"/><path d="M14.27,24.92a3.18,3.18,0,0,1-2.72-1.36A3.64,3.64,0,0,1,11,21.61a9.08,9.08,0,0,1,.16-1.94,1,1,0,1,1,2,.42A7.07,7.07,0,0,0,13,21.53a1.76,1.76,0,0,0,.22.91,1.19,1.19,0,0,0,1.06.48h0a1,1,0,0,1,0,2Z"/><path d="M23.23,8.85H17.39a1,1,0,0,1-1-1V7.06A6.15,6.15,0,0,1,22.54.92H25a2.72,2.72,0,0,1,2.71,2.71v.75A4.48,4.48,0,0,1,23.23,8.85Zm-4.84-2h4.84a2.48,2.48,0,0,0,2.47-2.47V3.63A.71.71,0,0,0,25,2.92H22.54A4.15,4.15,0,0,0,18.39,6.85Z"/><path d="M23.5,12.32H21.2A2.68,2.68,0,1,1,21.2,7h2.3a2.68,2.68,0,0,1,0,5.35ZM21.2,9a.68.68,0,1,0,0,1.35h2.3a.68.68,0,0,0,.68-.68A.68.68,0,0,0,23.5,9Z"/></svg>