<svg id="Warstwa_1" data-name="Warstwa 1" xmlns="http://www.w3.org/2000/svg" viewBox="0 0 32 32"><title>Obszar roboczy 20</title><path d="M15,12.06a3.79,3.79,0,0,1,0-7.58h0a3.79,3.79,0,0,1,0,7.58Zm0-5.52h0A1.73,1.73,0,0,0,15,10h0a1.73,1.73,0,0,0,0-3.46Z"/><path d="M2.59,15.65a1,1,0,0,1-.73-1.76l1.42-1.43a9.1,9.1,0,0,1,9.38-2.22l4.14,1.38a4.28,4.28,0,0,0,5-1.9l.74-1.27a1,1,0,0,1,1.78,1l-.74,1.27a6.35,6.35,0,0,1-7.46,2.82L12,12.2a7,7,0,0,0-7.27,1.72L3.33,15.35A1,1,0,0,1,2.59,15.65Z"/><path d="M15.63,31.28a1,1,0,0,1-1-1.28L15,28.4c.48-1.93-.52-5-2.36-5.79L10.1,21.48a1,1,0,0,1-.55-1.29l2.88-8a1,1,0,1,1,1.94.7L11.81,20l1.69.75C16.36,22,17.72,26.08,17,28.89l-.08.32h1.59a1,1,0,0,1,0,2.06H15.63Z"/><path d="M2.15,28.79H2a1,1,0,0,1-.89-1.16l.38-2.84A1,1,0,0,1,2.88,24a5,5,0,0,0,6.44-3.1l.21-.65a1,1,0,1,1,2,.65l-.21.65a7,7,0,0,1-7.88,4.72L3.17,27.9A1,1,0,0,1,2.15,28.79Z"/><path d="M27.95,9.26a1,1,0,0,1-.41-.08L20.29,6.07a1,1,0,0,1,.81-1.89l7.25,3.11a1,1,0,0,1-.41,2Z"/><path d="M26.73,7.71a1,1,0,0,1-1-1.36l.71-2.12-1.58-.65-1,2.33a1,1,0,0,1-1.9-.8l1.38-3.27a1,1,0,0,1,1.34-.55L28.13,2.7A1,1,0,0,1,28.71,4l-1,3A1,1,0,0,1,26.73,7.71Z"/><path d="M30,20.14H17.71a1,1,0,0,1,0-2.06h9.77l-2.6-2.6A1,1,0,0,1,26.34,14l4.36,4.36A1,1,0,0,1,30,20.14Z"/><path d="M25.5,24.61a1,1,0,0,1-.73-1.76l4.47-4.47a1,1,0,0,1,1.46,1.46l-4.47,4.47A1,1,0,0,1,25.5,24.61Z"/></svg>