<?xml version="1.0" encoding="utf-8"?>
<!-- Generator: Adobe Illustrator 23.1.0, SVG Export Plug-In . SVG Version: 6.00 Build 0)  -->
<svg version="1.1" id="Warstwa_1" xmlns="http://www.w3.org/2000/svg" xmlns:xlink="http://www.w3.org/1999/xlink" x="0px" y="0px"
	 viewBox="0 0 32 32" style="enable-background:new 0 0 32 32;" xml:space="preserve">
<style type="text/css">
	.st0{fill:#E53935;}
</style>
<title>Obszar roboczy 18</title>
<path class="st0" d="M24.3,30.3H7.9c-0.5,0-0.9-0.4-1-0.9L4.4,10.6c-0.1-0.5,0.3-1.1,0.8-1.2c0.1,0,0.1,0,0.2,0h21c0.6,0,1,0.4,1,1
	c0,0.1,0,0.1,0,0.2l-2.1,18.7C25.2,29.9,24.8,30.3,24.3,30.3z M8.8,28.2h14.5l1.9-16.7H6.6L8.8,28.2z"/>
<path class="st0" d="M5.4,11.5H3.3c-0.6,0-1-0.4-1-1V6.2c0-0.6,0.4-1,1-1h25.1c0.6,0,1,0.4,1,1v4.3c0,0.6-0.4,1-1,1h-2
	c-0.6,0-1-0.5-1-1s0.5-1,1-1h1V7.2h-23v2.3h1c0.6,0,1,0.5,1,1C6.5,11.1,6,11.5,5.4,11.5L5.4,11.5z"/>
<path class="st0" d="M11.8,7c-0.6,0-1-0.2-1-0.8v-3c0-0.6,0.4-1.1,1-1.1c0,0,0,0,0,0h7.7c0.6,0,1.1,0.5,1.1,1.1v0v2.3
	c0,0.6-0.5,1.1-1.1,1.1c-0.6,0-1.1-0.5-1.1-1.1V4.3h-5.5v1.9C12.9,6.8,12.4,7,11.8,7z"/>
<path class="st0" d="M16,27.2c-0.6,0-1-0.4-1-1V11c0-0.6,0.4-1,1-1c0.6,0,1,0.4,1,1v15.1C17,26.7,16.6,27.2,16,27.2
	C16,27.2,16,27.2,16,27.2z"/>
<path class="st0" d="M11.8,27.2c-0.6,0-1-0.4-1-1V11c0-0.6,0.5-1,1-1c0.6,0,1,0.5,1,1v15.1C12.9,26.7,12.4,27.2,11.8,27.2
	C11.9,27.2,11.8,27.2,11.8,27.2z"/>
<path class="st0" d="M20,27.2c-0.6,0-1-0.4-1-1V11c0-0.6,0.4-1,1-1s1,0.4,1,1v15.1C21,26.7,20.6,27.2,20,27.2
	C20,27.2,20,27.2,20,27.2z"/>
</svg>
