<svg id="Warstwa_1" data-name="Warstwa 1" xmlns="http://www.w3.org/2000/svg" viewBox="0 0 32 32"><title>Obszar roboczy 5</title><path d="M19,24.06a1,1,0,0,1-1-1V8.28L16,4.94,14,8.28V23.06a1,1,0,0,1-2,0V8a1,1,0,0,1,.14-.51l3-5a1,1,0,0,1,1.71,0l3,5A1,1,0,0,1,20,8V23.06A1,1,0,0,1,19,24.06Z"/><path d="M11,27.9a5.48,5.48,0,0,1-.65,0,3.52,3.52,0,0,1-2.09-.94,2.54,2.54,0,0,1-.69-2.55A2.13,2.13,0,0,1,10.07,23a5.67,5.67,0,0,0,2-.12h0a2.42,2.42,0,0,1,.3-.19,1,1,0,1,1,1,1.75l-.09.06a1.67,1.67,0,0,1-.71.33A7.53,7.53,0,0,1,9.9,25a1.16,1.16,0,0,0-.47,0,.67.67,0,0,0,.2.54,1.58,1.58,0,0,0,.92.38A6.72,6.72,0,0,0,12,25.83l1.15-.07,1.08-.07a1,1,0,1,1,.21,2l-1.18.07-1.06.06A12,12,0,0,1,11,27.9Z"/><path d="M20.89,27.9a12,12,0,0,1-1.25-.08l-1.07-.1-1.18-.11a1,1,0,0,1,.21-2l1.14.1,1.1.1a6.67,6.67,0,0,0,1.45.05,1.58,1.58,0,0,0,.92-.38.58.58,0,0,0,.19-.51s-.11-.06-.45,0a7.53,7.53,0,0,1-2.62-.16,1,1,0,1,1,.47-1.94,5.67,5.67,0,0,0,2,.12,2.13,2.13,0,0,1,2.53,1.41,2.54,2.54,0,0,1-.69,2.55,3.51,3.51,0,0,1-2.09.94A5.47,5.47,0,0,1,20.89,27.9Z"/><path d="M15.9,31.79a2.6,2.6,0,0,1-2.6-2.6v-1.7a1,1,0,0,1,2,0v1.7a.6.6,0,1,0,1.19,0v-1.7a1,1,0,1,1,2,0v1.7A2.6,2.6,0,0,1,15.9,31.79Z"/><path d="M13,13a1,1,0,0,1-.7-.29l-9-8.89A1,1,0,0,1,4.68,2.4l9,8.89A1,1,0,0,1,13,13Z"/><path d="M13,18a1,1,0,0,1-.46-.11L1.15,12a1,1,0,0,1,.91-1.78l11.39,5.85A1,1,0,0,1,13,18Z"/><path d="M13,20H2a1,1,0,0,1,0-2H13a1,1,0,0,1,0,2Z"/><path d="M19.07,13.07a1,1,0,0,1-.71-1.71l9-9a1,1,0,0,1,1.41,1.41l-9,9A1,1,0,0,1,19.07,13.07Z"/><path d="M19,17a1,1,0,0,1-.39-1.92L30,10.23a1,1,0,1,1,.78,1.84L19.39,16.92A1,1,0,0,1,19,17Z"/><path d="M30,20H19a1,1,0,0,1,0-2H30a1,1,0,0,1,0,2Z"/><path d="M16.39,24.9a7.13,7.13,0,0,1-3.57-.78l1.12-1.65c.75.51,3.73.59,4.37.11l1.2,1.6A5.58,5.58,0,0,1,16.39,24.9Z"/><path d="M17.66,27.78a1,1,0,0,1-.54-.16c-1-.62-1.25-.59-1.86-.13a1,1,0,1,1-1.2-1.6c1.65-1.23,3-.7,4.14.05a1,1,0,0,1-.54,1.84Z"/></svg>