<svg id="Warstwa_1" data-name="Warstwa 1" xmlns="http://www.w3.org/2000/svg" viewBox="0 0 1080 1920"><defs><style>.cls-1{opacity:0.2;}</style></defs><title>Aplikacja projekt</title><path class="cls-1" d="M625.17,1499.62c-4.37-11.73-8.52-23.54-12.56-35.39-8.07-23.67-16.06-47.48-23-71.51-1.9-6.59-11.79-3.84-10.26,2.83,5.71,24.74,11.85,49.24,19.55,73.45,3.78,11.92,7.85,23.75,12.07,35.52q3.25,9.06,6.72,18c2.26,5.84,4.27,12.31,7.66,17.6,4.34,6.78,14.2,2.34,12.68-5.34-1.22-6.2-4.17-12.2-6.42-18.09C629.47,1511,627.3,1505.33,625.17,1499.62Z"/><path class="cls-1" d="M685.74,1454.64c4.94,10.46,9.58,21,14.22,31.64s8.11,23.25,15.75,32.19c3.19,3.74,9.64.67,9.55-4-.21-11.47-6.33-23-10.67-33.38-4.7-11.29-9.81-22.42-15.12-33.44-5.15-10.69-10.64-21.21-16.33-31.63s-11.37-21.71-19.19-30.63c-3.71-4.23-11.43.23-9.56,5.57,3.83,11,10.31,21.34,15.63,31.65C675.47,1433.2,680.66,1443.9,685.74,1454.64Z"/><path class="cls-1" d="M801.51,1437.85c3.08,4.29,6.14,8.59,9.28,12.84s5.77,8.82,10.16,11.74c5.2,3.45,11.83-2.26,10.28-7.91-1.37-5-5.14-9.13-8.13-13.31s-6.2-8.55-9.32-12.82c-5.85-8-11.7-16-17.62-23.94-12.16-16.35-24.49-32.49-37.38-48.27-4-4.9-12.11,1.46-8.74,6.75,11,17.23,22.51,34,34.26,50.74C790,1421.76,795.76,1429.8,801.51,1437.85Z"/><path class="cls-1" d="M826.24,1344.75a228.74,228.74,0,0,0,30,24,163.37,163.37,0,0,0,16.43,9.81c5.7,2.88,11.16,5.71,17.69,4.68,3.36-.54,4.71-5,3.12-7.68-3-5-8.28-7.33-13.15-10.09-5.3-3-10.61-6-15.75-9.26a223.63,223.63,0,0,1-28.43-21.3C829.43,1329,819.65,1338.56,826.24,1344.75Z"/><path class="cls-1" d="M859.49,1287.42c7.45,1.83,17.59,2.76,23.37-3.3,2.49-2.61,1.76-8.1-2.32-8.78-6.44-1.07-12.93,1.28-19.51.72S853.23,1285.88,859.49,1287.42Z"/><path class="cls-1" d="M873.78,1246.8l1.41-2.35a4.92,4.92,0,0,0-.76-5.87,5,5,0,0,0-5.88-.76l-2.34,1.41a5.53,5.53,0,1,0,7.57,7.57Z"/><path class="cls-1" d="M378.66,1458.4a209.63,209.63,0,0,0-2,21.52c-.26,6.91-.75,14.86,1.41,21.49,1.49,4.58,9.25,5.5,10.25,0,1.21-6.68.39-13.76.43-20.53.05-7,.43-14,1-21C390.33,1453.62,379.56,1452.07,378.66,1458.4Z"/><path class="cls-1" d="M543.25,1415.52c-3.57-5.36-11.82-.65-8.7,5.09,1.71,3.13,3.42,6.25,5.08,9.41,1.74,3.32,3.31,6.4,6.45,8.6,2.94,2.07,8.16-.65,7.67-4.4-.51-3.9-2.34-6.62-4.53-9.81C547.2,1421.47,545.23,1418.5,543.25,1415.52Z"/><path class="cls-1" d="M651,1474.4c3,4.62,10.22,1.72,8.92-3.76-1.83-7.65-5.76-15.23-8.94-22.41-3.34-7.53-6.77-15-10.36-22.4-2.33-4.82-10.66-1.41-8.74,3.69,2.88,7.71,5.92,15.33,9.07,22.94C643.91,1459.73,646.66,1467.79,651,1474.4Z"/><path class="cls-1" d="M733.55,1401.48c4.58,5.29,8.9,11.22,14.18,15.82,4,3.46,11-1,7.71-6-4.1-6.2-9.67-11.6-14.6-17.16C736.42,1389.19,729.22,1396.49,733.55,1401.48Z"/><path class="cls-1" d="M833.16,1382.19c-.08-3-2.32-5.38-4.12-7.68-1.55-2-3.15-3.92-4.73-5.87-1.72-2.13-5.37-1.79-7.16,0-2.11,2.11-1.73,5,0,7.17,1.5,1.85,3,3.73,4.5,5.56s3.35,4.41,6,5A4.43,4.43,0,0,0,833.16,1382.19Z"/><path class="cls-1" d="M882.42,1331.16c3.31-.9,6.36-.06,9.58.86,4.19,1.19,7.8-4.48,4.38-7.53-4.62-4.12-10.83-4.79-16.7-3.28C873.26,1322.87,876,1332.92,882.42,1331.16Z"/><path class="cls-1" d="M73.78,1836.73a95.69,95.69,0,0,0-9.89,8.1,47.34,47.34,0,0,0-9.65-6.23c-2.38-1-5-1-7,.9-1.65,1.66-2.42,5-.9,7a51,51,0,0,0,8,8c-2.43,2.61-4.78,5.24-7.06,7.8-4.63,5.21,2.25,11.76,7.51,7.52,2.95-2.38,6-4.85,9.07-7.41a24.08,24.08,0,0,0,7.19,4c5.18,1.67,9.79-4.6,7-9.13a20.21,20.21,0,0,0-3.75-4.43,83.4,83.4,0,0,0,6.37-7.17C84.26,1841.08,79.58,1832.64,73.78,1836.73Z"/><path class="cls-1" d="M87.84,1788.9c2.18-4.53-2.48-10.46-7.36-7.36-6,3.83-10.56,10-15.17,15.41-.5.59-1,1.19-1.51,1.78-2.56-2-5.15-3.89-7.8-5.78-5.26-3.74-11.35,4.47-6.82,8.84,2.25,2.18,4.54,4.29,6.86,6.37-1.62,2-3.22,4-4.81,6.08-4,5.18,2.47,12.32,7.43,7.43,2-2,4-3.94,5.91-5.93,3,2.72,6.1,5.5,9.61,7.19,4.79,2.31,12-2.89,8.17-8.17a44.5,44.5,0,0,0-8.8-8.42c.19-.2.38-.39.56-.6C78.86,1800.59,84.77,1795.27,87.84,1788.9Z"/><path class="cls-1" d="M151.23,1798.83c-1-5.2-8.26-3.45-8.67,1.18-.76,8.69-1,17.41-1.83,26.1s-3,17.15-3.54,25.81c-.4,6.57,8.61,6.78,10.68,1.45,3.27-8.41,3.89-18.31,4.55-27.26A106.07,106.07,0,0,0,151.23,1798.83Z"/><path class="cls-1" d="M159.39,1890.68c3.85-6.3,5.85-14.17,8.23-21.12,2.47-7.21,5.15-14.56,6.78-22,1.13-5.18-6.23-8.88-8.92-3.76-3.49,6.62-6.07,13.79-8.82,20.75s-6.42,14.44-7.55,21.79C148.19,1892.35,155.84,1896.49,159.39,1890.68Z"/><path class="cls-1" d="M345.69,1314.17c1.91,3.24,3.16,6.81,5.62,9.68,3.27,3.8,9.44.61,9.5-3.93.13-9-8.21-17.72-14.92-22.74-5.1-3.83-10.26,4.1-6.48,8.39A56.38,56.38,0,0,1,345.69,1314.17Z"/><path class="cls-1" d="M380.23,1277.32c2.12,6.23,10.58,3.62,9.65-2.66-2.05-13.73-8.63-25.52-17.3-36.23-3.59-4.44-11.25,1.42-8,6.13C371.6,1254.56,376.31,1265.84,380.23,1277.32Z"/><path class="cls-1" d="M440,1191.93c3.16,13.34,5.76,27.06,11.05,39.71,2.27,5.44,12.16,5.68,11.48-1.56-1.31-13.9-5.36-27.38-8.91-40.89s-7.61-27.07-11.48-40.61c-2-7-12.44-4.08-10.92,3C434.11,1165.05,436.82,1178.52,440,1191.93Z"/><path class="cls-1" d="M544.85,1146q1,8.55,2.16,17.07c.83,6,1.18,12.43,2.83,18.27,1.55,5.48,9.43,4.2,9.7-1.31.3-5.77-.73-11.75-1.23-17.5q-.79-9.25-1.86-18.48c-1.39-11.83-3.16-23.59-4.9-35.37-.83-5.57-10.33-4.31-9.89,1.34C542.59,1122.05,543.5,1134,544.85,1146Z"/><path class="cls-1" d="M654.83,1157.45c2.07-7.1,2.14-15.19,3-22.53.87-7.82,1.63-15.65,2.69-23.45.88-6.45-8.69-9.52-10.07-2.78-1.68,8.18-3.21,16.38-4.32,24.65-1,7.82-2.33,16.26-1.27,24.11C645.54,1162.81,653.51,1161.93,654.83,1157.45Z"/><path class="cls-1" d="M759.77,1134.76c3.76-7.38,5.28-15.68,7.69-23.55,1.9-6.2-7.4-8.55-9.59-2.64-2.7,7.26-6.46,14.41-7.87,22.07C749,1136.21,756.83,1140.53,759.77,1134.76Z"/><path class="cls-1" d="M812.34,1161.15c2.92,1.71,6,.44,7.87-2.06,3.94-5.33,8.25-10.53,11.53-16.3,2.94-5.18-4.15-11-8.4-6.48-4.88,5.18-8.84,11.25-13.07,17C808.43,1155.78,809.86,1159.7,812.34,1161.15Z"/><path class="cls-1" d="M364.77,1771c.42,2.54-.77,5.19-.27,7.85.86,4.55,3.82,8.38,8.47,9.41a6.5,6.5,0,0,0,7.16-2.91c1.22-2.23,2.35-4.49,3.45-6.78a58.46,58.46,0,0,0-1.05,7c-.47,6.15,1.41,11.59,4,17.07,1.66,3.53,6.06,9.44,3.8,13.38-4.43,7.73,7.52,14.71,11.93,7,3.24-5.69,3-11.7.64-17.68-2.29-5.8-6.74-11.5-6.74-17.93,0-7.76,2.91-15.29,2.79-23.18a67.31,67.31,0,0,0-4.26-22.37c-2-5.33-11.08-6.8-12.34,0-.42,2.28-.92,4.53-1.46,6.77a6.68,6.68,0,0,0-4.4-1.7,18,18,0,0,1-.25-2.86,5.61,5.61,0,0,0-.57-2.57,6.82,6.82,0,0,0-7.34-6.27c0-2.11.19-4.21.34-6.23.45-5.9,2.25-11.72,2.24-17.6,0-3.65-4.56-6.92-7.86-4.51-6.42,4.7-7.3,13.4-8,20.82-.71,7.2-1.09,15.45,1.34,22.38a9.66,9.66,0,0,0,.46,1c-1.18,5.39-.32,10.85,4.37,15.46C362.65,1768,364.42,1768.89,364.77,1771Z"/><path class="cls-1" d="M350.78,1741.76a5.83,5.83,0,0,0-4.21-5.32,6,6,0,0,0-4.46.58,5.84,5.84,0,0,0-2.8,4.52,6.7,6.7,0,0,0-.25,3.9,8.37,8.37,0,0,0,2.07,3.44,7.74,7.74,0,0,0,5.71,2.5,5.57,5.57,0,0,0,4-9.36A2,2,0,0,0,350.78,1741.76Z"/><path class="cls-1" d="M426.82,1731.61c.95-3.17.71-6.33.68-9.6s-3-6.66-6.5-6.51a6.63,6.63,0,0,0-6.5,6.51c0,3.26-.27,6.43.68,9.6A6.09,6.09,0,0,0,426.82,1731.61Z"/><path class="cls-1" d="M506.61,1734c-.07,3.86-.2,7.71,0,11.56.12,1.84.58,3.6.78,5.39.28,2.49,0,3.91,1.61,6.08,2.46,3.33,8,4.33,10.26,0,2-3.8,1.38-8.09.94-12.24s-1.21-8.26-2-12.37C517.06,1725.7,506.73,1727.54,506.61,1734Z"/><path class="cls-1" d="M560.81,1770.5a5.84,5.84,0,0,0,1.48-.69c4.7-3.09,6.49-8.18,6.36-13.69a7.84,7.84,0,0,0-2.24-5.18,8.4,8.4,0,0,0-2.48-5.3,48.07,48.07,0,0,0-1.08-9.26c-1.53-7-11.9-5.13-12.1,1.64a67.7,67.7,0,0,1-2.66,17.43,7.3,7.3,0,0,0-.22,1.19,23.84,23.84,0,0,0-.44,8.47C548.4,1772.7,556.24,1775,560.81,1770.5Z"/><path class="cls-1" d="M607.82,1618.29a6.93,6.93,0,0,0-.18-2,5.4,5.4,0,0,0-1.27-2.24,6.41,6.41,0,0,0-2.17-2,5,5,0,0,0-3-.56,5.8,5.8,0,0,0-6.39,4.8c-.08.48-.14.79-.17,1a4,4,0,0,0-.09.92,4.38,4.38,0,0,0,0,.51c-.42,2.93,2,5.85,4.89,6.43a7.63,7.63,0,0,0,1.64.14C605.05,1625.28,607.61,1621.89,607.82,1618.29Zm-9.44-3.29.12-.06,0,0-.08,0Zm.5-.22.27-.11.25,0-.54.18Zm.41-.17Zm-.13-.19h0l-.79.1h0Z"/><path class="cls-1" d="M543.24,1655a4.92,4.92,0,0,0,1-2.91,5.13,5.13,0,0,0-8.75-3.63c-2.31,2.36-3.83,6.57-1.81,9.48a7.36,7.36,0,0,0,.46.88,6.3,6.3,0,0,0,3.7,3.43,4.35,4.35,0,0,0,4.3-1.13A5,5,0,0,0,543,1656c.07-.31.13-.62.18-1v0C543.19,1655.18,543.2,1655.15,543.24,1655Zm-.12.21s-.15.18-.3.37h0q.18-.22.33-.45Zm.07-.16c.1-.8.12-.89,0-.29,0,.11,0,.19,0,.25Z"/><path class="cls-1" d="M525,1665.85a6.08,6.08,0,0,0-3.11.84,6.24,6.24,0,0,0-2.21,2.21l-.89,1.27a5.68,5.68,0,0,0-.66,1.22,4,4,0,0,0-.41,1.6,2.9,2.9,0,0,0-.07,1,4.18,4.18,0,0,0,.46,2.06,4.12,4.12,0,0,0,1.11,1.72l1.08.83a5.24,5.24,0,0,0,2.7.73l.27,0,1.5-.21.16,0a6.39,6.39,0,0,0,1.9-1l1.28-.89a6.16,6.16,0,0,0,2.21-2.21,6.24,6.24,0,0,0,.84-3.1,6.41,6.41,0,0,0-1.81-4.36A6.31,6.31,0,0,0,525,1665.85Z"/><path class="cls-1" d="M455.89,1532.27l-.54-.29a4.73,4.73,0,0,0-6.37,1.67c-1.09,2.07-.69,5.28,1.67,6.38l1.21.56a6,6,0,0,0,1.61,1.56l.54.34a5.35,5.35,0,0,0,7.6-2.56,5.12,5.12,0,0,0,0-4.13,5.46,5.46,0,0,0-3.47-3.1l-.59-.23A4.08,4.08,0,0,0,455.89,1532.27Z"/><path class="cls-1" d="M1086.89,1819.82c-9.9-3.92-20.57-5.64-30.94-7.88-9.45-2-18.9-4.07-28.42-5.72l-.31,0a9,9,0,0,0-.08-2.36c0-.08,0-.15-.05-.23,10-1.5,19.54-5.74,29.88-3.85a27.26,27.26,0,0,1,11.84,5.15c3.76,3,4.84,7.52,8.14,10.79,3.48,3.42,10.38,2.14,11.44-3,2.81-13.64-13.91-24.6-25.38-27-12.41-2.56-27.31,0-38.68,6.46A106.88,106.88,0,0,0,995.67,1747c-17.72-16.67-41.76-25.92-65.8-28.22-5.72-.55-8.29,6.3-6.1,10.63a279.88,279.88,0,0,0,28.42,45.47c.84,1.09,3,2.85,3.28,4.17s-1.81,4.33-2.13,5.82a18.93,18.93,0,0,0,.5,9.82,16.11,16.11,0,0,0,9.26,10.39,132.17,132.17,0,0,0-32.68,12.61c-10,5.4-21.1,12.63-28.26,22.1a68.77,68.77,0,0,0-15-7.17,7.79,7.79,0,0,0,3-1.48c5.7-4.55,13.39-5.55,18.6-10.94,4.76-4.92,7.27-12.75,4.66-19.28-3.31-8.26-11.89-9-19.6-7.93-2.46.34-4.89.74-7.3,1.22a60.06,60.06,0,0,0,5.08-9.85c3.58-9.05,1.3-20.56-9.44-23-10-2.29-19.44,5.55-26,12a72.44,72.44,0,0,0-9.8,12.09c-.8-1.7-1.64-3.38-2.54-5-3-5.62-6.58-12.56-13-14.82-12.29-4.34-24.7,9.76-28.43,20.16a17.61,17.61,0,0,0,2.2,16.35c2.79,4,7.2,6.51,9.93,10.44,3.18,4.57.61,12.8,0,17.94-.91,7.82-2.06,15.59-2,23.48a5,5,0,0,0,1.25,3.39c-.87,1.31-1.68,2.66-2.45,4-.35-.14-.71-.27-1.06-.39-9-3.31-20.36-6.34-29.46-3.21a361,361,0,0,1-10.12-82.54c0-5.1-7-8.65-10.67-4.42a79.59,79.59,0,0,1-23.44,18.22,5.69,5.69,0,0,0-1.08-.27c-4.91-.66-9.92-5-10.41-10.21-.24-2.54,1.07-5,2.61-6.92a41.09,41.09,0,0,1,4.11-4,7.67,7.67,0,0,0,2.21.47l1.26.07c5.43.3,7.65-5.73,5.7-9.94-8.29-17.88-22.44-32.21-35.32-46.82a185.28,185.28,0,0,1-17.1-21.89,80.88,80.88,0,0,1-6.65-12.28c-.62-1.45-1.12-3-1.62-4.49,1.23.31,2.46.59,3.71.83,7.1,1.38,17,3,22.28-2.81.38-.14.76-.29,1.15-.47,4.79-2.21,4.12-8.27,1.49-11.63-1.67-2.15-2.67-2.72-3.89-5.26a97.72,97.72,0,0,1-3.76-9.33,135.09,135.09,0,0,1-5.55-21c-1.23-6.86-1.91-13.77-2.57-20.71s-.49-14.86-3.84-21.08a4.47,4.47,0,0,0-3.56-2.51c-4.76-4.09-13.23-4.73-18.9-5.4a104.93,104.93,0,0,0-22.34-.18,101.3,101.3,0,0,0-22.08,4.39c-5,1.66-12.24,3.74-16.61,7.74-6.74-3.28-13.61-6.29-20.61-9l-.78-.3a50.39,50.39,0,0,0-10.27-3.63c-.83-.24-1.66-.47-2.49-.67-5.62-1.54-11.34-2.74-17.06-3.83-11.35-2.15-22.83-3.78-34.32-5,1.1-5,1.71-10.24,2.78-15,1.81-8,3.92-16,6.51-23.77a167.65,167.65,0,0,1,9.48-23c2.06-4.07,4.28-8.06,6.56-12s5.35-8,6.17-12.5c0-.13,0-.26,0-.4a7.51,7.51,0,0,0,.29-4c-1.35-7.39-6.76-14.1-11.59-19.62a109.17,109.17,0,0,0-16.31-14.82c-12.25-9.28-26.89-18.36-41.53-23.48a5.16,5.16,0,0,0-4.68-1c-8,2-15.56,7-22.59,11.1A188.55,188.55,0,0,0,434,1439.28a152.4,152.4,0,0,0-18.43,17.22c-5.32,5.89-11.86,12.83-14.24,20.55a4.09,4.09,0,0,0-.18,1.39,5.75,5.75,0,0,0,0,1.9c1.38,8.64,8.48,16.2,12.7,23.63,4,7.09,5.83,15,7.24,23,1.45,8.16,2.05,16.45,3,24.68.5,4.42.58,10.95,2.28,16.2a247.79,247.79,0,0,0-24.1,5.79,101.52,101.52,0,0,0-9.67,3.14c-5.77,1.52-11.44,3.51-17.08,5.37-11,3.63-22,7.45-32.89,11.55l-7.12,2.69A94.5,94.5,0,0,0,307,1574.93a84.88,84.88,0,0,0-17.28-6.29c-5.86-1.39-13-2.88-18.83-.68a6,6,0,0,0-1.93,1.21,4.77,4.77,0,0,0-1.09.83c-5.07,5.33-7.88,12.77-11.75,19a173.49,173.49,0,0,1-13.51,19c-2.73,3.29-5.6,6.47-8.57,9.55-1.26-4.08-4.15-7.86-6.35-11.34a86.9,86.9,0,0,0-7.53-10.31c8.88-9.72,16.08-21.55,23.34-32.43q11.85-17.73,22.51-36.19c13.93-24.13,28.51-49.65,36.67-76.42a5.66,5.66,0,0,0,.16-.8c.15-.12.3-.22.45-.35,4.34-3.62,8.72-8.94,10.56-14.68.64,7.7,1.83,15.38,3.19,22.86,1.91,10.46,4.35,24.31,15.83,28.45,4.54,1.63,8.17,0,11.4-1.32,3.62-1.53,8.4-2.15,10.51-5.9,2.36-4.19.56-10.78-.48-15.11-1.2-5.07-3.28-10.48-3.17-15.75a5,5,0,0,0-.4-2.12c1.49-6.79-1.29-14.25-.65-21.32.63-6.88,4.3-12.72,11.36-14.22a4.12,4.12,0,0,0,1.69-.78c24.4-7.54,48.46-16.41,72.8-24.13q39.56-12.57,79.38-24.25Q596,1337.7,677.58,1317c14.9-3.81,29.84-7.43,44.73-11.27,12.75-3.29,25.77-6.1,38.44-9.81a6.28,6.28,0,0,0,8-.57c6.69-6,12.9-12.67,19.28-19,6.12-6.1,13.27-11.9,17.49-19.54a4,4,0,0,0-1.31-5.38c-1.47-2.39-4.11-3.61-6.82-5.07-4-2.17-8.16-4.23-12.37-6.08-8.08-3.54-16.08-6.8-24.79-8.4a4.45,4.45,0,0,0-3.31.7,4.93,4.93,0,0,0-3.18-.34c-109.49,22.93-216.91,57.63-321.56,96.86q-22.26,8.34-44.4,17c-14.47,5.68-29.43,10.9-43.15,18.26a5.28,5.28,0,0,0-1.45,1.14c-5.82,1.56-11.1-5.26-12.87-10.65s-2.13-11.77-3.76-17.48a6.17,6.17,0,0,0,.71-2.44c.48-5.86-1.69-11.87-3.56-17.35-1.8-5.29-3.82-10.58-6.14-15.66-4.48-9.79-16.17-15.42-24-5.41-3.76,4.8-3.9,10.75-3.05,16.56.94,6.5,2.32,13,3.89,19.32,2.15,8.69,4.39,17.67,7.71,26.13a16.87,16.87,0,0,0-5.2.33,16.22,16.22,0,0,0-10.87,8.64,14,14,0,0,0-13.25-1.32,16.4,16.4,0,0,0-8.43,8.77,15.52,15.52,0,0,0-10.2-.72c-10.13,2.67-12.94,12.67-11.61,22.1l.27,1.81c-6.24,1.15-12.44,2.78-18.63,4.17-5.39,1.21-11,2.11-16.22,3.93-1,.34-2,.72-2.92,1.14-1.14-3.91-5.1-7.07-8.78-8.69a20.37,20.37,0,0,0-18.09,1c-11.87,6.44-17.62,21.92-15.46,34.8s13.86,24.27,27.47,22.91c7.81-.77,18.59-8.15,20-16.72a26.79,26.79,0,0,0,5.31-.25c6.39-1,12.63-3.27,18.77-5.23,2.57-.82,5.16-1.59,7.75-2.42-8.34,10.64-15.52,22.16-24,32.69a307.72,307.72,0,0,1-30.78,32.78,285.24,285.24,0,0,1-73.06,49.16c-3.12,1.44-4.06,6.13-2.33,8.89a58.83,58.83,0,0,0,29.28,23.59c-2.75,6.81-9,11.54-14,16.92a47.49,47.49,0,0,0-10.79,19.44c-4.28,15.09-2.14,31.54,4.83,45.48,7.73,15.43,21.68,27.21,36.28,35.89a235.25,235.25,0,0,0,52.42,22.49,168.28,168.28,0,0,0,42.42,7.39,4.55,4.55,0,0,0,.86,2.28c6.87,9.74,16.46,17.63,25.82,24.89s19.31,14.95,30.26,19.53c0,.47,0,.94-.07,1.42-1.1,19.66-2.89,39.28-4.57,58.89q-.57,6.71-1.06,13.42a81.19,81.19,0,0,1-20.23-6.54c-5-2.45-9.73-5.25-14.46-8.1a7.07,7.07,0,0,0,2.33-5.09c.83-26.35-17.1-52.94-43.45-58.49a51.73,51.73,0,0,0-36.64,5.6c-5.67,3.26-15,10.49-18.52,18.25-12.5-25.4-38.49-43.59-67.32-44.3a78.08,78.08,0,0,0-37.5,9c-4.67-6.64-9.84-13-14.87-19.35-1.29-1.64-7.24-7-7-9.15.1-.87,4.16-2.44,5-2.85a74,74,0,0,0,30.94-27.44c1.74-2.78,3-5.92,4.9-8.58,2.05-2.88,4.31-2.63,7.62-2.79,6.43-.32,12.08-2.16,16.31-7.27,7.46-9,7.4-24-3.16-30.67a21,21,0,0,0-20.72-.63,18,18,0,0,0-12-7.43,18.9,18.9,0,0,0-18.12,8c-7.61-3.15-16.77-1.73-22.57,5.53a20.06,20.06,0,0,0-4.16,8.84,19.35,19.35,0,0,0-.34,4.74c.1,1.71,1.22,4.15.91,5.79-.45,2.43-4.76,5.26-6.54,7l-9.74,9.41c-11,10.63-23.62,20.91-32.51,33.46-3.91,5.52-6.87,12.4-6.34,19.29.56,7.42,4.49,13.34,9.41,18.69,6,6.58,12.33,13,18.43,19.5,6.69,7.16,13.15,14.55,20.53,21a7.4,7.4,0,0,0,4.13,1.92c-.15.42-.3.83-.44,1.24a132.78,132.78,0,0,0-6.16,32.63c-.82,11.92-.73,24.81,2.81,36.32a5,5,0,0,0,2.22,2.84c-10.11,1.27-20.63,4.34-27.61,11-3.84,3.68.18,9.67,5,8.57,5.65-1.29,11-3.67,16.6-5.07a69.57,69.57,0,0,1,16.63-2.08A66,66,0,0,1,69,1898.45c18.66,10.18,30.81,30.2,30.65,51.52-.07,10,15.39,10,15.5,0a68.72,68.72,0,0,0-7.41-31.51c4.32-4.06,8.78-7.9,14.52-9.86a30.28,30.28,0,0,1,19.91.26c15.11,5.2,21.52,21.18,35.29,28.31,6.82,3.53,14.67,4.65,21.92,1.77,6.55-2.6,11.21-7.66,16.62-12,10.59-8.42,25.07-6.56,36.18-.09,14.73,8.58,22.13,23.71,31.65,37.06,5.49,7.7,17.36,1.1,12.84-7.51-14-26.69-41.75-57.89-75.5-48.47-7.75,2.16-13.64,6.85-19.57,12.06s-11.46,7.91-19,3.31-12.19-12.54-18.81-18.12a49.43,49.43,0,0,0-22.6-11.1,46.18,46.18,0,0,0-17.63.27c.08-1.33.11-2.67.17-4,.19-4.49.44-9,.72-13.47q.61-9.66,1.57-19.29l.35.12c2.92.88,7-1.06,7.5-4.26a221.58,221.58,0,0,0,3-28.5c.29-8.15.61-16.77-1.13-24.79-1.43-6.61-5.24-12.72-11.74-15.23a13.91,13.91,0,0,0-10.76.1,6.14,6.14,0,0,0-3.32.51c-16.73,7.36-12.87,31.49-13.57,46.07a246.65,246.65,0,0,1-3.78,32.73c-1.75,9.49-4.47,18.6-7,27.84a68.6,68.6,0,0,0-9.51-5.86,83,83,0,0,0-39.19-8.88c-1.32,0-2.69.09-4.08.17a4.61,4.61,0,0,0,1.39-3.61c-.33-9.15-1.48-18.2-1.23-27.38a134.76,134.76,0,0,1,3.44-27c3.71-15.77,10.71-30.52,23.15-41.23,21.78-18.76,54.43-19.86,78-4A65.33,65.33,0,0,1,164,1811.34a7.26,7.26,0,0,0,10.56,4.29c4.52-2.63,9.61.33,12.63,4,4.51,5.47,3.87,13,2.15,19.42-2.2,8.26-6.16,15.94-9.68,23.69-3.66,8-8.46,16.24-10.5,24.84-1.73,7.26,7.49,10.64,11.59,4.89,3.38-4.73,5.43-10.29,7.83-15.57,2.54-5.58,5.1-11.16,7.62-16.75,4.59-10.16,9.32-21.08,8.48-32.49a53,53,0,0,1,25,2.35c9.47,3.19,18,8.54,26.32,13.92,13.65,8.82,29.6,19.6,46.42,19.87a.86.86,0,0,1,0,.16c-.62,9.82-1.75,20.26,0,30a5,5,0,0,0,4.67,4.13c2.37,8.09,2.2,17.35,1.43,25.37a92.08,92.08,0,0,1-3.31,16.42c-1.46,5.09-3.92,9.87-4.6,15.13-.72,5.6,7.38,8.24,10.89,4.5,4.22-4.48,5.94-11.43,7.41-17.3a103.37,103.37,0,0,0,2.9-20.19c.5-11.17-1.17-22.2-7.39-31.4,1.64-8.66,1.53-17.95,2.1-26.65.67-10.14,1.5-20.27,2.25-30.41,1.49-19.93,3.08-39.86,3.93-59.84.85-19.74,1.09-39.62-.49-59.33-.09-1.12-.21-2.23-.31-3.35a6.73,6.73,0,0,0,.93,1.23c8.19,8.55,22.53.23,20.59-11-1.81-10.51-14.77-17.4-24.46-13.13-.18-1.09-.35-2.18-.53-3.27-1.12-6.44-2.14-14-4.54-20.65a57.65,57.65,0,0,0,11.82-5.94c5.6-3.75,12.43-8.63,15.17-15.07,5.25,2.16,10.38,4.51,15.36,6.91,24.11,11.65,46.84,26,71.21,37.07a208,208,0,0,0,33.14,12.16c-1.79,16.8-2.41,33.75-3.28,50.61q-.66,12.75-1.31,25.49c-.41,8-1.47,16.52-.46,24.53a4,4,0,0,0-.5.07c-3.07.63-6.05,3.19-8.67,4.85-3.17,2-6.27,4.12-9.48,6.06q-11.37,6.85-23.31,12.69c-15.23,7.42-31.32,14.22-48,17.51-7.43,1.47-4.16,12.35,3.09,11.22,18-2.8,35.23-9.58,51.59-17.3a235.91,235.91,0,0,0,24-12.86c5.36-3.32,12.74-7.33,16.38-13q12.89,12.14,26.46,23.46c5,4.11,9.91,8.18,14.94,12.17,5.26,4.18,10.69,9.53,17.16,11.64,5.21,1.7,10.08-4.72,7.16-9.32-3.49-5.51-9.66-9.28-14.72-13.28-5.3-4.18-10.63-8.34-15.93-12.53q-14.62-11.55-29.55-22.72c1.4-7.19,1.17-15,1.51-22.26q.63-13.23,1.25-26.47c.76-16.08,1.75-32.22,1.72-48.33a110.14,110.14,0,0,0,31.68,1.56c28-2.87,52.72-16.53,76.39-30.93,8.46-5.15,16.86-10.42,25.47-15.34-1.88,3.74-3.54,7.61-5.23,11.48-3.55,8.1-6.76,16.36-9.76,24.68a421.06,421.06,0,0,0-14.54,50.6c-2.56,11.39-4.69,22.91-6.39,34.49a5.16,5.16,0,0,0-2.56,2.66c-1.5,3.32-3.16,6.61-4.7,9.93a11.33,11.33,0,0,0-2.09,4.79c-.67,3.82,1,7.74,5,8.84a7.53,7.53,0,0,0,1.21.22c-1.31,14.81-1.91,29.68-1.75,44.51,0,4,.15,7.91.3,11.87a9.07,9.07,0,0,0-2.17,1.17c.3-.23-.56.37-.66.43-.44.27-.9.48-1.36.72l-.89.49-.49.17c-.5.14-1,.31-1.48.45-.12,0-1.31.26-.63.18-2.68.3-5,1.83-5.32,4.69-.29,2.5,1.2,5.4,3.88,5.94a16.15,16.15,0,0,0,9.36-.6l.45-.19c.11,1.67.22,3.34.34,5,.55,7,.51,15.27,2.33,22.53-5.66,4.22-7.45,15.09-8.45,21.09-1.53,9.1-3.21,21.53,1.53,29.91,2.43,4.31,10.08,3.78,11.08-1.44.93-4.78,0-9.7,0-14.55a67.47,67.47,0,0,1,1.39-14.53c.36-1.73.86-3.44,1.37-5.14a6.38,6.38,0,0,0,4.54-5.3c.81-8.59,19.19-11.08,25.64-11.58a61.67,61.67,0,0,1,31.86,5.69,60,60,0,0,1,21.89,18.22,67.26,67.26,0,0,1,7.54,13.15c2,4.69,2.85,9.69,4.53,14.46,2.78,7.88,15,7,15-2a42.61,42.61,0,0,0-2.63-14.18c.15,0,.3,0,.46.06,17.67.69,32.73,11.3,37.83,28.41,2.6,8.72,15.4,5.08,13.56-3.74-4.79-22.92-29.87-39.9-52.82-35.23a4.68,4.68,0,0,0-2.9,1.75c-.44-.83-.9-1.66-1.38-2.48a4.71,4.71,0,0,0,2.11-5.44c-2.55-9.16,10.9-14.5,17.49-16.38a61.41,61.41,0,0,1,15.71-2.32,83,83,0,0,1,9.7.65c2,2,4.05,3.88,6.18,5.69a7.79,7.79,0,0,0,1.16.83c.89,19.28,6.53,41.25,22.23,52.21,4.75,3.32,11.72-3.4,8.17-8.17-6-8-11.06-16-14.16-25.62s-4.51-19.89-7.19-29.72A4.29,4.29,0,0,0,734,1893a5,5,0,0,0-2.13-2l-.22-.11c-2.3-2.49-4.68-4.92-7.09-7.31a14.93,14.93,0,0,0,4.36-.48,42.48,42.48,0,0,0,4.4-1.69,12.27,12.27,0,0,1,2.36-.84c5.28,5.31,15.5-1.12,10.72-7.72-2.6-3.6-5.91-5.61-10.47-5.6a17.25,17.25,0,0,0-5.69,1c-.76.27-1.51.6-2.26.9,1.8-6.46,0-13.93-5.33-18.36-3.22-2.64-8.29-2.72-10.54,1.36a32.62,32.62,0,0,0-4.32,14.46c-2.68-2.71-5.41-5.36-8.28-7.84-6-5.21-12.79-9.73-20.7-11.4-1.67-.35-7.83-.42-8.63-2.09-.72-1.51,2.83-5.15,3.63-6,1.4-1.49,2.85-2.93,4.32-4.34,2.3,1.9,4.62,3.76,7,5.54,5.54,4.11,11.22-4.47,7-9.13-1.49-1.66-3-3.28-4.57-4.89,6.69-5.69,13.53-11.25,19.6-17.55,3.94,6.87,11.93,12.24,19.75,12.89,2.18,4.66,4.2,9.38,6.4,14s3.58,10,8.14,12.9a5.73,5.73,0,0,0,8.36-3.4c1.31-5.64-1.77-10.69-4.19-15.66a82,82,0,0,0-6.44-10.77,91.78,91.78,0,0,0,13.54-12.46c1.79-2,3.73-4.26,5.53-6.63a325.63,325.63,0,0,0,10.87,71.51,351.93,351.93,0,0,0,15.51,45,246.62,246.62,0,0,0,10.54,22.38c3.71,6.81,7.1,15.38,13,20.61a5.74,5.74,0,0,0,9.51-5.54c-1.68-7.49-6.9-14.36-10.1-21.29-2.45-5.32-5-10.62-7.31-16a4,4,0,0,0,.34-.27c9.49-9.18,19.81-16.85,32.74-20.29,1.17-.31,2.35-.57,3.54-.81a5.84,5.84,0,0,0,3-.54,61.28,61.28,0,0,1,31,3.19c12.76,4.86,23.79,14.47,31.55,25.58a102.82,102.82,0,0,1,10.48,19.18c2.86,6.85,4.48,14.11,7.07,21.07,2.15,5.74,10.71,5.06,10.94-1.48.43-12.78-4.88-26.28-11.1-37.28,3.19-4,6-8.42,9-12.35A170.31,170.31,0,0,1,943,1895.55c.9-.92,1.85-1.87,2.84-2.83,4.54,2,8.91-2.36,8-7a.5.5,0,0,0,0-.13c7.26-5.82,15.7-10.62,24.32-10.46,7.29.13,8.79,5,8.45,11.62-.47,8.83-1.85,17.72-3,26.47q-1.84,13.63-4.27,27.19c-1.6,9-4.65,18.78-4.59,28,0,6,9.28,9.36,12.06,3.27,3.44-7.56,4.51-16.33,6-24.48q2.34-13,4.18-26.2c1.18-8.42,2.25-16.86,3.11-25.32.73-7.23,1.74-14.82-1.14-21.73-5.41-13-20.72-14.71-32.63-10.57a70.26,70.26,0,0,0-20,11.23A42.85,42.85,0,0,0,937,1869a43.44,43.44,0,0,0-14.34-3.65,5.76,5.76,0,0,0-.32-1.6,44,44,0,0,0-10.77-16.48c17.8-15.2,41.14-26.79,64.43-28.77,17.71-1.5,35.5,1.26,52.8,4.88,18.46,3.86,37.24,10.07,56.13,11.12C1093.94,1835,1094.17,1822.7,1086.89,1819.82ZM108.49,1841c.66-9.25.33-18.44.5-27.69.11-5.81.56-12.93,5.19-16.94a5.38,5.38,0,0,0,.93-.62c2.65-2.28,6.67.83,7.88,3.23,2.29,4.53,1.84,10.45,1.89,15.37a204.71,204.71,0,0,1-1.89,30.21l-.38-.09c-4-1.06-6.86,1.89-7.29,5.55-1,9-2,17.92-2.85,26.89-.61,6.65-2.54,15.16-1,22a29.08,29.08,0,0,0-9.93,9.29,70.67,70.67,0,0,0-5.5-6.72l.12-.24C103.8,1882.62,107.08,1861,108.49,1841ZM33,1793.17C22.47,1779.76,9.74,1768-1.81,1755.46c-4.41-4.77-9.53-9.65-7-16.63,2.28-6.31,7.65-11.22,12.31-15.81,11.93-11.74,24-23.38,35.62-35.47,2.73-2.85,4.85-5.62,5.5-9.61.56-3.46-1.2-6.87-.64-10.21a5.4,5.4,0,0,1,9.94-2.11c3.8,5.81,13.63,3.83,13.51-3.66-.1-7,10-6.63,8.91-.18-1.61,9,11.42,13,14,3.86.91-3.23,5.34-5,8.46-3.78,3.92,1.54,3.22,7,1,9.68-2.06,2.54-4.85,2.2-7.86,2.41-3.87.27-7.6.85-11,3-6.65,4.18-9.07,12.56-13.38,18.69a57.92,57.92,0,0,1-16.31,15.47c-5.89,3.74-13.84,5.82-17.44,12.29-4.48,8.05,1.48,15.17,6.41,21.16,5.57,6.76,11.14,13.63,17.11,20.06A79,79,0,0,0,33,1793.17Zm168.37,23c-3.78-7.34-10.36-13.29-17.92-15.26,1.25-1.54,2.41-3.18,3.65-4.48a44.93,44.93,0,0,1,11.23-8.74,36.57,36.57,0,0,1,26.88-3,37.71,37.71,0,0,1,22.24,16.45c4.73,7.51,6.56,15.84,8.22,24.35C240.09,1816.73,218.56,1807.93,201.32,1816.16Zm415.19-74.48-.46-.83c-2-3.68-3.71-7.43-5.34-11.22a51.52,51.52,0,0,0,10.42-1.56,87,87,0,0,0,16-5.4c9.26-4.13,21.61-10.57,26.52-19.91,2.6-5-2.53-9.54-7.32-7.32-4.25,2-7.9,5.49-11.78,8.13a94,94,0,0,1-13.23,7.57,91.51,91.51,0,0,1-13.5,5c-3.68,1-7.71,1.68-11.35,3-1.24-3.23-2.46-6.48-3.7-9.73,14,.22,27-7,38.71-14.22,6.24-3.85,12.51-7.75,18.12-12.5a57,57,0,0,0,9.09-9.36c1.07,6.9,4.63,14,7.6,19.54,1.28,2.4,2.69,4.73,4.18,7-.08.06-.17.1-.25.17-5.14,4.13-8.84,9.67-13.58,14.27A89.67,89.67,0,0,1,652,1725.93c-11.05,7-23.25,10.78-35.2,15.63C616.68,1741.59,616.6,1741.64,616.51,1741.68Zm16.56-83.91a250.66,250.66,0,0,1,26.11,8l.12,0a96.16,96.16,0,0,1-7.28,7,174.25,174.25,0,0,1-16,11.34c-6,3.88-12.09,8-18.78,10.64-5.48,2.17-11.21,3.34-16.92,4.62,2.41-7.52,4.94-15,7.7-22.39,2.67-7.17,6-14.34,8.23-21.71C621.78,1656.45,627.87,1656.52,633.07,1657.77Zm-8.74-66.51a116.1,116.1,0,0,1,21-3.85,111.09,111.09,0,0,1,20.63.28c3.67.39,8,1.62,12.17,1.92-.64,6.29.34,13.29.78,19a240.67,240.67,0,0,0,3.25,25.51,114.92,114.92,0,0,0,7.26,24.49l.24.56a62.56,62.56,0,0,1-7.93-1.69c-4.71-1.29-9.33-2.91-13.93-4.56l.06-.18a5.92,5.92,0,0,0,.64-1.43c0-.13.07-.27.1-.4l0,0a5.8,5.8,0,0,0-2.07-7.87,5.87,5.87,0,0,0-7.87,2.06,9.15,9.15,0,0,0-1.43,4.15,144,144,0,0,0-23.8-6.17,173.86,173.86,0,0,1,28.57-6.91c8.19-1.34,6.59-13.31-.55-14.89a61.85,61.85,0,0,0-8.43-6.89,341.4,341.4,0,0,0-33.33-21.62C621.28,1592.2,622.83,1591.67,624.33,1591.26Zm-216.3-3c7.79-2,15.67-3.71,23.59-5.13A348.85,348.85,0,0,1,479,1578c19.13-.75,38.56,1.42,57.49,4.69a32.57,32.57,0,0,0-4,3.61c-2.21,2.38-4.41,4.75-6.69,7.06A122.84,122.84,0,0,1,511,1606.48c-10.92,7.94-23.25,12.7-36.84,12.82-27.26.25-48.29-15.22-69.43-30.09C405.9,1588.85,407,1588.51,408,1588.25Zm10-100.65c-2.13-3.26-4.12-7-6.62-10.06,4.11-4.59,7.57-10,11.77-14.46a147.2,147.2,0,0,1,17.78-16,174.23,174.23,0,0,1,19.91-13c3.7-2.09,7.65-3.8,11.54-5.6.33,3.89.28,9,.31,12.8,0,5.06,0,10.13-.08,15.2l-1.05.07a95.06,95.06,0,0,0-21.4,4.32C443.6,1463.06,435,1466,431,1472c-2.19,3.25.73,7.39,4.29,7.48,6.15.16,12.77-3.49,18.73-5a92.72,92.72,0,0,1,18.3-2.7c-.53,12.53-1.71,25.06-1.44,37.58.08,3.81,6,6.08,7.75,2.1,2.45-5.49,3-11.45,3.4-17.39.47-7.4.77-14.8,1-22.21a77.87,77.87,0,0,1,9.64,1.2c6.62,1.25,13,4,19.61,4.84,3.26.4,6.46-2.64,7.29-5.55,1-3.41-.73-6.61-3.47-8.54-6.07-4.29-15.26-5.59-22.47-6.59q-5.16-.72-10.34-.93c0-5.16,0-10.32-.26-15.48a93.29,93.29,0,0,0-1.17-13.93c10.06,7.63,22.06,13.06,32.2,20.5a89.16,89.16,0,0,1,14.34,13c4.13,4.71,6.77,10.25,10.25,15.32-4.77,5.12-8.41,12.41-11.27,17.85a171.71,171.71,0,0,0-10.56,24.83,246.9,246.9,0,0,0-6.7,24.53c-1,4.46-1.93,9-2.81,13.44-.35,1.79-.76,3.64-1.11,5.52-4.22-.26-8.44-.44-12.65-.5.35-1.14.63-2.31.87-3.49a4.18,4.18,0,0,0,.34-1.07q.9-5.33,1.62-10.68a2.82,2.82,0,0,0,0-.41,6.07,6.07,0,0,0,1.12-2.31c.08-.28.14-.57.21-.85a25.91,25.91,0,0,0,2.82-11.44c.08-.26.16-.53.25-.79,1.08-3.16-1-6.81-3.93-8a6.77,6.77,0,0,0-6.22.52,6.32,6.32,0,0,0-4.51,4.82c-.55,3.83-1.53,5.26-3.24,8.68a7.16,7.16,0,0,0,2.54,9.33,7.5,7.5,0,0,0,.67.71q-1.17,3.69-2.25,7.41a5.32,5.32,0,0,0,0,2.88,27.69,27.69,0,0,0-.83,4.74c-9.71.22-19.4,1-29.06,2.11a6.69,6.69,0,0,0-.15-1.17l-.23-1.06a6.65,6.65,0,0,0-2.73-3.92c.06-.32.11-.63.2-1,.9-3.52-1.15-8.4-5.13-9h-.16a3,3,0,0,0-.24-.31,10.67,10.67,0,0,1-1.37-2.85c-.33-1.22-.36-2.9.27-3.41,2.15-1.76,2.28-4.6,1.25-7,.31-.85.6-1.72.86-2.6,1.58-5.45-5.9-8.2-8.86-3.73a15.24,15.24,0,0,1-2.35,2.7c-.41-2.8-.87-5.6-1.42-8.37a78.09,78.09,0,0,0-8.73-23.54C423,1494.58,420.4,1491.16,418.07,1487.6Zm-139.72-42.94c-5.52-.5-12.8-2.38-16.2-7.18a17.3,17.3,0,0,1-2.85-7.27,8.34,8.34,0,0,1-.07-1c6.32,3.71,14.37,4.7,20.54.27a4.91,4.91,0,0,0,1.52-1.79,13.56,13.56,0,0,0,11.4.86,11.75,11.75,0,0,0,5.09-3.75,19.47,19.47,0,0,0,6.29,3.19C301.83,1439.11,289.07,1445.62,278.35,1444.66ZM684.9,1290.59c-2.85,1.24-4,5.29-3.29,8.07a6.73,6.73,0,0,0,1,2.11c-9.36,1.77-18.78,3.1-27.73,4.75-16.24,3-32.46,6.16-48.66,9.34q-23.15,4.53-46.25,9.19,67.66-20.71,135.9-39.46l8.49-2.29Q694.59,1286.4,684.9,1290.59Zm74.79-4.31-.18.21c-6.45,1.15-12.88,2.59-19.28,4.1a7.51,7.51,0,0,0-.06-6.39l1-.41c12.6-4.88,25.4-9.58,37.69-15.29C772.47,1274.37,765.81,1280.08,759.69,1286.28Zm22.39-34.14c-11.94,2.16-23.78,5.3-35.54,8.12-14,3.35-27.85,7-41.73,10.67q-31.48,8.38-62.81,17.35l9.26-3.48q14.67-5.49,29.38-10.85c9.32-3.4,18.38-7.34,27.63-10.87h.34a86.19,86.19,0,0,0,18.83-4c7.79-1.79,15.37-4.62,22.93-7.46,4.69-1.58,9.35-3.23,14-5a7.49,7.49,0,0,0,2.76-1.85c4.26,2,8.55,4,12.76,6.19C780.59,1251.37,781.33,1251.76,782.08,1252.14ZM350.87,1373.79c12.52-3.86,24.61-9.28,36.77-14.09q19.44-7.71,39-15.15,39.35-15,79.08-28.85,71.25-24.95,143.87-45.8-25,8.64-49.84,17.74c-37.19,13.59-74.19,27.68-111.26,41.56-18.59,7-37.26,13.62-55.41,21.66-2.63.67-5.25,1.35-7.87,2.08a6.18,6.18,0,0,0-4.63,4.36q-11.82,3.93-23.62,7.93c-15.28,5.16-30.81,9.92-45.82,15.81-6.1,2.39-3.81,12,2.78,10.07,24.94-7.46,49.48-16.58,74.18-24.92.24,0,.48-.06.73-.11,36.42-7.49,72.76-15.41,109.2-22.83l2.62-.54q-49.38,14.19-98.4,29.64-22,6.95-43.89,14.16c-14.56,4.81-29.38,9.28-43.68,14.84a17,17,0,0,0-7,3.3c-.17-9-3-18.93-7-27.49A14.29,14.29,0,0,0,350.87,1373.79Zm-46.5-70.85c2.53.42,4.34,8,5.05,9.93,1.93,5.24,3.22,10.61,4.62,16a4,4,0,0,0-.93,3.06c.74,6.91,2.93,14.06,4.4,20.89,1.35,6.26,3.55,12.52,7.85,17.39a18,18,0,0,0,1.51,1.52,5.37,5.37,0,0,0,.26,1.8c1.9,5.84,4.32,11.5,6.11,17.39s3,12,5.29,17.7a5,5,0,0,0,3.19,3,29,29,0,0,0-2.13,4.42c-2,5.1-2.08,10.76-1.7,16.15.35,5.06.44,10.25,2.12,15-1.5,8.6,2.18,15.89,3.17,24.3a5.27,5.27,0,0,1,0,.56c-.53.25-1,.5-1.34.61-1.4.49-2.89,1.31-4.28,1.67a1.82,1.82,0,0,0-.48.2c-.37-.21-1.21-.58-1.37-.71-2.82-2.33-3.94-6.38-4.82-9.78-1.34-5.21-2.29-10.55-3.18-15.85-1.71-10.27-2.66-20.6-4-30.88a26,26,0,0,0,.77-3.67c1.88-14.19-.42-33.29-8.76-45.69v0c-1.65-9.37-4.84-18.3-7.25-27.48s-4.47-18.47-6.05-27.81C302.16,1311.05,300.76,1302.35,304.37,1302.94Zm-3.66,66.86c4.15,0,6.59,5.41,8,8.68,4.33,10.12,6.66,22.52,5.35,33.51-.58,4.89-4,7.78-8.72,5-3.78-2.23-5.7-7.06-7-11-3.41-10.33-3.45-21.18-5.83-31.64a4.62,4.62,0,0,0,.37-.62C294,1371.27,298.07,1369.79,300.71,1369.8Zm-25.65,10.3c1-2.24,6.13-5.74,7.72-1.67a4,4,0,0,0,.24.51,110.73,110.73,0,0,0,2.58,20.94c1.1,5.4,2.53,11.2,5.14,16.26-1.76,5.43-9-3.83-10-5.39a43,43,0,0,1-6.34-15.85C273.6,1390.37,273.11,1384.45,275.06,1380.1Zm-20.27,6.06c1.3-1.28,6.24-2.47,7.29-.91a49.84,49.84,0,0,0,.37,9.63c1.21,9.06,4.84,19,11,26.29-10.83,2.49-16.13-10-18.33-19.1C254.18,1398.12,251.33,1389.6,254.79,1386.16Zm-65.67,58.53c-6.91-.21-12.36-6.4-13.5-12.84-1.2-6.8,1.32-15.36,6.81-19.84,2.19-1.79,4.89-2.86,7.69-2,2.22.64,3.58,2.47,5.19,4a14.31,14.31,0,0,0-3.76,12.27,15.59,15.59,0,0,0,7.44,11.06C197,1441.32,194.68,1444.86,189.12,1444.69Zm34.41-19c-4.39,1.29-9.33,3.26-14,2.64-2.26-.31-6.06-1.7-6-4.52.09-5.63,11.68-7,15.53-7.82,8.87-1.77,17.91-3.21,26.7-5.35a46.31,46.31,0,0,0,3.56,8.18C240.58,1420.25,232,1423.19,223.53,1425.68Zm-94.8,194.67c2.16-7.86,6.57-13.13,12.41-18.58a35.38,35.38,0,0,0,11-18.91,58.06,58.06,0,0,0,9.31.84c1.69,9.57,3.65,19.15,4.32,28.87a65.4,65.4,0,0,1-.21,13.49c-.26,1.8.06,3-1.45,3.17s-4.06-3.35-4.93-4.27a6.09,6.09,0,0,0-3.17-1.88,31.73,31.73,0,0,0-2.4-4.39c-.48-.78-1-1.53-1.55-2.27a8.34,8.34,0,0,0-1.64-1.91c-.45-.33-1.31-.66-1.58-.83-2.6-1.64-5.87.51-5.93,3.4,0-.5-.22,1.42-.22,1.21a5.66,5.66,0,0,0,.53,2.22c.44,1.16.89,2.3,1.43,3.42a20,20,0,0,0,3.54,5.75,5.37,5.37,0,0,0,.74.64,6.72,6.72,0,0,0,.53,2.14,119,119,0,0,1,7.67,25.72c1.47,8,1,16.45,2.29,24.44C138.82,1668.6,121.51,1646.54,128.73,1620.35Zm41.8,68.93q-.89-.46-1.77-1a5.15,5.15,0,0,0,2.86-3.69c1.81-9.11-.46-19.86-2.29-28.86-1-4.69-2.15-9.35-3.54-13.94a14.51,14.51,0,0,0,1.8-.27c6.75-1.55,9.33-7.26,10.09-13.57,1.87-15.38-1.68-30.52-6.31-45.09a53.07,53.07,0,0,0,5.78-1.33,42.66,42.66,0,0,0,5.23,8.74c3.58,4.66,8.8,10.85,15.09,10.88,3.68,0,7.17-3.91,5.82-7.64-1.78-4.94-6.74-7.7-10.26-11.46a61.29,61.29,0,0,1-6.37-8.13,182.07,182.07,0,0,0,20-18.67c6.77-7.18,15.18-15.22,18.65-24.63,1.55-4.21-4-8.19-7.58-5.83-8,5.21-14,14.11-20.48,21.05-6.72,7.2-13.81,14-20.46,21.3-17.1,6.33-37.16,1.58-49.35-11.77a291.24,291.24,0,0,0,68.93-48,306,306,0,0,0,31.06-33.63c8.2-10.32,16.47-21.24,22.15-33.23A27.13,27.13,0,0,0,259.9,1452c-2.74,4-5.53,7.92-8.17,12-2.86,4.39-7.13,9.26-8,14.51-.74,4.33,3.5,8.49,7.76,6,5.09-3,8.15-9.21,10.94-14.25a108.34,108.34,0,0,0,6.43-14.3c1.25.36,2.53.66,3.83.92a40.3,40.3,0,0,0,15.7.09c-4.68,9-9,18.2-13.58,27.23q-9.46,18.57-20,36.57t-22.1,35.37c-7.64,11.5-16.77,22.34-23.68,34.27a5.75,5.75,0,0,0-.81,3,4.9,4.9,0,0,0-.59,4.27,80.7,80.7,0,0,0,7.16,16.23c2.53,4.45,5,10.32,9.56,13.09-1.91,1.69-3.85,3.35-5.84,5-3.1,2.5-6.76,4.61-9.31,7.7a6.65,6.65,0,0,0-1.13,2,5.33,5.33,0,0,0-1.32,6.75c2.45,4.25,7,6.51,11.25,8.75q5.06,2.67,10.27,5a5.31,5.31,0,0,0-.07,3.22c2,7.25,4.25,14.15,4.43,21.75s-2.2,14.54-2.4,22a7.4,7.4,0,0,0,.05.83C209.34,1706.32,188.94,1698.92,170.53,1689.28Zm78-19.58a5.69,5.69,0,0,0,3.67,2.13,5.1,5.1,0,0,0,.64,3.59,38,38,0,0,1,4.83,18.6c0,6.14-2.76,12-2.8,18q-6.85-.06-13.7-.73c4.27-7.09,4.51-17.11,3.94-25.1a64.3,64.3,0,0,0-3.85-18.74A73.54,73.54,0,0,0,248.54,1669.7Zm38.23,73.36c-6.61-5-12.71-10.73-19.12-16a105.45,105.45,0,0,0,11.42-1.67c4-.82,6.38-5.6,5.32-9.38-1.23-4.38-5.27-5.91-9.38-5.32-2.95.42-5.91.73-8.88.95,3-5.37,3.48-12.84,3.25-18.37a45.85,45.85,0,0,0-5.85-20.46c3.17.09,6.36,0,9.56-.16a7.09,7.09,0,0,0,.32,1,162,162,0,0,0,8.44,16.49c2.94,5.28,5.54,10.52,10.46,14.2,2.79,2.1,7.63-.7,7.24-4.15-.64-5.83-3.58-10.51-6.49-15.5-2.61-4.46-5.12-9-8.06-13.25a163.62,163.62,0,0,0,18.69-3.92c.33,1.91.72,3.8,1,5.68.84,4.95,1.59,9.92,2.28,14.89,1.29,9.36,2,18.77,2.52,28.2.77,14,.8,28,.37,42.08C302.24,1753.19,294.13,1748.68,286.77,1743.06Zm37.58-43.71c0-.31.13-.46,0,0Zm-5.75-53.22c-5.92,3.87-12.46,5.89-19.26,7.65-11.34,2.93-22.36,3.7-33.68,4-.35-3.53-1.18-6.81-.62-10.4.6-3.79,3-6.79,3.66-10.45.82-4.59-3.91-9.51-8.5-6.53-7,4.54-9.33,16.09-7.48,24.88-1.28-.32-2.56-.63-3.8-1-4.27-1.25-8.47-2.71-12.65-4.25q-5.88-2.17-11.57-4.78A149.47,149.47,0,0,0,236.41,1635a171.52,171.52,0,0,0,16.5-17.8,165.49,165.49,0,0,0,14-20c3.07-5.28,6.63-11,8.52-17.08,3.2.86,6.53,1.38,9.69,2.23a72.59,72.59,0,0,1,15.13,5.86c7.36,3.89,12.95,9.17,18.6,14.65-13.16,5.19-26.22,10.68-38.88,16.86-5.9,2.88-3.25,13.34,3.43,12.68,15.18-1.49,30.41,1.36,45,6.22C325,1640.92,321.88,1644,318.6,1646.13Zm252.51,11.54,3.27-16a7.59,7.59,0,0,0-2.33-7.63,7.07,7.07,0,0,0-13.4.24,63.4,63.4,0,0,0-2.83,11.14,19.69,19.69,0,0,0-.38,2.73,65,65,0,0,0-.37,11.34,7.8,7.8,0,0,0,3.31,5.91c-15,8.82-30.62,16.64-47.77,20.27-51.75,11-99.47-24.53-143.47-45.88-17.9-8.69-36-15.53-55-18.86,6.74-2.83,13.48-5.66,20.25-8.41a7.52,7.52,0,0,0,4.56-1.84c3.34-1.34,6.68-2.67,10-4,10.59-4.07,21.2-8.1,31.89-11.88,3.57-1.26,7.2-2.42,10.82-3.62a10.87,10.87,0,0,0,2.42.44,5.42,5.42,0,0,0,.42.64c19.23,24.79,51.45,42.94,83.34,42.18a76.17,76.17,0,0,0,42.86-14.7,141.06,141.06,0,0,0,17.31-14.88c2.68-2.67,5.32-5.39,7.83-8.21,2.68-3,4.3-6.15,6.36-9.53a7,7,0,0,0,.76-1.67c4.78,1,9.53,2.09,14.25,3.35,5.35,1.42,11.27,4.36,16.81,4.49a7.88,7.88,0,0,0,1.09,0c5.36,2.3,10.63,4.78,15.82,7.49a345,345,0,0,1,38.14,23.43c-19.13,5.18-37.38,16-53.65,25.89C579.38,1652.56,575.25,1655.12,571.11,1657.67ZM665,1856.58c3.25,1.77,6.93,2.05,10.48,2.83a29.51,29.51,0,0,1,11.3,5.31c7.39,5.47,13.48,13,19.72,19.66,1.06,1.15,2.13,2.3,3.19,3.46L708,1888a73.73,73.73,0,0,0-22.08,5.4c-7.71,3.26-16.07,10.16-17.93,18.32a72.36,72.36,0,0,0-10.47-10.09c5.64-3.52,11.14-7.24,16.48-11.21,5.9-4.39,15.36-9.55,16.19-17.5.25-2.44-2.24-4.38-4.45-4.44-7.22-.2-14,8.32-19.44,12.38-6.42,4.84-13.1,9.31-20,13.5a75,75,0,0,0-54.55-6.21,61.18,61.18,0,0,0-12.15,4.6c-.41-3.59-.95-7.16-1.21-10.58q-1-12.9-1.28-25.85a492.65,492.65,0,0,1,1.59-50.83,465.07,465.07,0,0,1,15.45-85.83,147.83,147.83,0,0,0,10.08,25.29,217.44,217.44,0,0,0,21.84,35,342,342,0,0,0,27.5,31.77c5,5.13,10,10.24,15.22,15.12a48.21,48.21,0,0,0-8.1,9.49C656.34,1843.43,657.18,1852.34,665,1856.58Zm14.1-38.57v0l.1,0Zm-11.92-13.6.1-.07,0,.1Zm66.56,5.52c-3.49-1.66-7.34-2.28-10.71-4.27-3.68-2.17-6.37-5.36-9.3-8.41a4.63,4.63,0,0,0-4.82-1.46,4.89,4.89,0,0,0-5.74,1.25c-6.46,6.64-14.15,12.32-21.1,18.44l-.39.33a8.06,8.06,0,0,0,1.63-3.5l0,0c7.56-5.74,4.83-13.55,3-21.55-1.68-7.4-2.15-19-9.46-23.32a10.58,10.58,0,0,0-16.24,9.09,18.11,18.11,0,0,0,.09,1.94l-.67-1c-3.76-5.63-8.81-11.7-16.38-10.57a11.62,11.62,0,0,0-7.67,4.58,225.8,225.8,0,0,1-14.19-20.5,34.34,34.34,0,0,0,7.59-.53,72.2,72.2,0,0,0,11-3.16,98.5,98.5,0,0,0,19.42-9.38c10.22-6.5,22.67-15.83,28.44-27.24,1.68,2.12,3.4,4.2,5.13,6.26,11.4,13.52,23.7,26.23,32.58,41.52a20.74,20.74,0,0,0-2.21,1.38,25.26,25.26,0,0,0-5.23,4.83,21,21,0,0,0-5.08,14.66c.79,10.6,9.95,20,20.48,20.75h.14a4.51,4.51,0,0,0,2.73.06,62.5,62.5,0,0,0,8.24-2.95c-.37.52-.74,1-1.13,1.55A101.07,101.07,0,0,1,733.75,1809.93Zm81.64-19.63c1.15-3.8,5.49-9.17,8.93-11.11,1.95-1.11,2.42-.55,3.67,1.23a61.53,61.53,0,0,1,4,7,96.89,96.89,0,0,1,6.72,16.85c2.14,7.12,11,6.13,13.52,0a61.26,61.26,0,0,1,10.16-16.67c3.7-4.31,8.77-10.12,14.39-11.91,2-.63,2.69-1.25,2.24.94a20.45,20.45,0,0,1-2.88,6.45,185.72,185.72,0,0,1-13.49,19c-2,2.54-2.87,5.73-1.13,8.71,1.5,2.56,5.19,4.43,8.12,3.3a126.54,126.54,0,0,1,17.84-5.44c3-.66,6.07-1.28,9.14-1.64a18.19,18.19,0,0,1,3.64-.32.11.11,0,0,0,0,0c.5,3.22-4.32,5.46-6.4,6.48-4.92,2.39-9.62,4.24-13.75,8-3.49,3.15-2.67,7.1-.11,9.52a62,62,0,0,0-15.67-1.55,63.93,63.93,0,0,0-38.68,15c1.34-7.55,2.23-15.24,3.21-22.76,1.36-10.41-2.79-16.58-9.88-23.54C816.75,1795.61,814.39,1793.64,815.39,1790.3Zm-9.79,105.85a35.4,35.4,0,0,0-9,11.46,340.34,340.34,0,0,1-13-38.87c7.52-2.46,18.24,2.57,24.65,5.07a66.73,66.73,0,0,1,14.8,7.7,24.67,24.67,0,0,1,3.4,3c-1.14.39-2.28.81-3.4,1.27A64,64,0,0,0,805.6,1896.15Zm34.89-15c-3.89-6.94-11.62-12-19.33-15.63,9.77-13.87,26-23.28,43.17-23.33a50.75,50.75,0,0,1,26.25,7.49c7.51,4.53,12.58,10.6,17.91,17.11A39.38,39.38,0,0,0,884,1889.11,74.85,74.85,0,0,0,840.49,1881.2Zm94.79,3.32c-.54.57-1.08,1.15-1.61,1.73A173.2,173.2,0,0,0,919,1905c-2,3-4.21,6-6.18,9.25A93.07,93.07,0,0,0,894,1895.36c4.32-8.12,12.27-14.53,21.44-15.9a27.58,27.58,0,0,1,15.7,2.42A23,23,0,0,1,935.28,1884.52Zm38.07-81.25a4.64,4.64,0,0,0-1.87-5.81,13.41,13.41,0,0,1-5.22-6.16c-.94-2.7.42-4.7,1.37-7.19,3.2-8.46-1.88-14.06-6.55-20.66l-1-1.44,1.57,1.67q5.54,5.89,10.82,12c3.78,4.39,7.12,9.45,11.85,12.84s9-3,7.19-7.18c-2.11-5-6.62-9.23-10.16-13.26q-5.64-6.43-11.56-12.59a248.56,248.56,0,0,0-20.58-18.77A89.28,89.28,0,0,1,985.76,1759c12.61,12.45,20.75,27.74,25.06,44.7C998.36,1802.21,985.77,1801.67,973.35,1803.27Z"/><path class="cls-1" d="M411.57,1858.67c-7,1.93-13.35,6.56-20.22,9.09s-14.22,3.91-21.49,3c-4.8-.58-5.52,7-1.12,8.23,8.41,2.41,16.25,2,24.69-.3,7.74-2.14,17.29-5.74,23.43-11C421.14,1864.14,416.55,1857.31,411.57,1858.67Z"/><path class="cls-1" d="M535.36,1873.17c-4.94-3.07-12.07-2.84-17.6-4.89s-10.65-5.28-15.95-8c-4.5-2.3-10.15,2.49-7.23,7.23,4.08,6.62,10.54,11.32,17.62,14.35s15.87,6.09,23.16,2.78C540.14,1882.5,539.25,1875.57,535.36,1873.17Z"/><path class="cls-1" d="M336.07,1862.5a28.78,28.78,0,0,1-6.69-5.91c-3.61-4.28-11,1.37-7.81,6a37.19,37.19,0,0,0,8.07,8.63c3.16,2.42,7.67,5.47,11.77,4.14a5,5,0,0,0,2.92-7.17C342.52,1865.19,338.93,1864.31,336.07,1862.5Z"/><path class="cls-1" d="M435,1849.21c-3.39,4.73,4.08,10.34,8,6.18,8.28-8.79,18.93.52,28.2,1.64,4.07.49,5-4.78,3-7.26C464.93,1838.47,443.84,1836.89,435,1849.21Z"/><path class="cls-1" d="M758.86,1895.4a6.39,6.39,0,0,0-2.88-3.73,6.25,6.25,0,0,0-8.86,3,4.55,4.55,0,0,0-.54,2.41,6.23,6.23,0,0,0,.85,3.15c.12.26.23.52.36.79v0a8.9,8.9,0,0,0,.84,1.83,6,6,0,0,0,7.49,2.46,5.71,5.71,0,0,0,2.87-2.46c.21-.48.41-.95.61-1.43a6.16,6.16,0,0,0,0-3.19,5.16,5.16,0,0,0-.4-1.32C759.1,1896.41,759,1895.91,758.86,1895.4Z"/><path class="cls-1" d="M770.78,1921.22c-3.42-4.65-11.69-2.14-9.89,4.17,2.74,9.58,8,18,12.78,26.69,3.57,6.5,12.54.79,9.72-5.68C779.64,1937.8,776.39,1928.86,770.78,1921.22Z"/><path class="cls-1" d="M455.26,1512.49c4.15-5.86,1.22-16.2.32-22.77-.76-5.49-9.71-4.11-9.59,1.3.15,6.58-2.4,15.48.79,21.47C448.65,1516,453.25,1515.32,455.26,1512.49Z"/></svg>