<?xml version="1.0" encoding="utf-8"?>
<!-- Generator: Adobe Illustrator 21.0.0, SVG Export Plug-In . SVG Version: 6.00 Build 0)  -->
<svg version="1.1" id="Warstwa_1" xmlns="http://www.w3.org/2000/svg" xmlns:xlink="http://www.w3.org/1999/xlink" x="0px" y="0px"
	 viewBox="0 0 300 600" style="enable-background:new 0 0 300 600;" xml:space="preserve">
<style type="text/css">
	.st0{fill:#D49E67;}
	.st1{fill:#CA9E67;}
	.st2{fill:#E30613;}
	.st3{fill:#936037;}
</style>
<path class="st0" d="M275,235c-0.8-0.8-1.9-1.4-3-1.6c-0.2-0.5-0.3-1-0.6-1.5c0.3-0.4,0.5-0.9,0.7-1.4c0.3-0.9,0.2-2.1-0.1-3.1
	c0-3.6-2.8-6.6-6.7-7.1c-4.2-0.6-7.4,2.2-9.3,5.6c-0.1,0.2-0.2,0.4-0.3,0.7c0.1-0.7,0.1-1.3,0-2.1c-0.7-3.7-5-6-8.5-5.5
	c-3.3,0.4-6.2,3-7,6.3c-0.3,0.2-0.5,0.4-0.8,0.7c-1.1,1.3-2.1,2.1-2.7,3.7c-0.7,1.6-1.2,3.2-1.5,5c-0.5,2.5-0.5,4.9-0.2,7.3
	c-2.9,1.8-5.4,4.1-7.3,6.7c-2.2-0.4-4.7,0.3-6.1,2.7c-0.6,1-1.2,1.9-1.7,3c-1.7-3.8-7.5-3.6-10-0.6c-0.1-0.1-0.3-0.3-0.4-0.4
	c-1-1.6-1.9-3.3-2.7-5c1.7-18.6-0.8-37.8-3.9-56.4c1.5-0.9,2.5-2.6,2-4.7c-0.5-2.1-1.7-3.8-2.6-5.8c-0.9-1.9-1.7-4-2.8-5.8
	c-0.9-1.7-2.1-3.4-3.5-4.7c-1.7-1.6-4.1-2.3-5.7-4c-0.8-0.8-1.8-1.2-2.7-1.2c-4.8-3.4-10.6-4.9-16.4-2.7c-0.1-0.2-0.3-0.5-0.4-0.7
	c-0.5-0.6-1-1-1.7-1.3c-0.8-0.4-1.9-0.5-2.8-0.2c-0.8,0.3-1.5,0.6-2.1,1.2c-0.4,0.3-0.7,0.7-0.9,1.1c-0.3,0.5-0.5,1-0.7,1.5
	c-1.4,0-2.8,0.6-3.9,1.5c-0.5-1-1.1-2-1.7-2.9c0,0-0.1-0.1-0.1-0.1c0.4-0.1,0.7-0.1,1.1-0.2c0.4-0.1,0.9-0.3,1.3-0.4
	c1.8,0.1,3.7-0.4,5.5-1.7c0.1-0.1,0.3-0.2,0.4-0.3c2,0,4-0.9,5.3-2.8c1.4-2.1,2.5-4.5,3.5-6.8c1.1-2.4,2.1-4.7,2.3-7.2
	c1.4-3.1,2.3-6.4,2.7-9.9c0.4-0.2,0.9-0.5,1.3-0.7c1.8-0.9,2.5-3.6,1.4-5.3c-1.2-1.9-3.3-2.3-5.3-1.4c-0.2,0.1-0.4,0.2-0.7,0.3
	c-0.1,0-0.1,0-0.2,0c-1.8-0.5-3.9-0.2-5.6,0.8c-0.4-0.6-0.8-1.1-1.3-1.5c-0.1-1.3-0.2-2.5,0.1-3.8c0.4-2-0.5-3.4-1.7-4.1
	c0.6-2,1-4.1,1.8-6c0.6-1.5,1.5-2.8,2.4-4.1c0.5,0.4,1.1,0.7,1.8,0.9c0.4,0.1,0.8,0.2,1.2,0.2c1.2,0.5,2.5,0.4,3.7-0.2
	c0.4-0.2,0.7-0.5,1.1-0.7c0.7-0.4,1.3-0.8,1.9-1.4c1.3-1.3,1.9-3.4,1.4-5.2c-0.3-0.8-0.6-1.7-0.9-2.5c-0.5-1.3-1.1-2.4-2.4-3.1
	c-0.6-0.4-1.5-0.6-2.3-0.7c-0.3-5.4-2.7-10.2-7.1-13.9c-4.7-3.8-10.5-5.2-16.4-5.4c-2.1-0.3-4.2-0.1-6.3,0.3c-0.5,0.1-1,0.3-1.4,0.5
	c-0.1,0-0.2-0.1-0.2-0.2c-1.9-1-4.7-1.3-6.5,0c-12.1,8.9-19.6,22.5-20.6,37.4c-2.1,0.1-4,1.1-4.9,3.2c-1.9,4.6-2.6,10.3,2.5,13.2
	c2.1,1.2,4.2,1.3,6,0.7c0.1,0.9,0.2,1.9,0.2,2.4c0,0.6,0,1.1,0,1.7c-1.1,2.5-1.4,5.2-1.2,7.9c-0.4,1.7-0.7,3.4-0.9,5
	c-0.4,0.1-0.8,0.2-1.1,0.4c-2.2,1.4-4,3.1-6.1,4.8c-1.8,1.5-3.8,3-5.5,4.6c-0.3,0.3-0.5,0.6-0.7,0.9c-0.3,0.1-0.5,0.1-0.7,0.2
	c-1.5-0.8-3.1-1-4.7-0.5c-6,2.2-11.5,5.1-16.7,8.5c-2-0.4-4.1,0.1-5.7,1.6c-22.5,21.6-38.8,48.9-46.8,79.1c-0.3,1.3-0.3,2.5,0.1,3.5
	c-1.4,5.4-1.9,11-1.8,16.7c0.1,6.9,0.6,14.8,3.9,21.1c1.7,14.6,6.1,28.9,12.5,41.8c-1.4,4.1-1.7,9-1.6,13c0,1.3,0.5,2.3,1.3,3.1
	c0,2.7,0.1,5.4,0.3,7.9c0.3,4.3,4,6.7,7.6,5.8c3.6,0.1,6.8-1.6,8.7-4.8c0.9-1.5,1.3-3,1.4-4.5c1.5-0.3,2.9-1,4.1-1.9
	c1.6,0.5,3.6,0.2,4.7-1.1c0.7-0.8,1.4-1.5,1.9-2.4c0.5-1,0.8-2.1,1.1-3.2c0.2-0.7,0.4-1.4,0.5-2.2c0.3-1.8,0-3.4-0.9-5
	c-1-1.7-3-2.6-4.9-2.3c-0.6-1-1.2-2-1.9-2.9c-2.6-3.6-5.2-8-9.6-8.8c-1.2-3.3-2.2-6.7-3.2-10.1c0.2-0.9,0.2-1.9-0.1-3
	c-2.3-10-4.6-20-6.8-30c-0.4-1.6-1.2-2.8-2.4-3.6c-0.2-8.3,0.6-16.6,2.6-24.6c2.5-4.7,4.6-9.6,6.1-14.7c4.9-5.8,9.2-12,12.8-18.7
	c5-7.1,10.3-14,16.1-20.5c4.6-4.2,9.6-8.1,15-11.6c0,0.1-0.1,0.2-0.1,0.3c-6.1,20.2-9.2,41.4-9.5,62.5c-0.3,0.7-0.5,1.5-0.5,2.5
	c0,3.1,0,6.1-0.1,9.2c-1.5,13.1-1.7,26.3-0.3,39.4c-0.4,2.5-0.5,5-0.6,7.3c-0.2,4.2,0.3,8.6,1.6,12.7c0.1,3.9,0.5,7.9,2.1,11.3
	c-0.2,0.8-0.3,1.7-0.4,2.5c-0.7,6.3,7.8,7.6,11.1,3.6c15.7-3.8,31.4-7.8,47.2-11.5c1,0.7,2.2,1.2,3.6,1.2c2.2,0,4.6-0.5,6.8-0.8
	c1.8-0.2,3.7-0.4,5.6-0.7c1.4,1.3,3.4,2.1,5.6,2.2c3.3,0.2,5.5-3.3,4.8-6.3c-0.5-2.1-1.3-4.6-2.4-6.8c1.2-0.8,1.9-2.2,2-3.7
	c0.1-1.3-0.1-2.7-0.4-4c-0.2-0.7-0.4-1.4-0.8-2.1c-0.1-0.2-0.2-0.5-0.3-0.7c-0.7-1-0.8-1.2-0.6-0.6c-0.3-0.4-0.6-0.7-0.9-0.9
	c0.2-0.9,0.2-2,0-3.1c-1.5-6.4-2.5-12.9-3-19.3c1.2-8.4,1.5-16.9,0.6-25.3c0.7-5.6,1-11.2,0.7-16.9c0,0,0,0,0-0.1
	c1-3.1,1.9-6.1,2.8-9.2c0.3-0.9,0.3-1.7,0.3-2.5c1.1-2.7,2.2-5.4,3.3-8.1c0.5-0.2,1.1-0.4,1.5-0.7c0.6,8.4,2.4,16.8,5.6,24.6
	c0.6,4.1,1.4,8.1,2.2,12c0.7,3.4,4.1,4.9,7.2,4.5c0.4,2.3,1.2,4.6,2.9,7c1.3,1.8,3,3.4,4.9,4.7c0,0.1,0,0.2,0,0.4
	c-1.3,6.9,13.6,11.8,18.2,6.4c0.2-0.2,0.4-0.5,0.5-0.8c0,0,0.1,0,0.1,0c1.9-1.1,3.6-2.5,5.2-4.1c2.3-1.1,4.2-2.6,5.8-4.6
	c3.4-0.6,5.9-3.1,8.2-6.3c1.1-1.6,2.2-3.1,3.3-4.7c0.8,0.8,1.7,1.3,2.8,1.6c0.4,0.4,0.8,0.8,1.2,1.1c4.5,3.3,8,1.4,10.6-2.1
	c2.2,3,7.8,3.7,10-0.2c0.3-0.4,0.5-0.9,0.8-1.4c2.9-2.2,4.6-6,5.2-9.7c0.4-0.3,0.9-0.7,1.2-1.1c1.1-1.1,1.7-2.6,1.7-4.2
	C276.7,237.7,276.1,236,275,235z M153.5,119c0,0.2,0,0.3,0,0.5c-0.4,2-0.7,3.9-1,5.8c-0.6,0.6-1.2,1.2-1.8,1.9
	c-1.2-0.7-2.6-1.4-4.1-1.8c-1.9-0.6-4.2,0-5.7,1.3c-0.6-1.3-1.1-2.7-1.5-4.1c-0.1-0.3-0.2-0.5-0.3-0.8c1.8-2.9,3.9-5.6,6.6-8.2
	c1.4-1.5,1.8-3.2,1.4-4.6c1.3-0.2,2.5-0.4,3.7-0.6c0.5,0,0.9-0.1,1.4-0.2C154.1,111.1,153.8,115,153.5,119z"/>
<path class="st1" d="M118.8,430.3c0.5-1,0.7-1.9,0.9-2.9c0.2-0.7,0.3-1.4,0.3-2.1c0-2.4-1.9-4.5-4.3-4.8c-2.2-0.3-4.2,0.9-5.1,2.8
	c-2.1,0.5-4.1,0.6-6.1,0.4c-1.3-0.9-3-1.3-4.6-1.1c-0.1,0-0.1,0-0.2-0.1c-0.6-0.2-1.1-0.3-1.7-0.3c0,0,0-0.1-0.1-0.1
	c-1.8-1.7-4.6-1.7-6.3,0c-0.9,0.9-1.3,2.3-1.2,3.6c-0.1,0.7,0,1.2,0.3,1.9c0.3,0.7,0.8,1.4,1.5,1.7c0.1,1.2,0.5,2.3,1,3.2
	c-0.9,1-1.6,2.4-1.8,4c-1.3,10.7-1.1,21.4,0.3,32.1c-3.5,18.1-4.5,36.6-2.8,55c0,0.3,0.1,0.6,0.1,0.8c0,0.5-0.1,0.9-0.1,1.4
	c0,0,0,0.1,0,0.1c-3,7.5-2.2,15.3,1.4,22.4c0.4,0.8,0.9,1.4,1.5,1.9c0,0.1,0,0.2,0.1,0.3c0.2,0.6,0.5,1.1,0.8,1.6
	c0.1,0.6,0.3,1.3,0.4,1.9c-0.2,3.8,0.7,7.5,2.8,10.9c1,1.7,4.8-2.4,6.6-2.2c2.1,2.7,6.1-4.9,8.7-7.3c1.5-0.4,4.5-1.7,5.4-3.1
	c0.4-0.3,0.7-0.7,1-1.2c2.1-4.3-1,4.1-1.6-1c0.9-0.9,2.1-2.5,1.2-3.8c-4.6-7.1-4.3-13.6-5.2-24.7c0-0.1-0.1-0.2-0.2-0.3
	c0-0.1,0-0.3,0-0.4c-0.1-1.6-0.3-3.2-0.4-4.8c0.1-1,0.3-2.1,0.4-3.1c0.4-0.7,0.7-1.4,0.8-2.3c0-0.2,0.1-0.4,0.1-0.6
	c1.6-0.6,3-2,3.2-4.3c0-0.1,0-0.3,0-0.4c1.3-3.5,1.5-7.5,1.9-11.1c0.2-1.4-0.6-2.7-1.7-3.5c1.6-10.8,1.9-21.7,1.7-32.6
	c1.3-8.2,1.6-16.5,0.9-24.8c0-0.1,0-0.2,0-0.3c0.1-0.8,0.1-1.6,0.2-2.4C118.7,430.4,118.7,430.4,118.8,430.3z"/>
<path class="st1" d="M232,523.4c-1.8-0.2-3.6-0.3-5.4-0.4c-0.8-2-2.9-3.6-6-3c-4.7,0.9-8.6-1-12.3-3.4c0-0.1,0-0.2-0.1-0.3
	c-0.8-2.1-2.7-3.9-4.9-4.3c-0.2-0.4-0.4-0.8-0.6-1.2c-1.2-2.5-2.4-5-3.4-7.6c-0.1-0.2-0.2-0.4-0.3-0.6c-0.1-0.3-0.1-0.6-0.2-0.8
	c3.7-16,8.2-31.9,12.2-47.9c4.1-16.4,7.7-33.3,6-50.3c-0.6-5.7-7.2-9.4-11.7-4.8c-5.3,5.3-12,9.1-17.5,14c-0.4,0.1-0.8,0.3-1.1,0.5
	c-0.9-0.6-2.1-0.9-3.3-0.5c-1.6,0.4-3.3,2.2-3,4c0.4,2.9,1,6.8,3,9.3c-1,3.1-1.1,6.5,0.1,9.6c0.2,0.7,0.6,1.3,1,1.9
	c-0.6,5.2-0.7,10.4-0.4,15.7c-1.8,10.9-3.5,21.8-4.9,32.8c-1.1,5.9-1.9,11.8-2.2,17.8c0,0.4,0,0.8,0.1,1.2
	c-0.8,6.9-0.9,13.8-0.2,20.8c0.3,2.6,1.8,5.2,4.2,6.1c0.3,0.6,0.8,1.1,1.5,1.5c6.2,3.5,12,1.1,18.5-0.2c0.3-0.1,0.6-0.2,0.9-0.3
	c0.9,0.1,1.8,0.1,2.6-0.1c0.7,0.4,1.4,0.8,2.3,1.1c3.6,1.2,7.8,0.9,11.5,0.9c4.5,0.1,9,0,13.5-0.3C239.1,533.8,239,524,232,523.4z"
	/>
<path class="st2" d="M196,392.9c-0.9-2.7-3.6-4.4-6.4-3.6c-2.2,0.6-3.6,2-4.7,3.9c-0.1,0.1-0.1,0.2-0.2,0.4c0,0,0,0,0,0
	c-1.9-0.3-3.3-0.5-5.2-0.1c-4.3,0.9-5.4,6.7-2.5,9.6c1.6,1.6,4.5,3,6.7,3.4c2.3,0.4,5.1,2.1,6.6,0.6c0.1-0.4,2.5-3.5,3.3-5
	c0.5-0.9,1-1.9,1.5-2.8c0.4-0.7,0.9-1.5,1.1-2.4C196.5,395.6,196.4,394.2,196,392.9z"/>
<path class="st2" d="M194.2,369.6c-0.9-2.7-3.6-4.4-6.4-3.6c-2.2,0.6-3.6,2-4.7,3.9c-0.1,0.1-0.1,0.2-0.2,0.4c0,0,0,0,0,0
	c-1.9-0.3-3.3-0.5-5.2-0.1c-4.3,0.9-5.4,6.7-2.5,9.6c1.6,1.6,4.5,3,6.7,3.4c2.3,0.4,5.1,2.1,6.6,0.6c0.1-0.4,2.5-3.5,3.3-5
	c0.5-0.9,1-1.9,1.5-2.8c0.4-0.7,0.9-1.5,1.1-2.4C194.6,372.3,194.6,370.8,194.2,369.6z"/>
<path class="st2" d="M153.2,355.8c-0.9-2.7-3.6-4.4-6.4-3.6c-2.2,0.6-3.6,2-4.7,3.9c-0.1,0.1-0.1,0.2-0.2,0.4c0,0,0,0,0,0
	c-1.9-0.3-3.3-0.5-5.2-0.1c-4.3,0.9-5.4,6.7-2.5,9.6c1.6,1.6,4.5,3,6.7,3.4c2.3,0.4,5.1,2.1,6.6,0.6c0.1-0.4,2.5-3.5,3.3-5
	c0.5-0.9,1-1.9,1.5-2.8c0.4-0.7,0.9-1.5,1.1-2.4C153.6,358.4,153.6,357,153.2,355.8z"/>
<path class="st2" d="M127.2,381.4c-0.9-2.7-3.6-4.4-6.4-3.6c-2.2,0.6-3.6,2-4.7,3.9c-0.1,0.1-0.1,0.2-0.2,0.4c0,0,0,0,0,0
	c-1.9-0.3-3.3-0.5-5.2-0.1c-4.3,0.9-5.4,6.7-2.5,9.6c1.6,1.6,4.5,3,6.7,3.4c2.3,0.4,5.1,2.1,6.6,0.6c0.1-0.4,2.5-3.5,3.3-5
	c0.5-0.9,1-1.9,1.5-2.8c0.4-0.7,0.9-1.5,1.1-2.4C127.6,384.1,127.6,382.7,127.2,381.4z"/>
<path class="st2" d="M122.9,357.1c-0.9-2.7-3.6-4.4-6.4-3.6c-2.2,0.6-3.6,2-4.7,3.9c-0.1,0.1-0.1,0.2-0.2,0.4c0,0,0,0,0,0
	c-1.9-0.3-3.3-0.5-5.2-0.1c-4.3,0.9-5.4,6.7-2.5,9.6c1.6,1.6,4.5,3,6.7,3.4c2.3,0.4,5.1,2.1,6.6,0.6c0.1-0.4,2.5-3.5,3.3-5
	c0.5-0.9,1-1.9,1.5-2.8c0.4-0.7,0.9-1.5,1.1-2.4C123.3,359.8,123.3,358.3,122.9,357.1z"/>
<path class="st2" d="M188.4,344.3c-0.9-2.7-3.6-4.4-6.4-3.6c-2.2,0.6-3.6,2-4.7,3.9c-0.1,0.1-0.1,0.2-0.2,0.4c0,0,0,0,0,0
	c-1.9-0.3-3.3-0.5-5.2-0.1c-4.3,0.9-5.4,6.7-2.5,9.6c1.6,1.6,4.5,3,6.7,3.4c2.3,0.4,5.1,2.1,6.6,0.6c0.1-0.4,2.5-3.5,3.3-5
	c0.5-0.9,1-1.9,1.5-2.8c0.4-0.7,0.9-1.5,1.1-2.4C188.8,346.9,188.8,345.5,188.4,344.3z"/>
<path class="st2" d="M114.2,410.5c-0.4-1.3-1.1-2.3-2.1-3.1c-2.2-1.7-5.8-1.7-7.8,0.5c-0.6,0.6-1,1.3-1.5,2
	c-0.2-0.2-0.5-0.4-0.7-0.6c-1.2-1-2.5-1.7-4.1-1.7c-1.4,0-3.1,0.6-4.1,1.7c-1,1.1-1.8,2.6-1.7,4.1c0.1,1.6,0.7,2.9,1.7,4.1
	c0.6,0.7,1.2,1.5,1.8,2.2c0.8,1,1.8,2.2,3,2.8c1.3,0.6,2.5,0.9,3.9,0.7c1.2-0.2,2.4-0.7,3.3-1.5c0.5,0,1.1,0,1.6-0.2
	c1.5-0.5,2.5-1.4,3.4-2.6c0.9-1.2,2.1-2.4,2.7-3.8C114.2,413.6,114.7,412.1,114.2,410.5z"/>
<path class="st3" d="M148.1,273c-0.2-1.6-0.9-3.1-2.5-3.7c-1.6-0.6-3.1-0.3-4.4,0.8c-0.9,0.7-1.3,1.5-1.9,2.5c0,0-0.3,0.5-0.4,0.6
	c-0.3,0.3-0.7,0.9-0.7,0.9c-0.2,0.3-0.5,0.5-0.7,0.7c-0.1,0.1-0.5,0.4-0.6,0.5c-0.2,0.2-0.5,0.3-0.7,0.5c-0.3,0.2-0.4,0.3-0.2,0.2
	c-0.1,0.1-0.7,0.5-0.9,0.6c-1.6,0.9-2.2,2.9-1.5,4.6c0.8,1.8,2.5,2.5,4.3,2.1c2.6-0.5,4.6-1.6,6.6-3.3
	C146.5,278.6,148.5,275.6,148.1,273z"/>
<path class="st3" d="M144.9,248.3c-1.9-0.1-3.6,1.1-5.1,2.3c-1.3,1-2.6,2-3.9,2.9c-1.7,1.3-2.5,3.4-1.4,5.3c1,1.8,3.6,2.5,5.3,1.4
	c1.4-0.9,2.9-1.8,4.3-2.8c1.8-1.2,3.6-2.4,4.3-4.6C149.1,250.5,147.1,248.3,144.9,248.3z"/>
<path class="st3" d="M149,292.7c-2.1,0.1-4.1,1.3-5.6,2.7c-1.2,1.1-2.3,2.4-3.4,3.6c-1.6,1.6-1.7,4.5,0,6.1c1.7,1.6,4.4,1.7,6.1,0
	c1.2-1.1,2.4-2.2,3.5-3.5c1.4-1.5,2.6-3.5,2.7-5.6C152.4,294.3,150.8,292.6,149,292.7z"/>
<path class="st3" d="M162.4,231.2c-1.1-3.1-4.2-4.7-6.6-6.8c-2.1-1.8-4.4-3.8-6.1-6.1c-1.3-1.9-3.4-11.2-5-9.6
	c-2.7,2.7-10.2,13.9-13.5,16.1c-3.2,2.2-7.2,3.5-11,3.9c-3.9,0.4-5.5,6.5-1,7.4c9,1.8,20.8-2.5,25-11.1c1.2,2.2,2.5,4.2,4.3,6.2
	c2.2,2.4,6.2,6.1,9.7,5.7C160.7,236.5,163.4,234.3,162.4,231.2z"/>
<path class="st3" d="M163,150.6c-1.7-1.7-3.9-1.6-6.1-1.1c-0.5,0.1-1,0.3-1.4,0.5c-0.7,0.3-1.3,0.6-1.9,1.1
	c-0.2,0.2-0.4,0.4-0.5,0.6c-0.7,0.8-1.1,1.9-0.9,3.1c0.2,1.3,1.1,2.6,2.4,3.1c1.4,0.7,3.1,0.7,4.6,0.5c1.8-0.3,3.7-0.8,4.5-2.6
	C164.5,154,164.4,152.1,163,150.6z"/>
<path class="st3" d="M146.5,108.3c-0.4-0.4-0.9-0.8-1.5-1.1c0,0,0,0,0,0c-0.2-0.1-0.3-0.3-0.5-0.4c-0.3-0.3-0.6-0.5-0.9-0.8
	c0,0,0,0,0,0c-0.1-0.2-0.3-0.4-0.3-0.4c-0.8-1.4-2.7-2.2-4.2-1.7c-1.5,0.5-2.2-1.8-2.1-0.1c0.1,1.6-0.3,7,0.6,8.4
	c1,1.6,2.7,3.2,4.6,3.6c1.8,0.4,4-0.2,4.9-2C148,111.9,147.9,109.6,146.5,108.3z"/>
<g>
	<path class="st3" d="M173.9,103.1C173.9,103.1,173.9,103.1,173.9,103.1C173.9,103.1,173.9,103.1,173.9,103.1
		C173.9,103.1,173.9,103.1,173.9,103.1C173.9,103.1,173.9,103.1,173.9,103.1z"/>
	<path class="st3" d="M173.8,103.2c0.1,0,0.1,0,0.2-0.1c0.1,0,0.1-0.1,0.2-0.1C174,103.1,173.9,103.1,173.8,103.2z"/>
	<path class="st3" d="M181.7,104.7c-0.2-0.9-0.8-1.6-1.5-2.2c-1.4-1.1-3.2-1.1-4.7-0.3c-0.5,0.3-1,0.6-1.4,0.9c0,0,0,0,0,0
		c0.2-0.1,0.3-0.2,0.5-0.4c-0.2,0.1-0.4,0.3-0.6,0.4c0,0,0.1,0,0.1,0c0,0-0.1,0-0.1,0.1c-0.2,0.2-0.5,0.3-0.7,0.5
		c0.2-0.2,0.4-0.3,0.7-0.5c-0.4,0.2-0.7,0.4-1,0.7c-0.6,0.6-1,1.4-1.1,2.3c-0.2,1.6,0.5,3.1,1.9,4c1.3,0.9,2.8,0.9,4.3,0.6
		c1.7-0.3,3.4-2.1,3.7-3.8C181.9,106.2,181.9,105.4,181.7,104.7z"/>
</g>
<path class="st3" d="M118,121.8c-3.2,0-3.2,5,0,5C121.2,126.8,121.2,121.8,118,121.8z"/>
<path class="st3" d="M126.9,327.1c-1.6-4.1-4-8.1-6.2-11.9c-1.8-3.2-7.2-1.9-7,1.9c0.3,5.1,2,10.6,5.4,14.5
	C122.1,335,128.6,331.4,126.9,327.1z"/>
<path class="st3" d="M166.8,312.4c-1.2-2.2-4.3-2.4-6-0.8c-1.7,1.6-1.9,3.9-2,6.1c-0.1,1.9-0.3,3.7,0,5.6c0.5,3.1,5.4,3.6,6.7,0.9
	c0.8-1.7,1.1-3.5,1.6-5.4C167.6,316.6,167.9,314.5,166.8,312.4z"/>
<path class="st3" d="M117.5,420c-3.8,0-7.5,1.5-11.3,1.8c-3.6,0.3-7.8-0.8-11.2,0.6c-1.8,0.7-3.5,3.1-2,5c5.8,7.9,22.4,5.3,27.7-2.1
	C122.3,423.1,120.1,420,117.5,420z"/>
<path class="st3" d="M212.6,399.4c-5.3,0.7-9.6,3.8-14.1,6.5c-4.3,2.5-8.7,5.3-13.2,7.5c-2.3,0.3-4.3,2.2-3.4,4.8
	c0.1,0.2,0.1,0.4,0.2,0.6c0.7,1.9,2.2,3,4.1,3.2c5.3,0.4,11.5-3.7,16-6.3c4.8-2.7,10.8-6.1,13.2-11.3
	C216.4,402.4,215.4,399,212.6,399.4z"/>
<path class="st3" d="M264.2,224.1c-1.3-3.6-8-2.3-8.2,1.7c-0.2,5.3,1.8,9.9,1.5,15.2c-0.3,5.4-1.6,10.6-2.2,15.9
	c-0.6,5.2,6.9,5.4,8.5,1.1C267.5,248.2,267.8,234,264.2,224.1z"/>
<path class="st3" d="M63,321.9c-0.6-1.4-2.2-2.3-3.8-1.8c-0.4,0.1-0.8,0.2-1.1,0.3c-0.7,0.2-1.1,0.5-1.7,0.9c-0.7,0.5-1.3,1.1-1.5,2
	c-0.2,0.7-0.1,1.4,0.2,2.1c0.6,1.4,2.3,2.4,3.9,1.9c0.6-0.2,1.3-0.4,1.8-0.7c0.3-0.2,0.6-0.5,1-0.7c0.7-0.5,1.3-1.1,1.5-1.9
	C63.3,323.2,63.3,322.5,63,321.9z"/>
<path class="st3" d="M241.5,250.8c-5.6,2.6-8.7,5.6-13.4,9.6c-4.6,3.9-12.1,13.7-18.9,12.7c-2.5-0.4-3.1,0.9-0.5,2.3
	c6.3,3.5,12.1-0.9,17-4.8c6.7-5.5,13.1-8.6,18-15.7C245.3,252.5,243.5,249.8,241.5,250.8z"/>
<g>
	<g>
		<path d="M91.9,421.1c9.3,4.2,22.3,5.4,31.2-0.7c1.8-1.3,0.7-4-1.5-3.6c-4.7,0.9-9.1,2.4-14,2.5c-4.8,0.1-9.6-0.7-14.1-2
			C91.3,416.7,89.7,420.1,91.9,421.1L91.9,421.1z"/>
	</g>
</g>
<g>
	<g>
		<path d="M93.1,341.4c6.8-0.8,13.6-3.1,20.3-4.6c7.2-1.7,14.5-3.2,21.7-4.6c14.6-2.7,29.3-3.9,43.9-6.3c2.5-0.4,1.9-4.4-0.6-4.4
			c-14.5,0.1-29.5,2.9-43.7,5.6c-7.3,1.3-14.5,2.9-21.7,4.6c-6.9,1.7-14.4,3.1-20.8,6.2C90.5,338.6,91.3,341.7,93.1,341.4
			L93.1,341.4z"/>
	</g>
</g>
<g>
	<g>
		<path d="M180.7,414c4.4,3.1,11.2-1,15.3-3.1c5.7-2.9,12.2-6.9,16-12.2c1.2-1.6-1.2-4-2.8-2.8c-4.1,2.9-7.7,6.4-12,9.1
			c-2,1.2-4.1,2.4-6.3,3.4c-1.9,0.9-6.2,3.4-8.3,2.4C180.4,409.8,178.7,412.6,180.7,414L180.7,414z"/>
	</g>
</g>
<g>
	<g>
		<path d="M93.5,350.3c13.8-1.5,27.4-4.5,41-7.3c14-2.9,28.4-5.3,41.9-9.9c2.2-0.7,1.3-3.7-0.9-3.4c-13.8,2.1-27.5,6-41.2,8.8
			c-13.7,2.9-27.6,5.2-41.2,8.6C91.4,347.5,91.7,350.5,93.5,350.3L93.5,350.3z"/>
	</g>
</g>
<g>
	<g>
		<path d="M156.4,336.5c-0.5,4.5-0.4,8.5-2.4,12.7c-1.9,3.9-4.9,6.4-8,9.3c-2,1.8,0.5,4.5,2.7,3.5c8.4-3.8,14.7-17.1,11.3-26
			C159.2,334.1,156.6,334.5,156.4,336.5L156.4,336.5z"/>
	</g>
</g>
<g>
	<g>
		<path d="M153.6,354.5c0.6,2.9,0.4,6.1,1.2,9c0.5,1.8,3,1.7,3.6,0c0.9-3.2,0-6.9-1-10C156.6,351.1,153.1,352.1,153.6,354.5
			L153.6,354.5z"/>
	</g>
</g>
<g>
	<path d="M280.2,238.7c-0.7-3.7-2.8-5.8-5.5-6.9c2.3-2.5,3.2-5.7,1.1-9.4c-4.2-7.4-15.6-5.2-20.6,0.7c-1.8-3.2-4.3-5.4-8.1-5.5
		c-3.9-0.1-7.7,2.6-9.7,5.8c-1.3,2.2-1.9,4.7-2.3,7.2c-0.2,1.7-0.3,3.4-0.4,5.1c0,0.2,0,1.1,0.1,2.1c-4.4,2.4-8,6.1-12.1,8.9
		c-2.1,1.4-5,3.6-7.6,3.6c-2.8,0-3.6-2.6-4.3-4.9c-1.6-5.5-1.7-11.6-2.1-17.3c-0.7-8.7-1.4-17.5-2-26.2c-1-12.3-1.7-26.2-10.8-35.6
		c-3.9-4-9.2-6.7-14.8-7.7c-2-0.3-4.4-0.6-6.7-0.4c5.1-6.6,7.6-15.7,8.6-23.8c2-16.3,3.9-35.8-5.9-50.1
		c-8.9-12.8-23.8-15.9-37.8-9.5c-14.7,6.8-24,21.8-24.4,37.8c-0.6,0-1.2,0.1-1.8,0.3c-3.9,1.1-6.1,5.2-6.4,9
		c-0.3,4.2,1.4,8.5,4.7,11.1c1.6,1.2,3.7,2,5.9,2.1c0.4,3.6,0.5,7.3-0.6,10.7c-1.1,3.5-3.7,5.9-6.4,8.3
		c-15.5-2.1-31.5,7.8-42.5,17.7c0,0-0.1,0.1-0.1,0.1c-11,10.4-18.5,23.2-24.8,36.8c-5.2,11.4-10.7,23.3-13.3,35.6
		c-3.1,14.8-3.5,30-1.2,45c1.2,7.8,3.3,15.5,5.8,23c2.4,7.1,5,14.9,9,21.3c-2.8,8.6-2.9,34.9,11.5,30.6c0.2-0.1,0.4-0.2,0.6-0.3
		c2.1,0.5,4.7,0.3,6.3-0.4c3.7-1.6,5.6-5.2,6.1-8.9c5.7,0.7,10.7-7,10.5-12.3c-0.4-8.7-8.7-16.8-15.7-21.4c0-0.2,0-0.5-0.1-0.8
		c-4.7-13.3-9.1-27.3-10.3-41.3c-1.1-12-0.7-26.1,4.3-37.2c4.4-9.8,10.4-18.9,16.8-27.5c4.4-5.8,9.1-11.4,14.3-16.5
		c2-2,4.3-3.7,6.5-5.4c-7.6,21-9.5,43.5-9.9,65.7c-0.2,10.1-0.9,20.3-0.8,30.4c0.2,19.9,3.7,39.6,6,59.3c0,0,0,0.1,0,0.1
		c1.5,13.5,2.6,27.2,2,40.8c0,0.3,0,0.5,0.1,0.7c-1.3,20.3-2.4,40.5-3.5,60.8c-0.7,12.1-1.1,24.1-1.7,36.2
		c-0.7,13.2-2,26.3-1.8,39.5c0,0,0,0.1,0,0.1c0.3,4.9,0.6,9.9,1.2,14.8c0.6,4.8,1.8,9.4,3.1,14c0.7,2.6,1.6,5.3,3.3,7.5
		c2,2.6,5.5,5.1,8.9,4.4c2-0.5,3.8-2.6,4.5-4.9c1.6,0.6,3.4,0.6,5.1-0.3c1.9-1,3-2.9,3.2-5c0.1-0.6,0.1-1.3,0-1.9
		c3.9-1,6.9-4.7,5.7-8.8c-1-3.3-4.5-5.4-5.4-8.7c-0.6-2-0.1-4.7,0.1-6.8c0.2-2.3,0.5-4.6,0.8-6.9c0.9-6.4,1.7-12.7,2.6-19.1
		c0.8-6.1,2-12.2,2.2-18.3c0.2-5.1,0.4-10.2,0.7-15.2c0.1-1.5,0.1-3.1,0.2-4.6c0.8-12.8,1.4-25.7,2.3-38.5c0.8-10.9,1.8-23.1,8-32.5
		c6.1-9.2,16.5-16.3,27.8-15.2c0.1,0.2,0.2,0.3,0.4,0.5c11,11.8,17.7,26.5,20.7,42.3c3.3,17.2,0.6,33.8-2.7,50.8
		c-1.6,8.1-3.1,16.2-3.6,24.4c-0.4,6.2,0,12.3-0.5,18.5c-0.8,8.3-1.1,18.7,9.3,20.5c3.3,0.6,6.7,0.1,10.1-0.1
		c4.9-0.2,9.9-0.3,14.8-0.3c4.6,0,9.2,0,13.8,0c4.9,0,11.1,0.7,15.8-0.5c4.8-1.3,4.1-7.6,1.9-10.9c-3.8-5.6-10-5.8-16-6.6
		c-4-0.5-8.9-1-12.3-3.3c-4-2.7-6.1-7.8-6.5-12.5c-1-9.4,2.7-19.4,4.9-28.4c4.4-17.4,8.9-34.9,9.6-52.9c0.7-17.8-3-35.8-12.1-51.2
		c-10.1-17.1-21.3-33.1-27-52.4c-5.2-18.2-7.1-37-6.2-55.9c0.6-12.9,2.6-25.6,5.1-38.2c0.6,6.8,2.2,13.6,4.6,19.6
		c3.7,9.4,7.9,19.1,14.5,26.8c6.1,7.2,14.1,10.7,23.3,7.4c9.5-3.5,17.5-11.2,23.6-19.2c0.9,0.6,2,1.1,3.3,1.4c3,0.8,5.2,0.3,6.9-0.9
		c0.2,0.4,0.5,0.8,0.9,1.1c5.7,4.2,13.2-0.1,17.7-4.1c2-1.8,3.7-4.5,2.6-7.2c-0.1-0.2-0.2-0.4-0.2-0.5
		C278.8,245.9,281,242.9,280.2,238.7z M178.8,104.8c0.1,1.2,0.2,2.5,0.3,3.7c-1.4-1.1-3.1-1.5-5.2-1.1c0.5-0.7,1-1.3,1.5-1.9
		c0.8-1,2-1.8,3.1-2.7C178.6,103.5,178.7,104.1,178.8,104.8z M176.8,122.1c-1.3,1.5-3.3,2.9-5.3,2.2c-0.1-2.2,0.5-5.2,0.5-7.8
		c0.2-1.4,0.7-2.7,2.1-3.5c2.2-1.3,3,1.2,3.5,3.1C178.3,118.2,178.4,120.3,176.8,122.1z M253.6,251.5c-1.6,4.2-6.4,3.9-8.4,0.1
		c-1.9-3.7,0.3-8.3,2-11.6c1.4-2.6-2.3-4.7-3.9-2.3c-3.2,4.7-4.8,11.7-2.3,16.6c-5.4,7.4-12.8,14.9-21.5,18.2
		c-9.7,3.7-16.6-2.7-21.7-10.4c-4.7-7.1-8.4-15.2-11.2-23.3c-4-11.3-3.1-22.5-3.4-34.2c0-1.7-4.1-0.4-4.3,0.2
		c-12.5,36-14.8,77.2-4.3,114c4.6,15.3,12.2,29,20.6,42.4c4.5,7.2,9.2,14.2,12.4,22.1c3.1,7.7,4.9,15.8,5.7,24
		c1.6,17.4-1.7,34.7-5.7,51.6c-2,8.5-4.3,17-6.3,25.6c-1.8,7.5-3.5,15.6-1.2,23.2c1.8,6.2,6.2,11.6,12.4,13.6
		c3.9,1.3,25.7,2.1,23.2,9.4c-8.7,0.5-17.4,0.5-26,0.5c-4.3,0-8.6,0-12.9,0.1c-4.1,0.1-8.4,0.9-12.4,0.4
		c-10.3-1.2-5.2-16.8-5.3-23.7c-0.2-16.5,3.6-32.1,6.2-48.3c2.3-14.2,2.3-28.4-0.9-42.4c-3.5-15-10.4-29.6-21.5-40.4
		c-0.3-0.3-0.7-0.5-1.1-0.6c-0.3-0.5-0.7-1-1.4-1.2c-10.2-2.5-20.7,3.6-27.7,10.6c-8.2,8.2-11.5,19-13,30.3
		c-1.8,13.6-2,27.5-2.8,41.2c-0.4,7.8-0.9,15.6-1.3,23.5c-0.1,1.4-0.2,2.9-0.3,4.3c-0.6,3.9-0.6,7.1-1,10.6
		c-0.5,3.2-1.1,5.8-1.7,9.9c-0.8,3.5-1.2,7-1.5,10.7c-0.3,4.6-0.9,9.1-1.5,13.6c-0.2,1.9-0.2,3.9,0,5.8c0.1,1,0.3,1.9,0.6,2.8
		c0.2,0.5,0.3,0.9,0.5,1.3c0.1,0.3,0.7,1,0.7,1.3c0.6,1.2,1.3,2.4,2,3.5c0.6,0.9,1.9,2.3,1.8,3.5c-0.2,1.7-2.7,2.6-4.1,2.6
		c-0.6,0-1,0.2-1.3,0.4c-0.5,0.3-0.8,0.7-0.9,1.2c-0.2,1.2,1.1,4.7-1.1,4.8c-0.6,0-1.4-0.3-1.6-0.9c-0.6-1.9-2.9-1.6-4.1-0.4
		c-1,1.1-0.9,2.3-0.9,3.7c-0.1,1-0.2,2.3-1.3,2.5c-1.5,0.3-2.8-1.5-3.7-2.9c-4.8-10.4-6.1-21.8-6.4-33.2c0,0,0-0.1,0-0.1
		c-0.2-13.2,1-26.3,1.7-39.5c0.6-12.1,1.1-24.1,1.6-36.2c1-20.6,2.2-41.1,2.7-61.7c1.4-13.6,0.3-27.1-1.2-40.6c0,0,0-0.1,0-0.1
		c-2.3-19.1-5.6-38.1-6.1-57.4c-0.3-10.2,0.5-20.6,0.6-30.8c0.3-24.3,2.2-48.8,11.1-71.7c0.6-0.5,1.2-1,1.7-1.5
		c1.8-1.7-0.1-5-2.5-4.3c-5.5,1.7-10.5,6.6-14.6,10.5c-5.2,4.9-9.9,10.3-14.2,16c-7.5,9.7-14.2,20-19.2,31.2
		c-5.1,11.5-5.6,26.1-4.5,38.4c1.4,15.2,6.3,29.2,11.9,43.2c0,0.1,0.1,0.2,0.1,0.2c-0.4,0.8-0.4,1.7,0.4,2.4
		c4.1,3.9,8.9,7.8,11.8,12.8c1.5,2.6,2.6,5.4,1.7,8.3c-1.3,4.3-4.3,3.7-7.8,4.6c-1.3,0.4-1.7,1.7-1.2,2.8c-0.9,2.1-2,5-4,6.1
		c-1.3,0.7-2.5,0.3-3.6-0.1c0,0,0,0,0-0.1c-0.6-1.5-2.7-2.1-3.6-0.5c-0.3,0.6-0.5,0.9-0.6,1.3c-6.6-0.9-4.5-22.2-4.6-25.8
		c0-0.5-0.2-0.9-0.5-1.3c-1.9-7.2-5.3-14.1-7.6-21.3c-2.2-6.8-3.9-13.6-5.1-20.6c-2.6-15-2.2-30.5,1.1-45.4
		c2.6-11.5,7.7-22.7,12.6-33.3c6.1-13.2,13.2-25.5,24-35.6c0,0,0,0,0.1-0.1c5.4-4.8,11.3-9,17.9-12c6.6-3,13.5-3.8,20.5-5.4
		c0.5-0.1,0.8-0.4,1.1-0.7c0.1,0,0.2-0.1,0.4-0.2c9.1-5.6,10.7-14,10.1-23.8c0.3-0.2,0.7-0.5,1-0.9c1.4-1.5,0-3.7-1.9-3.3
		c-0.4,0.1-2.1,0.3-2.6,0.4c-1.2,0.1-2.4,0-3.7-0.9c-1.8-1.2-2.9-3.4-3.1-5.6c-0.2-1.9,0.3-4.5,2.1-5.5c1.9-1.1,3.3,0.1,4.5,1.4
		c1.7,1.9,4.3-0.2,3.9-2.3c-0.3-1.5-1.2-2.6-2.4-3.4c0,0,0,0,0-0.1c0.1-15.9,9.9-31,25.4-36c16.3-5.2,28,5.6,32.3,19.8
		c-2.4,0.8-4.5,3.3-6,5.1c-2.1,2.6-3.2,5.8-4.1,9c-1,3.4-1.3,6.9-1.1,10.5c0.3,3.5,0.5,7.1-0.2,10.5c-0.4,1.9-1.8,7.9-5.2,6.3
		c-2.4-1.2-3.3-3.8-3.5-6.3c-0.1-2.2-2.9-2.4-3.6-0.5c-0.7,2-0.7,3.9-0.1,5.7c-1.1,0.4-2.3,0.9-3.2,1.3c-2.6,1.2-5.5,2.6-7,5.1
		c-0.9,1.5,0.6,3.3,2.2,2.9c2.3-0.6,4.3-2.1,6.5-2.9c1.7-0.7,3.7-0.8,5.4-1.5c2.9,1.9,6.9,2.2,9.8-0.6c0.5,0.2,0.9,0.3,1.3,0.6
		c0.9,0.6,1.6,1.3,2.5,1.8c1.7,1,4.2-0.7,3.5-2.7c-0.6-1.7-1.7-2.9-3.3-3.7c-0.4-0.2-0.7-0.4-1.1-0.5c1-2.5,1.4-5.3,1.5-8.1
		c2.2,0.5,4.8-0.5,6.8-2c-0.1,1.5-0.3,3.1-0.5,4.6c-0.9,8.3-2.5,17.4-8.3,23.9c-6.1,6.7-15.5,9.2-22.9,3.2
		c-5.5-4.5-8.6-11.7-11.7-17.9c-1.1-2.3-5-0.7-4.1,1.7c4.3,12.1,12.9,26.9,27.9,24.8c4-0.6,7.4-2,10.3-4.1c2.5,0.5,5.2-0.3,7.7-0.2
		c3.6,0.2,7.1,1.1,10.3,2.8c6.9,3.8,10.5,10.8,12.2,18.2c1.7,7.4,2,15,2.6,22.6c0.6,8.4,1.3,16.8,2,25.2c0.5,6.9,0.3,21,8.9,23.2
		c8.2,2.1,17.5-7.3,23.8-12.4c0,0,0.1,0,0.1,0c4.3-2,2.4-9.2,3.3-13.1c0.8-3.2,3.6-8.2,7.7-7.2c3.7,0.9,4.7,7,5.4,10.1
		C254.4,237.9,255.7,246.1,253.6,251.5z M271.6,225c1.1,2.9-1.1,4.9-4.1,6.2c-1.9,0.3-3.8,1-5.5,1.9c-1.3,0.3-2.5,0.6-3.5,0.9
		c-0.3-2.4-0.8-4.9-1.6-7.2C261.5,224.5,269.3,218.7,271.6,225z M270.7,251.1c-0.7,1.2-2.8,2.2-3.8,2.9c-2.7,1.7-6,3.3-8.9,1.2
		c-0.2-0.2-0.4-0.3-0.7-0.3c0.7-1.5,1.1-3.2,1.5-5c3.4,0.7,8.1,0.7,12.2-0.4C271.1,250,271.1,250.5,270.7,251.1z M267.3,245.1
		c-2.7,0.5-5.4,0.4-8.2,0.1c0.1-1.4,0-2.7,0-3.9c0-0.5-0.1-1.1-0.1-1.7c1.2-0.4,2.3-1,3.4-1.6c2.3-0.5,4.7-1.3,6.9-2.4
		c2.9,0,6.2,1,6.1,4.4C275.4,243.3,269.7,244.7,267.3,245.1z"/>
	<path d="M138.8,106.1c2.6,0,5.9,2.5,7.6,4.2c0.1,0.1,0.1,0.1,0.2,0.2c-0.3-0.4-2.4,0.6-2.7,0.8c-0.9,0.5-1.6,1.1-2.3,1.8
		c-1.8,1.7-3.5,4-3.9,6.5c-0.3,2-0.1,4.1,0.9,5.8c2.6,4.8,9.2,5.7,13.4,2.5c5.7-4.3,5.2-13.7,0.9-18.8c-1.5-1.8-3.3-3.3-5.3-4.6
		c-2.6-1.7-8-4.5-10.3-1.2C136.3,104.4,137.4,106.1,138.8,106.1z M150.1,116c2.2,2,0.7,6.4-1.3,7.9c-2.1,1.7-5.5,1.3-6.7-1.3
		c-0.9-2.2-0.1-3.9,1.1-5.5C145.4,115,148,114.2,150.1,116z"/>
	<path d="M174.6,116.4c-1,0-2,0.9-2,2c0,1.1,0.9,2,2,2c1,0,2-0.9,2-2C176.5,117.3,175.7,116.4,174.6,116.4z"/>
	<path d="M147.1,118.2c-1,0-2,0.9-2,2c0,1.1,0.9,2,2,2c1,0,2-0.9,2-2C149,119.1,148.2,118.2,147.1,118.2z"/>
	<path d="M153.1,152.3c1.7,1,3.2,0.1,4.9-0.2c1.5-0.3,2.7-0.1,3.9,0.8c1.3,0.9,3.1,0.2,3.9-1c0.9-1.4,0.2-3-1-3.9
		c-1.8-1.4-4.2-1.6-6.4-1.3c-2.3,0.3-5.3,1.1-6.1,3.5C152,150.9,152.4,151.9,153.1,152.3z"/>
	<path d="M158.5,233.2c-2.1-1.7-5.2-2.3-7.6-3.3c-2-0.9-3.8-2.8-5.6-3.9c1.6-5.5,0.9-11,1.4-16.6c0.5-5.8,2.7-12.4,1.7-18.1
		c-0.3-1.6-2.6-1.7-3.3-0.4c-2.9,4.7-2.8,12.2-3.2,17.6c-0.5,5.3-0.7,11.5-1.1,17.1c0,0-4.4,3.8-7.4,5.3c-3.2,1.6-6.8,1.9-9.9,3.6
		c-1.3,0.7-0.9,2.5,0.4,3c3.8,1.3,8.1-0.3,11.6-1.9c2.2-1,5.2-2.6,7.1-4.6c1.6,1.4,3.7,2.3,5.5,3.2c2.4,1.2,6.1,3.4,8.9,3.2
		C158.7,237.2,160.3,234.6,158.5,233.2z"/>
	<path d="M143.4,247.7c-2,0.1-3.3,1.7-4.8,2.7c-1.6,1.1-3.3,1.9-4.8,3.2c-1.2,1-0.2,3.3,1.3,3.2c2.2-0.1,4.3-1.2,6.1-2.4
		c1.8-1.2,3.8-2.6,4-4.9C145.2,248.6,144.3,247.7,143.4,247.7z"/>
	<path d="M134,277.6C134,277.6,134.1,277.5,134,277.6C134,277.6,134,277.6,134,277.6z"/>
	<path d="M139.6,275.9c-0.4-0.8-1.3-1-2-0.8c-0.3,0-0.6,0.2-0.8,0.3c-0.4,0.3-0.6,0.4-0.4,0.3c0.2-0.2,0.1-0.1-0.4,0.3
		c-0.1,0.1-0.2,0.3-0.4,0.4c0,0-0.2,0.2-0.3,0.3c-0.1,0.1-0.3,0.2-0.3,0.2c-0.2,0.1-0.4,0.2-0.5,0.3c-0.1,0.1-0.4,0.3-0.5,0.4
		c-0.1,0-0.1,0.1-0.2,0.1c-1.3,0.5-1.4,2.7,0.1,3c0.1,0,0.1,0,0.2,0c1.2,0.6,2.7,0.2,3.7-0.5C139.4,279.3,140.5,277.7,139.6,275.9z"
		/>
	<path d="M141.5,299.1c-0.1,0.1-0.1,0.2-0.2,0.3c-0.1,0.1-0.3,0.3-0.4,0.4c0,0,0,0-0.1,0.1c-0.1,0-0.1,0.1-0.2,0.1
		c-1.7,0.9-0.9,3.7,1,3.7c1.1,0,2.1-0.4,2.9-1.1c0.4-0.5,0.7-1,1-1.6c0.2-0.6,0.2-1.2,0.1-1.8c-0.1-0.8-1-1.4-1.8-1.5
		c-0.9-0.1-1.6,0.3-2.1,1C141.7,298.7,141.4,299.5,141.5,299.1C141.7,298.8,141.6,299,141.5,299.1z"/>
	<path d="M196,449.3c0.7-1.6,0.4-3.6,0.3-5.3c-0.1-2.6-3.9-2.6-4,0c-0.1,1.7-0.4,3.7,0.3,5.3C193.2,450.6,195.5,450.6,196,449.3z"/>
	<path d="M196.5,432.4c0-0.2,0-0.3,0-0.5c0,0,0,0.1-0.1,0.1c0.1-0.4,0.1-0.7,0-1.1c0,0,0,0,0-0.1c0-0.5,0-1,0-1.6
		c0.1-1-0.9-1.9-1.8-2c-0.9-0.1-2.1,0.5-2.3,1.5c-0.1,0.7-0.2,1.5-0.1,2.2c0.1,0.9,0.2,1.6,0.7,2.4C194,435,196.4,434.4,196.5,432.4
		z"/>
	<path d="M198.9,423.4c0.1,0.7,0.5,1.2,1.1,1.6c0.5,0.4,1.4,0.4,1.9,0c0.5-0.3,0.9-0.7,1-1.3c0.1-0.4,0.1-0.9,0.1-1.3
		c0-0.6,0-1.2,0-1.7c0-1.1-1-2.2-2.1-2.1c-1.1,0.1-2.1,0.9-2.1,2.1c0,0.6,0,1.2,0,1.7C198.9,422.7,198.9,423.1,198.9,423.4z"/>
	<path d="M201.3,440.7c0,1.6-0.4,3.4,0.7,4.7c0.6,0.7,2,0.7,2.7,0c1.1-1.3,0.8-3.1,0.7-4.7c0-1.1-0.9-2.1-2-2
		C202.2,438.7,201.3,439.5,201.3,440.7z"/>
	<path d="M198.8,465.5c0.8,0.2,1.8-0.1,2.1-0.9c0.2-0.5,0.5-1,0.6-1.5c0.1-0.4,0.1-0.8,0.2-1.3c0.2-1.1-0.3-2.3-1.5-2.6
		c-1-0.2-2.4,0.3-2.6,1.5c-0.1,0.4-0.1,0.8-0.2,1.3c-0.1,0.6-0.1,1.1,0,1.6C197.5,464.5,197.9,465.3,198.8,465.5z"/>
	<path d="M190.5,467.2c0.6,0.2,1.4-0.1,1.8-0.7c0.4-0.7,0.8-1.6,0.9-2.4c0.2-0.8,0.2-1.6,0.3-2.4c0.1-0.9-0.8-1.8-1.7-1.9
		c-0.9-0.1-1.9,0.4-2.1,1.4c-0.2,0.7-0.3,1.4-0.5,2.1c-0.1,0.7,0,1.6,0.1,2.4C189.4,466.3,189.8,467,190.5,467.2z"/>
	<path d="M187.2,486.8c-0.9,0.1-1.6,0.9-1.6,1.8c0,1.8-0.6,3.9,0.8,5.4c0.9,1,2.5,0.6,3.2-0.4c1-1.6,0-3.8-0.2-5.5
		C189.1,487.3,188,486.7,187.2,486.8z"/>
	<path d="M194.1,475.8c-0.3,1.1-0.6,2.1-0.9,3.2c-0.3,1.2-0.6,2.4,0.1,3.5c0.5,0.7,1.5,1.1,2.4,0.6c1.9-1.2,1.8-4.3,2-6.3
		c0.1-1-0.2-2-1.3-2.3C195.5,474.2,194.4,474.8,194.1,475.8z"/>
	<path d="M187.3,479.9c0.8,0.3,1.8,0.1,2.2-0.7c0.3-0.5,0.5-1.1,0.8-1.6c0.4-1,0.2-2.2-0.9-2.7c-1.1-0.5-2.2,0.2-2.6,1.2
		c-0.2,0.6-0.4,1.1-0.5,1.7C186,478.7,186.5,479.6,187.3,479.9z"/>
	<path d="M195,501.2c-1,0.1-1.9,1-1.9,2.1c0.1,1.5,0,3.6,1,4.9c0.7,1,2.5,1.3,3.1,0c0.8-1.7,0.4-3.7,0.1-5.5
		C197.2,501.7,196,501.1,195,501.2z"/>
	<path d="M187,504.7c-1.2,0.1-2.3,1-2.3,2.3c0,0.7,0,1.4,0.2,2.1c0.2,0.7,0.8,1.3,1.5,1.5c0.4,0.1,0.8,0.1,1.1,0
		c0.7-0.2,1.3-0.8,1.5-1.5c0.2-0.7,0.2-1.4,0.2-2.1C189.3,505.8,188.2,504.7,187,504.7z"/>
	<path d="M103.2,438.6c0.4-0.9,0-2-0.1-2.9c-0.1-0.8-0.2-1.5-0.1-2.3c0.1-1-0.9-1.9-1.9-1.9c-1.1,0-1.8,0.9-1.9,1.9
		c-0.1,1-0.3,1.9-0.3,2.9c-0.1,1.3,0.1,2.3,0.9,3.3C100.8,440.8,102.7,439.9,103.2,438.6z"/>
	<path d="M105.2,433c0,0.8-0.1,1.5-0.1,2.3c0,0.4,0,0.8,0,1.1c0.1,0.7,0.3,1.2,0.8,1.7c0.7,0.8,2.2,0.8,2.9,0c0.5-0.5,0.7-1,0.8-1.7
		c0-0.4,0-0.8,0-1.1c0-0.8-0.1-1.5-0.1-2.3C109.3,430.3,105.4,430.3,105.2,433z"/>
	<path d="M112.9,445.5c-1-0.1-2.3,0.5-2.4,1.6c-0.1,1-0.4,2.1-0.4,3.1c0,1.1,0.8,2,1.9,2.2c1.1,0.1,2.1-0.5,2.4-1.6
		c0.3-1,0.3-2.1,0.4-3C115,446.6,113.9,445.6,112.9,445.5z"/>
	<path d="M104.5,453c-0.1-1.2-0.9-2.3-2.2-2.2c-1.1,0-2.4,1-2.2,2.2c0.1,1.5,0.1,3.5,1.2,4.7c0.8,1,2.5,0.6,3-0.4
		C104.9,456.1,104.6,454.4,104.5,453z"/>
	<path d="M109.7,466c-1.2,0.1-2.4,1-2.3,2.3c0,0.6,0,1.2,0,1.7c0,0.4,0.1,0.8,0.2,1.2c0.1,0.4,0.3,0.7,0.6,1c0.1,0.2,0.1,0.2,0,0
		c0.9,1.1,2.2,1.1,3,0c-0.1,0.2-0.1,0.1,0,0c0.3-0.3,0.5-0.6,0.6-1c0.1-0.4,0.1-0.8,0.2-1.2c0-0.6,0-1.2,0-1.7
		C112,467.1,110.9,465.9,109.7,466z"/>
	<path d="M100.4,481.1c0.6,0,1.2-0.4,1.6-0.9c0.3-0.5,0.3-1,0.2-1.6c0-0.1,0-0.2,0-0.2c0,0,0,0,0-0.1c0-0.2-0.1-0.4,0-0.6
		c0.1-0.2,0.1-0.3,0-0.1c0,0,0,0,0,0c0.5-1.2,0.2-2.4-1-3c-1.3-0.5-2.4,0.2-2.9,1.4C97.5,477.9,98,481,100.4,481.1z"/>
	<path d="M106.5,492.1c0.6,0.6,1.7,0.6,2.3,0c1.2-1.3,1-3.2,1-4.8c0-1.2-1-2.1-2.1-2.1c-1.2,0-2.1,1-2.1,2.1
		C105.5,489,105.3,490.8,106.5,492.1z"/>
	<path d="M100.3,498.8c-1.2,0.1-2.2,1-2.2,2.2c0,0.8-0.1,1.6,0.1,2.4c0.2,0.8,0.2,1.6,0.9,2.2c0.7,0.7,1.8,0.7,2.5,0
		c0.6-0.6,0.7-1.4,0.9-2.2c0.1-0.8,0.1-1.6,0.1-2.4C102.6,499.8,101.5,498.7,100.3,498.8z"/>
	<path d="M108,502.8c-1.2,0.1-2.2,0.9-2.2,2.2c0,0.5,0,1.1,0,1.6c0,0.3,0,0.5,0.1,0.8c0.2,0.6,0.3,0.7,0.2,0.4
		c0.2,0.4,0.3,0.8,0.6,1.1c0.6,0.7,1.9,0.7,2.5,0c0.3-0.4,0.5-0.7,0.6-1.1c-0.1,0.3-0.1,0.2,0.2-0.4c0.1-0.3,0.1-0.5,0.1-0.8
		c0-0.5,0-1.1,0-1.6C110.2,503.9,109.2,502.8,108,502.8z"/>
	<path d="M100.6,519.6c0,0,0-0.1,0-0.2c0,0,0-0.3-0.1-0.4c0,0,0-0.1,0-0.1c0-0.1,0.1-0.4,0.1-0.4c0.4-1-0.3-2.1-1.2-2.5
		c-0.9-0.4-2.2-0.1-2.6,0.9c-0.5,1.1-0.6,2-0.5,3.2c0.2,1.2,1,2.5,2.3,2.7c1.8,0.2,2.6-1.6,2-3C100.6,519.7,100.6,519.6,100.6,519.6
		z"/>
	<path d="M107.8,519.5c-0.4-0.5-1.1-0.7-1.8-0.6c-1.2,0.2-2.1,1.4-1.7,2.6c0.1,0.4,0.2,0.8,0.4,1.3c0.3,0.9,1.2,1.6,2.2,1.5
		c0.9-0.1,1.5-0.9,1.6-1.7c0.1-0.5-0.1-1-0.1-1.6C108.3,520.4,108.2,520,107.8,519.5z"/>
	<path d="M134.4,213.3c0.9-1.2,1-2.8,1.3-4.3c0.2-1.1-0.3-2.3-1.5-2.6c-1-0.3-2.5,0.3-2.6,1.5c-0.2,1.6-0.7,3.4-0.2,5
		C131.8,214.4,133.6,214.5,134.4,213.3z"/>
	<path d="M125.3,215.3c1-1.3,1.2-3.2,1.5-4.8c0.2-1.1-0.3-2.2-1.4-2.5c-1-0.3-2.3,0.3-2.5,1.4c-0.2,0.8-0.3,1.6-0.5,2.3
		c-0.2,0.9-0.5,1.8-0.2,2.7C122.5,215.8,124.4,216.5,125.3,215.3z"/>
	<path d="M154.5,213.9c0.8-1.5,1-3.3,1.9-4.8c1.5-2.5-2.4-4.8-3.9-2.3c-1.1,1.9-2.2,4.4-1.4,6.6
		C151.7,214.9,153.7,215.4,154.5,213.9z"/>
	<path d="M160.8,211.9c-1-0.1-2.2,0.5-2.4,1.6c-0.1,0.9-0.3,1.8-0.4,2.7c-0.1,1-0.3,1.9,0.3,2.8c0.6,1.1,2.2,1.3,3.1,0.4
		c0.8-0.7,0.8-1.7,1-2.6c0.1-0.9,0.2-1.8,0.4-2.7C162.8,212.9,161.7,212,160.8,211.9z"/>
	<path d="M170.1,218.9c-1.1-0.2-2.5,0.3-2.7,1.5c-0.1,0.6-0.2,1.1-0.3,1.7c0,0.3-0.1,0.5-0.1,0.8c-0.1,0.4-0.1,0.8,0,1.2
		c0.2,0.6,0.3,0.7,0.2,0.4c0.2,0.6,0.6,1.1,1.3,1.3c0.6,0.2,1.4,0,1.8-0.5c-0.3,0.2-0.2,0.1,0.3-0.3c0.3-0.3,0.5-0.6,0.6-1
		c0.1-0.3,0.1-0.5,0.1-0.8c0.1-0.6,0.2-1.2,0.3-1.7C171.9,220.5,171.4,219.2,170.1,218.9z"/>
	<path d="M166,232.6c-0.8,0-1.6,0.5-2.1,1.2c-0.5,0.8-0.4,2.3,0.4,2.9c0.1,0,0.1,0.1,0.2,0.1c1,0.8,2,0.8,3,0c0.1,0,0.1-0.1,0.2-0.1
		c0.7-0.6,0.8-1.8,0.5-2.6C167.8,233.2,167,232.5,166,232.6z"/>
	<path d="M112.3,235.3c-0.8,0-1.6,0.5-2.1,1.2c-0.5,0.8-0.4,2.3,0.4,2.9c0.1,0,0.1,0.1,0.2,0.1c1,0.8,2,0.8,3,0
		c0.1,0,0.1-0.1,0.2-0.1c0.7-0.6,0.8-1.8,0.5-2.6C114.2,235.9,113.3,235.2,112.3,235.3z"/>
	<path d="M107.6,219.9c0-0.3-0.1-0.6-0.1-1c0-1.1,0.8-2.1,0-3.1c-0.8-1.1-2.5-0.9-3.2,0.2c-1.1,1.7-1.2,4.1,0.3,5.6
		c0.6,0.6,1.5,0.7,2.3,0.2c0.5-0.3,0.8-0.9,0.8-1.5C107.6,220.2,107.6,220,107.6,219.9z"/>
	<path d="M115.5,212.7c-1-0.5-2.3-0.3-2.8,0.7c-0.8,1.4-1,2.9-0.7,4.4c0.2,1,1.3,1.6,2.3,1.5c0.9-0.1,1.9-1,1.8-2
		c0-0.2-0.1-0.4-0.1-0.6c0-0.1,0-0.4,0-0.5c0-0.1,0.1-0.4,0.1-0.4c0,0,0,0,0-0.1c0-0.1,0.1-0.2,0.1-0.2
		C116.8,214.6,116.5,213.2,115.5,212.7z"/>
	<path d="M115.6,192.6c-1.1-0.3-2.2,0.4-2.5,1.4c-0.4,1.3-1.3,3.1-0.9,4.5c0.4,1.5,2,1.7,3.1,0.8c0.7-0.5,0.9-1.5,1.1-2.3
		c0.2-0.7,0.4-1.3,0.6-2C117.4,194,116.6,192.8,115.6,192.6z"/>
	<path d="M128,198.3c1.2,0.1,2-1,2.3-2c0.3-0.8,0.2-1.6,0.1-2.3c-0.2-1-1.4-1.7-2.4-1.4c-1,0.3-1.7,1.4-1.4,2.4c0,0,0,0,0,0.1
		c0,0,0,0,0,0.1c0,0.1,0,0.1-0.1,0.2c0,0,0,0,0,0c0,0,0,0-0.1,0.1c-0.3,0.5-0.3,1-0.2,1.6C126.5,197.8,127.2,198.2,128,198.3z"/>
	<path d="M159.6,194.9c0.2-0.9,0.1-1.9,0-2.9c-0.1-1.1-0.9-2.2-2.1-2.1c-1.2,0.1-2,0.9-2.1,2.1c-0.1,1-0.2,1.9,0,2.9
		C155.9,196.9,159.1,196.9,159.6,194.9z"/>
	<path d="M170.4,193.4c-0.3,1.8-1.1,4.2,0.3,5.7c0.5,0.5,1.4,0.6,2,0.3c1.7-1.1,1.6-3.6,1.7-5.4
		C174.7,191.7,170.8,191.1,170.4,193.4z"/>
	<path d="M149,308.1c-2.9-0.4-6,1.3-8.5,2.8c-2.2,1.3-0.3,4.3,2,3.3c1.1-0.5,2.3-0.9,3.5-1.3c1.2-0.4,2.5-0.6,3.5-1.3
		C150.7,310.8,150.8,308.3,149,308.1z"/>
</g>
</svg>
