<?xml version="1.0" encoding="utf-8"?>
<!-- Generator: Adobe Illustrator 23.0.1, SVG Export Plug-In . SVG Version: 6.00 Build 0)  -->
<svg version="1.1" id="Warstwa_1" xmlns="http://www.w3.org/2000/svg" xmlns:xlink="http://www.w3.org/1999/xlink" x="0px" y="0px"
	 viewBox="0 0 272 340" style="enable-background:new 0 0 272 340;" xml:space="preserve">
<style type="text/css">
	.st0{fill:url(#SVGID_1_);}
	.st1{fill:url(#SVGID_2_);}
	.st2{fill:url(#SVGID_3_);}
</style>
<g>
	<linearGradient id="SVGID_1_" gradientUnits="userSpaceOnUse" x1="300.6332" y1="327.9744" x2="-4.9818" y2="51.6205">
		<stop  offset="0" style="stop-color:#D2207F"/>
		<stop  offset="0.1133" style="stop-color:#C52280"/>
		<stop  offset="0.3233" style="stop-color:#A32682"/>
		<stop  offset="0.6043" style="stop-color:#6B2D87"/>
		<stop  offset="0.8791" style="stop-color:#2F358B"/>
	</linearGradient>
	<path class="st0" d="M157.4,164.5l-9.2-12.2c-4.2,4.2-12.2,3.9-12.2,3.9s-8,0.4-12.2-3.9l-9.2,12.2c0,0,4.8,7.8,5.6,8.6
		c0.7,17.5-0.1,29.4-0.1,29.4h14.4V185h1.5h1.5v17.6h14.4c0,0-0.8-12-0.1-29.4C152.9,172,157.4,164.5,157.4,164.5z"/>
	<linearGradient id="SVGID_2_" gradientUnits="userSpaceOnUse" x1="323.0974" y1="305.4941" x2="14.9921" y2="26.8882">
		<stop  offset="0" style="stop-color:#D2207F"/>
		<stop  offset="0.1133" style="stop-color:#C52280"/>
		<stop  offset="0.3233" style="stop-color:#A32682"/>
		<stop  offset="0.6043" style="stop-color:#6B2D87"/>
		<stop  offset="0.8791" style="stop-color:#2F358B"/>
	</linearGradient>
	<circle class="st1" cx="136" cy="136.3" r="13.9"/>
	<linearGradient id="SVGID_3_" gradientUnits="userSpaceOnUse" x1="284.508" y1="348.1695" x2="-23.5974" y2="69.5636">
		<stop  offset="0" style="stop-color:#D2207F"/>
		<stop  offset="0.1133" style="stop-color:#C52280"/>
		<stop  offset="0.3233" style="stop-color:#A32682"/>
		<stop  offset="0.6043" style="stop-color:#6B2D87"/>
		<stop  offset="0.8791" style="stop-color:#2F358B"/>
	</linearGradient>
	<path class="st2" d="M149.8,210.1c0.1-0.4,0.1-0.8,0.1-1.3c0-3-2.5-5.5-5.5-5.5c-3,0-5.5,2.5-5.5,5.5c0,0.4,0.1,0.9,0.1,1.3H136
		h-3.1c0.1-0.4,0.1-0.8,0.1-1.3c0-3-2.5-5.5-5.5-5.5c-3,0-5.5,2.5-5.5,5.5c0,0.4,0.1,0.9,0.1,1.3h-12.3v7.5H136h26.1v-7.5H149.8z"/>
</g>
</svg>
