<?xml version="1.0" encoding="utf-8"?>
<!-- Generator: Adobe Illustrator 23.0.1, SVG Export Plug-In . SVG Version: 6.00 Build 0)  -->
<svg version="1.1" id="Warstwa_1" xmlns="http://www.w3.org/2000/svg" xmlns:xlink="http://www.w3.org/1999/xlink" x="0px" y="0px"
	 viewBox="0 0 800 800" style="enable-background:new 0 0 800 800;" xml:space="preserve">
<style type="text/css">
	.st0{fill:none;stroke:#000000;stroke-miterlimit:10;}
	.st1{font-family:'MyriadPro-Regular';}
	.st2{font-size:53.283px;}
	.st3{fill:#020202;}
	.st4{fill:none;stroke:#000000;stroke-width:6;stroke-miterlimit:10;}
</style>
<g>
	<rect x="-0.5" y="-0.5" class="st0" width="800" height="800"/>
	<line class="st0" x1="-0.5" y1="726.8" x2="799.5" y2="726.8"/>
	<line class="st0" x1="-0.5" y1="654" x2="799.5" y2="654"/>
	<line class="st0" x1="-0.5" y1="581.3" x2="799.5" y2="581.3"/>
	<line class="st0" x1="-0.5" y1="508.6" x2="799.5" y2="508.6"/>
	<line class="st0" x1="-0.5" y1="435.9" x2="799.5" y2="435.9"/>
	<line class="st0" x1="-0.5" y1="363.1" x2="799.5" y2="363.1"/>
	<line class="st0" x1="-0.5" y1="290.4" x2="799.5" y2="290.4"/>
	<line class="st0" x1="-0.5" y1="217.7" x2="799.5" y2="217.7"/>
	<line class="st0" x1="-0.5" y1="145" x2="799.5" y2="145"/>
	<line class="st0" x1="-0.5" y1="72.2" x2="799.5" y2="72.2"/>
	<line class="st0" x1="726.8" y1="-0.5" x2="726.8" y2="799.5"/>
	<line class="st0" x1="654" y1="-0.5" x2="654" y2="799.5"/>
	<line class="st0" x1="581.3" y1="-0.5" x2="581.3" y2="799.5"/>
	<line class="st0" x1="508.6" y1="-0.5" x2="508.6" y2="799.5"/>
	<line class="st0" x1="435.9" y1="-0.5" x2="435.9" y2="799.5"/>
	<line class="st0" x1="363.1" y1="-0.5" x2="363.1" y2="799.5"/>
	<line class="st0" x1="290.4" y1="-0.5" x2="290.4" y2="799.5"/>
	<line class="st0" x1="217.7" y1="-0.5" x2="217.7" y2="799.5"/>
	<line class="st0" x1="145" y1="-0.5" x2="145" y2="799.5"/>
	<line class="st0" x1="72.2" y1="-0.5" x2="72.2" y2="799.5"/>
</g>
<text transform="matrix(1 0 0 1 90.3672 52.1152)" class="st1 st2">A</text>
<text transform="matrix(1 0 0 1 18.3672 127.1152)" class="st1 st2">1</text>
<text transform="matrix(1 0 0 1 18.3672 199.1152)" class="st1 st2">2</text>
<text transform="matrix(1 0 0 1 18.3672 272.1152)" class="st1 st2">3</text>
<text transform="matrix(1 0 0 1 18.3672 345.1152)" class="st1 st2">4</text>
<text transform="matrix(1 0 0 1 18.3672 417.1152)" class="st1 st2">5</text>
<text transform="matrix(1 0 0 1 18.3672 490.1152)" class="st1 st2">6</text>
<text transform="matrix(1 0 0 1 18.3672 561.1152)" class="st1 st2">7</text>
<text transform="matrix(1 0 0 1 18.3672 635.1152)" class="st1 st2">8</text>
<text transform="matrix(1 0 0 1 18.3672 706.1152)" class="st1 st2">9</text>
<text transform="matrix(1 0 0 1 10.3672 781.1152)" class="st1 st2">10</text>
<text transform="matrix(1 0 0 1 165.3672 52.1152)" class="st1 st2">B</text>
<text transform="matrix(1 0 0 1 239.3672 52.1152)" class="st1 st2">C</text>
<text transform="matrix(1 0 0 1 312.3672 52.1152)" class="st1 st2">D</text>
<text transform="matrix(1 0 0 1 387.3672 52.1152)" class="st1 st2">E</text>
<text transform="matrix(1 0 0 1 459.3672 52.1152)" class="st1 st2">F</text>
<text transform="matrix(1 0 0 1 532.3672 52.1152)" class="st1 st2">G</text>
<text transform="matrix(1 0 0 1 604.3672 52.1152)" class="st1 st2">H</text>
<text transform="matrix(1 0 0 1 683.3672 52.1152)" class="st1 st2">I</text>
<text transform="matrix(1 0 0 1 749.3672 52.1152)" class="st1 st2">J</text>
<circle id="1" name="D1" class="st3" cx="326.5" cy="108.5" r="36.5"/>
<circle id="2" name="E3" class="st3" cx="399" cy="254" r="36"/>
<circle id="3" name="I1" class="st3" cx="690.5" cy="108.5" r="36.5"/>
<circle id="4" name="I2" class="st3" cx="690.5" cy="181.5" r="36.5"/>
<circle id="5" name="I3" class="st3" cx="691" cy="254" r="36"/>
<circle id="6" name="I4" class="st3" cx="691" cy="327" r="36"/>
<circle id="7" name="E4" class="st3" cx="400" cy="327" r="36"/>
<circle id="8" name="E5" class="st3" cx="400" cy="400" r="36"/>
<circle id="9" name="G7" class="st3" cx="545" cy="545" r="36"/>
<circle id="10" name="H7" class="st3" cx="618" cy="545" r="36"/>
<circle id="11" name="C1" class="st3" cx="254.5" cy="108.5" r="36.5"/>
<circle id="12" name="B9" class="st3" cx="181.5" cy="690.5" r="36.5"/>
<circle id="13" name="C9" class="st3" cx="254.5" cy="690.5" r="36.5"/>
<circle id="14" name="D9" class="st3" cx="327" cy="691" r="36"/>
<circle id="15" name="E9" class="st3" cx="400" cy="691" r="36"/>
<circle id="16" name="F9" class="st3" cx="473" cy="691" r="36"/>
<circle id="17" name="B4" class="st3" cx="181" cy="327" r="36"/>
<circle id="18" name="B5" class="st3" cx="181" cy="400" r="36"/>
<circle id="19" name="B6" class="st3" cx="181.5" cy="472.5" r="36.5"/>
<circle id="20" name="B7" class="st3" cx="181" cy="545" r="36"/>
<line class="st4" x1="72" y1="-1" x2="72" y2="799"/>
<line class="st4" x1="0" y1="69" x2="800" y2="69"/>
</svg>
